<?xml version="1.0" encoding="UTF-8" standalone="no"?>
<!-- Created with Inkscape (http://www.inkscape.org/) -->

<svg
   xmlns:dc="http://purl.org/dc/elements/1.1/"
   xmlns:cc="http://creativecommons.org/ns#"
   xmlns:rdf="http://www.w3.org/1999/02/22-rdf-syntax-ns#"
   xmlns:svg="http://www.w3.org/2000/svg"
   xmlns="http://www.w3.org/2000/svg"
   xmlns:sodipodi="http://sodipodi.sourceforge.net/DTD/sodipodi-0.dtd"
   xmlns:inkscape="http://www.inkscape.org/namespaces/inkscape"
   width="297mm"
   height="210mm"
   viewBox="0 0 1052.3622 744.09448"
   id="svg2"
   version="1.1"
   inkscape:version="0.92.3 (2405546, 2018-03-11)"
   sodipodi:docname="map_Takesako.svg">
  <defs
     id="defs4" />
  <sodipodi:namedview
     id="base"
     pagecolor="#ffffff"
     bordercolor="#666666"
     borderopacity="1.0"
     inkscape:pageopacity="0.0"
     inkscape:pageshadow="2"
     inkscape:zoom="0.77714953"
     inkscape:cx="515.71655"
     inkscape:cy="478.70731"
     inkscape:document-units="px"
     inkscape:current-layer="layer1"
     showgrid="false"
     inkscape:window-width="1366"
     inkscape:window-height="703"
     inkscape:window-x="0"
     inkscape:window-y="0"
     inkscape:window-maximized="1" />
  <metadata
     id="metadata7">
    <rdf:RDF>
      <cc:Work
         rdf:about="">
        <dc:format>image/svg+xml</dc:format>
        <dc:type
           rdf:resource="http://purl.org/dc/dcmitype/StillImage" />
        <dc:title />
      </cc:Work>
    </rdf:RDF>
  </metadata>
  <g
     inkscape:label="Layer 1"
     inkscape:groupmode="layer"
     id="layer1"
     transform="translate(0,-308.26772)">
    <rect
       style="color:#000000;clip-rule:nonzero;display:inline;overflow:visible;visibility:visible;opacity:0.87000002;isolation:auto;mix-blend-mode:normal;color-interpolation:sRGB;color-interpolation-filters:linearRGB;solid-color:#000000;solid-opacity:1;fill:#6c5d53;fill-opacity:1;fill-rule:nonzero;stroke:none;stroke-width:0.1;stroke-linecap:butt;stroke-linejoin:miter;stroke-miterlimit:0;stroke-dasharray:none;stroke-dashoffset:0;stroke-opacity:1;color-rendering:auto;image-rendering:auto;shape-rendering:auto;text-rendering:auto;enable-background:accumulate"
       id="rect4232"
       width="904.88745"
       height="670.69055"
       x="35.083271"
       y="346.32132" />
    <path
       style="fill:#6c5353;fill-rule:evenodd;stroke:#000000;stroke-width:0.9375px;stroke-linecap:butt;stroke-linejoin:miter;stroke-opacity:1"
       d="m 343.77136,418.97878 c -2.49082,4.69591 -14.45685,0.35703 -16.08215,6.27136 -1.35831,5.18476 -13.8975,10.84848 -11.48254,8.83118 -4.51407,3.44357 -8.35087,12.08644 -17.66602,7.95044 -6.14012,4.37 -9.27053,6.18319 -15.89904,1.76697 -10.58439,-5.0583 -21.05624,-7.41866 -22.0807,5.29907 -1.62901,7.81832 -5.86123,11.11671 -10.59997,15.01465 -2.63767,3.56423 -2.80692,9.70945 -10.59815,10.59998 -1.80149,8.94088 -6.45599,2.20501 -10.59997,0 -9.42893,-1.18552 -13.29736,3.18945 -21.19813,3.53209 -5.68096,2.27026 -9.90304,7.6517 -12.36511,14.13208 -5.3726,4.09895 -6.00379,15.73984 -7.9486,21.19813 -2.03709,7.03094 4.59682,19.272 -2.64954,23.84765 -8.8649,8.4866 1.88675,11.33861 -7.06604,13.24951 -8.91663,1.24126 -10.4403,16.23202 0.88257,15.01648 -3.52379,3.67241 -14.23833,4.3258 -7.06604,12.36511 -5.86035,4.04023 -1.0466,17.33978 -9.71558,17.66419 -4.52499,-3.94876 -13.65631,-4.6182 -15.89905,2.64953 0.73001,12.56055 -8.60004,2.56954 -14.13207,5.30091 -6.13169,2.19089 -10.30479,13.98863 -5.29908,20.31372 3.31246,4.34258 5.26871,10.04135 10.59815,12.36694 1.38566,6.85775 7.23722,9.2496 9.71557,15.01465 3.87754,6.00523 2.0694,13.32105 5.30091,21.19813 3.44697,8.01733 -5.48945,17.4357 2.64953,24.73205 2.75106,7.63713 -2.12234,15.79129 -1.76697,23.84766 -9.45258,1.60468 -9.04163,13.13667 -17.66418,15.01464 -5.76229,3.07073 -13.88909,3.77694 -16.78345,9.71558 -2.528,8.10048 -3.72253,-5.28779 -8.27819,-6.23291 -1.13619,-3.18764 -11.61827,-3.86905 -13.802495,-8.78174 -9.369507,-0.0522 -12.62168,-6.2211 -18.548585,-9.71557 -10.89282,-1.94411 -16.431945,3.89568 -22.965088,3.5321 -4.787748,4.81858 -19.984268,-7.30469 -19.678344,4.65721 -3.992111,16.02047 6.496706,6.28777 17.028809,8.5923 7.392408,3.44033 13.240603,4.09155 18.800455,-1.77087 6.949012,-3.99013 11.236678,9.07529 18.296712,7.06994 10.800786,-2.34918 6.657075,11.81797 14.132086,12.36511 5.7812,2.29567 14.4146,9.77189 21.19812,3.53394 2.2947,-6.90537 13.0737,-6.83349 21.19811,-7.94861 8.16296,-11.10668 10.46963,2.32664 21.19812,0 10.26986,-7.09541 15.0809,-1.05058 14.13208,11.48071 -1.34883,10.36161 3.67062,21.5307 -3.5321,25.61463 -0.75946,7.9947 6.85892,16.64243 -0.8844,21.19812 -4.40712,3.77658 -10.60849,8.52596 -7.94861,16.78162 3.82911,5.60046 10.92505,6.93887 9.71558,17.49323 0.668,8.09102 5.5801,11.1458 1.76697,18.19369 -2.72948,6.51596 0.53807,8.85139 3.5321,13.77719 5.19574,2.75347 2.53339,13.36504 8.83301,15.01464 1.9949,6.83751 1.01449,16.65031 4.41651,22.0807 3.04462,8.40192 -3.93885,18.40247 0,27.38159 8.60253,-0.0444 0.61855,30.43225 7.9486,14.13208 6.06501,-10.81232 -2.29619,-20.06781 1.76697,-30.03114 2.10216,-8.4671 14.16068,-8.53436 10.59998,-20.31371 4.59645,-4.86703 0.71792,-14.41224 -3.53394,-16.78345 -0.63649,-8.22849 -8.61704,-12.33097 -3.5321,-21.19812 5.38937,-11.54512 -4.60392,-13.85125 -3.53394,-23.84766 4.28799,-3.36701 6.77243,-9.29463 9.71558,-15.89904 0.62671,-7.06915 5.14598,-9.17528 8.833,-13.24768 7.02516,-4.4127 5.38687,-20.74767 19.54222,-15.02418 -5.10187,-8.531 0.86877,-18.01511 -0.99363,-29.13903 -0.95117,-4.58749 -10.73456,-12.87426 -0.8844,-15.01465 8.39417,-1.81195 12.93147,-6.39165 11.48254,-17.32046 1.66366,-6.55085 11.52227,-4.87343 11.48254,-12.71067 -6.13583,-5.6836 4.13171,-8.51534 5.20508,-12.75734 3.68642,-1.73623 3.8265,-14.41653 -0.78857,-16.39122 -2.85408,-4.7267 1.89304,-14.57164 11.48254,-12.36511 5.44474,-1.55935 10.66315,-5.17687 14.13209,-9.71557 -6.78082,-4.39675 2.59853,-10.2561 0,-15.89906 -4.10621,-3.32045 7.48196,-11.33549 2.64988,-14.1315 -2.08993,-4.07638 -6.13099,-17.99593 -0.52802,-20.31429 10.83315,-1.98979 12.70649,3.88365 18.19369,7.06604 2.15908,6.44386 6.06127,9.39509 8.83152,15.89778 -0.21744,-1.15287 -0.8362,-18.76514 -1.76548,-25.61519 -8.37201,-2.15797 -1.39033,-12.49432 4.41163,-9.46371 -2.1181,-13.46329 16.79518,-4.30384 19.43602,-10.85002 -0.75284,-10.35114 5.83123,-11.90841 10.59815,-17.66601 3.64362,-7.11243 7.92183,3.13197 13.24951,2.64953 4.58566,2.3598 7.55191,7.25612 10.59997,10.59999 5.01261,2.18648 7.79719,7.48313 10.59815,12.36511 3.29184,3.61829 6.56621,12.38037 13.24951,9.71557 7.44142,-2.40603 19.2754,0.80245 22.08068,-7.06604 6.40038,-3.02101 16.03482,-2.80796 24.73206,-3.53211 6.49043,4.5287 19.82529,2.77607 25.61463,-0.8844 3.37947,0.0279 14.53595,2.42377 19.43115,-1.76513 1.96437,-7.10103 11.5417,-5.59384 18.54859,-7.95044 3.03426,-5.80248 8.87664,-7.44566 15.01464,-11.48255 8.21901,-2.94778 11.13503,-12.34562 26.15347,-8.83117 2.35332,-6.9275 15.6612,1.49207 17.16379,-7.04773 4.28848,-6.60706 14.07132,-9.47978 24.6936,-7.08435 13.12415,-1.43703 25.57375,-1.15273 35.68511,1.76514 9.23576,-1.83367 23.7705,1.63162 29.67622,-3.53211 3.65317,-4.8617 7.07101,-11.17877 14.13208,-8.83301 8.86013,0.75597 11.6313,10.58153 23.84766,7.94861 8.01217,-2.14767 17.34506,2.83055 27.38159,0.8844 6.49759,-0.85667 20.87949,-7.87946 17.6651,-5.29907 3.45425,-1.54622 9.41084,-5.63815 13.2486,-8.83301 5.83468,-5.08818 15.27382,-11.34459 26.4972,-8.83301 5.34967,2.09613 11.01196,11.01823 17.66601,5.29908 4.58572,-4.353 8.73448,3.96094 13.24768,5.30091 3.48555,5.6417 11.08557,7.16834 15.01647,12.3651 8.06386,4.08164 17.90933,0.31155 25.61463,-1.76697 6.8581,-2.67061 11.45502,-7.32093 17.66419,-11.48253 2.75748,-3.63596 5.68923,-6.65006 7.95043,-11.48255 3.48725,-3.68844 9.45209,-9.41427 12.36512,-13.24768 2.82894,-2.2529 9.91541,-11.34313 13.24951,-4.41651 4.47632,4.8946 5.82802,10.32094 9.71557,14.13208 2.07767,9.08301 5.13392,14.72024 8.83118,23.84766 3.16612,5.73777 6.96248,9.79811 10.59998,16.78161 2.37019,9.24848 0.4471,-20.95176 1.06754,-27.35283 0,-29.74591 0,-59.49183 0,-89.23774 -7.38469,2.33999 -16.73716,2.93022 -20.4987,6.18347 -4.18872,3.81228 -15.29327,3.73098 -16.78344,-1.76697 -14.68028,-0.55669 -29.7355,-0.27058 -41.51184,5.3009 -9.58116,3.0172 -19.4571,7.25545 -27.38159,10.59815 -9.2183,0.33716 -13.7541,6.80068 -24.73023,5.29908 -6.43068,-3.35819 -14.29581,-4.32413 -18.54858,-9.71559 -8.96505,-2.22916 -14.62523,11.20089 -12.36695,9.71559 -3.18683,3.29608 -5.56633,7.82574 -9.71557,10.59997 -5.86006,5.18677 -3.89531,7.91848 -7.94861,13.24951 -3.03552,5.46968 -8.92494,9.57001 -13.24951,14.13208 -7.90482,4.27065 -22.90704,2.54005 -30.91335,-3.4e-4 -5.44226,-2.4036 -14.31379,-4.17709 -19.4315,3.4e-4 -10.48157,3.85777 -16.47383,-3.26757 -27.38159,-1.76697 -9.02323,0.55366 -17.11744,8.76954 -27.37976,4.41651 -5.09895,-3.57507 -9.29763,-8.13294 -19.43299,-7.06604 -12.32608,0.54873 -22.83653,-0.71817 -30.03113,-5.30091 -4.91675,-3.42082 -10.40587,-6.12217 -12.36511,-12.36511 -6.15491,-0.95014 -4.53337,-11.36024 -10.59814,-13.24768 -4.85367,-4.45556 -9.86542,-8.85936 -20.49767,-7.95044 -14.81749,4.31634 -11.11699,-8.93472 -23.66554,-7.06604 -4.88581,-3.72017 -16.53762,-0.24559 -18.54859,-7.06604 -3.58791,-3.8854 -9.07146,-5.76428 -8.833,-14.13208 -8.04958,-0.74069 -14.44987,2.58888 -17.66419,-2.64954 -4.26552,-1.86308 -4.40131,-15.07028 -16.78161,-11.48254 -8.238,1.59649 -11.44772,8.22125 -19.78788,9.71558 -9.74611,-0.73721 -17.46216,0.55564 -22.61019,4.4165 -8.63674,-1.85824 -19.94531,0.0742 -19.43115,-10.59814 -1.95908,-15.61976 -8.45343,-3.87335 -15.01466,-1.76697 -2.49694,6.40831 -11.59233,8.39885 -13.24951,10.59814 -1.06802,-6.10007 0.62773,-12.84595 -5.29907,-15.01465 -5.08795,-5.85456 -11.22044,-13.93839 -24.54712,-11.57043 z m 13.06458,0.97046 0.25451,-0.0513 z m 0.25451,-0.0513 0.62806,0.0513 z m 3.27759,2.70264 0.37354,-0.0183 z m 0.37354,-0.0183 0.51086,0.0183 z m 10.19897,9.7174 0.0275,0.0165 z m 0.0275,0.0165 c -1.03388,0.54176 0.97748,1.77895 0,0 z m 69.77783,10.59815 h 0.88257 z m 5.29907,0 h 0.88257 z m 30.03113,-5.29908 0.0842,0.14832 z m 0.0842,0.14832 -0.0842,0.73425 z m 286.06018,63.49915 0.0201,-0.0348 z m 0.0201,-0.0348 c 3.96933,-0.003 0.75796,-0.0447 0,0 z m 21.20911,-28.28248 0.27466,-0.0549 z m 0.27466,-0.0549 0.6079,0.0549 z m 29.75464,8.00354 h 0.8844 z m 94.50988,33.56506 h -0.30579 z m -0.30579,0 h -0.57861 z m -195.3662,44.07531 -0.32044,0.0861 z m -0.32044,0.0861 h -0.97412 z m -110.49865,2.65137 h -0.88258 z m -27.34315,7.08435 0.0128,0.23987 z m 0.0128,0.23987 -0.0494,0.62439 z m -5.98206,4.15832 h -0.13366 z m -0.13366,0 c -2.04101,0 -0.62501,0 0,0 z m -9.81629,2.62208 -0.0165,0.0275 z m -0.0165,0.0275 h -0.8844 z m -60.04577,28.23669 -0.0165,0.0275 z m -0.0165,0.0275 h -0.88257 z m -36.21277,5.29907 h -0.8844 z m -100.69886,-30.00732 -0.32959,0.0842 z m -0.32959,0.0842 -0.54748,-0.10803 z m -1.43005,-0.10803 -0.27466,0.0549 z m -0.27466,0.0549 -0.6079,-0.0549 z m -33.28857,67.07337 0.0458,0.22522 z m -7.95044,-14.13208 -0.60974,0.0549 z m -0.60974,0.0549 -0.27282,-0.0549 z m -23.23792,22.91016 0.0238,0.39367 z m 0.0238,0.39367 -0.0238,0.4889 z m 2.62573,5.78797 0.0513,0.25635 z m 0.0513,0.25635 -0.0513,0.62805 z m -68.93555,151.6333 -0.009,0.0311 z m -0.009,0.0311 h -0.88257 z m -26.47522,147.4768 c -0.39968,0.44979 0.45423,1.9358 0,0 z m 0.022,0.89721 0.0165,0.79835 z m 0.0165,0.79835 c -3.25796,0.37377 0.86423,5.10906 0,0 z m -0.90088,2.69348 c -0.33023,0.30876 0.3505,1.43922 0,0 z m 0.011,0.66101 -0.0549,0.27649 z M 181.0675,775.90261 v -0.88257 z m -84.807128,-30.88807 -0.166622,0.0439 z m -0.166622,0.0439 -0.701297,-0.0696 z m -9.534302,-0.95215 -0.130005,0.0256 z m -0.130005,0.0256 -0.754394,-0.0256 z M 72.427368,721.14126 h 0.882569 z m 30.031122,14.13208 h 0.88258 z m 47.69532,-68.01087 v -0.88439 z m 0,-3.53394 -0.0513,-0.25634 z m -0.0513,-0.25634 0.0146,-0.61523 z m -12.31384,-25.35828 -0.0549,-0.27283 z m -0.0549,-0.27283 0.0549,-0.60974 z m -12.31202,-16.50878 -0.41931,0.005 z m -0.41931,0.005 -0.46325,-0.005 z m 7.48535,-18.55408 h 0.8844 z m 29.14856,-7.06604 h 0.88257 z m 2.64954,0 0.27283,-0.0549 z m 0.27283,-0.0549 0.60974,0.0549 z m 5.92895,-37.81494 -0.0183,-0.10987 z M 303.83972,442.91433 c 0.5429,1.03591 1.78266,-0.97953 0,0 z m 22.1283,203.37707 -0.0458,0.65552 z M 198.06701,970.0292 c -1.17079,0.55185 2.83181,0.0731 0,0 z m 0.88075,0.22521 0.66833,-0.0348 z"
       id="path1035"
       inkscape:connector-curvature="0" />
    <path
       style="fill:#483737;fill-rule:evenodd;stroke:#000000;stroke-width:0.9375px;stroke-linecap:butt;stroke-linejoin:miter;stroke-opacity:1"
       d="m 920.20935,482.59329 c -9.87188,7.5736 -29.0584,0.37403 -40.73649,5.37164 -1.86529,4.12861 -13.8622,5.61209 -17.41414,8.82818 -6.16377,2.60678 -12.98819,4.39668 -17.66419,8.833 -5.27068,4.21266 -9.09216,6.95809 -15.01648,9.71559 -7.69504,-0.35211 -13.36272,-5.90069 -18.54858,-8.83301 -3.975,-2.87135 -11.98168,-6.7929 -17.66419,-2.64954 -7.13723,1.10679 -19.40803,-2.91998 -21.19812,3.53394 -5.21436,2.6332 -7.03725,10.60292 -11.97316,12.45936 -4.2006,3.32174 -6.01146,5.84946 -10.99192,7.85436 -8.48243,1.97352 -15.65268,6.2203 -24.73206,7.95044 -4.50211,-1.78769 -19.48718,-5.89725 -22.08069,-0.8844 -13.49419,2.60445 -26.01501,-0.8288 -39.7467,0 -11.67962,2.45246 -28.90132,-0.63716 -40.62927,1.76696 -2.39928,4.90451 -17.42612,6.80093 -21.19813,1.76697 -7.98948,-0.20575 -16.35687,-0.91001 -17.66601,5.29907 -5.90458,4.39999 -19.05738,1.55176 -25.61463,5.29908 -5.60088,2.34834 -9.56322,6.33522 -15.89722,7.95044 -9.73973,0.20024 -20.13751,7.43298 -29.14855,5.29907 -7.60704,-1.81434 -11.83433,-7.00844 -21.19812,-7.06604 -5.63481,-2.9984 -12.8929,-4.84225 -18.54859,-7.9486 -8.69418,0.74495 -12.4677,-3.43075 -17.66419,-6.18348 -4.96591,-2.68973 -4.8774,-10.43387 -12.36693,-10.59998 -3.29174,-3.63016 -8.64356,-5.1077 -9.71523,-10.59849 -4.57024,-2.22546 -15.379,2.02773 -12.36547,-7.82645 0.68267,-11.88169 -12.08417,-1.82249 -18.54857,-5.42271 -1.01321,-7.23021 -12.97283,-3.514 -20.31373,-4.41651 -3.17747,4.34525 -8.36072,8.88609 -15.89904,6.18348 -7.07881,0.43377 -7.72979,12.27904 -15.01648,9.71557 -7.3999,-3.78375 -9.64785,4.98568 -14.13208,7.06604 -6.94615,1.99276 -9.68276,7.81531 -16.78162,8.83301 -5.59125,5.00751 -16.31082,4.88668 -22.08069,9.71557 -2.79425,4.53146 -7.907,6.12131 -8.833,12.36512 -7.87824,3.01593 -21.54796,0.24037 -20.31556,12.36694 -7.97171,-0.73191 -4.28717,11.09005 -7.06604,15.89721 -0.1543,13.18333 -6.83352,9.45712 -15.89721,6.18348 -11.0455,-7.08139 -10.24644,11.61591 -17.66602,3.53394 -8.04074,1.34377 -3.17429,13.75005 -12.36512,15.01464 -1.13467,-1.4414 -9.43448,5.57506 -7.95044,12.3033 -1.06844,12.20106 -0.97472,25.56428 -0.88256,38.92595 2.6777,6.68187 8.16969,10.54944 7.9486,20.1301 2.5913,5.81498 3.33847,13.62426 7.06605,17.84963 2.23859,9.49754 -0.26485,23.73712 1.76697,33.44143 -1.27585,8.46034 -7.75485,11.71753 -8.83302,20.37555 1.66005,9.92406 -1.58686,14.94115 -5.29906,19.49296 -5.89848,3.6804 -0.74251,16.82445 -1.76698,21.19813 -3.67502,3.54283 -5.31851,9.39485 -7.9486,13.24951 1.2033,9.54047 -2.00095,13.67219 -5.29908,18.54858 -1.53778,8.74067 -1.49972,22.34022 0.88257,29.96931 -1.47498,10.62218 4.10857,14.18582 2.64954,24.79205 -0.81811,14.70582 15.50988,11.56743 11.48255,0.88256 -8.37133,5.40809 -7.21334,-9.65919 -9.71558,-14.95284 2.31078,-9.65864 -3.23916,-17.23966 -0.88257,-23.0269 3.10514,-5.43246 1.51196,-15.56324 5.29908,-20.31372 -0.57739,-9.26171 -0.13609,-15.69442 4.41649,-20.31555 5.31403,-2.81787 7.11982,-10.21866 7.06604,-18.54858 -1.26664,-0.161 2.88019,-8.49455 2.64954,-13.24952 2.4995,-4.15032 -0.91632,-14.94916 2.64954,-17.66418 3.50177,-2.88926 7.04336,-5.75171 8.83301,-12.36511 3.61536,-3.29082 3.57316,-17.76216 3.5321,-15.01648 -0.1448,-7.89469 -3.04832,-16.71959 0.8844,-19.43116 7.48523,-7.2956 -2.68221,-10.23351 -6.18347,-14.13208 -1.56424,-6.09078 -5.6323,-9.67774 -7.06604,-15.89904 -5.52935,-1.88865 0.95196,-12.02479 -5.29999,-15.01465 -3.19276,-4.82773 -2.31032,-18.40395 9.1e-4,-22.96509 -1.67918,-6.29151 -2.98088,-21.34904 6.18164,-20.31555 5.13952,-2.7691 1.44908,-14.36816 11.36074,-12.36511 9.34384,0.46603 5.16022,-7.03332 13.37132,-4.4165 2.0499,7.74452 7.9847,19.7252 16.4641,3.68098 4.50154,-7.40195 11.48698,-15.50956 16.21657,-18.69655 4.6248,-4.78196 9.79239,-10.77495 11.48254,-18.54767 3.47274,-2.12982 5.66509,-7.51275 7.94861,-13.24951 2.45943,-4.09931 11.56975,-0.92839 15.01648,-6.18163 6.2989,-1.94451 17.56388,1.07706 17.66418,-7.06605 4.03862,-3.08742 5.89505,-7.85334 11.48255,-9.71741 9.33359,-2.38208 15.23197,-4.28418 21.19812,-8.83117 4.46527,-3.70597 12.47027,-3.20577 18.54859,-5.30091 3.99508,-4.33481 17.99501,-5.72661 20.31555,0 5.7048,0.61369 9.04173,3.79973 12.36511,7.06604 6.53825,1.88503 9.21709,8.70332 15.89904,11.48255 7.44577,0.20925 11.32314,3.98691 14.13208,8.833 5.02148,2.1054 4.80664,10.86427 11.48255,12.36512 10.09532,-0.30884 14.96926,3.51771 22.08068,7.06604 6.24499,2.25401 11.96381,4.95528 17.66419,7.95044 11.06904,1.38047 15.48455,-5.46556 27.13615,-3.53394 10.10662,1.00056 14.74907,-3.2589 20.561,-6.18164 8.05428,0.94422 7.58969,-5.0719 13.24767,-5.3009 5.91078,-3.60718 21.08617,-0.76931 25.61463,-6.18164 3.13966,-3.0221 7.23794,-5.71388 15.01648,-4.41651 3.83871,5.18436 19.34246,2.52638 23.84766,-9.1e-4 3.27438,-4.49945 13.18603,-0.44724 21.19812,-1.76606 4.30039,-5.27349 13.53171,-3.12295 18.54858,0 10.5534,-0.63434 23.64282,1.26734 32.68066,-0.88256 9.17021,-5.84506 30.17792,0.1474 40.62928,-4.41651 7.68891,-3.61803 15.97923,-4.48958 21.19812,-9.71557 8.68608,-1.20529 9.53905,-8.07024 16.78161,-12.36695 6.88656,-2.65662 9.09728,-7.81071 19.43115,-6.18164 5.28665,3.41908 16.68873,0.39009 19.43298,7.06604 8.35849,-0.92288 10.2033,4.80745 16.78163,6.18164 2.80077,6.18349 6.83228,12.1412 9.71557,2.65137 2.15261,-7.59983 7.06881,-9.4018 13.15368,-12.75889 2.13787,-2.89954 7.08493,-6.35323 8.92757,-10.20655 3.61803,-5.80892 15.83347,-1.14389 18.54802,-7.06569 6.32597,-3.85418 16.09705,0.48981 22.08253,-2.64954 10.20381,-3.33928 24.44571,-2.64046 37.97973,-2.64953 6.8401,-13.29175 -10.7839,-6.06724 -18.69324,-8.01818 z m -104.96338,34.51537 h -0.88256 z m -597.0813,153.68591 -0.004,0.28932 z m -0.004,0.28932 c -0.69293,0.40445 0.69401,1.17766 0,0 z m 0.004,-62.99927 h -0.88256 z m 45.92835,-38.86414 0.20508,-0.11719 z m 0.20508,-0.11719 0.67932,0.11719 z m 107.55248,-59.94507 c 0.55492,1.04655 1.77085,-0.98875 0,0 z m 48.57971,7.06604 c 0.11432,3.11903 1.74816,-0.58088 0,0 z m 272.04346,19.43299 h 0.88257 z"
       id="path1163"
       inkscape:connector-curvature="0" />
    <g
       id="g1199">
      <path
         style="fill:none;fill-rule:evenodd;stroke:#000000;stroke-width:1.875;stroke-linecap:butt;stroke-linejoin:miter;stroke-miterlimit:4;stroke-dasharray:none;stroke-opacity:1"
         d="m 34.975202,731.02754 c 4.378637,-2.85278 8.545322,1.87269 13.093453,1.24912 3.549725,-0.15305 7.206718,0.31115 10.687117,-0.24082 4.142127,-2.55756 8.970185,-3.57874 13.804643,-3.23731 6.19044,0.25839 10.293681,5.96099 16.239029,7.30706 4.986035,1.70073 9.637564,4.49845 13.679596,7.83478 5.57427,1.0545 7.3434,9.55382 13.55642,8.40667 4.6386,0.80967 5.26312,-5.07873 9.77333,-4.77282 5.1676,-1.14552 10.40564,-2.91327 15.55431,-4.6799 4.56976,-1.59617 8.63723,-3.89233 13.01178,-5.77099 3.97125,-2.78046 3.98697,-8.7057 8.36185,-11.49272 3.02111,-3.71297 7.74076,-5.3405 11.12911,-8.6665 2.89355,-1.50093 4.67465,-5.53952 7.25574,-6.54695"
         id="path1179"
         inkscape:connector-curvature="0" />
      <path
         style="fill:none;fill-rule:evenodd;stroke:#000000;stroke-width:1.875;stroke-linecap:butt;stroke-linejoin:miter;stroke-miterlimit:4;stroke-dasharray:none;stroke-opacity:1"
         d="m 187.05487,702.92246 c 3.00539,-1.11213 5.38133,-3.2633 7.63654,-5.23293 3.19794,-1.8356 1.21705,-5.83635 2.66866,-8.50732 0.72227,-2.49666 2.24944,-4.38399 4.02553,-5.98386 1.56915,-1.94661 2.31841,-4.46842 3.92801,-6.21268 1.79865,-2.5246 4.56193,-4.21232 6.56741,-6.54018 2.23097,-1.36452 3.51379,-3.7288 5.95802,-5.00702 2.02584,-1.63331 4.1704,-3.23324 6.78141,-4.13243 2.49977,-1.34542 5.23288,-2.29301 7.80828,-3.52763 2.83799,-1.36522 6.71841,-1.59978 9.97753,-2.32223 2.87538,-0.006 5.90132,-0.10318 8.35345,0.31222"
         id="path1181"
         inkscape:connector-curvature="0" />
      <path
         style="fill:none;fill-rule:evenodd;stroke:#000000;stroke-width:1.875;stroke-linecap:butt;stroke-linejoin:miter;stroke-miterlimit:4;stroke-dasharray:none;stroke-opacity:1"
         d="m 197.36007,687.62081 c 1.44433,-2.96557 2.39417,-7.10012 0.67344,-10.13421 -1.85007,-2.61177 -3.60591,-5.13431 -5.69915,-7.67133 -1.5584,-2.7065 -2.85124,-5.78629 -3.09535,-9.10864 0.69346,-3.39033 -1.8498,-6.23004 -1.86718,-9.52093 -0.0212,-3.04285 -0.71092,-6.03332 -1.51405,-9.00719 0.0337,-3.95909 1.02931,-7.86529 1.16347,-11.81725 0.70927,-3.4465 3.29785,-6.35188 2.53283,-10.07281 -0.11772,-3.16929 -2.57817,-5.56997 -1.87465,-8.8636 -0.12582,-3.55425 1.9031,-6.44556 2.06715,-9.93206 0.88519,-3.25196 1.76597,-6.19533 3.28699,-9.15165 0.60535,-1.75256 0.6081,-3.41345 1.51599,-4.96174"
         id="path1183"
         inkscape:connector-curvature="0" />
      <path
         style="fill:none;fill-rule:evenodd;stroke:#000000;stroke-width:1.875;stroke-linecap:butt;stroke-linejoin:miter;stroke-miterlimit:4;stroke-dasharray:none;stroke-opacity:1"
         d="m 316.02593,486.20113 c -3.00613,0.28239 -4.17065,-1.27683 -6.92211,-1.24911 -1.21962,-0.4134 -4.06377,-0.56641 -5.25675,0 -3.12916,0.88777 -4.67681,1.92052 -7.80697,2.49822 -1.10382,1.05341 -2.2797,1.52431 -4.3719,2.18595 -3.14332,1.14951 -6.38264,1.20404 -9.36836,1.87368 -1.59215,0.80199 -3.68896,1.09931 -4.3719,2.8105 -1.65574,0.68485 -3.06858,1.97586 -5.50466,2.18529 -2.5614,0.8997 -5.69849,0.86938 -7.88983,2.32523 -0.51527,0.34036 -1.87583,1.84583 -3.00013,2.35961 -1.97005,1.29374 -3.19974,2.74394 -6.11023,2.8105 -1.88477,-0.0293 -3.13638,0.54019 -5.29833,0.31229 -6.65848,0 -13.31696,0 -19.97544,0 -1.59385,0.70835 -2.64268,1.99623 -4.3719,2.81051 -0.2978,1.7012 -2.01732,3.57622 -2.81051,5.30873 -1.10544,1.42009 -1.88497,2.84539 -3.12278,4.68417 -1.97893,1.92589 -3.23819,2.60627 -4.99646,4.3719 -1.66951,1.40765 -2.72917,3.08868 -3.43506,3.74735 -1.45465,1.84073 -4.01361,4.38811 -4.68418,6.55785 -1.91583,2.14061 -2.759,5.14105 -3.43507,7.49469 -1.27132,2.80828 -0.97863,6.46908 -2.18595,9.05608 -0.40995,3.20428 -2.09497,5.08883 -2.49823,7.80696 -1.6577,1.37926 -1.37663,5.12531 -2.49822,7.18241 -0.16201,2.33622 -1.07342,3.92304 -2.18595,5.30874 0.0691,2.07802 -0.55123,3.46667 -0.31228,5.71457 0,2.77932 0,5.55864 0,8.33796 -0.34635,0.27877 0.68259,3.46034 0.93683,4.68419"
         id="path1185"
         inkscape:connector-curvature="0" />
      <path
         style="fill:none;fill-rule:evenodd;stroke:#000000;stroke-width:1.875;stroke-linecap:butt;stroke-linejoin:miter;stroke-miterlimit:4;stroke-dasharray:none;stroke-opacity:1"
         d="m 330.39075,483.7029 c 3.84338,-1.38135 8.63771,-2.15849 10.96534,-5.81964 2.73345,-2.55928 7.45004,-0.54146 10.68328,0.55966 4.08038,1.56622 8.61272,2.45646 13.13777,2.42388 4.39784,-2.00488 9.41245,-0.95685 14.14488,-1.22378 3.09652,1.21734 7.88707,0.92784 10.49063,-1.81157 3.60035,-2.85961 7.69784,-5.48623 12.44046,-5.67813 4.5241,-1.61947 9.21744,-1.84236 12.79994,1.70919 4.36854,1.76027 8.28573,-0.95654 12.5245,-0.37774 3.43237,1.73166 6.5897,3.83107 10.24182,5.0754 4.5693,0.23721 9.34615,-0.45669 13.30982,2.38005 2.16768,0.44488 3.72702,2.0441 5.73439,2.76268"
         id="path1187"
         inkscape:connector-curvature="0" />
      <path
         style="fill:none;fill-rule:evenodd;stroke:#000000;stroke-width:1.875;stroke-linecap:butt;stroke-linejoin:miter;stroke-miterlimit:4;stroke-dasharray:none;stroke-opacity:1"
         d="m 524.62803,537.7271 c -3.69686,4.84057 2.17049,8.18381 -0.62456,12.49114 -2.43294,2.2125 -3.58269,6.79281 -4.99646,9.99291 0,4.16372 0,8.32743 0,12.49115 -4.61913,0.48999 -6.63804,3.61083 -11.21759,3.74734 -4.38005,0 -8.76009,0 -13.14014,0 -2.72557,1.67986 -3.10218,4.11061 -6.24557,4.99646 -2.05272,2.71878 -5.5286,3.79806 -9.99291,4.3719 -4.61072,2.3776 -10.84289,0.77496 -16.23849,1.24911 -3.46344,2.41297 -8.61673,0.74629 -12.87138,1.24912 -4.14551,0.0997 -4.15867,-0.78195 -7.11445,-1.24912 -3.57444,-3.4016 -10.59386,-2.97707 -16.16518,-3.74734 -4.88738,-1.0691 -4.95465,1.83707 -8.14368,1.87367 -6.88642,0 -13.77283,0 -20.65925,0 -3.94963,-0.50376 -7.48974,-3.93858 -10.92968,-4.25471 -0.3899,-4.18463 -4.57401,-4.02149 -5.30881,-7.61188 -1.13319,-2.31007 -3.00781,-3.80271 -5.30874,-4.99645 -2.53541,-0.71769 -3.50571,-2.9929 -5.30874,-4.3719 -2.08831,-1.27726 -6.91202,-1.75597 -9.34392,-0.62456 -3.37415,1.75406 -8.11506,-0.26717 -11.26646,-0.62456 -2.35019,-2.06016 -6.42238,-0.99026 -9.99292,-1.24911 -3.62698,0.74632 -5.52237,2.75834 -8.7438,4.3719 -2.34389,2.39604 -2.3589,8.00521 -4.99645,9.99291 -0.73239,2.00706 -3.8129,2.80761 -5.62102,4.3719 -0.59194,3.57177 -2.4551,5.87232 -1.87367,10.61747 -1.83719,1.28714 -5.49609,3.75229 -6.87013,4.99646 -3.52504,2.1969 -6.74279,2.2122 -9.36836,6.24557 -0.84013,1.90667 -4.45239,5.49926 -6.87013,6.87013 -2.41967,4.65476 -5.96145,5.21687 -10.61747,6.87013 -1.24814,2.79235 -5.6573,2.94297 -4.3719,7.99708 0.0948,3.96043 -1.60526,6.03223 -3.12278,7.61686 -2.06719,2.15725 -4.36796,5.81997 -5.62102,7.49467 -1.93594,0.72854 -1.57899,6.04911 -3.12278,8.11925 -2.17943,2.37978 -3.07011,4.25431 -5.62102,5.62101 -2.89161,3.93974 -5.89872,4.40058 -12.17885,3.12279"
         id="path1191"
         inkscape:connector-curvature="0" />
    </g>
    <path
       style="fill:none;fill-rule:evenodd;stroke:#000000;stroke-width:1.875;stroke-linecap:butt;stroke-linejoin:miter;stroke-miterlimit:4;stroke-dasharray:none;stroke-opacity:1"
       d="m 456.86358,483.7029 c 2.57786,1.60899 6.07691,0.52032 8.3741,1.98466 2.73908,1.09286 6.02433,1.46068 8.13178,-0.46361 2.46635,-0.53836 5.02808,-0.15873 7.53957,-0.27193 1.56022,1.48801 4.13103,2.38275 3.74698,5.17046 0.34983,2.62991 1.67779,5.14558 1.34472,8.04805 -0.33099,3.42075 3.58301,4.3502 5.52577,2.08314 2.54236,-1.10278 7.06445,-3.58316 9.14735,-0.84789 2.18581,1.58571 4.21897,3.54187 6.73641,4.82147 1.79917,1.64595 3.62556,3.11648 5.32822,4.94125 2.13934,2.08966 3.8276,4.50366 5.24103,7.01229 1.38357,2.40648 2.4582,5.12018 5.03051,6.51915 0.54262,0.60609 0.74007,1.08802 0.99345,1.59918"
       id="path1189"
       inkscape:connector-curvature="0" />
    <circle
       style="fill:#ffff00;fill-rule:evenodd;stroke:#000000;stroke-width:2.8125;stroke-linecap:butt;stroke-linejoin:miter;stroke-miterlimit:4;stroke-dasharray:none;stroke-opacity:1"
       id="path1039"
       cx="529.07104"
       cy="530.35718"
       r="12.365602" />
    <circle
       style="fill:#ffff00;fill-rule:evenodd;stroke:#000000;stroke-width:2.81249999;stroke-linecap:butt;stroke-linejoin:miter;stroke-opacity:1;stroke-miterlimit:4;stroke-dasharray:none"
       id="path1043"
       cx="324.59705"
       cy="486.63596"
       r="8.3909435" />
    <circle
       style="fill:#ffff00;fill-rule:evenodd;stroke:#000000;stroke-width:2.8125;stroke-linecap:butt;stroke-linejoin:miter;stroke-miterlimit:4;stroke-dasharray:none;stroke-opacity:1"
       id="path1045"
       cx="375.38431"
       cy="624.86566"
       r="4.416286" />
    <circle
       style="fill:#ffff00;fill-rule:evenodd;stroke:#000000;stroke-width:2.8125;stroke-linecap:butt;stroke-linejoin:miter;stroke-miterlimit:4;stroke-dasharray:none;stroke-opacity:1"
       id="path1045-3"
       cx="316.69434"
       cy="712.24713"
       r="4.416286" />
    <circle
       style="fill:#ffff00;fill-rule:evenodd;stroke:#000000;stroke-width:2.8125;stroke-linecap:butt;stroke-linejoin:miter;stroke-miterlimit:4;stroke-dasharray:none;stroke-opacity:1"
       id="path1045-6"
       cx="252.62683"
       cy="877.7655"
       r="4.416286" />
    <circle
       style="fill:#ffff00;fill-rule:evenodd;stroke:#000000;stroke-width:2.8125;stroke-linecap:butt;stroke-linejoin:miter;stroke-miterlimit:4;stroke-dasharray:none;stroke-opacity:1"
       id="path1045-7"
       cx="337.63745"
       cy="749.52942"
       r="4.416286" />
    <circle
       style="fill:#ffff00;fill-rule:evenodd;stroke:#000000;stroke-width:2.8125;stroke-linecap:butt;stroke-linejoin:miter;stroke-miterlimit:4;stroke-dasharray:none;stroke-opacity:1"
       id="path1045-5"
       cx="101.57458"
       cy="526.82416"
       r="4.416286" />
    <circle
       style="fill:#ffff00;fill-rule:evenodd;stroke:#000000;stroke-width:2.8125;stroke-linecap:butt;stroke-linejoin:miter;stroke-miterlimit:4;stroke-dasharray:none;stroke-opacity:1"
       id="path1045-35"
       cx="144.85419"
       cy="621.3327"
       r="4.416286" />
    <circle
       style="fill:#ffff00;fill-rule:evenodd;stroke:#000000;stroke-width:2.8125;stroke-linecap:butt;stroke-linejoin:miter;stroke-miterlimit:4;stroke-dasharray:none;stroke-opacity:1"
       id="path1045-62"
       cx="458.41049"
       cy="485.31107"
       r="4.416286" />
    <circle
       style="fill:#ffff00;fill-rule:evenodd;stroke:#000000;stroke-width:2.8125;stroke-linecap:butt;stroke-linejoin:miter;stroke-miterlimit:4;stroke-dasharray:none;stroke-opacity:1"
       id="path1045-9"
       cx="194.31656"
       cy="586.00238"
       r="4.416286" />
    <circle
       style="fill:#ffff00;fill-rule:evenodd;stroke:#000000;stroke-width:2.8125;stroke-linecap:butt;stroke-linejoin:miter;stroke-miterlimit:4;stroke-dasharray:none;stroke-opacity:1"
       id="path1045-1"
       cx="391.28296"
       cy="563.92096"
       r="4.416286" />
    <circle
       style="fill:#ffff00;fill-rule:evenodd;stroke:#000000;stroke-width:2.8125;stroke-linecap:butt;stroke-linejoin:miter;stroke-miterlimit:4;stroke-dasharray:none;stroke-opacity:1"
       id="path1043-2"
       cx="184.60074"
       cy="707.00861"
       r="8.3909435" />
    <circle
       style="fill:#ffff00;fill-rule:evenodd;stroke:#000000;stroke-width:2.8125;stroke-linecap:butt;stroke-linejoin:miter;stroke-miterlimit:4;stroke-dasharray:none;stroke-opacity:1"
       id="path1043-7"
       cx="255.26134"
       cy="658.4295"
       r="8.3909435" />
    <circle
       style="fill:#ff00ff;fill-rule:evenodd;stroke:#000000;stroke-width:2.8125;stroke-linecap:butt;stroke-linejoin:miter;stroke-miterlimit:4;stroke-dasharray:none;stroke-opacity:1"
       id="path1043-0"
       cx="99.34082"
       cy="829.52582"
       r="8.3909435" />
    <path
       sodipodi:type="star"
       style="color:#000000;clip-rule:nonzero;display:inline;overflow:visible;visibility:visible;opacity:1;isolation:auto;mix-blend-mode:normal;color-interpolation:sRGB;color-interpolation-filters:linearRGB;solid-color:#000000;solid-opacity:1;fill:#000000;fill-opacity:1;fill-rule:evenodd;stroke:none;stroke-width:2.8125;stroke-miterlimit:4;stroke-dasharray:none;stroke-opacity:1;color-rendering:auto;image-rendering:auto;shape-rendering:auto;text-rendering:auto;enable-background:accumulate"
       id="path1131"
       sodipodi:sides="5"
       sodipodi:cx="636.82846"
       sodipodi:cy="774.13622"
       sodipodi:r1="32.114632"
       sodipodi:r2="10.36429"
       sodipodi:arg1="-0.54985318"
       sodipodi:arg2="0.078465348"
       inkscape:flatsided="false"
       inkscape:rounded="0"
       inkscape:randomized="0"
       d="m 664.20941,757.35434 -17.04858,17.59429 14.08931,20.04257 -22.00146,-10.77723 -14.70778,19.59323 3.45092,-24.25498 -23.17921,-7.93329 24.13425,-4.21318 0.38223,-24.49626 11.46487,21.65109 z"
       inkscape:transform-center-x="2.3174197"
       inkscape:transform-center-y="-0.77788645" />
    <path
       sodipodi:type="star"
       style="color:#000000;clip-rule:nonzero;display:inline;overflow:visible;visibility:visible;opacity:1;isolation:auto;mix-blend-mode:normal;color-interpolation:sRGB;color-interpolation-filters:linearRGB;solid-color:#000000;solid-opacity:1;fill:#000000;fill-opacity:1;fill-rule:evenodd;stroke:none;stroke-width:1.59962869;stroke-miterlimit:4;stroke-dasharray:none;stroke-opacity:1;color-rendering:auto;image-rendering:auto;shape-rendering:auto;text-rendering:auto;enable-background:accumulate"
       id="path1131-9"
       sodipodi:sides="5"
       sodipodi:cx="108.63379"
       sodipodi:cy="684.36835"
       sodipodi:r1="18.265417"
       sodipodi:r2="5.8947616"
       sodipodi:arg1="-0.54985318"
       sodipodi:arg2="0.078465348"
       inkscape:flatsided="false"
       inkscape:rounded="0"
       inkscape:randomized="0"
       d="m 124.20691,674.82353 -9.6965,10.00688 8.01339,11.39934 -12.51348,-6.12962 -8.36515,11.14378 1.96274,-13.79518 -13.183339,-4.51211 13.726519,-2.39628 0.2174,-13.93242 6.52072,12.31421 z"
       inkscape:transform-center-x="1.3180485"
       inkscape:transform-center-y="-0.44241802" />
    <circle
       style="fill:#ff0000;fill-rule:evenodd;stroke:#000000;stroke-width:2.8125;stroke-linecap:butt;stroke-linejoin:miter;stroke-miterlimit:4;stroke-dasharray:none;stroke-opacity:1"
       id="path1045-3-3"
       cx="591.1026"
       cy="682.41058"
       r="4.416286" />
    <path
       id="path1177"
       style="fill:none;fill-rule:evenodd;stroke:#000000;stroke-width:1.87499999;stroke-linecap:butt;stroke-linejoin:miter;stroke-miterlimit:4;stroke-dasharray:1.87499999,1.87499999;stroke-dashoffset:0;stroke-opacity:1"
       d="m 193.43333,567.45399 c -0.8658,-4.38739 -5.97291,-4.98316 -9.61822,-4.40881 -5.03176,-0.44334 -9.35854,0.19293 -13.84018,2.12419 -2.52428,2.41379 -7.5222,1.80918 -11.16409,2.38846 -4.72216,-0.12145 -5.46463,-5.74793 -5.1796,-9.42217 -1.2319,-4.30579 2.2428,-6.45268 4.56585,-8.89115 1.65747,-5.12478 -3.6985,-6.63513 -7.71828,-5.57351 -4.54637,-0.15122 -6.93358,3.94122 -11.56251,2.58137 -0.67048,-0.002 -1.34098,-0.003 -2.01145,0.003 m 388.6332,60.06194 c 3.03285,1.89981 5.73447,-1.27362 2.7456,-3.4553 1.05139,-3.11745 6.94045,-3.45014 7.01178,-7.16695 2.1415,0.97229 3.81456,-1.7744 3.78492,-1.32778 2.40708,-0.81476 2.96385,-1.76387 5.03246,0.70682 3.6778,-0.73847 2.01503,5.44956 5.99534,5.22146 1.19984,3.3193 5.68497,7.39239 7.82036,4.00589 3.69464,-2.72458 1.83924,-6.5564 0.57863,-9.56232 -2.71458,-1.52632 -3.16741,-4.88359 -4.75264,-7.51682 0.0214,-4.00684 -0.45395,-8.55521 1.76666,-11.50828 0.37862,-3.15816 0.62893,-8.99563 -4.14931,-8.28896 -2.25103,-0.90974 -6.22519,1.66931 -5.95864,0.0547 1.4676,-2.74816 3.2549,-5.30646 4.85607,-7.97523 m -196.96639,56.5286 c -1.67295,0.91329 -2.65588,-1.69786 -1.59045,-2.81275 0.85423,-1.29352 0.35723,-2.89284 -0.78711,-3.81035 -1.0949,-1.08229 -2.57986,-2.02159 -2.88179,-3.64788 -1.689,-1.43121 -4.36463,-1.44129 -5.58245,-3.4672 -2.07901,-0.6904 -3.02592,-2.82432 -4.25795,-4.44765 -0.96453,-2.36942 -3.24764,-3.76241 -4.74601,-5.74441 -0.43867,-1.6067 -2.60686,-2.46652 -2.23452,-4.33409 M 299.4242,706.12538 c -3.9456,0.2879 0.0876,-4.45796 -2.18317,-6.21523 -1.04232,-4.25281 -1.11002,-9.34791 2.19929,-12.67092 -0.28721,-3.11886 1.63975,-6.038 0.86894,-9.21259 -1.93405,-1.82651 -2.47518,-5.06225 -5.27817,-6.9948 -2.72976,-2.85844 -4.94859,-5.37503 -7.0485,-8.66527 -1.06754,-2.29607 1.82129,-4.13744 -0.75313,-6.16364 l -0.0883,-0.66232 0.31095,-0.70829 M 139.55464,835.08093 c 2.02352,-2.92374 6.7529,-0.99921 8.83524,-4.18518 4.48446,-1.57988 6.28508,-6.45802 10.2926,-8.55781 7.00164,-2.75468 14.65144,-0.65776 21.87224,-1.64392 4.16984,-1.61774 4.47701,-6.87854 7.66908,-9.55861 1.39682,-2.10318 1.40297,-4.79821 2.55989,-6.96887" />
    <circle
       style="fill:#ffff00;fill-rule:evenodd;stroke:#000000;stroke-width:2.8125;stroke-linecap:butt;stroke-linejoin:miter;stroke-miterlimit:4;stroke-dasharray:none;stroke-opacity:1"
       id="path1045-6-6"
       cx="142.39905"
       cy="972.41888"
       r="4.416286" />
    <circle
       style="fill:#0000ff;fill-rule:evenodd;stroke:#000000;stroke-width:2.8125;stroke-linecap:butt;stroke-linejoin:miter;stroke-miterlimit:4;stroke-dasharray:none;stroke-opacity:1"
       id="path1045-6-2"
       cx="909.35522"
       cy="437.79797"
       r="4.416286" />
    <circle
       style="fill:#0000ff;fill-rule:evenodd;stroke:#000000;stroke-width:2.8125;stroke-linecap:butt;stroke-linejoin:miter;stroke-miterlimit:4;stroke-dasharray:none;stroke-opacity:1"
       id="path1045-6-61"
       cx="784.44385"
       cy="431.5524"
       r="4.416286" />
    <path
       sodipodi:type="star"
       style="color:#000000;clip-rule:nonzero;display:inline;overflow:visible;visibility:visible;opacity:1;isolation:auto;mix-blend-mode:normal;color-interpolation:sRGB;color-interpolation-filters:linearRGB;solid-color:#000000;solid-opacity:1;fill:#000000;fill-opacity:1;fill-rule:evenodd;stroke:none;stroke-width:1.59962881;stroke-miterlimit:4;stroke-dasharray:none;stroke-opacity:1;color-rendering:auto;image-rendering:auto;shape-rendering:auto;text-rendering:auto;enable-background:accumulate"
       id="path1131-9-8"
       sodipodi:sides="5"
       sodipodi:cx="871.95076"
       sodipodi:cy="871.68307"
       sodipodi:r1="18.265417"
       sodipodi:r2="5.8947616"
       sodipodi:arg1="-0.54985318"
       sodipodi:arg2="0.078465348"
       inkscape:flatsided="false"
       inkscape:rounded="0"
       inkscape:randomized="0"
       d="m 887.52386,862.13823 -9.69649,10.00687 8.01339,11.39935 -12.51348,-6.12962 -8.36515,11.14378 1.96273,-13.79519 -13.18333,-4.51211 13.72652,-2.39627 0.2174,-13.93242 6.52072,12.31421 z"
       inkscape:transform-center-x="1.3180485"
       inkscape:transform-center-y="-0.44241802" />
    <circle
       style="fill:#ff00ff;fill-rule:evenodd;stroke:#000000;stroke-width:2.8125;stroke-linecap:butt;stroke-linejoin:miter;stroke-miterlimit:4;stroke-dasharray:none;stroke-opacity:1"
       id="path1045-6-61-7"
       cx="231.41339"
       cy="934.00574"
       r="4.416286" />
    <circle
       style="fill:#ff00ff;fill-rule:evenodd;stroke:#000000;stroke-width:2.8125;stroke-linecap:butt;stroke-linejoin:miter;stroke-miterlimit:4;stroke-dasharray:none;stroke-opacity:1"
       id="path1045-6-61-9"
       cx="162.51935"
       cy="886.30988"
       r="4.416286" />
    <text
       xml:space="preserve"
       style="font-style:normal;font-weight:normal;font-size:44.19481659px;line-height:0%;font-family:sans-serif;letter-spacing:0px;word-spacing:0px;fill:#000000;fill-opacity:1;stroke:none;stroke-width:3.68290138px;stroke-linecap:butt;stroke-linejoin:miter;stroke-opacity:1"
       x="583.40851"
       y="824.55389"
       id="text4181-3-0"><tspan
         sodipodi:role="line"
         id="tspan4183-4-4"
         x="583.40851"
         y="824.55389"
         style="font-style:normal;font-variant:normal;font-weight:normal;font-stretch:normal;font-size:18.41450691px;line-height:1.25;font-family:SouvenirPSCyr;-inkscape-font-specification:SouvenirPSCyr;fill:#000000;stroke-width:3.68290138px">в. Арашияма</tspan></text>
    <text
       xml:space="preserve"
       style="font-style:normal;font-weight:normal;font-size:34.7078743px;line-height:0%;font-family:sans-serif;letter-spacing:0px;word-spacing:0px;fill:#000000;fill-opacity:1;stroke:none;stroke-width:2.89232278px;stroke-linecap:butt;stroke-linejoin:miter;stroke-opacity:1"
       x="71.876579"
       y="714.74982"
       id="text4181-3-0-2"><tspan
         sodipodi:role="line"
         id="tspan4183-4-4-0"
         x="71.876579"
         y="714.74982"
         style="font-style:normal;font-variant:normal;font-weight:normal;font-stretch:normal;font-size:14.46161366px;line-height:1.25;font-family:SouvenirPSCyr;-inkscape-font-specification:SouvenirPSCyr;fill:#000000;stroke-width:2.89232278px">в. Акияма</tspan></text>
    <text
       xml:space="preserve"
       style="font-style:normal;font-weight:normal;font-size:34.7078743px;line-height:0%;font-family:sans-serif;letter-spacing:0px;word-spacing:0px;fill:#000000;fill-opacity:1;stroke:none;stroke-width:2.89232278px;stroke-linecap:butt;stroke-linejoin:miter;stroke-opacity:1"
       x="820.09167"
       y="904.66815"
       id="text4181-3-0-2-2"><tspan
         sodipodi:role="line"
         id="tspan4183-4-4-0-3"
         x="820.09167"
         y="904.66815"
         style="font-style:normal;font-variant:normal;font-weight:normal;font-stretch:normal;font-size:14.46161461px;line-height:1.25;font-family:SouvenirPSCyr;-inkscape-font-specification:SouvenirPSCyr;fill:#000000;stroke-width:2.89232278px">в. Минамияма</tspan></text>
    <text
       xml:space="preserve"
       style="font-style:normal;font-weight:normal;font-size:34.7078743px;line-height:0%;font-family:sans-serif;letter-spacing:0px;word-spacing:0px;fill:#000000;fill-opacity:1;stroke:none;stroke-width:2.89232278px;stroke-linecap:butt;stroke-linejoin:miter;stroke-opacity:1"
       x="75.619568"
       y="856.58386"
       id="text4181-3-0-2-7"><tspan
         sodipodi:role="line"
         id="tspan4183-4-4-0-5"
         x="75.619568"
         y="856.58386"
         style="font-style:normal;font-variant:normal;font-weight:normal;font-stretch:normal;font-size:14.46161461px;line-height:1.25;font-family:SouvenirPSCyr;-inkscape-font-specification:SouvenirPSCyr;fill:#000000;stroke-width:2.89232278px">Лагерь</tspan><tspan
         sodipodi:role="line"
         x="75.619568"
         y="874.66089"
         style="font-style:normal;font-variant:normal;font-weight:normal;font-stretch:normal;font-size:14.46161461px;line-height:1.25;font-family:SouvenirPSCyr;-inkscape-font-specification:SouvenirPSCyr;fill:#000000;stroke-width:2.89232278px"
         id="tspan1359">Ордена</tspan></text>
    <text
       xml:space="preserve"
       style="font-style:normal;font-weight:normal;font-size:34.7078743px;line-height:0%;font-family:sans-serif;letter-spacing:0px;word-spacing:0px;fill:#000000;fill-opacity:1;stroke:none;stroke-width:2.89232278px;stroke-linecap:butt;stroke-linejoin:miter;stroke-opacity:1"
       x="218.02124"
       y="961.50946"
       id="text4181-3-0-2-9"><tspan
         sodipodi:role="line"
         id="tspan4183-4-4-0-2"
         x="218.02124"
         y="961.50946"
         style="font-style:normal;font-variant:normal;font-weight:normal;font-stretch:normal;font-size:14.46161461px;line-height:1.25;font-family:SouvenirPSCyr;-inkscape-font-specification:SouvenirPSCyr;fill:#000000;stroke-width:2.89232278px">Восточный рудник</tspan></text>
    <text
       xml:space="preserve"
       style="font-style:normal;font-weight:normal;font-size:34.7078743px;line-height:0%;font-family:sans-serif;letter-spacing:0px;word-spacing:0px;fill:#000000;fill-opacity:1;stroke:none;stroke-width:2.89232278px;stroke-linecap:butt;stroke-linejoin:miter;stroke-opacity:1"
       x="61.991837"
       y="911.77667"
       id="text4181-3-0-2-28"><tspan
         sodipodi:role="line"
         id="tspan4183-4-4-0-9"
         x="61.991837"
         y="911.77667"
         style="font-style:normal;font-variant:normal;font-weight:normal;font-stretch:normal;font-size:14.46161461px;line-height:1.25;font-family:SouvenirPSCyr;-inkscape-font-specification:SouvenirPSCyr;fill:#000000;stroke-width:2.89232278px">Северный рудник</tspan></text>
    <text
       xml:space="preserve"
       style="font-style:normal;font-weight:normal;font-size:34.7078743px;line-height:0%;font-family:sans-serif;letter-spacing:0px;word-spacing:0px;fill:#000000;fill-opacity:1;stroke:none;stroke-width:2.89232278px;stroke-linecap:butt;stroke-linejoin:miter;stroke-opacity:1"
       x="566.67596"
       y="707.04535"
       id="text4181-3-0-2-9-7"><tspan
         sodipodi:role="line"
         id="tspan4183-4-4-0-2-3"
         x="566.67596"
         y="707.04535"
         style="font-style:normal;font-variant:normal;font-weight:normal;font-stretch:normal;font-size:14.46161556px;line-height:1.25;font-family:SouvenirPSCyr;-inkscape-font-specification:SouvenirPSCyr;fill:#000000;stroke-width:2.89232278px">Бункер</tspan></text>
    <text
       xml:space="preserve"
       style="font-style:normal;font-weight:normal;font-size:34.7078743px;line-height:0%;font-family:sans-serif;letter-spacing:0px;word-spacing:0px;fill:#000000;fill-opacity:1;stroke:none;stroke-width:2.89232278px;stroke-linecap:butt;stroke-linejoin:miter;stroke-opacity:1"
       x="520.40997"
       y="510.93442"
       id="text4181-3-0-2-9-7-6"><tspan
         sodipodi:role="line"
         id="tspan4183-4-4-0-2-3-1"
         x="520.40997"
         y="510.93442"
         style="font-style:normal;font-variant:normal;font-weight:normal;font-stretch:normal;font-size:14.46161652px;line-height:1.25;font-family:SouvenirPSCyr;-inkscape-font-specification:SouvenirPSCyr;fill:#000000;stroke-width:2.89232278px">Такэсако</tspan></text>
    <text
       xml:space="preserve"
       style="font-style:normal;font-weight:normal;font-size:34.7078743px;line-height:0%;font-family:sans-serif;letter-spacing:0px;word-spacing:0px;fill:#000000;fill-opacity:1;stroke:none;stroke-width:2.89232278px;stroke-linecap:butt;stroke-linejoin:miter;stroke-opacity:1"
       x="293.06717"
       y="468.46454"
       id="text4181-3-0-2-9-7-2"><tspan
         sodipodi:role="line"
         id="tspan4183-4-4-0-2-3-9"
         x="293.06717"
         y="468.46454"
         style="font-style:normal;font-variant:normal;font-weight:normal;font-stretch:normal;font-size:14.46161652px;line-height:1.25;font-family:SouvenirPSCyr;-inkscape-font-specification:SouvenirPSCyr;fill:#000000;stroke-width:2.89232278px">Асахина</tspan></text>
    <text
       xml:space="preserve"
       style="font-style:normal;font-weight:normal;font-size:34.7078743px;line-height:0%;font-family:sans-serif;letter-spacing:0px;word-spacing:0px;fill:#000000;fill-opacity:1;stroke:none;stroke-width:2.89232278px;stroke-linecap:butt;stroke-linejoin:miter;stroke-opacity:1"
       x="166.28604"
       y="733.27673"
       id="text4181-3-0-2-9-7-3"><tspan
         sodipodi:role="line"
         id="tspan4183-4-4-0-2-3-19"
         x="166.28604"
         y="733.27673"
         style="font-style:normal;font-variant:normal;font-weight:normal;font-stretch:normal;font-size:14.46161652px;line-height:1.25;font-family:SouvenirPSCyr;-inkscape-font-specification:SouvenirPSCyr;fill:#000000;stroke-width:2.89232278px">Акияма</tspan></text>
    <text
       xml:space="preserve"
       style="font-style:normal;font-weight:normal;font-size:34.7078743px;line-height:0%;font-family:sans-serif;letter-spacing:0px;word-spacing:0px;fill:#000000;fill-opacity:1;stroke:none;stroke-width:2.89232278px;stroke-linecap:butt;stroke-linejoin:miter;stroke-opacity:1"
       x="233.96593"
       y="685.20477"
       id="text4181-3-0-2-9-7-4"><tspan
         sodipodi:role="line"
         id="tspan4183-4-4-0-2-3-7"
         x="233.96593"
         y="685.20477"
         style="font-style:normal;font-variant:normal;font-weight:normal;font-stretch:normal;font-size:14.46161652px;line-height:1.25;font-family:SouvenirPSCyr;-inkscape-font-specification:SouvenirPSCyr;fill:#000000;stroke-width:2.89232278px">Киба</tspan></text>
  </g>
</svg>
