<?xml version="1.0" encoding="UTF-8" standalone="no"?>
<!-- Created with Inkscape (http://www.inkscape.org/) -->

<svg
   xmlns:osb="http://www.openswatchbook.org/uri/2009/osb"
   xmlns:dc="http://purl.org/dc/elements/1.1/"
   xmlns:cc="http://creativecommons.org/ns#"
   xmlns:rdf="http://www.w3.org/1999/02/22-rdf-syntax-ns#"
   xmlns:svg="http://www.w3.org/2000/svg"
   xmlns="http://www.w3.org/2000/svg"
   xmlns:sodipodi="http://sodipodi.sourceforge.net/DTD/sodipodi-0.dtd"
   xmlns:inkscape="http://www.inkscape.org/namespaces/inkscape"
   width="210mm"
   height="297mm"
   viewBox="0 0 210 297"
   version="1.1"
   id="svg8"
   sodipodi:docname="pic_OldLarva.svg"
   inkscape:version="0.92.3 (2405546, 2018-03-11)">
  <defs
     id="defs2">
    <linearGradient
       id="linearGradient8741"
       osb:paint="gradient">
      <stop
         style="stop-color:#6c6753;stop-opacity:1;"
         offset="0"
         id="stop8737" />
      <stop
         style="stop-color:#6c6753;stop-opacity:0;"
         offset="1"
         id="stop8739" />
    </linearGradient>
    <marker
       inkscape:isstock="true"
       style="overflow:visible"
       id="marker2186"
       refX="0.0"
       refY="0.0"
       orient="auto"
       inkscape:stockid="Arrow1Lstart">
      <path
         transform="scale(0.8) translate(12.5,0)"
         style="fill-rule:evenodd;stroke:#000000;stroke-width:1pt;stroke-opacity:1;fill:#d3bc5f;fill-opacity:1"
         d="M 0.0,0.0 L 5.0,-5.0 L -12.5,0.0 L 5.0,5.0 L 0.0,0.0 z "
         id="path2184" />
    </marker>
    <marker
       inkscape:isstock="true"
       style="overflow:visible"
       id="marker1986"
       refX="0.0"
       refY="0.0"
       orient="auto"
       inkscape:stockid="Arrow1Lstart">
      <path
         transform="scale(0.8) translate(12.5,0)"
         style="fill-rule:evenodd;stroke:#000000;stroke-width:1pt;stroke-opacity:1;fill:#aca793;fill-opacity:1"
         d="M 0.0,0.0 L 5.0,-5.0 L -12.5,0.0 L 5.0,5.0 L 0.0,0.0 z "
         id="path1984" />
    </marker>
    <marker
       inkscape:isstock="true"
       style="overflow:visible"
       id="marker1898"
       refX="0.0"
       refY="0.0"
       orient="auto"
       inkscape:stockid="Arrow1Lstart">
      <path
         transform="scale(0.8) translate(12.5,0)"
         style="fill-rule:evenodd;stroke:#000000;stroke-width:1pt;stroke-opacity:1;fill:#aca793;fill-opacity:1"
         d="M 0.0,0.0 L 5.0,-5.0 L -12.5,0.0 L 5.0,5.0 L 0.0,0.0 z "
         id="path1896" />
    </marker>
    <marker
       inkscape:isstock="true"
       style="overflow:visible"
       id="marker1816"
       refX="0.0"
       refY="0.0"
       orient="auto"
       inkscape:stockid="Arrow1Lstart">
      <path
         transform="scale(0.8) translate(12.5,0)"
         style="fill-rule:evenodd;stroke:#000000;stroke-width:1pt;stroke-opacity:1;fill:#c8c4b7;fill-opacity:1"
         d="M 0.0,0.0 L 5.0,-5.0 L -12.5,0.0 L 5.0,5.0 L 0.0,0.0 z "
         id="path1814" />
    </marker>
    <marker
       inkscape:isstock="true"
       style="overflow:visible"
       id="marker1740"
       refX="0.0"
       refY="0.0"
       orient="auto"
       inkscape:stockid="Arrow1Lstart">
      <path
         transform="scale(0.8) translate(12.5,0)"
         style="fill-rule:evenodd;stroke:#000000;stroke-width:1pt;stroke-opacity:1;fill:#918a6f;fill-opacity:1"
         d="M 0.0,0.0 L 5.0,-5.0 L -12.5,0.0 L 5.0,5.0 L 0.0,0.0 z "
         id="path1738" />
    </marker>
    <marker
       inkscape:isstock="true"
       style="overflow:visible"
       id="marker1670"
       refX="0.0"
       refY="0.0"
       orient="auto"
       inkscape:stockid="Arrow1Lstart">
      <path
         transform="scale(0.8) translate(12.5,0)"
         style="fill-rule:evenodd;stroke:#000000;stroke-width:1pt;stroke-opacity:1;fill:#c8c4b7;fill-opacity:1"
         d="M 0.0,0.0 L 5.0,-5.0 L -12.5,0.0 L 5.0,5.0 L 0.0,0.0 z "
         id="path1668" />
    </marker>
    <marker
       inkscape:isstock="true"
       style="overflow:visible"
       id="marker1606"
       refX="0.0"
       refY="0.0"
       orient="auto"
       inkscape:stockid="Arrow1Lstart">
      <path
         transform="scale(0.8) translate(12.5,0)"
         style="fill-rule:evenodd;stroke:#000000;stroke-width:1pt;stroke-opacity:1;fill:#d3bc5f;fill-opacity:1"
         d="M 0.0,0.0 L 5.0,-5.0 L -12.5,0.0 L 5.0,5.0 L 0.0,0.0 z "
         id="path1604" />
    </marker>
    <marker
       inkscape:isstock="true"
       style="overflow:visible"
       id="marker1548"
       refX="0.0"
       refY="0.0"
       orient="auto"
       inkscape:stockid="Arrow1Lstart">
      <path
         transform="scale(0.8) translate(12.5,0)"
         style="fill-rule:evenodd;stroke:#000000;stroke-width:1pt;stroke-opacity:1;fill:#d3bc5f;fill-opacity:1"
         d="M 0.0,0.0 L 5.0,-5.0 L -12.5,0.0 L 5.0,5.0 L 0.0,0.0 z "
         id="path1546" />
    </marker>
    <marker
       inkscape:isstock="true"
       style="overflow:visible"
       id="marker1496"
       refX="0.0"
       refY="0.0"
       orient="auto"
       inkscape:stockid="Arrow1Lstart">
      <path
         transform="scale(0.8) translate(12.5,0)"
         style="fill-rule:evenodd;stroke:#000000;stroke-width:1pt;stroke-opacity:1;fill:#d3bc5f;fill-opacity:1"
         d="M 0.0,0.0 L 5.0,-5.0 L -12.5,0.0 L 5.0,5.0 L 0.0,0.0 z "
         id="path1494" />
    </marker>
    <marker
       inkscape:isstock="true"
       style="overflow:visible"
       id="marker1450"
       refX="0.0"
       refY="0.0"
       orient="auto"
       inkscape:stockid="Arrow1Lstart">
      <path
         transform="scale(0.8) translate(12.5,0)"
         style="fill-rule:evenodd;stroke:#000000;stroke-width:1pt;stroke-opacity:1;fill:#d3bc5f;fill-opacity:1"
         d="M 0.0,0.0 L 5.0,-5.0 L -12.5,0.0 L 5.0,5.0 L 0.0,0.0 z "
         id="path1448" />
    </marker>
    <marker
       inkscape:isstock="true"
       style="overflow:visible"
       id="marker1410"
       refX="0.0"
       refY="0.0"
       orient="auto"
       inkscape:stockid="Arrow1Lstart">
      <path
         transform="scale(0.8) translate(12.5,0)"
         style="fill-rule:evenodd;stroke:#000000;stroke-width:1pt;stroke-opacity:1;fill:#d3bc5f;fill-opacity:1"
         d="M 0.0,0.0 L 5.0,-5.0 L -12.5,0.0 L 5.0,5.0 L 0.0,0.0 z "
         id="path1408" />
    </marker>
    <marker
       inkscape:isstock="true"
       style="overflow:visible"
       id="marker1376"
       refX="0.0"
       refY="0.0"
       orient="auto"
       inkscape:stockid="Arrow1Lstart">
      <path
         transform="scale(0.8) translate(12.5,0)"
         style="fill-rule:evenodd;stroke:#000000;stroke-width:1pt;stroke-opacity:1;fill:#6c6753;fill-opacity:1"
         d="M 0.0,0.0 L 5.0,-5.0 L -12.5,0.0 L 5.0,5.0 L 0.0,0.0 z "
         id="path1374" />
    </marker>
    <marker
       inkscape:isstock="true"
       style="overflow:visible"
       id="marker1348"
       refX="0.0"
       refY="0.0"
       orient="auto"
       inkscape:stockid="Arrow1Lstart">
      <path
         transform="scale(0.8) translate(12.5,0)"
         style="fill-rule:evenodd;stroke:#000000;stroke-width:1pt;stroke-opacity:1;fill:#d3bc5f;fill-opacity:1"
         d="M 0.0,0.0 L 5.0,-5.0 L -12.5,0.0 L 5.0,5.0 L 0.0,0.0 z "
         id="path1346" />
    </marker>
    <marker
       inkscape:isstock="true"
       style="overflow:visible"
       id="marker1326"
       refX="0.0"
       refY="0.0"
       orient="auto"
       inkscape:stockid="Arrow1Lstart">
      <path
         transform="scale(0.8) translate(12.5,0)"
         style="fill-rule:evenodd;stroke:#000000;stroke-width:1pt;stroke-opacity:1;fill:#d3bc5f;fill-opacity:1"
         d="M 0.0,0.0 L 5.0,-5.0 L -12.5,0.0 L 5.0,5.0 L 0.0,0.0 z "
         id="path1324" />
    </marker>
  </defs>
  <sodipodi:namedview
     id="base"
     pagecolor="#ffffff"
     bordercolor="#666666"
     borderopacity="1.0"
     inkscape:pageopacity="0.0"
     inkscape:pageshadow="2"
     inkscape:zoom="0.74505492"
     inkscape:cx="237.31662"
     inkscape:cy="794.114"
     inkscape:document-units="mm"
     inkscape:current-layer="layer1"
     showgrid="false"
     inkscape:window-width="1366"
     inkscape:window-height="703"
     inkscape:window-x="0"
     inkscape:window-y="0"
     inkscape:window-maximized="1"
     objecttolerance="1"
     guidetolerance="1" />
  <metadata
     id="metadata5">
    <rdf:RDF>
      <cc:Work
         rdf:about="">
        <dc:format>image/svg+xml</dc:format>
        <dc:type
           rdf:resource="http://purl.org/dc/dcmitype/StillImage" />
        <dc:title />
      </cc:Work>
    </rdf:RDF>
  </metadata>
  <g
     inkscape:label="Layer 1"
     inkscape:groupmode="layer"
     id="layer1">
    <g
       id="g1240"
       transform="translate(8.2319014,-42.656216)"
       style="stroke-width:0.3;stroke-miterlimit:4;stroke-dasharray:none">
      <path
         id="path974-6"
         transform="scale(0.26458333)"
         d="m 321.74609,235.95508 a 10.466871,10.466871 0 0 0 -10.46679,10.4668 10.466871,10.466871 0 0 0 10.46679,10.46679 10.466871,10.466871 0 0 0 10.4668,-10.46679 10.466871,10.466871 0 0 0 -10.4668,-10.4668 z m 0.4043,6.26172 a 4.473022,4.473022 0 0 1 4.47266,4.47461 4.473022,4.473022 0 0 1 -4.47266,4.47265 4.473022,4.473022 0 0 1 -4.47266,-4.47265 4.473022,4.473022 0 0 1 4.47266,-4.47461 z"
         style="color:#000000;clip-rule:nonzero;display:inline;overflow:visible;visibility:visible;opacity:1;isolation:auto;mix-blend-mode:normal;color-interpolation:sRGB;color-interpolation-filters:linearRGB;solid-color:#000000;solid-opacity:1;fill:#aca793;fill-opacity:1;fill-rule:evenodd;stroke:#000000;stroke-width:1.13385828;stroke-linecap:round;stroke-linejoin:round;stroke-miterlimit:4;stroke-dasharray:none;stroke-opacity:1;paint-order:normal;color-rendering:auto;image-rendering:auto;shape-rendering:auto;text-rendering:auto;enable-background:accumulate"
         inkscape:connector-curvature="0" />
      <path
         id="path974"
         transform="scale(0.26458333)"
         d="m 412.29297,240.05078 a 10.466871,10.466871 0 0 0 -10.4668,10.4668 10.466871,10.466871 0 0 0 10.4668,10.4668 10.466871,10.466871 0 0 0 10.4668,-10.4668 10.466871,10.466871 0 0 0 -10.4668,-10.4668 z m 0.65625,5.75586 a 4.473022,4.473022 0 0 1 4.47266,4.47461 4.473022,4.473022 0 0 1 -4.47266,4.47266 4.473022,4.473022 0 0 1 -4.47266,-4.47266 4.473022,4.473022 0 0 1 4.47266,-4.47461 z"
         style="color:#000000;clip-rule:nonzero;display:inline;overflow:visible;visibility:visible;opacity:1;isolation:auto;mix-blend-mode:normal;color-interpolation:sRGB;color-interpolation-filters:linearRGB;solid-color:#000000;solid-opacity:1;fill:#aca793;fill-opacity:1;fill-rule:evenodd;stroke:#000000;stroke-width:1.13385828;stroke-linecap:round;stroke-linejoin:round;stroke-miterlimit:4;stroke-dasharray:none;stroke-opacity:1;paint-order:normal;color-rendering:auto;image-rendering:auto;shape-rendering:auto;text-rendering:auto;enable-background:accumulate"
         inkscape:connector-curvature="0" />
      <path
         sodipodi:nodetypes="csssssccccscsccc"
         inkscape:connector-curvature="0"
         id="path826-8"
         d="m 84.832549,65.793918 c -0.317304,-0.03526 -1.627018,3.662744 -5.018296,4.07107 -4.083826,0.491712 -8.682938,10.186651 -11.171929,19.787939 -2.253934,8.694554 0.898668,18.860023 11.550717,25.752953 10.939759,7.07909 25.239839,9.41365 34.273879,-1.98851 4.62363,-5.83564 10.21313,-12.90721 6.24871,-31.622878 -0.89169,-4.209579 -3.19603,-9.173443 -7.76386,-11.456149 -1.64728,-0.823198 -2.02803,-3.403901 -3.21893,-3.503144 0,0 -0.76402,-0.01606 -1.13585,-0.09457 -0.29122,-0.06149 -3.09709,5.131374 -7.953,3.787365 2.74897,3.897609 1.75363,7.283429 -0.0951,10.225214 -1.402878,2.232337 -2.640556,4.807339 -3.69228,7.479649 -0.653512,-2.485773 -2.565981,-3.993798 -4.449854,-6.627503 -3.297616,-4.610158 -0.874604,-8.585364 0.189135,-11.834936 -4.611492,1.265205 -6.554002,-3.842245 -6.911205,-3.881935 z"
         style="fill:#c8c4b7;fill-rule:evenodd;stroke:#000000;stroke-width:0.3;stroke-linecap:round;stroke-linejoin:round;stroke-miterlimit:4;stroke-dasharray:none;stroke-opacity:1;paint-order:normal" />
      <path
         sodipodi:nodetypes="cccccscccsccsccsccccsssscsccccccc"
         inkscape:connector-curvature="0"
         id="path826"
         transform="scale(0.26458333)"
         d="m 323.47461,265.10938 c 5.39864,-0.33037 16.0762,2.10875 19.69922,3.14843 -2.83541,0.1265 -13.75955,18.51176 -3.93945,35.51953 5.34833,9.263 3.80069,20.1525 0.71484,28.26954 -1.58258,4.16281 1.78906,13.24023 1.78906,13.24023 -0.56397,-0.42298 1.01703,-18.24259 10.01953,-15.38672 13.59996,4.31433 15.0293,40.07813 15.0293,40.07813 0,0 3.10748,-37.0236 16.81836,-37.57422 8.23616,-0.33075 6.74975,14.6813 5.00976,15.02929 1.28659,0.57182 10.08524,-11.80273 2.86329,-21.11132 -7.63646,-9.84287 -4.8631,-19.49604 -1.07227,-27.19727 5.7566,-11.69481 0.68554,-27.28568 -0.35937,-26.83789 0.19992,-1.79774 27.60453,-6.76678 36.85742,7.87305 3.75008,5.93334 0.86619,11.35134 1.07422,13.24023 0.77933,7.07647 8.94531,7.28168 8.94531,5.36719 -2.14288,1.28573 -7.71973,-5.68831 -2.50391,-8.94531 5.38893,-3.3651 12.47907,6.20314 14.67188,12.16601 8.73161,23.74357 7.2931,53.13487 4.65234,78.00977 -7.15529,33.88588 -42.17568,67.33043 -65.12891,52.96093 -13.2779,11.94611 -25.71621,10.8046 -43.65625,1.43164 0.17035,5.69576 -32.68695,6.84249 -50.09765,-11.09374 -11.04353,-11.37687 -20.5259,-25.23898 -25.04883,-40.43555 -5.68401,-19.09765 -6.64571,-40.5285 -1.43164,-59.75977 4.51296,-16.64531 13.88421,-33.05224 27.19726,-44.01562 6.93048,-5.70729 11.30909,2.8948 8.94532,6.4414 0.53124,0.95623 5.97673,-1.58609 4.65234,-11.80859 -0.51036,-3.93931 5.16447,-6.65489 8.94531,-7.87305 1.51874,-0.48932 3.36219,-0.7055 5.35352,-0.73632 z m 66.95508,182.57226 c -5.91156,3.59138 -26.62048,8.46669 -40.99219,1.77148 -3.19458,-1.48822 -2.96271,-4.17604 0.25391,-4.04882 13.92572,-0.23802 27.3807,-0.62767 39.29297,-2.5879 3.28201,1.27699 3.7477,3.35233 1.44531,4.86524 z"
         style="fill:#6c6753;fill-opacity:1;fill-rule:evenodd;stroke:#000000;stroke-width:1.13385828;stroke-linecap:round;stroke-linejoin:round;stroke-miterlimit:4;stroke-dasharray:none;stroke-opacity:1;paint-order:normal" />
      <path
         sodipodi:nodetypes="csccscssccssccccccsscsccccsscssscccccccscccccscccccsccscsccccsccscccccssc"
         inkscape:connector-curvature="0"
         d="m 78.124417,100.57415 c 0.199678,0.37038 1.905981,7.67451 5.09212,9.90833 2.799498,1.96274 6.884332,2.76097 8.502414,-0.66948 0.461803,-0.97906 0.390972,-2.55557 -0.468638,-3.21351 -0.892411,-0.80633 -2.340761,-0.47299 -2.945716,0.53559 -0.482846,0.805 -0.08582,2.14383 0.705334,2.1653 -0.635815,0.0862 -1.288995,-1.28987 -0.687576,-2.15665 0.289353,-0.41702 1.3214,-1.6672 2.928415,-0.54693 1.190983,0.83025 0.847508,3.23813 0.01975,4.02765 3.873378,1.81631 7.663509,2.31726 11.12478,0 -0.49602,-1.09457 -0.63693,-2.45033 -0.23047,-3.16511 0.41874,-0.73637 1.68437,-1.71308 2.80959,-1.37926 1.22583,0.36366 2.04726,2.81709 0.63997,3.02951 1.32583,-0.0723 0.72491,-2.56836 -0.61542,-3.02973 -1.02666,-0.22757 -2.39317,0.4211 -2.84036,1.37285 -0.55988,1.19157 -0.0882,3.0208 0.94678,3.83449 1.86728,1.46801 4.73494,0.66143 6.86423,-0.85211 2.69506,-1.91509 4.18936,-8.11273 3.88186,-8.18973 -1.1893,-0.19776 -2.25384,-1.69204 -2.13572,-2.556268 0.21097,-1.543552 1.22159,-1.861193 1.56766,-1.892163 0.70058,-0.0627 1.52389,0.473605 1.04145,1.418706 0.36193,-0.08043 0.29565,-1.597286 -1.04147,-1.420184 -0.81119,0.107442 -1.5642,1.07531 -1.5622,1.893578 0.003,1.109201 1.04339,2.334971 2.13028,2.556331 2.05162,0.41783 4.22051,-2.909426 3.82267,-5.065323 -0.51324,-2.770507 -0.57935,-6.083344 -0.28404,-6.343491 0.0382,-0.05554 -0.64588,0.31564 -1.1698,0.3806 -1.84733,0.22904 -2.93724,-1.267568 -2.6089,-2.234086 0.45476,-1.338676 1.78862,-0.901187 2.07497,-0.459568 -0.052,-0.484663 -1.75146,-0.960282 -2.07539,0.468635 -0.29312,1.29301 1.10378,2.438759 2.61098,2.209289 3.07618,-0.468345 2.65952,-3.560908 0.87032,-5.155007 -1.60596,-1.430844 -2.06976,-4.706698 -1.80759,-4.753318 -2.78961,1.638809 -3.20501,-0.792444 -3.54825,-3.347406 -0.42644,1.252544 -0.67603,2.704042 -2.47709,2.410132 -0.0414,-0.01381 -0.83207,2.697386 -0.53558,4.284681 0.23335,1.249256 -0.067,3.443086 -0.067,3.414356 0.27892,0.334704 -0.48931,-3.278398 -1.07117,-6.025333 -0.12698,-0.599476 0.33474,-1.807599 0.33474,-1.807599 -0.0378,-0.07567 -1.9558,1.331427 -1.9415,3.079613 0.0239,2.917406 0.18515,5.972228 -0.13389,8.904105 -0.15911,1.462125 1.93845,3.746085 1.87455,3.682145 l -1.34769,-1.832152 c 0,0 -4.57825,4.124112 -5.77542,6.864227 -0.30564,0.69948 -0.28404,2.27229 -0.28404,2.27229 0.0124,-0.8532 0.0351,-1.63889 0.28508,-2.27501 0.19864,-0.50548 0.5077,-0.89905 0.73416,-1.353391 -3.370012,1.642411 -6.225365,0.893131 -8.972272,-0.206094 0.425228,0.820135 0.726698,1.578395 0.899451,2.272295 -1.207381,-4.027466 -4.061079,-5.585455 -6.43817,-7.858356 -0.318606,1.134962 -1.403917,3.064902 -1.963848,2.383985 0.316987,0.747276 3.025302,-1.744665 2.108867,-7.297347 -0.358719,-2.173478 1.006977,-3.536339 0.968367,-4.792534 -0.04863,-1.582335 -1.052205,-2.673071 -1.035315,-2.571762 0,0 0.173045,0.992987 0.06695,1.472858 -0.586895,2.654553 -2.511312,4.405995 -2.477082,4.217734 0.143288,0.110236 1.139302,-1.996308 1.414034,-3.847139 0.132376,-0.891795 0.01342,-2.644676 -0.610656,-3.918845 -1.730365,0.766161 -2.173806,-0.546555 -2.276237,-2.410134 -1.18098,2.370561 -2.504091,4.335032 -5.422799,1.740654 0.846279,1.660144 -0.864123,3.852887 -2.075392,5.155006 -0.93183,1.760487 -0.397807,4.026741 0.870326,4.753317 1.086474,0.622494 3.138562,0.04676 3.146562,-1.405912 0.01097,-2.004503 -2.343184,-1.398815 -2.343184,-1.138118 0.742172,-0.561573 2.301642,-0.421566 2.344582,1.124578 0.02948,1.061265 -1.412713,1.85742 -2.407933,1.657693 0,0 -2.943798,7.5493 -0.958626,10.414685 0.745605,1.076167 2.536258,1.737537 3.645141,1.041467 0.82125,-0.508759 1.185663,-1.948523 0.520734,-2.840366 -1.063514,-1.119423 -2.269362,-0.520387 -2.420057,0.798535 0.03893,-1.341808 1.529942,-1.928302 2.422343,-0.797991 0.871872,1.104309 -0.04344,2.572192 -0.522903,2.843142 -0.303686,0.17161 -1.207615,0.37352 -1.690066,0.21905 z"
         style="fill:#c8c4b7;fill-rule:evenodd;stroke:#000000;stroke-width:0.3;stroke-linecap:round;stroke-linejoin:round;stroke-miterlimit:4;stroke-dasharray:none;stroke-opacity:1;paint-order:normal"
         id="path972" />
      <circle
         r="1.2308266"
         cy="70.71727"
         cx="100.73843"
         id="path838"
         style="color:#000000;clip-rule:nonzero;display:inline;overflow:visible;visibility:visible;opacity:1;isolation:auto;mix-blend-mode:normal;color-interpolation:sRGB;color-interpolation-filters:linearRGB;solid-color:#000000;solid-opacity:1;fill:#d3bc5f;fill-opacity:1;fill-rule:evenodd;stroke:#000000;stroke-width:0.3;stroke-linecap:round;stroke-linejoin:round;stroke-miterlimit:4;stroke-dasharray:none;stroke-opacity:1;paint-order:normal;color-rendering:auto;image-rendering:auto;shape-rendering:auto;text-rendering:auto;enable-background:accumulate" />
      <circle
         r="1.2308266"
         cy="70.338554"
         cx="92.690704"
         id="path838-3"
         style="color:#000000;clip-rule:nonzero;display:inline;overflow:visible;visibility:visible;opacity:1;isolation:auto;mix-blend-mode:normal;color-interpolation:sRGB;color-interpolation-filters:linearRGB;solid-color:#000000;solid-opacity:1;fill:#d3bc5f;fill-opacity:1;fill-rule:evenodd;stroke:#000000;stroke-width:0.3;stroke-linecap:round;stroke-linejoin:round;stroke-miterlimit:4;stroke-dasharray:none;stroke-opacity:1;paint-order:normal;color-rendering:auto;image-rendering:auto;shape-rendering:auto;text-rendering:auto;enable-background:accumulate" />
      <circle
         r="1.2308266"
         cy="90.031776"
         cx="93.164108"
         id="path838-6"
         style="color:#000000;clip-rule:nonzero;display:inline;overflow:visible;visibility:visible;opacity:1;isolation:auto;mix-blend-mode:normal;color-interpolation:sRGB;color-interpolation-filters:linearRGB;solid-color:#000000;solid-opacity:1;fill:#d3bc5f;fill-opacity:1;fill-rule:evenodd;stroke:#000000;stroke-width:0.3;stroke-linecap:round;stroke-linejoin:round;stroke-miterlimit:4;stroke-dasharray:none;stroke-opacity:1;paint-order:normal;color-rendering:auto;image-rendering:auto;shape-rendering:auto;text-rendering:auto;enable-background:accumulate" />
      <circle
         r="1.2308266"
         cy="90.410492"
         cx="101.02246"
         id="path838-7"
         style="color:#000000;clip-rule:nonzero;display:inline;overflow:visible;visibility:visible;opacity:1;isolation:auto;mix-blend-mode:normal;color-interpolation:sRGB;color-interpolation-filters:linearRGB;solid-color:#000000;solid-opacity:1;fill:#d3bc5f;fill-opacity:1;fill-rule:evenodd;stroke:#000000;stroke-width:0.3;stroke-linecap:round;stroke-linejoin:round;stroke-miterlimit:4;stroke-dasharray:none;stroke-opacity:1;paint-order:normal;color-rendering:auto;image-rendering:auto;shape-rendering:auto;text-rendering:auto;enable-background:accumulate" />
      <circle
         r="1.2308266"
         cy="119.00354"
         cx="98.182091"
         id="path838-5"
         style="color:#000000;clip-rule:nonzero;display:inline;overflow:visible;visibility:visible;opacity:1;isolation:auto;mix-blend-mode:normal;color-interpolation:sRGB;color-interpolation-filters:linearRGB;solid-color:#000000;solid-opacity:1;fill:#d3bc5f;fill-opacity:1;fill-rule:evenodd;stroke:#000000;stroke-width:0.3;stroke-linecap:round;stroke-linejoin:round;stroke-miterlimit:4;stroke-dasharray:none;stroke-opacity:1;paint-order:normal;color-rendering:auto;image-rendering:auto;shape-rendering:auto;text-rendering:auto;enable-background:accumulate" />
      <path
         id="path873"
         transform="scale(0.26458333)"
         d="m 320.62695,339.5625 a 2.8627342,2.8627342 0 0 0 -2.86328,2.86133 2.8627342,2.8627342 0 0 0 2.86328,2.86328 2.8627342,2.8627342 0 0 0 2.86133,-2.86328 2.8627342,2.8627342 0 0 0 -2.86133,-2.86133 z m 86.95508,0 a 2.8627342,2.8627342 0 0 0 -2.86328,2.86133 2.8627342,2.8627342 0 0 0 2.86328,2.86328 2.8627342,2.8627342 0 0 0 2.86328,-2.86328 2.8627342,2.8627342 0 0 0 -2.86328,-2.86133 z m 2.14649,8.94531 a 2.8627342,2.8627342 0 0 0 -2.86329,2.86328 2.8627342,2.8627342 0 0 0 2.86329,2.86133 2.8627342,2.8627342 0 0 0 2.86328,-2.86133 2.8627342,2.8627342 0 0 0 -2.86328,-2.86328 z m -89.81836,1.07422 a 2.8627342,2.8627342 0 0 0 -2.86328,2.86133 2.8627342,2.8627342 0 0 0 2.86328,2.86328 2.8627342,2.8627342 0 0 0 2.86328,-2.86328 2.8627342,2.8627342 0 0 0 -2.86328,-2.86133 z m 16.81836,20.75391 a 2.8627342,2.8627342 0 0 0 -2.86133,2.86328 2.8627342,2.8627342 0 0 0 2.86133,2.86328 2.8627342,2.8627342 0 0 0 2.86328,-2.86328 2.8627342,2.8627342 0 0 0 -2.86328,-2.86328 z m 57.61328,2.50586 a 2.8627342,2.8627342 0 0 0 -2.86328,2.86132 2.8627342,2.8627342 0 0 0 2.86328,2.86329 2.8627342,2.8627342 0 0 0 2.86328,-2.86329 2.8627342,2.8627342 0 0 0 -2.86328,-2.86132 z m -50.81446,5.72461 a 2.8627339,2.8627339 0 0 0 -2.86132,2.86328 2.8627339,2.8627339 0 0 0 2.86132,2.86328 2.8627339,2.8627339 0 0 0 2.86328,-2.86328 2.8627339,2.8627339 0 0 0 -2.86328,-2.86328 z m 45.08789,2.50586 a 2.8627342,2.8627342 0 0 0 -2.86132,2.86132 2.8627342,2.8627342 0 0 0 2.86132,2.86329 2.8627342,2.8627342 0 0 0 2.86329,-2.86329 2.8627342,2.8627342 0 0 0 -2.86329,-2.86132 z m -26.83789,3.2207 a 2.8627342,2.8627342 0 0 0 -2.86132,2.86133 2.8627342,2.8627342 0 0 0 2.86132,2.86328 2.8627342,2.8627342 0 0 0 2.86328,-2.86328 2.8627342,2.8627342 0 0 0 -2.86328,-2.86133 z m 9.30469,0.71484 a 2.8627342,2.8627342 0 0 0 -2.86328,2.86328 2.8627342,2.8627342 0 0 0 2.86328,2.86133 2.8627342,2.8627342 0 0 0 2.86328,-2.86133 2.8627342,2.8627342 0 0 0 -2.86328,-2.86328 z"
         style="color:#000000;clip-rule:nonzero;display:inline;overflow:visible;visibility:visible;opacity:1;isolation:auto;mix-blend-mode:normal;color-interpolation:sRGB;color-interpolation-filters:linearRGB;solid-color:#000000;solid-opacity:1;fill:#6c6753;fill-opacity:1;fill-rule:evenodd;stroke:#000000;stroke-width:1.13385828;stroke-linecap:round;stroke-linejoin:round;stroke-miterlimit:4;stroke-dasharray:none;stroke-opacity:1;paint-order:normal;color-rendering:auto;image-rendering:auto;shape-rendering:auto;text-rendering:auto;enable-background:accumulate"
         inkscape:connector-curvature="0" />
      <circle
         r="0.75743175"
         cy="118.24611"
         cx="101.3065"
         id="path873-60"
         style="color:#000000;clip-rule:nonzero;display:inline;overflow:visible;visibility:visible;opacity:1;isolation:auto;mix-blend-mode:normal;color-interpolation:sRGB;color-interpolation-filters:linearRGB;solid-color:#000000;solid-opacity:1;fill:#d3bc5f;fill-opacity:1;fill-rule:evenodd;stroke:#000000;stroke-width:0.3;stroke-linecap:round;stroke-linejoin:round;stroke-miterlimit:4;stroke-dasharray:none;stroke-opacity:1;paint-order:normal;color-rendering:auto;image-rendering:auto;shape-rendering:auto;text-rendering:auto;enable-background:accumulate" />
      <circle
         r="0.75743175"
         cy="118.7195"
         cx="95.057686"
         id="path873-62"
         style="color:#000000;clip-rule:nonzero;display:inline;overflow:visible;visibility:visible;opacity:1;isolation:auto;mix-blend-mode:normal;color-interpolation:sRGB;color-interpolation-filters:linearRGB;solid-color:#000000;solid-opacity:1;fill:#d3bc5f;fill-opacity:1;fill-rule:evenodd;stroke:#000000;stroke-width:0.3;stroke-linecap:round;stroke-linejoin:round;stroke-miterlimit:4;stroke-dasharray:none;stroke-opacity:1;paint-order:normal;color-rendering:auto;image-rendering:auto;shape-rendering:auto;text-rendering:auto;enable-background:accumulate" />
      <path
         sodipodi:nodetypes="csscc"
         inkscape:connector-curvature="0"
         id="path952"
         d="m 113.56915,89.586291 c -1.79074,-0.142292 -2.73963,-1.74218 -3.31705,-3.980788 -0.28089,-1.089003 1.01549,-1.934298 1.75214,-1.83533 2.46095,0.330625 3.27923,4.304036 2.59628,4.309689 -0.90788,0.138844 -1.05071,0.843144 -1.03137,1.506429 z"
         style="fill:#d3bc5f;fill-rule:evenodd;stroke:#000000;stroke-width:0.3;stroke-linecap:round;stroke-linejoin:round;stroke-miterlimit:4;stroke-dasharray:none;stroke-opacity:1;paint-order:normal" />
      <path
         sodipodi:nodetypes="csscc"
         inkscape:connector-curvature="0"
         id="path962"
         d="m 78.678221,85.8659 c -0.122787,-0.02456 0.390466,-3.233037 2.177617,-3.645138 1.490286,-0.343646 2.226386,-0.100962 2.272294,0.946788 0.152035,3.469873 -3.455148,4.512321 -3.597802,4.165876 0.01818,-0.683461 -0.24558,-1.185667 -0.852109,-1.467526 z"
         style="fill:#d3bc5f;fill-rule:evenodd;stroke:#000000;stroke-width:0.3;stroke-linecap:round;stroke-linejoin:round;stroke-miterlimit:4;stroke-dasharray:none;stroke-opacity:1;paint-order:normal" />
    </g>
    <g
       id="g1248"
       transform="translate(20.205576,-42.656216)"
       style="stroke-width:0.3;stroke-miterlimit:4;stroke-dasharray:none">
      <path
         id="path943"
         transform="scale(0.26458333)"
         d="m 573.67578,277.26172 c -2.86113,0.0274 -5.91819,0.84383 -7.72266,2.29687 -1.67852,1.35162 0.0265,4.27137 -1.7832,5.43946 -3.73954,2.41193 -19.6636,5.61266 -19.10351,9.23047 0.68179,4.40389 12.64787,26.89684 14.91797,27.60156 3.55071,1.10226 18.70164,3.43481 22.38085,-0.49805 5.57794,-5.96245 17.52794,-25.09615 16.90821,-29.3418 -0.67212,-4.60453 -13.27943,-7.70907 -19.64453,-9.69726 -1.737,-0.54256 0.32364,-3.43358 -1.32813,-4.19727 -1.26173,-0.58336 -2.90832,-0.85045 -4.625,-0.83398 z m 5.20703,14.72851 c -0.53423,0.53425 14.11474,-0.0688 13.42774,2.48633 -1.90447,7.08318 -8.66308,20.12234 -12.43164,22.13086 -2.44328,1.30218 -12.5489,2.2299 -14.34961,0.75977 -2.37109,-1.93579 -9.67574,-15.89839 -9.15821,-20.1543 0.22636,-1.86134 11.00381,-4.43923 10.82618,-4.97266 l 4.97265,13.17774 z"
         style="fill:#aca793;fill-rule:evenodd;stroke:#000000;stroke-width:1.13385828;stroke-linecap:round;stroke-linejoin:round;stroke-miterlimit:4;stroke-dasharray:none;stroke-opacity:1"
         inkscape:connector-curvature="0" />
      <circle
         r="2.3726075"
         cy="121.00834"
         cx="151.98645"
         id="path965"
         style="color:#000000;clip-rule:nonzero;display:inline;overflow:visible;visibility:visible;opacity:1;isolation:auto;mix-blend-mode:normal;color-interpolation:sRGB;color-interpolation-filters:linearRGB;solid-color:#000000;solid-opacity:1;fill:#d3bc5f;fill-opacity:1;fill-rule:evenodd;stroke:#000000;stroke-width:0.3;stroke-linecap:round;stroke-linejoin:round;stroke-miterlimit:4;stroke-dasharray:none;stroke-dashoffset:0;stroke-opacity:1;paint-order:normal;color-rendering:auto;image-rendering:auto;shape-rendering:auto;text-rendering:auto;enable-background:accumulate" />
      <path
         d="m 573.60352,355.32227 c -2.94253,-0.0212 -6.1266,3.09677 -1.62891,11.12695 1.40338,2.50563 6.79511,2.92495 8.61719,0.70508 8.72167,-10.62589 -1.1452,-14.37115 -3.86914,-10.02344 -0.49431,-1.14104 -1.78163,-1.79896 -3.11914,-1.80859 z m 2.41601,23.25976 a 4.3957527,4.0440924 0 0 0 -4.39648,4.04492 4.3957527,4.0440924 0 0 0 4.39648,4.04297 4.3957527,4.0440924 0 0 0 4.39649,-4.04297 4.3957527,4.0440924 0 0 0 -4.39649,-4.04492 z m -0.87891,16.35352 a 3.5166023,3.2528572 0 0 0 -3.51757,3.25195 3.5166023,3.2528572 0 0 0 3.51757,3.25195 3.5166023,3.2528572 0 0 0 3.51563,-3.25195 3.5166023,3.2528572 0 0 0 -3.51563,-3.25195 z m 58.3392,4.14794 c 0.90036,0.22526 1.28118,12.8936 -4.24229,17.98398 -5.62424,5.18324 -4.0647,14.0821 4.35159,14.79534 5.01445,0.42486 10.24978,-5.74866 5.84353,-10.19513 -1.17248,-1.25937 -3.64006,-0.52029 -3.60559,-0.49731 1.25699,-0.26041 2.43526,-0.5142 3.62078,0.49512 3.71706,3.16456 0.69166,10.75283 -5.88476,10.21062 -5.07398,-0.41832 -8.31828,-4.07172 -7.52708,-9.33804 0.44931,1.40863 -11.46266,4.08363 -19.30235,-0.746 -9.29287,-5.72489 -19.02572,5.89349 -17.03327,16.41165 1.05041,5.5451 6.50759,7.64841 10.69243,5.71918 4.96177,-3.40259 2.79496,-8.74333 1.86494,-7.95715 1.84512,-0.18444 1.90707,5.77814 -1.84528,7.93217 -3.60121,2.06721 -9.62143,-0.21846 -10.70574,-5.65693 -1.17279,-5.88223 1.4324,-13.18205 6.83183,-16.41986 -9.11633,-8.70194 0.19956,-27.96389 7.21115,-38.07405 12.64627,-18.23486 3.18142,-48.3524 -23.6228,-55.45148 -1.45561,-4.84206 0.31295,-10.88571 -2.73528,-14.91968 -1.54356,-2.04275 -6.38903,-2.60322 -8.70316,0.49732 -3.14188,4.20954 1.34597,12.38043 -1.74062,16.6603 -20.56014,8.01628 -32.98787,30.47101 -19.39559,51.72157 8.1775,12.78497 10.27241,41.69212 -2.98394,40.91233 5.60961,2.04238 8.53081,5.9173 8.92755,9.56432 0.92179,8.47381 -6.91695,12.2784 -13.79917,10.07376 -5.34535,-1.71231 -4.82238,-7.52428 -1.34491,-8.08286 -1.65154,-0.74592 -5.6841,5.15789 1.36766,8.08147 7.91354,2.27705 15.03292,-2.6566 13.80072,-10.07078 -1.3293,-7.99831 -11.21095,-12.52846 -16.536,-8.20581 -6.56946,5.3328 -15.12571,4.15525 -14.9046,3.49697 0.74638,5.38057 -3.0423,9.14827 -5.96962,10.10566 -3.73504,1.22158 -9.44757,0.35566 -8.35135,-5.85827 0.36926,-2.09253 2.511,-3.70049 2.99179,-3.14415 -0.0778,-0.19426 -2.49036,0.25248 -2.98393,3.10832 -1.0983,6.35509 4.4426,6.95207 8.33015,5.9678 5.3475,-1.3539 8.72644,-10.74977 3.35694,-14.54664 -5.01532,-3.54645 -7.81032,-12.696 -6.8897,-13.08363 -4.59734,8.25388 -11.67122,8.60882 -17.72776,0.27742 11.62647,16.99751 26.2371,-6.17545 17.90358,-19.02263 -3.71444,-5.72629 3.42932,-13.84279 5.96788,-19.51989 -6.08353,3.77392 -15.08466,18.14826 -13.55203,-0.62165 -4.04904,10.11045 -14.41081,2.73624 -15.54134,6.34086 -4.18042,13.32911 -19.68117,64.37941 21.63352,81.56092 21.94704,9.12711 51.17156,2.0135 59.43005,-8.95181 1.80492,-2.39649 4.63329,-1.59538 7.45984,0.49731 17.81537,13.18983 50.31081,10.95817 66.64128,-1.24328 25.87566,-19.33326 22.59806,-67.43988 10.44378,-85.0422 -1.05528,-1.52831 -3.83766,-2.90328 -4.7246,-1.24329 -2.34429,4.3875 -9.47683,2.09701 -10.69244,-0.99465 -1.17841,7.0028 -0.29631,18.88196 -10.94109,3.48125 0.30766,0.007 2.56521,11.89175 1.97681,14.87705 -5.41289,27.46296 21.46386,26.27199 21.39734,18.94088 -0.81566,6.16048 -13.90212,6.0226 -18.75885,-0.8264 z"
         style="fill:#c8c4b7;fill-rule:evenodd;stroke:#000000;stroke-width:1.13385828;stroke-linecap:round;stroke-linejoin:round;stroke-miterlimit:4;stroke-dasharray:none;stroke-opacity:1"
         transform="scale(0.26458333)"
         id="path969"
         inkscape:connector-curvature="0" />
      <path
         sodipodi:nodetypes="ccc"
         inkscape:connector-curvature="0"
         id="path967"
         d="m 145.89211,95.049217 c 0.90981,-6.110071 10.46859,-8.245638 12.88652,-1.442175 -4.35822,-2.654807 -8.65236,-2.10576 -12.88652,1.442175 z"
         style="fill:#6c6753;fill-rule:evenodd;stroke:#000000;stroke-width:0.3;stroke-linecap:round;stroke-linejoin:round;stroke-miterlimit:4;stroke-dasharray:none;stroke-opacity:1" />
      <path
         sodipodi:nodetypes="sssss"
         inkscape:connector-curvature="0"
         id="path977"
         d="m 169.01874,104.32916 c 0.42601,1.00644 2.20477,1.26044 2.69746,0.27679 0.43055,-0.85959 0.41291,-2.97166 -0.46054,-3.75012 -0.55917,-0.49836 -1.62253,-0.13032 -2.00665,0.51271 -0.49294,0.82519 -0.51063,2.29828 -0.23027,2.96062 z"
         style="fill:#d3bc5f;fill-rule:evenodd;stroke:#000000;stroke-width:0.3;stroke-linecap:round;stroke-linejoin:round;stroke-miterlimit:4;stroke-dasharray:none;stroke-opacity:1" />
      <path
         sodipodi:nodetypes="sssss"
         inkscape:connector-curvature="0"
         id="path979"
         d="m 132.56364,102.81834 c 0.4394,-0.37654 1.35984,0.0352 1.65152,0.535 0.64613,1.10713 0.2841,3.1769 -0.81413,3.83804 -0.58855,0.35431 -1.48562,0.002 -1.69804,-0.6513 -0.34185,-1.05131 0.0418,-3.02003 0.86065,-3.72174 z"
         style="fill:#d3bc5f;fill-rule:evenodd;stroke:#000000;stroke-width:0.3;stroke-linecap:round;stroke-linejoin:round;stroke-miterlimit:4;stroke-dasharray:none;stroke-opacity:1" />
    </g>
    <g
       id="g1254"
       transform="translate(39.662798,-32.927606)"
       style="stroke-width:0.3;stroke-miterlimit:4;stroke-dasharray:none">
      <path
         d="m 55.067606,165.35092 a 1.3816246,1.3816246 0 0 1 -1.381624,1.38163 1.3816246,1.3816246 0 0 1 -1.381625,-1.38163 1.3816246,1.3816246 0 0 1 1.381625,-1.38162 1.3816246,1.3816246 0 0 1 1.381624,1.38162 z M 133.886,148.34377 a 1.6118953,1.8092703 0 0 1 -1.61189,1.80927 1.6118953,1.8092703 0 0 1 -1.6119,-1.80927 1.6118953,1.8092703 0 0 1 1.6119,-1.80928 1.6118953,1.8092703 0 0 1 1.61189,1.80928 z m 4.23698,-8.02892 c 0.55591,1.15355 0.81574,3.56076 1.28952,3.85115 l 1.01977,0.62503 c 0,0 -0.65748,0.53878 -0.88819,0.88818 -0.63849,0.96696 0.068,2.59769 0.19738,2.53298 0.22867,0.68004 0.8608,1.00147 2.20401,0.69081 0.1499,0.63744 -0.1374,1.44975 1.77638,1.38163 -2.37842,1.77459 -2.02547,3.66299 -1.48031,5.55939 1.02741,2.79289 2.33631,5.24175 4.47383,6.67785 l -0.21844,0.96079 c -23.69729,1.71694 -47.216202,7.53648 -70.66653,14.93348 -0.766837,0.67993 -0.414319,1.0212 -0.712748,1.55697 -9.989862,1.94697 -19.782469,5.57059 -29.526367,9.60824 l -0.348914,-1.52359 c -1.193856,-2.41618 0.196416,-3.45415 0.697825,-4.96619 l -1.163042,-1.18631 c -0.481419,-1.89717 -0.522668,-3.72097 -0.651304,-5.55934 0.285636,-0.85201 0.734331,-1.69383 0.06978,-2.60522 l -0.558261,-1.09326 c -0.115627,-0.6358 -0.03882,-1.27159 -0.674563,-1.90739 0.01373,-0.41293 -0.176636,-0.75784 -0.535,-1.04674 0.674078,-0.45925 0.921106,-1.05336 0.418695,-1.88413 0.0096,-0.58598 0.516175,-1.13514 -1.04674,-1.8376 0.328968,-1.07742 -0.177891,-2.23843 -0.418695,-3.37283 26.704988,-3.14473 54.314583,-3.03807 96.741914,-22.2839 z"
         style="color:#000000;clip-rule:nonzero;display:inline;overflow:visible;visibility:visible;opacity:1;isolation:auto;mix-blend-mode:normal;color-interpolation:sRGB;color-interpolation-filters:linearRGB;solid-color:#000000;solid-opacity:1;fill:#22241c;fill-opacity:1;fill-rule:evenodd;stroke:#000000;stroke-width:0.3;stroke-linecap:round;stroke-linejoin:round;stroke-miterlimit:4;stroke-dasharray:none;stroke-dashoffset:0;stroke-opacity:1;paint-order:normal;color-rendering:auto;image-rendering:auto;shape-rendering:auto;text-rendering:auto;enable-background:accumulate"
         id="path1040"
         inkscape:connector-curvature="0" />
      <path
         sodipodi:nodetypes="ccccccscsccccccccccccccccscccccccccccccccccccccccccccccccccc"
         inkscape:connector-curvature="0"
         d="m 132.77298,147.88626 c 0,1.09838 -0.76545,1.9888 -1.70967,1.9888 -0.94422,0 -1.70967,-0.89042 -1.70967,-1.9888 0,-1.09838 0.76545,-1.9888 1.70967,-1.9888 0.94422,0 1.70967,0.89042 1.70967,1.9888 z m -78.900827,17.29445 c -2e-6,0.95065 -0.728998,1.7213 -1.62826,1.7213 -0.899262,0 -1.628258,-0.77065 -1.62826,-1.7213 2e-6,-0.95065 0.728998,-1.7213 1.62826,-1.7213 0.899262,0 1.628258,0.77065 1.62826,1.7213 z m -12.818165,-2.922 c 27.009249,-2.67656 53.265078,-7.23666 78.292052,-14.86891 3.03478,0.29735 5.94158,0.21072 8.72825,-0.23626 -2.62879,0.10529 -5.27069,0.2368 -7.65865,-0.13957 6.35465,-1.61125 12.34356,-3.72541 17.70734,-6.69912 -0.40614,1.6949 0.1328,3.15354 0.69783,4.60565 -1.6717,1.40182 -3.46414,2.56215 -5.25696,3.72173 1.70263,-0.88058 3.32271,-1.47223 5.25696,-3.16347 -0.7157,1.10058 -0.93484,2.35071 -0.093,2.88434 0.75837,0.48073 1.10227,0.96145 1.11652,1.44218 0.0333,0.13334 -2.47925,0.37489 -3.72174,0.51174 -0.56108,0.0618 -1.34913,1.02348 -1.34913,1.02348 0,0 0.96757,-0.70952 1.53522,-0.74435 1.29107,-0.0792 3.56194,-0.30946 3.48912,-0.4187 0.18984,0.85102 0.35213,1.71582 1.02348,2.32609 0,0 -2.5587,1.30261 -2.23304,1.30261 0.32565,0 2.37261,-1.02348 2.37261,-1.02348 0.11107,0 0.68491,1.40231 0.37217,2.04695 -0.29852,0.61532 1.11652,1.72131 1.11652,1.72131 l -3.16347,2.65174 2.7913,-2.27957 c 0.40895,0.14711 0.71216,-0.12873 1.34913,0.93044 0.15244,1.44743 0.83563,2.00282 1.30261,2.65173 1.71818,2.38754 1.45448,2.26378 1.76782,2.97739 -15.04497,1.66574 -29.95687,4.26297 -44.65142,8.38163 -1.07068,0.3001 -17.364975,5.87598 -32.237909,7.36866 l 5.296228,-0.63067 c 0.02977,0.59037 0.238659,1.11008 -0.39475,1.61755 -9.597037,2.20573 -19.457791,6.38935 -29.211492,9.77006 0.554938,-0.70512 0.544658,-1.12763 0.592124,-1.57901 l 14.342581,-5.72387 -15.658412,6.25021 c 0.383375,-0.64875 0.561392,-1.28038 -0.09869,-1.84217 -0.886561,-1.7267 1.399652,-2.34983 2.302706,-3.45406 3.285529,0.79796 4.592981,-0.34042 6.908123,-0.7566 -2.236654,0.31478 -3.549615,1.67894 -6.875227,0.7566 -0.826235,-0.21533 -1.684017,-0.37545 -2.171123,-1.18425 0.59215,-1.60598 -0.01571,-3.5812 -0.526333,-5.5265 -0.09145,-1.92721 2.037898,-1.77243 3.190893,-2.53297 -0.902488,0.092 -1.69644,0.4011 -2.927728,-0.16448 -0.685837,-0.35089 -0.228521,-0.70178 0,-1.05267 3.742395,0.3135 7.2119,0.0812 10.427978,-0.65792 -3.242783,0.80593 -7.009916,0.99218 -11.217476,0.65792 0.176859,-1.15439 0.533147,-2.11503 -0.493439,-3.35538 1.676239,-1.79436 4.834168,-2.71603 7.730518,-3.68433 -2.549568,0.79465 -5.334034,1.04121 -7.40156,2.96063 0.01085,-0.78266 0.01669,-1.56595 -0.657916,-2.43429 l 2.236917,-0.16448 c -0.871257,-0.14368 -1.711671,-0.01 -2.664563,-0.88819 0.292282,-0.93847 -0.562601,-2.16374 -1.282972,-3.35537 z"
         style="color:#000000;clip-rule:nonzero;display:inline;overflow:visible;visibility:visible;opacity:1;isolation:auto;mix-blend-mode:normal;color-interpolation:sRGB;color-interpolation-filters:linearRGB;solid-color:#000000;solid-opacity:1;fill:#c4c8b7;fill-opacity:1;fill-rule:evenodd;stroke:#000000;stroke-width:0.3;stroke-linecap:round;stroke-linejoin:round;stroke-miterlimit:4;stroke-dasharray:none;stroke-dashoffset:0;stroke-opacity:1;paint-order:normal;color-rendering:auto;image-rendering:auto;shape-rendering:auto;text-rendering:auto;enable-background:accumulate"
         id="path1028" />
      <path
         sodipodi:nodetypes="cscccccccc"
         inkscape:connector-curvature="0"
         d="m 69.870727,167.29177 c -4.72e-4,1.21786 1.57e-4,2.43344 -0.789499,3.55275 -1.155424,1.63777 -2.23555,3.37017 -2.960624,5.52649 0,0 -2.598771,1.15136 -2.500082,1.01978 0.706673,-0.0303 2.083625,-3.15066 1.64479,-3.2238 l -4.473831,-0.13158 c 1.734923,-3.6739 7.689353,-12.40193 9.079246,-6.74364 z M 113.2134,156.91031 c 2.37541,-2.90556 8.46769,-1.42965 9.04276,1.59992 -4.69505,1.31465 -7.48183,1.09924 -9.04276,-1.59992 z"
         style="fill:#22241c;fill-rule:evenodd;stroke:#000000;stroke-width:0.3;stroke-linecap:round;stroke-linejoin:round;stroke-miterlimit:4;stroke-dasharray:none;stroke-opacity:1"
         id="path1022" />
      <path
         d="m 133.19168,155.29484 c 6.07611,1.49129 4.07658,3.3056 0.97696,5.16391 1.84634,-1.6489 0.87416,-3.39176 -0.97696,-5.16391 z m -0.46522,3.18676 a 1.325869,1.2328255 0 0 1 -1.32587,1.23282 1.325869,1.2328255 0 0 1 -1.32587,-1.23282 1.325869,1.2328255 0 0 1 1.32587,-1.23283 1.325869,1.2328255 0 0 1 1.32587,1.23283 z m -4.18695,1.1165 a 0.93043435,0.86065179 0 0 1 -0.93043,0.86065 0.93043435,0.86065179 0 0 1 -0.93044,-0.86065 0.93043435,0.86065179 0 0 1 0.93044,-0.86065 0.93043435,0.86065179 0 0 1 0.93043,0.86065 z m -70.480407,18.42261 a 0.88391262,1.000217 0 0 1 -0.883913,1.00021 0.88391262,1.000217 0 0 1 -0.883913,-1.00021 0.88391262,1.000217 0 0 1 0.883913,-1.00022 0.88391262,1.000217 0 0 1 0.883913,1.00022 z m -3.163476,1.18629 a 1.5119559,1.488695 0 0 1 -1.511956,1.4887 1.5119559,1.488695 0 0 1 -1.511956,-1.4887 1.5119559,1.488695 0 0 1 1.511956,-1.48869 1.5119559,1.488695 0 0 1 1.511956,1.48869 z m -5.117388,-2.32608 c -1.111785,2.24877 -1.880669,4.4894 0.790869,5.76869 -5.975112,-0.34056 -4.404741,-2.96221 -0.790869,-5.76869 z m 21.190643,-12.39804 c 0.383789,0.32372 0.939111,0.56167 0.86065,1.11652 5.642064,-3.15056 5.075579,1.08289 3.721738,5.44304 0.207068,0.22432 2.138844,-3.01065 2.442392,-5.93151 0.195498,-1.88116 2.374196,-3.6884 3.628692,-2.72153 0.689576,0.53147 0.552547,1.935 -0.186087,2.39587 -1.297659,0.80968 -1.650679,-0.70106 -1.325867,-0.95369 -0.386284,-0.0891 -1.6771,1.62588 0.116304,2.34934 1.35136,0.54514 3.472404,-0.59415 3.675215,-2.14 0.216691,-1.65165 -1.375007,-3.58685 -3.186737,-3.25651 -3.418455,0.6233 -9.7463,3.69847 -9.7463,3.69847 z m 12.398037,-3.55891 c -0.388307,-0.42361 4.499865,-4.18196 6.792171,-1.95391 1.271507,1.23587 1.185346,4.71704 -1.069999,4.74521 -2.616767,0.0327 -1.447586,-2.612 -1.11652,-2.65173 -0.123645,0.0927 -0.103874,1.85967 1.023477,1.39565 0.947633,-0.39005 0.77533,-1.91328 -0.139565,-2.41913 -1.622005,-0.89682 -5.489564,0.88391 -5.489564,0.88391 z m -15.798898,10.71005 c -0.161953,1.56728 -2.040244,3.79756 -4.967269,3.58565 -1.021392,-0.0739 -2.894833,0.88818 -2.894833,0.88818 -0.299091,-2.54293 1.030806,-3.92078 2.006644,-5.82256 -3.672365,0.0957 -7.23854,0.10306 -11.085892,0.72371 4.019362,-2.64962 10.018574,-1.74825 11.405601,-2.49663 1.461814,-0.78874 0.10525,-2.10423 -7.458103,-1.84562 0.241934,-0.33772 7.607808,-2.28213 11.184581,-1.01977 0.915668,0.32317 3.201336,-2.84154 4.967269,0.0987 0.571043,0.95078 -0.915667,2.59695 -1.940854,2.43429 -0.833288,-0.13221 -0.244439,-1.36809 0.09869,-1.80926 -2.646219,1.90274 -6.091406,3.21874 -7.237079,7.26997 -0.20112,-0.0773 2.053041,-1.23926 4.342246,-1.41452 0.560486,-0.0429 1.578999,-0.59214 1.578999,-0.59214 z M 101.60343,157.4581 c -0.0118,-0.30062 -5.776225,-3.10812 -6.978255,1.74457 -0.425526,1.71788 1.393349,3.38574 3.140218,2.65173 1.445794,-0.6075 0.685325,-2.77929 0.441954,-2.67499 0.191363,0.24427 -0.537142,2.1569 -1.698042,1.4189 -0.904453,-0.57497 -0.173316,-2.22796 0.465216,-2.81456 1.273685,-1.17009 4.598539,-0.46006 4.628909,-0.32565 z m 10.79304,-1.55848 c -4.88646,-0.14573 -3.41925,3.08414 -1.02347,6.79217 -2.625,-0.84141 -3.46938,-4.9345 -4.88197,-6.06661 -1.58799,-1.27268 -3.88835,0.97281 -2.84064,1.83314 1.80152,1.47933 1.69335,-1.5829 1.44217,-1.34913 1.06932,0.65813 0.93959,2.12892 -0.23261,2.69826 -1.3276,0.64482 -2.89331,-1.06598 -2.74478,-2.46565 0.2625,-2.47364 3.68144,-2.42766 6.18739,-2.5587 1.6767,-0.0877 4.15115,1.04974 4.09391,1.11652 z m 5.89691,3.859 c 0.12093,0.52723 4.93831,0.6945 6.1296,-0.0672 0.33028,-0.21117 0.66888,-0.6344 0.28508,-1.14997 -2.73233,-3.6705 5.32121,-4.20079 7.33577,-6.21731 -8.60418,2.61596 -17.30514,5.27916 -4.34225,-2.63167 -3.04163,1.18602 -11.08884,4.40543 -13.3557,4.01329 -1.2537,-0.21688 -1.78115,1.77454 -1.38163,2.69746 0.96463,2.22834 1.92853,1.58592 2.76326,0 0.90452,-1.71853 5.92781,0.20545 6.2502,1.84217 0.18842,0.95657 -3.84506,1.35247 -3.68433,1.5132 z m -34.507764,6.60839 c 0.133147,6.83022 -4.15856,7.4183 -10.467387,8.55999 -0.987194,0.17865 -9.100324,4.53966 -12.886515,3.02392 7.680902,-1.72421 10.824222,-4.6349 12.328255,-9.72304 0.206622,1.55266 0.514295,3.07874 -0.418696,4.9313 -0.02558,-0.22761 2.88411,-0.93328 4.466085,-1.02348 2.486407,-0.14175 3.511197,-4.40299 3.442607,-4.41956 0.441654,1.15015 0.795559,2.31006 0.139566,3.58217 2.887569,-1.27418 2.690629,-3.19773 3.396085,-4.9313 z m 8.191103,-7.39789 c 0.655861,2.42059 1.138787,4.83469 2.171126,6.44759 1.86965,2.92109 4.815994,1.0672 3.289583,-1.51321 8.341842,4.23884 6.893192,1.04786 3.750122,-2.3685 4.78779,3.31146 6.75993,3.67447 4.01329,-0.72371 0.0326,0.23557 4.16318,3.83186 6.84233,3.158 3.42338,-0.86105 1.25937,-4.88142 0.65792,-5.06596 2.97765,1.50574 5.24238,3.46036 12.76358,2.10534 -1.63534,1.92429 -8.55224,1.73506 -9.40821,2.17112 -3.80394,1.93788 -6.01706,3.98056 -9.60558,2.50008 -1.09697,-0.45256 -1.62782,0.0901 -2.03954,0.52633 -2.81141,2.97848 -7.740236,0.11616 -11.118787,2.23692 -6.204603,3.89472 -10.840476,4.28142 -10.921412,4.07908 0.04127,0.0413 6.279711,-1.87189 6.381789,-5.65808 4.397653,3.11978 3.098506,-3.62029 3.223789,-7.895 z"
         style="fill:#676c53;fill-rule:evenodd;stroke:#000000;stroke-width:0.3;stroke-linecap:round;stroke-linejoin:round;stroke-miterlimit:4;stroke-dasharray:none;stroke-opacity:1"
         id="path1013"
         inkscape:connector-curvature="0" />
    </g>
    <g
       id="g1223"
       transform="translate(-6.7351923,-31.430896)"
       style="stroke-width:0.3;stroke-miterlimit:4;stroke-dasharray:none">
      <path
         sodipodi:nodetypes="cccccccccccccccccccc"
         inkscape:connector-curvature="0"
         d="m 56.804174,48.533854 c -0.330904,1.276785 -0.697856,2.54327 -0.102116,4.08481 -2.170081,1.190984 -4.189984,4.78481 -6.229334,8.067497 2.22293,-2.704817 4.445681,-5.406415 6.535695,-5.718732 -0.856112,1.348198 -1.091085,2.550651 -0.868022,4.033747 -0.801642,0.506631 -1.393935,1.501747 -1.787104,2.961486 0.748882,-1.874628 1.497764,-2.142424 2.246646,-1.991344 -0.313768,0.646762 -0.117976,1.293522 0.102115,1.940284 -0.542115,0.248385 -1.053867,0.618219 -1.327562,1.940284 0.917278,-0.880833 1.29882,-0.511615 1.838163,-0.510599 -3.853905,4.662672 -7.194835,9.678014 -8.884459,15.82863 L 43.834907,80.5996 C 41.957145,73.709265 37.516834,68.100204 32.397443,62.830684 c 0.411898,-1.136859 0.807167,-2.860809 0.716672,-4.248865 0.418306,0.111053 3.804788,2.913242 3.962907,3.244027 0.07634,-0.204188 -4.099892,-3.500287 -4.284932,-3.447622 -0.173328,-1.566303 -0.603968,-3.261262 -1.211606,-5.04472 3.596955,2.598255 6.852516,6.049994 9.905658,10.007783 -2.628739,-5.158784 -5.779201,-9.274119 -9.497178,-12.254426 0.491063,-2.162384 0.731542,-4.408296 0.408479,-6.842055"
         style="fill:#b7c4c8;fill-rule:evenodd;stroke:#000000;stroke-width:0.3;stroke-linecap:round;stroke-linejoin:round;stroke-opacity:1;stroke-miterlimit:4;stroke-dasharray:none"
         id="path1093" />
      <path
         sodipodi:nodetypes="cscccsc"
         inkscape:connector-curvature="0"
         id="path1089"
         d="m 44.633433,46.293978 c 0,0 -1.382507,60.435612 -3.28527,86.670532 -0.440422,6.07244 0.545594,18.05247 0.722098,18.05247 1.257705,-4.81435 2.682892,-9.55541 2.455137,-15.01965 1.60897,2.93653 0.91139,5.87307 0.722099,8.8096 1.565316,-3.39637 1.780955,-7.68998 1.927583,-12.05142 0.936015,-27.84182 0.406312,-60.809064 1.792289,-85.577903"
         style="fill:#e3dedb;fill-rule:evenodd;stroke:#000000;stroke-width:0.3;stroke-linecap:round;stroke-linejoin:round;stroke-opacity:1;stroke-miterlimit:4;stroke-dasharray:none" />
      <path
         sodipodi:nodetypes="ccccc"
         inkscape:connector-curvature="0"
         id="path1087"
         d="m 41.369982,81.380308 c 3.00573,-1.989965 6.116519,-2.579155 9.49475,0.397563 -1.746401,14.428194 -2.653955,28.866829 -1.870887,43.123939 -3.689322,2.93325 -6.941099,2.19113 -10.009243,-0.0935 0.864181,-14.36091 2.000384,-28.268451 2.38538,-43.428002 z"
         style="fill:#a05a2c;fill-rule:evenodd;stroke:#000000;stroke-width:0.3;stroke-linecap:round;stroke-linejoin:round;stroke-opacity:1;stroke-miterlimit:4;stroke-dasharray:none" />
      <path
         sodipodi:nodetypes="csscc"
         inkscape:connector-curvature="0"
         id="path1054"
         d="m 50.871499,81.837048 c 0,0 0.710675,-1.181983 -0.209347,-1.953912 -1.498999,-1.257711 -7.030285,-2.222044 -9.629995,0.04652 -0.616218,0.537725 0.339519,1.600765 0.339519,1.600765 2.633159,-1.564818 5.479206,-2.46436 9.499823,0.306627 z"
         style="fill:#aca793;fill-rule:evenodd;stroke:#000000;stroke-width:0.3;stroke-linecap:round;stroke-linejoin:round;stroke-opacity:1;stroke-miterlimit:4;stroke-dasharray:none" />
      <path
         sodipodi:nodetypes="csscscscsscccccscccccsccccc"
         inkscape:connector-curvature="0"
         d="m 49.21215,92.157708 c -0.303533,-0.475095 -2.062236,-0.125392 -1.184248,1.546106 0.259853,0.494704 1.151189,0.77678 1.611894,0.460541 1.924243,-1.320847 0.62502,-6.973916 0.62502,-6.973916 0.01859,0.08366 -3.430198,-0.738366 -3.914603,0.03289 -0.330933,0.526903 -0.800168,4.975098 -1.051956,5.000342 -0.0908,-0.0227 0.142995,-5.302358 -0.494147,-5.592466 -0.748131,-0.340645 -3.402961,-0.30021 -3.421166,-0.427646 0.185562,0.482461 -2.558594,7.31037 -0.526333,8.125269 0.774097,0.310399 2.085011,-0.358775 2.204022,-1.184251 0.287086,-1.991261 -1.605474,-1.219086 -1.710584,-0.756602 0.405842,-0.706019 2.00366,-1.002121 1.711468,0.769478 l -1.075662,18.220887 c 0.349725,0.78494 -0.222558,1.94675 -1.069999,1.95391 0.433821,0.0473 1.529296,-0.74349 1.069999,-1.95391 -0.395579,-0.8436 -1.694122,-1.01431 -2.326084,-0.39544 -1.978457,1.93747 0.139565,8.23435 0.139565,8.23435 1.275138,0.0341 2.719938,0.90747 3.349564,-0.0698 1.197484,-1.85864 0.980684,-4.00013 1.349129,-6.02457 0.09492,0.0105 0.278745,4.61979 0.814131,5.885 0.482295,1.13975 3.698475,0.32565 3.698475,0.32565 0,0 1.868135,-5.93274 -0.04652,-7.58304 -0.332231,-0.28636 -1.049764,-0.17231 -1.302608,0.18609 -1.010911,1.43293 0.248256,2.48751 0.744347,1.86087 -0.790143,0.68084 -1.620592,-0.76401 -0.744347,-1.86087 l 0.366395,-18.232766 c -0.726953,-1.245106 0.392747,-2.17162 1.184248,-1.546106 z"
         style="fill:#c87137;fill-rule:evenodd;stroke:#000000;stroke-width:0.3;stroke-linecap:round;stroke-linejoin:round;stroke-opacity:1;stroke-miterlimit:4;stroke-dasharray:none"
         id="path1066" />
      <path
         sodipodi:nodetypes="cccsccccccccscccscccccccccsssc"
         inkscape:connector-curvature="0"
         d="m 49.080414,98.538346 c -0.11379,-0.114388 -0.868255,0.266881 -1.02348,0.744347 -0.195382,0.604774 -0.138905,1.397067 0.465217,1.814347 1.089799,0.75275 2.27166,0.13486 2.465652,-0.97696 0.346644,-1.986701 -1.302607,-5.908256 -1.302607,-5.908256 -1.132201,0.220532 -1.349281,-0.137156 -1.669603,-0.473485 -3.178562,-0.895476 -2.764418,5.471164 -2.936047,5.683919 -0.06589,-0.184496 0.294847,-6.880965 -2.000435,-6.233911 -0.56859,1.269057 -1.375332,1.228282 -2.186522,1.163042 -0.163867,0.573536 -3.075514,5.17397 -1.39565,6.373481 0.911086,0.65056 2.509865,0.11938 2.558695,-1.349133 0.05293,-1.591614 -1.591285,-0.993174 -1.767827,-0.604782 0.234349,-0.457773 1.813715,-0.947282 1.776514,0.614957 -0.01,0.418969 -0.435306,1.214228 -0.453102,1.054068 0.05395,1.93083 -0.06481,3.83699 -0.01082,5.76782 0.03516,1.03714 -0.455846,1.19733 -1.072699,1.14778 0.784566,0.1041 1.208292,-0.48858 1.052666,-1.15136 -0.236305,-1.00638 -1.056183,-1.45229 -2.13823,-0.82239 -1.631309,0.94965 0.207011,5.62319 0.207011,5.62319 0.809044,-0.68518 1.959823,-0.42018 2.358865,0.39675 2.434341,-0.0406 1.930574,-2.75824 2.598769,-4.40804 0.336836,2.04223 -0.572282,4.72659 2.999164,4.96726 0.461463,-0.46069 0.959234,-0.47086 1.354715,-0.22263 0,0 2.541539,-4.79621 0.975245,-6.22495 -0.581722,-0.53064 -1.899088,-0.10799 -1.940854,0.72371 -0.06723,1.33881 1.201899,1.37441 1.25004,1.08556 -0.02822,0.29162 -1.30826,0.26425 -1.253483,-1.0774 0.05762,-1.41129 0.983281,-3.9491 0.112266,-5.62575 -0.263901,-0.50799 -0.07824,-1.189183 -0.04113,-1.331239 0.106191,-0.406478 0.902724,-0.884769 1.01767,-0.749945 z"
         style="fill:#a05a2c;fill-rule:evenodd;stroke:#000000;stroke-width:0.3;stroke-linecap:round;stroke-linejoin:round;stroke-opacity:1;stroke-miterlimit:4;stroke-dasharray:none"
         id="path1064" />
      <path
         sodipodi:nodetypes="cscccccccccccc"
         inkscape:connector-curvature="0"
         d="m 41.548128,100.57026 c 0.09304,0 1.349649,-0.25573 1.763592,0.20113 0.939801,1.03724 1.130894,3.65576 -0.04652,5.30347 -0.355862,0.49801 -1.669884,0.11631 -1.651521,0.11631 -0.509144,-1.37141 -1.406108,-1.2394 -2.151629,-0.83739 -0.538996,-1.60172 -0.625821,-3.10291 0.500108,-4.39631 0.489938,0.0499 1.053281,0.0815 1.58597,-0.38721 z m 6.555328,0.0616 c 0.01749,0.035 -1.680149,0.0248 -2.023695,0.55826 -0.699358,1.08599 -0.472929,3.22821 -0.116307,4.65218 0.160344,0.64024 1.897768,0.44542 2.023695,0.43032 0.155038,-1.20657 1.683925,-1.12591 2.035325,-0.73272 0.549113,-0.88303 0.758703,-2.0867 0.197716,-4.32652 -0.906495,0.40891 -1.5819,0.12455 -2.116734,-0.58152 z"
         style="fill:#c8ab37;fill-rule:evenodd;stroke:#000000;stroke-width:0.3;stroke-linecap:round;stroke-linejoin:round;stroke-miterlimit:4;stroke-dasharray:none;stroke-opacity:1"
         id="path1062" />
      <path
         sodipodi:nodetypes="cccccccccccccccc"
         inkscape:connector-curvature="0"
         d="m 49.640328,116.73089 c -0.347654,1.18478 -1.030725,2.13028 -1.759092,2.82999 -0.574802,1.64448 -0.366601,3.28895 1.166436,4.93342 3.321462,-3.17639 2.385612,-5.54055 0.592656,-7.76341 z m -10.461403,0.13158 c 0.404034,1.15874 1.017654,1.99766 1.830387,2.53643 0.800538,1.92634 0.03302,3.59903 -2.027763,5.06251 -1.997481,-2.83492 -1.383846,-5.28773 0.197376,-7.59894 z m 1.434534,-27.907599 c 0.674887,-1.244211 1.45637,-2.066187 2.077322,-2.690546 0.389351,-1.293011 0.04364,-2.774499 -1.332972,-4.520321 -2.650796,2.197678 -2.424619,4.641954 -0.74435,7.210867 z m 9.955649,0.465216 c 2.642822,-2.232603 1.297747,-4.827211 0.27913,-7.30391 -2.029067,1.42907 -2.469859,3.07666 -1.807216,4.844488 0.281112,0.417758 0.781357,0.736605 1.528086,2.459422 z"
         style="fill:#28170b;fill-rule:evenodd;stroke:#000000;stroke-width:0.3;stroke-linecap:round;stroke-linejoin:round;stroke-opacity:1;stroke-miterlimit:4;stroke-dasharray:none"
         id="path1070" />
      <path
         sodipodi:nodetypes="ccssc"
         inkscape:connector-curvature="0"
         id="path1072"
         d="m 38.9852,124.77659 c 3.607654,2.21932 6.929508,2.21575 9.978909,0.0931 0.03718,0 0.09255,1.50872 -0.465217,2.02369 -1.328072,1.22615 -6.236715,1.5446 -9.374127,-0.48847 -0.484403,-0.3139 -0.163226,-1.62832 -0.139565,-1.62832 z"
         style="fill:#aca793;fill-rule:evenodd;stroke:#000000;stroke-width:0.3;stroke-linecap:round;stroke-linejoin:round;stroke-opacity:1;stroke-miterlimit:4;stroke-dasharray:none" />
      <path
         d="m 46.547589,123.85283 a 0.87173933,1.0691142 0 0 1 -0.871739,1.06911 0.87173933,1.0691142 0 0 1 -0.871739,-1.06911 0.87173933,1.0691142 0 0 1 0.871739,-1.06912 0.87173933,1.0691142 0 0 1 0.871739,1.06912 z m -2.631664,-0.13158 a 0.9868747,1.0033226 0 0 1 -0.986875,1.00333 0.9868747,1.0033226 0 0 1 -0.986874,-1.00333 0.9868747,1.0033226 0 0 1 0.986874,-1.00332 0.9868747,1.0033226 0 0 1 0.986875,1.00332 z m 4.539623,-41.695455 a 0.82239556,0.82239556 0 0 1 -0.822396,0.822396 0.82239556,0.82239556 0 0 1 -0.822396,-0.822396 0.82239556,0.82239556 0 0 1 0.822396,-0.822396 0.82239556,0.82239556 0 0 1 0.822396,0.822396 z m -2.565873,-0.131584 a 0.82239556,0.78949976 0 0 1 -0.822395,0.7895 0.82239556,0.78949976 0 0 1 -0.822396,-0.7895 0.82239556,0.78949976 0 0 1 0.822396,-0.7895 0.82239556,0.78949976 0 0 1 0.822395,0.7895 z"
         style="color:#000000;clip-rule:nonzero;display:inline;overflow:visible;visibility:visible;opacity:1;isolation:auto;mix-blend-mode:normal;color-interpolation:sRGB;color-interpolation-filters:linearRGB;solid-color:#000000;solid-opacity:1;fill:#c8ab37;fill-opacity:1;fill-rule:evenodd;stroke:#000000;stroke-width:0.3;stroke-linecap:round;stroke-linejoin:round;stroke-miterlimit:4;stroke-dasharray:none;stroke-dashoffset:0;stroke-opacity:1;paint-order:normal;color-rendering:auto;image-rendering:auto;shape-rendering:auto;text-rendering:auto;enable-background:accumulate"
         id="path1076"
         inkscape:connector-curvature="0" />
    </g>
    <flowRoot
       xml:space="preserve"
       id="flowRoot1120"
       style="font-style:normal;font-variant:normal;font-weight:normal;font-stretch:normal;font-size:18.66666794px;line-height:100%;font-family:'Times New Roman';-inkscape-font-specification:'Times New Roman, ';text-align:center;letter-spacing:0px;word-spacing:0px;text-anchor:middle;fill:#000000;fill-opacity:1;stroke:none;stroke-width:1px;stroke-linecap:round;stroke-linejoin:round;stroke-opacity:1;"
       transform="matrix(0.26458333,0,0,0.26458333,53.842641,-66.354096)"><flowRegion
         id="flowRegion1122"
         style="font-style:normal;font-variant:normal;font-weight:normal;font-stretch:normal;font-size:18.66666794px;line-height:100%;font-family:'Times New Roman';-inkscape-font-specification:'Times New Roman, ';text-align:center;text-anchor:middle;stroke-linecap:round;stroke-linejoin:round;"><rect
           id="rect1124"
           width="254.31552"
           height="70"
           x="64"
           y="579.51971"
           style="font-style:normal;font-variant:normal;font-weight:normal;font-stretch:normal;font-size:18.66666794px;line-height:100%;font-family:'Times New Roman';-inkscape-font-specification:'Times New Roman, ';text-align:center;text-anchor:middle;stroke-linecap:round;stroke-linejoin:round;" /></flowRegion><flowPara
         style="font-style:normal;font-variant:normal;font-weight:normal;font-stretch:normal;font-size:18.66666794px;line-height:100%;font-family:'Times New Roman';-inkscape-font-specification:'Times New Roman, ';text-align:center;text-anchor:middle;stroke-linecap:round;stroke-linejoin:round;"
         id="flowPara1144">  &quot; &quot;.</flowPara><flowPara
         style="font-style:normal;font-variant:normal;font-weight:normal;font-stretch:normal;font-size:18.66666794px;line-height:100%;font-family:'Times New Roman';-inkscape-font-specification:'Times New Roman, ';text-align:center;text-anchor:middle;stroke-linecap:round;stroke-linejoin:round;"
         id="flowPara1148"> </flowPara></flowRoot>    <flowRoot
       xml:space="preserve"
       id="flowRoot1120-8"
       style="font-style:normal;font-variant:normal;font-weight:normal;font-stretch:normal;font-size:18.66666794px;line-height:100%;font-family:'Times New Roman';-inkscape-font-specification:'Times New Roman, ';text-align:center;letter-spacing:0px;word-spacing:0px;text-anchor:middle;fill:#000000;fill-opacity:1;stroke:none;stroke-width:1px;stroke-linecap:round;stroke-linejoin:round;stroke-opacity:1"
       transform="matrix(0.26458333,0,0,0.26458333,125.13808,-66.225464)"><flowRegion
         id="flowRegion1122-8"
         style="font-style:normal;font-variant:normal;font-weight:normal;font-stretch:normal;font-size:18.66666794px;line-height:100%;font-family:'Times New Roman';-inkscape-font-specification:'Times New Roman, ';text-align:center;text-anchor:middle;stroke-linecap:round;stroke-linejoin:round"><rect
           id="rect1124-3"
           width="227"
           height="70"
           x="64"
           y="579.51971"
           style="font-style:normal;font-variant:normal;font-weight:normal;font-stretch:normal;font-size:18.66666794px;line-height:100%;font-family:'Times New Roman';-inkscape-font-specification:'Times New Roman, ';text-align:center;text-anchor:middle;stroke-linecap:round;stroke-linejoin:round" /></flowRegion><flowPara
         style="font-style:normal;font-variant:normal;font-weight:normal;font-stretch:normal;font-size:18.66666794px;line-height:100%;font-family:'Times New Roman';-inkscape-font-specification:'Times New Roman, ';text-align:center;text-anchor:middle;stroke-linecap:round;stroke-linejoin:round"
         id="flowPara1144-8">  &quot;&quot;.</flowPara><flowPara
         style="font-style:normal;font-variant:normal;font-weight:normal;font-stretch:normal;font-size:18.66666794px;line-height:100%;font-family:'Times New Roman';-inkscape-font-specification:'Times New Roman, ';text-align:center;text-anchor:middle;stroke-linecap:round;stroke-linejoin:round"
         id="flowPara1148-7">  </flowPara></flowRoot>    <flowRoot
       xml:space="preserve"
       id="flowRoot1120-5"
       style="font-style:normal;font-weight:normal;font-size:18.66666755px;line-height:100%;font-family:'Times New Roman';text-align:center;letter-spacing:0px;word-spacing:0px;text-anchor:middle;fill:#000000;fill-opacity:1;stroke:none;stroke-width:1px;stroke-linecap:round;stroke-linejoin:round;stroke-opacity:1;-inkscape-font-specification:'Times New Roman, ';font-stretch:normal;font-variant:normal;"
       transform="matrix(0.26458333,0,0,0.26458333,100.7093,-3.0419589)"><flowRegion
         id="flowRegion1122-2"
         style="line-height:100%;text-align:center;text-anchor:middle;stroke-linecap:round;stroke-linejoin:round;font-size:18.66666755px;-inkscape-font-specification:'Times New Roman, ';font-family:'Times New Roman';font-weight:normal;font-style:normal;font-stretch:normal;font-variant:normal;"><rect
           id="rect1124-4"
           width="227"
           height="70"
           x="64"
           y="579.51971"
           style="line-height:100%;text-align:center;text-anchor:middle;stroke-linecap:round;stroke-linejoin:round;font-size:18.66666755px;-inkscape-font-specification:'Times New Roman, ';font-family:'Times New Roman';font-weight:normal;font-style:normal;font-stretch:normal;font-variant:normal;" /></flowRegion><flowPara
         style="font-size:18.66666755px;line-height:100%;text-align:center;text-anchor:middle;stroke-linecap:round;stroke-linejoin:round;-inkscape-font-specification:'Times New Roman, ';font-family:'Times New Roman';font-weight:normal;font-style:normal;font-stretch:normal;font-variant:normal;"
         id="flowPara1148-0"> .</flowPara><flowPara
         style="font-size:18.66666755px;line-height:100%;text-align:center;text-anchor:middle;stroke-linecap:round;stroke-linejoin:round;-inkscape-font-specification:'Times New Roman, ';font-family:'Times New Roman';font-weight:normal;font-style:normal;font-stretch:normal;font-variant:normal;"
         id="flowPara1193"> </flowPara></flowRoot>    <flowRoot
       xml:space="preserve"
       id="flowRoot1120-57"
       style="font-style:normal;font-weight:normal;font-size:18.66666755px;line-height:100%;font-family:'Times New Roman';text-align:center;letter-spacing:0px;word-spacing:0px;text-anchor:middle;fill:#000000;fill-opacity:1;stroke:none;stroke-width:1px;stroke-linecap:round;stroke-linejoin:round;stroke-opacity:1;-inkscape-font-specification:'Times New Roman, ';font-stretch:normal;font-variant:normal;"
       transform="matrix(0.26458333,0,0,0.26458333,-8.5026473,-26.354558)"><flowRegion
         id="flowRegion1122-3"
         style="line-height:100%;text-align:center;text-anchor:middle;stroke-linecap:round;stroke-linejoin:round;font-size:18.66666755px;-inkscape-font-specification:'Times New Roman, ';font-family:'Times New Roman';font-weight:normal;font-style:normal;font-stretch:normal;font-variant:normal;"><rect
           id="rect1124-2"
           width="227"
           height="70"
           x="64"
           y="579.51971"
           style="line-height:100%;text-align:center;text-anchor:middle;stroke-linecap:round;stroke-linejoin:round;font-size:18.66666755px;-inkscape-font-specification:'Times New Roman, ';font-family:'Times New Roman';font-weight:normal;font-style:normal;font-stretch:normal;font-variant:normal;" /></flowRegion><flowPara
         style="font-size:18.66666755px;line-height:100%;text-align:center;text-anchor:middle;stroke-linecap:round;stroke-linejoin:round;-inkscape-font-specification:'Times New Roman, ';font-family:'Times New Roman';font-weight:normal;font-style:normal;font-stretch:normal;font-variant:normal;"
         id="flowPara1148-2">   .</flowPara><flowPara
         style="font-size:18.66666755px;line-height:100%;text-align:center;text-anchor:middle;stroke-linecap:round;stroke-linejoin:round;-inkscape-font-specification:'Times New Roman, ';font-family:'Times New Roman';font-weight:normal;font-style:normal;font-stretch:normal;font-variant:normal;"
         id="flowPara1211"> </flowPara></flowRoot>  </g>
</svg>
