<?xml version="1.0" encoding="UTF-8" standalone="no"?>
<!-- Created with Inkscape (http://www.inkscape.org/) -->

<svg
   xmlns:dc="http://purl.org/dc/elements/1.1/"
   xmlns:cc="http://creativecommons.org/ns#"
   xmlns:rdf="http://www.w3.org/1999/02/22-rdf-syntax-ns#"
   xmlns:svg="http://www.w3.org/2000/svg"
   xmlns="http://www.w3.org/2000/svg"
   xmlns:sodipodi="http://sodipodi.sourceforge.net/DTD/sodipodi-0.dtd"
   xmlns:inkscape="http://www.inkscape.org/namespaces/inkscape"
   width="297mm"
   height="210mm"
   viewBox="0 0 297 210"
   version="1.1"
   id="svg8"
   inkscape:version="0.92.3 (2405546, 2018-03-11)"
   sodipodi:docname="delfina.svg">
  <defs
     id="defs2" />
  <sodipodi:namedview
     id="base"
     pagecolor="#ffffff"
     bordercolor="#666666"
     borderopacity="1.0"
     inkscape:pageopacity="0.0"
     inkscape:pageshadow="2"
     inkscape:zoom="0.34931641"
     inkscape:cx="349.42478"
     inkscape:cy="220.97072"
     inkscape:document-units="mm"
     inkscape:current-layer="layer1"
     showgrid="false"
     objecttolerance="1"
     guidetolerance="1"
     inkscape:window-width="1366"
     inkscape:window-height="703"
     inkscape:window-x="0"
     inkscape:window-y="0"
     inkscape:window-maximized="1"
     showguides="false" />
  <metadata
     id="metadata5">
    <rdf:RDF>
      <cc:Work
         rdf:about="">
        <dc:format>image/svg+xml</dc:format>
        <dc:type
           rdf:resource="http://purl.org/dc/dcmitype/StillImage" />
        <dc:title></dc:title>
      </cc:Work>
    </rdf:RDF>
  </metadata>
  <g
     inkscape:label="Layer 1"
     inkscape:groupmode="layer"
     id="layer1"
     transform="translate(0,-87)">
    <g
       id="g1324"
       style="stroke:#000000;stroke-width:0.30000001;stroke-linecap:round;stroke-linejoin:round;stroke-miterlimit:4;stroke-dasharray:none;stroke-opacity:1"
       transform="translate(3.029727,12.118908)">
      <path
         sodipodi:nodetypes="ccc"
         inkscape:connector-curvature="0"
         id="path1254"
         d="m 240.01118,198.15516 c -8.05753,-10.18581 -11.36508,-9.92019 -1.60954,1.23083 z"
         style="fill:#1f241c;fill-rule:evenodd;stroke:#000000;stroke-width:0.30000001;stroke-linecap:round;stroke-linejoin:round;stroke-miterlimit:4;stroke-dasharray:none;stroke-opacity:1" />
      <path
         sodipodi:nodetypes="ccsccsc"
         inkscape:connector-curvature="0"
         id="path1001"
         d="m 72.538309,216.93003 c 1.451433,5.44959 5.462591,8.11069 10.745176,9.37274 13.141892,-10.29257 28.790755,-16.60606 42.828895,-19.53182 0.98858,-0.20604 0.94055,-0.85367 0.85211,-1.42019 l -10.98276,-26.88882 c -0.53651,-0.7988 -1.17922,-0.94615 -1.60954,-0.56808 -14.29173,12.55643 -29.933963,23.84523 -41.833881,39.03617 z"
         style="fill:#6c6753;fill-rule:evenodd;stroke:#000000;stroke-width:0.30000001;stroke-linecap:round;stroke-linejoin:round;stroke-miterlimit:4;stroke-dasharray:none;stroke-opacity:1" />
      <path
         sodipodi:nodetypes="cccccccccccccccc"
         inkscape:connector-curvature="0"
         id="path1004"
         d="m 85.826483,203.22049 c -0.920349,1.99423 -1.335747,3.84419 -1.372844,5.58606 1.847387,0.0281 3.788281,-0.22429 6.012114,-1.32551 -0.799891,1.34836 -1.3555,2.46665 -1.420184,3.69248 0.985958,0.0202 1.946766,-0.12034 3.550461,-0.71009 l -2.887711,4.16587 c 1.561398,0.1586 4.35706,-0.91706 6.722206,-1.5622 l -2.082935,3.78716 c 1.393101,-0.40354 2.824896,-0.78289 5.207344,-0.56808 -6.147779,2.3053 -11.732999,5.20441 -15.622029,9.89395 l -1.230829,-0.0947 -0.142018,-0.7101 c -1.703382,-0.12023 -2.456427,-1.1003 -2.840368,-2.41431 l -5.302022,-5.16 c -0.497175,-0.44093 -1.445698,-0.10225 -1.325507,-1.60954 z"
         style="fill:#28220b;fill-rule:evenodd;stroke:#000000;stroke-width:0.30000001;stroke-linecap:round;stroke-linejoin:round;stroke-miterlimit:4;stroke-dasharray:none;stroke-opacity:1" />
      <path
         d="m 252.42796,198.38539 c -8.95144,-1.6522 -12.34447,-1.53907 -0.60253,3.38088 -0.64222,-1.42805 0.0371,-2.38412 0.60253,-3.38088 z m -19.78318,8.50242 c 0.22354,1.48748 1.04886,2.57378 2.34319,3.3474 3.54898,-2.31347 2.49685,-3.3543 -2.34319,-3.3474 z"
         style="fill:#3e4837;fill-rule:evenodd;stroke:#000000;stroke-width:0.30000001;stroke-linecap:round;stroke-linejoin:round;stroke-miterlimit:4;stroke-dasharray:none;stroke-opacity:1"
         id="path830"
         inkscape:connector-curvature="0" />
      <path
         sodipodi:nodetypes="cssscsssssssssssccccscc"
         inkscape:connector-curvature="0"
         id="path826"
         d="m 191.60557,156.40891 c 0.84109,-1.44111 38.95472,4.18407 51.14838,18.87937 5.25661,6.33506 12.88145,13.8044 10.17612,21.8251 -0.20675,0.61296 -0.25811,1.40021 -0.93727,1.60675 -2.20439,0.67039 -6.82871,-1.07117 -6.82871,-1.07117 0,0 3.82379,2.59854 5.89143,3.6152 1.37791,0.67751 1.88807,1.83043 2.27624,2.94572 0.71922,2.06644 2.72308,3.88155 3.7491,5.35585 1.02314,1.47015 0.88873,3.34335 -1.74066,2.27624 -5.68964,-2.30907 -10.32049,-6.3186 -14.58727,-11.41228 -2.15393,-2.57137 -3.30239,-6.17297 -6.30055,-7.86878 -0.34002,-0.19232 -1.56166,0.0177 -0.40169,0.66948 3.46779,1.94848 4.73128,4.77116 6.69482,7.2304 3.8667,4.84286 9.1632,9.21363 14.58633,11.38118 1.4502,0.57962 1.77011,3.01243 -0.12553,3.6152 -2.32079,0.73796 -4.81586,-0.003 -6.96261,-0.80338 -2.34234,-0.87316 -7.49819,-0.1339 -7.49819,-0.1339 4.72158,-1.92507 3.51174,-2.3443 -1.47286,-1.87454 7.03024,-2.16055 -5.45647,-0.70764 -8.03378,-1.74065 6.69797,-1.84347 7.43592,-3.30974 -2.41013,-3.34741 6.05629,-0.94867 1.99109,-1.73825 -1.60676,-4.01689 -5.78318,-3.66269 -18.48773,-4.33565 -19.01327,-3.34741 16.40519,-11.33487 -5.08082,-29.24721 -16.60314,-43.78408 z"
         style="fill:#9dac93;fill-rule:evenodd;stroke:#000000;stroke-width:0.30000001;stroke-linecap:round;stroke-linejoin:round;stroke-miterlimit:4;stroke-dasharray:none;stroke-opacity:1" />
      <path
         sodipodi:nodetypes="csccccccccccccccccccccsccccccccccccccc"
         inkscape:connector-curvature="0"
         id="path832"
         d="m 212.83793,176.94708 c 0,0 9.82754,1.59204 12.02459,5.39657 2.30996,4.00006 8.3459,8.56228 8.52092,8.23723 -5.97135,-1.79479 -11.50069,0.38852 -17.13693,1.60972 7.18985,-0.50864 13.35349,0.97477 17.51572,6.34328 -3.56317,0.46554 -6.71919,-0.0868 -9.94151,-0.47336 3.55791,2.78086 7.24734,4.50946 10.98279,5.86993 -2.95342,-0.10535 -5.95767,-0.41404 -9.08885,-1.23042 l 0.009,0.0284 c 0.53511,0.25314 1.04026,0.52187 1.4981,0.81183 3.59784,2.27864 7.66342,3.06865 1.60713,4.01733 9.84605,0.0377 9.10816,1.50361 2.41019,3.34708 2.57731,1.03301 15.06386,-0.41957 8.03362,1.74098 4.9846,-0.46976 6.19436,-0.0508 1.47278,1.8743 0,0 5.15591,-0.73931 7.49825,0.13384 2.14675,0.80039 4.64157,1.54153 6.96236,0.80357 1.89564,-0.60277 1.57577,-3.03566 0.12557,-3.61528 -1.36894,-0.54715 -2.72939,-1.23545 -4.06125,-2.03553 -0.0915,-0.0549 -0.1808,-0.11368 -0.27181,-0.1695 -0.23423,-0.14384 -0.46852,-0.28713 -0.70074,-0.4377 0.2312,0.15022 0.46601,0.29374 0.70074,0.4377 0.0908,0.0558 0.18069,0.11475 0.27181,0.1695 1.29795,0.77777 2.65066,1.4597 4.06952,2.03553 2.6294,1.06711 2.76412,-0.8062 1.74098,-2.27635 -1.02602,-1.4743 -3.0299,-3.2893 -3.74912,-5.35574 -0.38817,-1.11529 -0.89844,-2.26804 -2.27635,-2.94556 -2.06764,-1.01666 -5.89163,-3.61528 -5.89163,-3.61528 -5.16504,-4.42437 -6.58569,-11.08995 -11.11767,-16.06259 -4.9388,-5.14861 -21.24344,-4.60407 -21.20801,-4.63951 z m 21.2447,15.54582 c 0.14422,-0.003 0.28448,0.0201 0.36948,0.0682 2.99816,1.69581 4.14646,5.29739 6.30039,7.86877 2.92454,3.4913 6.02073,6.47257 9.51105,8.74675 -3.56318,-2.31632 -6.87507,-5.40525 -9.51828,-8.71575 -1.96354,-2.45924 -3.22689,-5.28207 -6.69468,-7.23056 -0.86998,-0.48884 -0.40062,-0.72894 0.032,-0.73743 z"
         style="fill:#bec8b7;fill-rule:evenodd;stroke:#000000;stroke-width:0.30000001;stroke-linecap:round;stroke-linejoin:round;stroke-miterlimit:4;stroke-dasharray:none;stroke-opacity:1" />
      <path
         sodipodi:nodetypes="sssscccs"
         inkscape:connector-curvature="0"
         id="path850"
         d="m 231.67491,168.45569 c 0.97044,-0.42982 3.33914,1.22037 3.17917,2.24665 -0.10755,0.69 -1.83022,1.1341 -2.04192,0.46863 -0.10214,-0.32106 1.24717,-0.61893 0.73643,-1.17159 -0.45501,-0.49236 -1.9415,-0.66948 -1.9415,-0.66948 0.16047,0.55266 0.45654,0.87934 0.85359,1.0377 -0.41099,-0.15621 -0.69508,-0.50277 -0.85359,-1.0377 0,0 -0.2379,-0.7388 0.0678,-0.87421 z"
         style="fill:#3e4837;fill-rule:evenodd;stroke:#000000;stroke-width:0.30000001;stroke-linecap:round;stroke-linejoin:round;stroke-miterlimit:4;stroke-dasharray:none;stroke-opacity:1" />
      <path
         sodipodi:nodetypes="ccsc"
         inkscape:connector-curvature="0"
         id="path1273"
         d="m 227.85797,180.57719 c 0.9427,2.452 3.49675,3.72208 4.96399,7.42718 0.0608,-2.72437 0.49236,-5.85011 -4.89702,-8.33098 -0.39375,-0.18125 -0.74327,0.69638 -0.067,0.9038 z"
         style="fill:#3e4837;fill-rule:evenodd;stroke:#000000;stroke-width:0.30000001;stroke-linecap:round;stroke-linejoin:round;stroke-miterlimit:4;stroke-dasharray:none;stroke-opacity:1" />
      <path
         sodipodi:nodetypes="cscscccc"
         inkscape:connector-curvature="0"
         id="path852"
         d="m 232.81215,188.04191 c 0.58898,-4.52332 -1.70544,-6.92435 -4.92068,-8.36852 -0.52934,-0.23776 -0.62216,0.86771 -0.0335,0.9038 -0.63188,-0.0903 -0.41406,-1.08112 -0.0335,-0.93728 0.58447,0.22091 1.01714,0.54787 1.61787,0.87638 -2.88038,3.05035 0.53342,6.98691 3.37197,4.92004 0.17833,0.90831 0.0986,1.7593 -0.002,2.60558 z"
         style="fill:#2d5016;fill-rule:evenodd;stroke:#000000;stroke-width:0.30000001;stroke-linecap:round;stroke-linejoin:round;stroke-miterlimit:4;stroke-dasharray:none;stroke-opacity:1" />
      <path
         sodipodi:nodetypes="cssccccc"
         inkscape:connector-curvature="0"
         id="path854"
         d="m 172.45841,152.32507 c 0.25757,-0.11039 -19.90856,-10.52104 -31.66647,-11.64897 -2.11345,-0.20274 -3.18794,0.81865 -0.73643,2.54403 6.98534,4.91632 9.50318,8.80248 8.9041,16.33534 5.16146,-2.40244 10.46582,-4.57267 16.33535,-5.82449 -3.40686,-2.77619 -7.5802,-4.63259 -11.58203,-6.69481 4.05241,2.07183 8.25182,4.02115 11.58203,6.69481 2.44899,-0.62156 4.84068,-1.09989 7.16345,-1.40591 z"
         style="fill:#9dac93;fill-rule:evenodd;stroke:#000000;stroke-width:0.30000001;stroke-linecap:round;stroke-linejoin:round;stroke-miterlimit:4;stroke-dasharray:none;stroke-opacity:1" />
      <path
         sodipodi:nodetypes="sss"
         inkscape:connector-curvature="0"
         id="path863"
         d="m 231.13845,182.912 c -0.62193,0.0188 -1.48213,1.84391 0.26779,1.90803 1.30831,0.0479 0.69187,-1.93708 -0.26779,-1.90803 z"
         style="fill:#e3f4d7;fill-rule:evenodd;stroke:#000000;stroke-width:0.30000001;stroke-linecap:round;stroke-linejoin:round;stroke-miterlimit:4;stroke-dasharray:none;stroke-opacity:1" />
      <path
         sodipodi:nodetypes="sss"
         inkscape:connector-curvature="0"
         id="path865"
         d="m 230.75631,181.91772 c -0.40072,-0.0635 -0.71235,0.64895 0.0592,0.75743 0.40129,0.0564 0.69245,-0.63826 -0.0592,-0.75743 z"
         style="fill:#e3f4d7;fill-rule:evenodd;stroke:#000000;stroke-width:0.30000001;stroke-linecap:round;stroke-linejoin:round;stroke-miterlimit:4;stroke-dasharray:none;stroke-opacity:1" />
      <path
         sodipodi:nodetypes="cccccccc"
         inkscape:connector-curvature="0"
         id="path867"
         d="m 145.27746,165.24606 c -10.62308,2.98843 -20.64656,7.77565 -30.26056,13.79132 -2.63495,11.92122 0.97529,20.78358 10.7117,26.64536 4.9988,-1.0789 10.08128,-0.86862 15.08008,-0.75316 -1.96609,-0.32176 -3.96463,-0.93555 -5.97513,-1.65697 6.54878,2.37017 12.9909,2.82044 19.41496,2.94571 l 3.7491,-3.74909 c -8.1134,-11.85439 -11.66186,-24.36091 -12.72015,-37.22317 z"
         style="fill:#9dac93;fill-rule:evenodd;stroke:#000000;stroke-width:0.30000001;stroke-linecap:round;stroke-linejoin:round;stroke-miterlimit:4;stroke-dasharray:none;stroke-opacity:1" />
      <path
         d="m 122.33705,203.27966 c 0.21543,0.29377 2.23912,-3.81392 1.02964,-6.49735 -0.77596,-1.72159 1.13501,-2.19544 2.79303,-1.65688 1.19923,0.38953 2.30401,1.45335 2.69835,2.65101 0.34482,1.04725 0.30625,2.53723 -0.52073,3.26643 -1.57513,1.38889 -1.31848,4.32318 -1.10065,4.33156 l -1.45568,0.30771 c -1.28249,-0.67421 -2.38066,-1.50908 -3.44396,-2.40248 z m 6.80506,1.83441 c -0.43697,0.0397 0.41501,-2.6181 1.5622,-4.16588 0.64895,-0.87556 0.0185,-2.18847 -0.14201,-3.26642 -0.29938,-2.01012 1.49028,-2.33159 2.65101,-3.02973 2.59473,-1.56064 1.8271,0.83153 2.69835,2.13027 1.56182,2.32816 3.22464,7.40593 2.50899,7.57432 -1.18335,-0.28099 -2.35456,-0.69359 -3.52853,-1.06722 l 1.738,0.56323 c 0.16294,0.38293 0.0686,0.7534 -0.32588,0.98026 -2.47165,-0.0358 -4.82414,0.0496 -7.16213,0.28117 z m 18.67938,0.80298 c 0,0 1.1388,-2.08085 2.14234,-2.51055 1.27151,-0.54444 1.70974,-0.0526 1.13812,0.40169 -0.62632,0.49771 -0.99824,2.17611 -0.88706,2.2595 z m -2.16602,-0.25452 c 2.46518,-0.39443 2.40532,-4.91289 1.52298,-7.36535 -1.21243,-3.36995 -2.61695,-6.05576 -5.82275,-3.78716 -1.46111,1.03396 -3.47022,2.48878 -0.4734,3.8345 2.72885,1.22539 0.30773,6.69263 -0.37871,6.55246 1.71729,0.3363 3.43459,0.68126 5.15188,0.76555 z m 2.16602,-12.63299 c 0.30635,-0.61217 1.17652,-1.19195 1.57328,-0.26779 0.6899,1.60699 1.17357,3.30009 1.90802,4.88721 0.50119,1.08305 -0.20184,1.28366 -1.6737,1.47286 -1.1639,0.14962 -1.04181,-2.89783 -1.03769,-3.07961 0.004,-0.16733 -1.23377,-2.08576 -0.76991,-3.01267 z m 0.56906,-10.74517 c 0,0 -1.45836,-0.10249 -2.17581,-0.23432 -1.1634,-0.21378 -1.97168,1.32393 -1.07118,2.41013 1.0092,1.21733 1.49578,2.57777 1.33897,3.6152 -0.15838,1.04782 0.56731,2.56469 1.6737,1.07117 0.57136,-0.77128 1.67371,-2.34319 1.67371,-2.34319 z m -33.92368,7.4917 c 1.52859,0.91185 4.8725,0.15184 6.48551,1.75156 1.33184,1.32087 2.16527,3.37872 0.66275,3.88184 -1.21348,0.40633 -2.51247,1.28772 -0.71009,2.2723 1.49312,0.81564 -0.24628,3.76349 -0.61541,3.76349 -2.63732,-2.57023 -4.87057,-5.90607 -5.82276,-11.66919 z m 4.53345,-13.14882 c -0.0922,-0.0121 1.18799,0.16265 1.33896,2.57751 0.18939,3.02947 -0.0447,6.32443 -2.30971,7.96682 -1.04989,0.70892 -3.65452,-1.4052 -3.81605,-1.53981 0.0195,-2.26974 0.24888,-4.46951 0.80338,-6.56091 z m 6.92271,7.6101 c 1.41372,1.58225 2.17319,3.10447 5.49137,3.21909 1.51394,0.0523 3.3692,3.15438 2.36698,4.44991 -3.3179,4.2889 -11.76002,-0.7535 -11.92955,-5.01799 -0.0576,-1.44972 1.99231,-4.97773 4.0712,-2.65101 z m 7.1956,-4.82862 c -4.0911,1.65341 -4.1874,5.61476 0.28403,6.05945 1.3378,0.13305 2.88161,1.78563 3.17175,3.73982 0.30052,2.0241 2.05962,3.37168 4.40257,2.55633 2.24514,-0.78131 2.63032,-3.93237 2.13028,-6.34349 -0.24809,-1.19624 -0.91088,-2.90759 -2.13028,-2.98239 -1.48512,-0.0911 -1.76133,-1.8435 -2.74569,-2.55633 -1.38622,-1.00383 -3.52584,-1.1147 -5.11266,-0.47339 z m -11.92955,-4.02386 c 0.17386,-0.28252 2.51007,-0.66116 1.70422,1.27817 -0.79336,1.90925 1.34142,3.39217 3.3611,3.21908 0.87212,-0.0747 1.51526,-0.88563 2.31964,-1.23082 0.89472,-0.38395 0.48844,-1.01314 -0.2367,-1.70423 -0.86249,-0.822 -0.93222,-2.33256 -0.71009,-3.50312 0.20812,-1.09672 -1.2051,-0.85973 -1.27817,-0.75743 z m 12.45028,-3.97652 c 0.98952,-0.84266 2.11972,-2.0622 3.40844,-1.89358 1.46103,0.19116 2.36255,-0.44488 2.88771,-1.46752 0.23347,-0.45464 1.0767,-0.49979 1.51487,-0.2367 2.72108,1.63382 3.89177,5.91476 3.1244,8.9945 -0.7947,3.18942 -3.77161,2.12023 -5.3967,0.56808 -0.79389,-0.75827 -2.10698,-1.20123 -4.26055,-0.80477 -1.46743,0.27015 -3.82532,0.0543 -4.26056,-1.37285 -0.46871,-1.53695 1.75904,-2.74537 2.98239,-3.78716 z"
         style="fill:#5d6c53;fill-rule:evenodd;stroke:#000000;stroke-width:0.30000001;stroke-linecap:round;stroke-linejoin:round;stroke-miterlimit:4;stroke-dasharray:none;stroke-opacity:1"
         id="path893"
         inkscape:connector-curvature="0" />
      <path
         sodipodi:nodetypes="cssscsccsssccscc"
         inkscape:connector-curvature="0"
         id="path896"
         d="m 72.713447,217.46967 c 0,0 -2.687932,2.69982 -4.449913,3.12441 -11.997251,2.891 -28.358817,8.84336 -35.504612,21.49212 -1.413842,2.50264 -0.434524,4.43043 2.177616,2.84037 4.682018,-2.85003 11.950138,-7.3685 11.834871,-7.1956 -2.406853,3.03085 2.052725,1.78738 6.627529,-2.08294 1.272196,-1.07629 4.544589,-2.08294 4.544589,-2.08294 -10.832042,7.84968 7.809868,2.89043 10.509366,0.85212 -0.590924,0.42355 -4.009639,3.0836 0.662752,6.24881 4.943435,3.34882 8.093911,5.89289 9.278538,9.56257 0.723101,2.23999 1.384563,1.69486 2.177616,0.0947 6.376668,-12.86635 0.381052,-20.71873 1.278168,-23.55139 -3.702912,4.4998 -7.993728,6.88751 -13.397074,5.27835 5.776457,1.98659 10.513787,-1.62376 13.390619,-5.2712 0.155615,-0.1973 0.946119,-0.42558 1.189942,-0.50421 -4.288659,-1.1906 -8.274688,-3.00326 -10.320007,-8.80517 z"
         style="fill:#9dac93;fill-rule:evenodd;stroke:#000000;stroke-width:0.30000001;stroke-linecap:round;stroke-linejoin:round;stroke-miterlimit:4;stroke-dasharray:none;stroke-opacity:1" />
      <path
         sodipodi:nodetypes="cccc"
         inkscape:connector-curvature="0"
         id="path917"
         d="m 154.98947,147.64393 c 2.96365,1.99261 6.3602,3.80075 7.89385,6.62753 0.99381,-0.21132 1.69903,-0.38692 2.28414,-0.56807 -2.86018,-2.27028 -6.44312,-4.22653 -10.17799,-6.05946 z"
         style="fill:#5d6c53;fill-rule:evenodd;stroke:#000000;stroke-width:0.30000001;stroke-linecap:round;stroke-linejoin:round;stroke-miterlimit:4;stroke-dasharray:none;stroke-opacity:1" />
      <path
         sodipodi:nodetypes="cccc"
         inkscape:connector-curvature="0"
         id="path919"
         d="m 48.759668,230.39335 c 5.897039,-2.75265 11.744672,-4.56659 17.515609,-4.92331 -1.036047,0.58226 -1.901427,0.86585 -3.408444,2.2723 1.184799,-1.82996 -0.215531,-2.32803 -14.107165,2.65101 z"
         style="fill:#5d6c53;fill-rule:evenodd;stroke:#000000;stroke-width:0.30000001;stroke-linecap:round;stroke-linejoin:round;stroke-miterlimit:4;stroke-dasharray:none;stroke-opacity:1" />
      <path
         sodipodi:nodetypes="ccccscc"
         inkscape:connector-curvature="0"
         id="path921"
         d="m 68.547572,232.05023 c 3.06611,0.95142 6.167513,0.8364 9.673499,-1.75681 2.135466,4.01199 3.116602,7.82359 2.587427,12.07682 0.398239,-2.91952 0.0091,-5.58176 -1.040485,-8.67937 -2.70996,-3.02873 -2.838545,-0.24268 -6.912548,-0.17308 -2.097081,0.0358 -4.351314,-1.38941 -4.307893,-1.46757 z"
         style="fill:#5d6c53;fill-rule:evenodd;stroke:#000000;stroke-width:0.30000001;stroke-linecap:round;stroke-linejoin:round;stroke-miterlimit:4;stroke-dasharray:none;stroke-opacity:1" />
      <path
         sodipodi:nodetypes="ccc"
         inkscape:connector-curvature="0"
         id="path923"
         d="m 57.902366,233.58051 c -9.065555,6.26949 2.205427,4.85188 10.435561,0.90408 -6.865097,1.79606 -14.260372,4.19505 -10.435561,-0.90408 z"
         style="fill:#5d6c53;fill-rule:evenodd;stroke:#000000;stroke-width:0.30000001;stroke-linecap:round;stroke-linejoin:round;stroke-miterlimit:4;stroke-dasharray:none;stroke-opacity:1" />
      <path
         sodipodi:nodetypes="cccc"
         inkscape:connector-curvature="0"
         id="path925"
         d="m 68.337927,234.48459 c -1.842339,3.32569 -0.137474,5.1133 3.523408,4.14583 -4.21156,1.93464 3.393736,4.13768 4.355232,7.81101 -3.500405,-5.09336 -13.3297,-6.72483 -7.87864,-11.95684 z"
         style="fill:#5d6c53;fill-rule:evenodd;stroke:#000000;stroke-width:0.30000001;stroke-linecap:round;stroke-linejoin:round;stroke-miterlimit:4;stroke-dasharray:none;stroke-opacity:1" />
      <path
         sodipodi:nodetypes="ccc"
         inkscape:connector-curvature="0"
         id="path927"
         d="m 73.308212,218.97195 c -1.011761,2.40212 -0.86942,3.9352 2.209289,3.31393 -0.950993,-0.90124 -1.614896,-2.05609 -2.209289,-3.31393 z"
         style="fill:#5d6c53;fill-rule:evenodd;stroke:#000000;stroke-width:0.30000001;stroke-linecap:round;stroke-linejoin:round;stroke-miterlimit:4;stroke-dasharray:none;stroke-opacity:1" />
      <path
         sodipodi:nodetypes="ccc"
         inkscape:connector-curvature="0"
         id="path929"
         d="m 77.592893,223.99306 c 0.219789,1.18018 0.517442,2.32971 2.309711,1.23853 -0.758746,-0.25171 -1.550965,-0.71989 -2.309711,-1.23853 z"
         style="fill:#5d6c53;fill-rule:evenodd;stroke:#000000;stroke-width:0.30000001;stroke-linecap:round;stroke-linejoin:round;stroke-miterlimit:4;stroke-dasharray:none;stroke-opacity:1" />
      <path
         sodipodi:nodetypes="cccccccccccccsccsccccccccccccccccsccccsccccccccccccccc"
         inkscape:connector-curvature="0"
         d="m 117.15924,202.7705 c -1.29784,0.65571 -0.22066,2.34931 0.50212,1.74065 0.99052,-0.83412 0.21437,-2.10264 -0.50212,-1.74065 z m -2.27623,-4.11731 c 0.67737,0.69815 -0.42384,2.49358 -1.00423,1.40591 -0.42859,-0.8032 0.25886,-2.17415 1.00423,-1.40591 z m -2.81182,-1.80761 c -0.81846,1.29641 0.77506,2.39581 1.30548,1.27202 0.50192,-1.0634 -0.78744,-2.09258 -1.30548,-1.27202 z m -2.41014,-6.15922 c 0.47633,-1.15006 2.28556,0.37213 1.27202,1.17159 -1.11508,0.87955 -1.61623,-0.34054 -1.27202,-1.17159 z m -0.46863,-2.94572 c -1.06225,1.27571 0.62809,2.23464 1.27201,1.53981 1.26168,-1.36143 -0.49651,-2.47115 -1.27201,-1.53981 z m -8.97106,24.83776 c -0.644213,-0.25768 -1.316559,0.95986 -0.468632,1.27201 1.022672,0.37648 1.058252,-1.03617 0.468632,-1.27201 z m -3.481299,-3.01267 c -0.785163,-0.17025 -1.008747,1.14625 -0.06695,1.30549 0.516538,0.0873 1.381814,-1.02038 0.06695,-1.30549 z m -3.21351,-2.94571 c 0.91397,-0.53375 1.30611,1.29687 0.636008,1.33896 -0.955019,0.06 -1.761307,-0.68179 -0.636008,-1.33896 z m -4.719844,-3.28046 c -0.818914,0.7701 0.315032,2.37598 1.238541,1.50633 1.012911,-0.95384 -0.42272,-2.27353 -1.238541,-1.50633 z M 113.378,178.7696 l -1.87009,1.30213 c 0.67924,1.29819 -0.60827,4.02245 -1.68051,1.42018 -7.58555,6.26125 -15.232967,12.48273 -22.212593,19.12958 1.206817,-0.1364 1.032295,1.56202 -0.557589,1.27331 0.08734,2.31459 -0.58707,4.02218 -1.372526,5.58622 2.036117,-0.45885 4.019405,-0.81204 6.295739,-1.75132 2.01358,-0.83086 0.57584,0.32256 0.426332,0.47336 -1.168361,1.17841 -1.786824,3.53412 -1.56218,3.55017 1.36475,-0.67269 3.006072,-0.99965 4.87567,-1.04128 -0.939308,1.27813 -1.837573,2.55626 -2.651,3.83439 1.70249,-0.11581 3.29842,-0.5513 4.876188,-1.04128 1.587265,-0.49293 1.156126,0.0706 0.946711,0.33125 -1.395907,1.7372 -1.756584,3.17365 -1.751314,3.1719 1.555692,-0.23381 3.051642,-0.58709 4.970242,-0.0951 l 0.23926,-0.0295 c 6.46901,-2.99491 13.07503,-5.09248 19.50134,-7.11872 -0.0145,-1.00264 0.14141,-1.93228 0.56824,-2.74579 -0.55379,0.25005 -1.13495,0.14436 -1.75183,-0.42581 -0.81532,3.62738 -3.13308,-0.54826 -0.52039,-0.85215 -0.78069,-0.71101 -1.49144,-1.56187 -2.08307,-2.651 -0.86569,1.25981 -3.0377,0.53149 -1.89343,-2.08308 -1.02093,-1.09181 -1.81938,-2.44317 -2.46186,-3.9765 -1.41552,0.71526 -3.08963,-1.69595 -1.13585,-3.02978 -0.47354,-1.79886 -0.69443,-3.59772 -0.66301,-5.39658 -2.22177,0.49364 -2.08487,-2.98266 0.47336,-2.74556 -0.19149,-1.70241 1.04941,-4.43192 0.99416,-5.08904 z"
         style="fill:#c8c4b7;fill-rule:evenodd;stroke:#000000;stroke-width:0.30000001;stroke-linecap:round;stroke-linejoin:round;stroke-miterlimit:4;stroke-dasharray:none;stroke-opacity:1"
         id="path941" />
      <path
         sodipodi:nodetypes="cccccc"
         inkscape:connector-curvature="0"
         id="path944"
         d="m 75.919189,220.61218 c -0.328143,3.23922 2.804679,1.95255 4.552474,2.47708 3.078416,-2.29159 6.200962,-4.42872 9.037999,-7.56514 0.368784,-1.60115 1.877502,-3.37971 3.280458,-5.15501 -1.211869,0.82277 -2.565639,1.46816 -4.485524,1.40591 z"
         style="fill:#504416;fill-rule:evenodd;stroke:#000000;stroke-width:0.30000001;stroke-linecap:round;stroke-linejoin:round;stroke-miterlimit:4;stroke-dasharray:none;stroke-opacity:1" />
      <path
         sodipodi:nodetypes="cccccc"
         inkscape:connector-curvature="0"
         id="path946"
         d="m 75.885193,220.68875 c -1.793121,0.0325 -1.436068,-1.94187 -1.420186,-3.5978 2.959189,-3.34578 6.258714,-6.30868 10.225328,-8.5211 2.051735,-0.0452 4.039278,-0.47555 5.964775,-1.27817 -1.15718,1.25012 -2.187652,2.54247 -2.224956,4.16588 -4.493056,2.68781 -8.550055,5.92069 -12.544961,9.23119 z"
         style="fill:#504416;fill-rule:evenodd;stroke:#000000;stroke-width:0.30000001;stroke-linecap:round;stroke-linejoin:round;stroke-miterlimit:4;stroke-dasharray:none;stroke-opacity:1" />
      <path
         sodipodi:nodetypes="cccccc"
         inkscape:connector-curvature="0"
         id="path948"
         d="m 89.566302,215.57609 c 3.175527,-0.57009 4.89052,-1.57835 6.864225,-2.50899 -0.803879,1.78997 -1.653023,3.55277 -3.077067,4.97064 l -10.367346,7.52698 c -1.792789,-0.20723 -2.811088,-0.91561 -2.461654,-2.50899 3.166569,-2.26428 6.364845,-4.481 9.041842,-7.47964 z"
         style="fill:#504416;fill-rule:evenodd;stroke:#000000;stroke-width:0.30000001;stroke-linecap:round;stroke-linejoin:round;stroke-miterlimit:4;stroke-dasharray:none;stroke-opacity:1" />
      <path
         sodipodi:nodetypes="cccccc"
         inkscape:connector-curvature="0"
         id="path952"
         d="m 83.175471,225.6594 c -0.139921,0.60264 0.449131,0.68459 1.183487,0.66275 3.42834,-3.10451 7.367264,-5.69843 11.550835,-8.04771 0.967698,-0.728 2.283096,-1.38647 3.881837,-1.98826 -2.014711,0.0149 -3.933442,0.60561 -5.822757,1.37285 -4.051489,2.43995 -7.492232,5.18526 -10.793402,8.00037 z"
         style="fill:#504416;fill-rule:evenodd;stroke:#000000;stroke-width:0.30000001;stroke-linecap:round;stroke-linejoin:round;stroke-miterlimit:4;stroke-dasharray:none;stroke-opacity:1" />
      <path
         sodipodi:nodetypes="cccccc"
         inkscape:connector-curvature="0"
         id="path950"
         d="m 74.27565,217.04361 c -1.050406,0.22048 -1.457796,-0.0949 -0.994129,-1.13614 2.749927,-3.56883 5.470687,-7.17413 8.710464,-10.13065 1.262386,-1.22045 2.524772,-1.91248 3.787158,-2.50899 -0.709104,1.45549 -1.631218,2.78317 -1.75156,4.59192 -3.618494,2.74599 -7.012129,5.68471 -9.751933,9.18386 z"
         style="fill:#504416;fill-rule:evenodd;stroke:#000000;stroke-width:0.30000001;stroke-linecap:round;stroke-linejoin:round;stroke-miterlimit:4;stroke-dasharray:none;stroke-opacity:1" />
      <path
         sodipodi:nodetypes="ccccccccccccccc"
         inkscape:connector-curvature="0"
         d="m 82.814847,205.68274 c 0.224673,-0.80262 0.308119,-1.67585 0,-2.74487 0.613245,0.38027 1.292974,0.62756 1.740654,1.33896 -0.300985,0.65439 -0.547533,1.3564 -1.539809,1.40591 z m -4.753316,4.75332 c 0.142884,-2.04356 -0.494993,-3.52943 -0.937274,-5.15501 0.640468,-0.10908 1.735935,1.31747 1.740652,-0.93727 1.010987,0.93132 2.033583,1.8371 3.481303,1.8076 -0.606766,2.12647 -1.894933,3.67375 -4.284681,4.28468 z m -4.083836,5.2889 c -0.178527,-1.76297 -0.758747,-3.43667 -1.740652,-5.02111 1.365292,0.22205 0.384902,-1.21167 0.401688,-1.9415 1.570741,0.93542 2.926875,2.13314 5.255428,2.14235 -0.970654,2.32105 -2.322561,3.7457 -3.916464,4.82026 z"
         style="fill:#e3e2db;fill-rule:evenodd;stroke:#000000;stroke-width:0.30000001;stroke-linecap:round;stroke-linejoin:round;stroke-miterlimit:4;stroke-dasharray:none;stroke-opacity:1"
         id="path958" />
      <path
         sodipodi:nodetypes="ccccccccccccccc"
         inkscape:connector-curvature="0"
         d="m 84.287708,211.64112 c 0.265648,-0.75471 0.246825,-1.56631 0.06695,-2.41013 0.566804,0.55339 0.66879,0.17714 0.803378,-0.1339 0.596536,0.25148 1.244956,0.45107 1.673704,0.87033 0.174958,0.71549 -1.671643,1.94178 -2.544032,1.6737 z m -4.284681,3.01267 c 0.07833,-0.76924 0.143763,-1.57715 0.133895,-2.61098 0.475349,-0.0329 1.005154,0.0295 1.138119,-0.60253 0.766593,0.25995 1.530112,0.52297 2.209289,0.87033 -0.62473,0.87034 -1.824479,2.75249 -3.481303,2.34318 z m -4.083838,3.81604 c 0.02056,-1.08145 -0.112156,-2.08626 -0.267793,-3.07961 0.517939,0.0657 1.066476,0.17227 0.803378,-0.80338 1.001607,0.51449 2.055757,0.55609 3.146563,0.26779 -0.112657,1.37656 -1.428967,3.04954 -3.682148,3.6152 z"
         style="fill:#e3e2db;fill-rule:evenodd;stroke:#000000;stroke-width:0.30000001;stroke-linecap:round;stroke-linejoin:round;stroke-miterlimit:4;stroke-dasharray:none;stroke-opacity:1"
         id="path964" />
      <path
         sodipodi:nodetypes="cccccccccccccc"
         inkscape:connector-curvature="0"
         d="m 83.81907,217.39866 c 0.815604,-0.18647 1.622059,-0.40038 2.610977,-0.0669 v -0.73643 c 0.535586,0.34202 1.071171,0.22478 1.606757,0.13389 -0.130744,-0.52916 -0.282535,-1.02674 -0.06695,-2.07539 0.320669,-0.67021 -0.03648,-0.73038 -0.602535,-0.60253 -1.18275,1.11579 -4.075996,2.13096 -3.548249,3.34736 z m -5.623644,3.54826 c -0.247611,0.54985 0.114188,0.74421 0.937276,0.66948 l 2.878769,-0.87033 c -0.01735,-0.80895 0.341635,-0.77113 0.669481,-0.80338 l 0.535585,-1.47286 c 0.05069,-0.26779 0.073,-0.53558 -0.40169,-0.80337 -1.540922,1.09089 -3.334212,1.59291 -4.619421,3.28046 z"
         style="fill:#e3e2db;fill-rule:evenodd;stroke:#000000;stroke-width:0.30000001;stroke-linecap:round;stroke-linejoin:round;stroke-miterlimit:4;stroke-dasharray:none;stroke-opacity:1"
         id="path968" />
      <path
         sodipodi:nodetypes="ccccccccccccccccccc"
         inkscape:connector-curvature="0"
         d="m 92.264652,216.75958 c -0.103111,-0.29247 0.493649,-1.1159 0.568074,-1.04147 0.486625,-0.33696 0.877641,-0.29148 1.278167,-0.28404 0.264479,0.6115 0.07431,1.13207 -0.09468,1.65688 -0.583854,-0.18416 -1.167707,-0.32465 -1.751561,-0.33137 z m -4.970645,3.21908 c -0.416758,-0.14512 -0.527587,-0.39221 -0.142018,-0.80477 l 3.171746,-2.0356 c 0.268257,0.44587 0.536513,0.14421 0.80477,-0.56807 0.08172,0.92413 0.249271,1.8311 -0.09468,2.84037 -0.711423,-0.42662 -1.10583,0.0344 -1.372846,0.85211 -0.610406,-0.27326 -1.313811,-0.45353 -2.366972,-0.28404 z m -5.017984,3.59781 c -0.130721,-0.24057 -0.28719,-0.47746 0.189357,-0.80478 l 3.69248,-2.60367 c 0.427442,-0.0523 0.486885,0.17135 0.568074,0.37872 -0.463174,1.25031 -0.285776,2.07358 0.04734,2.79303 -1.161427,-0.41556 -0.976442,0.29088 -1.136147,0.71009 -1.223191,0.15067 -2.315493,-0.0913 -3.361104,-0.47339 z"
         style="fill:#e3e2db;fill-rule:evenodd;stroke:#000000;stroke-width:0.30000001;stroke-linecap:round;stroke-linejoin:round;stroke-miterlimit:4;stroke-dasharray:none;stroke-opacity:1"
         id="path974" />
      <path
         sodipodi:nodetypes="ccccccccccccc"
         inkscape:connector-curvature="0"
         d="m 92.075295,220.12068 c 1.308102,0.51308 2.56831,1.26562 3.787159,2.22496 0.09403,-1.44569 0.111081,-2.92218 -0.236697,-4.54459 -1.448794,0.37525 -2.637244,1.14102 -3.550462,2.31963 z m -4.828627,3.3611 c 1.393561,0.68279 2.61349,1.77073 3.739819,3.07707 -0.269724,-1.38802 0.397933,-1.32736 1.088808,-1.23082 -0.180678,-1.49246 -0.556646,-3.06303 -1.183486,-4.73395 -1.651384,0.7444 -2.69925,1.79056 -3.645141,2.8877 z m -3.313763,2.55634 c 0.982915,1.59584 2.263409,2.29895 3.50312,3.1244 -0.484602,-1.73205 -0.617813,-3.58122 -0.568074,-5.49138 -1.125521,0.60503 -2.164369,1.3184 -2.935046,2.36698 z"
         style="fill:#e3e2db;fill-rule:evenodd;stroke:#000000;stroke-width:0.30000001;stroke-linecap:round;stroke-linejoin:round;stroke-miterlimit:4;stroke-dasharray:none;stroke-opacity:1"
         id="path980" />
      <path
         sodipodi:nodetypes="csscccccc"
         inkscape:connector-curvature="0"
         id="path1008"
         d="m 183.06178,216.61756 c 3.59585,5.33387 12.0192,9.11846 18.65176,12.68698 3.54646,1.9081 6.4911,4.25615 9.2312,6.43817 3.35274,2.66989 6.60249,4.70705 9.2312,7.29028 l -0.4318,-5.42443 c -0.86748,-1.14642 -1.05495,-2.00559 0.33712,-1.77117 l -16.9002,-15.85873 c -0.81195,-0.40788 -1.41289,-0.8861 -1.84624,-1.42018 z"
         style="fill:#3e4837;fill-rule:evenodd;stroke:#000000;stroke-width:0.30000001;stroke-linecap:round;stroke-linejoin:round;stroke-miterlimit:4;stroke-dasharray:none;stroke-opacity:1" />
      <path
         sodipodi:nodetypes="ccccccccscsscccsssssccccccscscccccccccc"
         inkscape:connector-curvature="0"
         id="path1006"
         d="m 199.67794,206.58159 c -0.91813,2.81416 -2.44821,5.09287 -4.0712,7.29028 -0.89655,-0.50234 -0.27196,-2.17478 -0.0947,-3.50312 -0.0175,1.22377 -0.99887,2.92954 0.0947,3.5978 2.28291,1.28861 4.18354,2.9117 5.96478,4.63927 -1.04593,0.67806 -2.99454,0.52287 -4.82863,0.47339 2.20859,0.40969 4.90356,1.30576 6.43817,1.04147 0.27636,-0.19304 4.57756,4.19912 6.1068,5.16001 0.3274,0.20144 1.55936,0.54703 1.89577,0.70771 1.15281,0.5506 2.0675,1.23047 3.26423,1.42256 3.22915,0.51168 6.21504,1.39362 8.9945,2.93505 1.89057,1.04847 2.29318,2.4161 -0.18936,1.51486 -1.02308,-0.37141 -3.36022,-0.94826 -3.43211,-0.82844 -2.10272,1.23939 -4.90369,0.64728 -7.55065,-0.11835 2.65844,0.76676 5.28811,1.37522 7.57432,0.0947 0.16703,-0.0731 7.06501,4.96221 9.18386,8.33175 2.1863,3.47681 1.02654,3.52704 -1.32551,1.23083 -2.21264,-2.16011 -4.7347,-4.05263 -8.14239,-4.92331 -1.68655,-0.43092 -2.39682,-0.76632 -0.66275,0.94679 2.16105,2.13493 3.15881,5.20329 4.44991,7.95304 1.27871,2.72336 1.56534,3.95976 -1.42018,0.66275 -0.78683,-0.43198 -2.49245,-3.20708 -2.2723,-3.69248 -2.11901,-0.90093 -3.60838,-2.4569 -4.82863,-4.44991 -3.63696,0.057 -5.02106,-3.15436 -6.81688,-5.77542 -7.1825,-2.9809 -14.6079,-4.73294 -20.45066,-12.40294 -8.30941,-1.38685 -3.63009,-7.0472 -0.56807,-8.04772 0,-0.32759 -4.28392,2.15879 -4.12666,5.02274 0.11869,2.16152 4.50538,5.01323 4.50538,5.01323 0.0514,0.25701 -4.565,-0.48294 -7.10093,-0.37871 -4.25786,0.175 -14.865,3.37951 -15.71671,2.27229 0.26712,-1.27198 0.90336,-1.99028 1.70422,-2.46165 l -2.93504,0.18936 c 0.8535,-1.38313 1.49836,-2.91528 2.93504,-3.88184 1.05728,0.158 2.06164,-0.002 3.02973,-0.37872 -1.00145,-0.0846 -2.01888,-0.009 -2.93504,-0.94679 1.96153,-1.50036 4.43882,-1.45344 6.7222,-1.98826 -1.55162,0.21537 -3.07485,0.28876 -4.44991,-0.37871 1.65491,-1.5068 3.87681,-2.9643 3.5978,-4.63927 8.32955,-3.2714 17.36171,-4.23422 27.4569,-1.70424 z"
         style="fill:#9dac93;fill-rule:evenodd;stroke:#000000;stroke-width:0.30000001;stroke-linecap:round;stroke-linejoin:round;stroke-miterlimit:4;stroke-dasharray:none;stroke-opacity:1" />
      <path
         sodipodi:nodetypes="ccc"
         inkscape:connector-curvature="0"
         id="path1016"
         d="m 205.263,207.32297 c -2.16927,-9.56784 -12.99572,-1.69014 -20.45266,-0.60253 14.1717,0.7843 14.02932,-2.06319 20.45266,0.60253 z"
         style="fill:#3e4837;fill-rule:evenodd;stroke:#000000;stroke-width:0.30000001;stroke-linecap:round;stroke-linejoin:round;stroke-miterlimit:4;stroke-dasharray:none;stroke-opacity:1" />
      <path
         sodipodi:nodetypes="cscccccccssccc"
         inkscape:connector-curvature="0"
         id="path1046"
         d="m 157.99761,202.46923 c -6.17479,-8.98178 -11.65582,-21.57167 -12.6654,-38.30382 -0.0791,-1.31083 1.26852,-1.05461 1.98826,-1.3255 l 1.04147,-2.93505 c 7.53052,-4.00128 16.41507,-6.59847 25.32663,-7.85835 2.42485,-0.40047 2.41275,0.33631 3.07706,0.75743 l 2.93505,2.74569 4.63927,-1.32551 c 1.22591,0.28642 1.84032,0.29192 2.46165,0.0947 1.4232,0.33608 3.72439,0.46881 4.38296,1.50387 0.86974,1.36694 13.94294,15.36478 18.81339,23.01798 8.43505,13.25447 1.4257,18.76441 -0.28404,20.2613 l -12.5923,0.18936 z"
         style="fill:#6c6753;fill-rule:evenodd;stroke:#000000;stroke-width:0.30000001;stroke-linecap:round;stroke-linejoin:round;stroke-miterlimit:4;stroke-dasharray:none;stroke-opacity:1" />
      <path
         sodipodi:nodetypes="ccccc"
         inkscape:connector-curvature="0"
         id="path1020"
         d="m 179.88965,155.06995 c -0.97104,-0.79494 -1.09791,-1.80092 -3.34741,-2.27624 -9.53116,2.06216 -18.96641,4.69974 -28.31906,7.83293 -0.72164,-0.01 -1.58464,3.16026 -0.87032,3.07962 0.50688,-0.27727 32.60879,-8.78032 32.53679,-8.63631 z"
         style="fill:#c8c4b7;fill-rule:evenodd;stroke:#000000;stroke-width:0.30000001;stroke-linecap:round;stroke-linejoin:round;stroke-miterlimit:4;stroke-dasharray:none;stroke-opacity:1" />
      <path
         d="m 207.60618,194.80367 c 0.2675,-0.59093 2.09178,-0.68858 1.43938,0.97075 -0.44511,1.13211 -2.0044,0.27743 -1.43938,-0.97075 z m 2.27624,-3.78257 c 1.29698,1.13719 -0.17733,2.54494 -0.9038,1.94149 -1.359,-1.12887 0.0374,-2.70116 0.9038,-1.94149 z m -0.30127,-5.38933 c 1.06007,0.52602 0.48786,2.62491 -0.87033,1.9415 -1.06154,-0.53414 -0.31604,-2.53019 0.87033,-1.9415 z m -1.10464,-3.04614 c 0.99507,0.53489 0.25975,2.44239 -0.66949,1.9415 -1.44446,-0.77862 -0.19376,-2.40553 0.66949,-1.9415 z m -4.35163,-6.76176 c -1.18601,-0.3362 -2.19002,1.7036 -0.40169,2.20929 1.43203,0.40494 1.52511,-1.89083 0.40169,-2.20929 z m -2.10887,-2.44361 c 0.89698,0.2211 1.09556,2.45017 -0.30127,2.10887 -1.90422,-0.46527 -0.6809,-2.35097 0.30127,-2.10887 z m -4.35163,-5.48974 c 1.43153,0.17156 0.97548,2.43861 -0.26779,2.27623 -1.44759,-0.18907 -1.49655,-2.48767 0.26779,-2.27623 z m -2.27623,-2.47709 c 1.2312,0.11863 1.49229,2.38098 -0.10043,2.24277 -1.59903,-0.13876 -1.23229,-2.37119 0.10043,-2.24277 z m -6.05881,-6.29312 c 1.63357,0.16861 1.3488,2.61787 -0.10042,2.47708 -1.69792,-0.16495 -1.40846,-2.63282 0.10042,-2.47708 z m -2.61098,-2.97919 c 0.9606,0.503 0.40052,2.26657 -0.53558,1.77412 -1.34948,-0.70991 -0.40369,-2.26596 0.53558,-1.77412 z m 22.04876,42.29808 3.50312,-7.00624 c -1.49383,0.44178 -3.20133,-3.26715 -0.18935,-3.59781 l -2.65102,-7.47963 c -1.49738,2.07525 -4.53795,-1.3884 -1.98826,-2.84037 l -5.01798,-6.72221 c -0.99845,2.7934 -3.96249,-0.44142 -2.08294,-1.98826 l -5.01798,-5.68074 c -0.66903,1.81579 -3.74534,-0.27924 -1.98826,-1.98825 -1.90606,-2.2723 -3.99808,-4.54459 -6.53285,-6.81689 -1.0934,0.49021 -2.40453,1.41095 -2.46216,0.0619 -13.79287,0.58706 -25.23297,5.09543 -37.30301,8.55388 -0.53475,13.89921 4.0481,26.5578 11.83488,38.43967 12.58764,-2.33373 23.70574,-8.20772 33.51635,-17.23158 0.81142,-0.48958 1.68317,-0.76797 2.55633,-1.04146 -0.5089,0.11047 -1.0178,0.31844 -1.52669,0.52073 3.97505,4.62827 5.14661,9.85123 5.12449,15.10129 z"
         style="fill:#c8c4b7;fill-rule:evenodd;stroke:#000000;stroke-width:0.30000001;stroke-linecap:round;stroke-linejoin:round;stroke-miterlimit:4;stroke-dasharray:none;stroke-opacity:1"
         id="path1042"
         inkscape:connector-curvature="0" />
      <path
         sodipodi:nodetypes="cccccc"
         inkscape:connector-curvature="0"
         id="path1050"
         d="m 160.00745,200.04874 c -2.56559,-3.89979 -3.46593,-8.35467 -4.16587,-12.87634 l 4.16587,-2.17761 c 4.17626,1.61828 8.4079,3.20831 12.30827,5.68073 1.24579,1.54661 1.09612,3.40332 0.75743,5.30203 -3.99558,1.98646 -8.35602,3.33442 -13.0657,4.07119 z"
         style="fill:#c8c4b7;fill-rule:evenodd;stroke:#000000;stroke-width:0.30000001;stroke-linecap:round;stroke-linejoin:round;stroke-miterlimit:4;stroke-dasharray:none;stroke-opacity:1" />
      <path
         sodipodi:nodetypes="ccccccccccc"
         inkscape:connector-curvature="0"
         id="path1054"
         d="m 157.11974,186.36763 c -0.56152,0.72423 -0.57203,1.31071 0.37872,1.65688 -0.86183,0.95711 -0.77907,1.67807 0.37872,2.13028 -1.08512,1.1337 -0.52514,1.59001 0.52073,1.84624 -0.3508,0.74238 -1.41035,1.62651 0.61541,1.89358 -0.81665,1.29546 -0.54009,1.90765 0.66276,1.94092 -0.35719,0.85747 -1.04745,1.83765 0.89945,1.84624 -0.69155,1.01955 -0.52249,1.66258 0.80477,1.7989 l -1.27817,0.42605 c -2.47252,-3.10334 -3.38881,-7.57737 -4.21321,-12.829 z"
         style="fill:#6c6753;fill-rule:evenodd;stroke:#000000;stroke-width:0.30000001;stroke-linecap:round;stroke-linejoin:round;stroke-miterlimit:4;stroke-dasharray:none;stroke-opacity:1" />
      <path
         sodipodi:nodetypes="cssccssssccssccssssscscssccsscccc"
         inkscape:connector-curvature="0"
         id="path1010"
         d="m 192.38766,184.14267 c 0.2545,0.76349 -8.87631,4.38417 -14.8646,2.08294 -1.20783,-0.46416 -2.84771,-0.0377 -3.78716,0.85211 -1.65354,1.56614 -5.93213,6.91157 -6.24881,6.91157 1.45443,0.0388 2.5734,0.16142 3.31377,0.37871 0,0 -4.51367,0.10068 -6.15414,1.42019 -5.54076,4.4567 -8.06391,9.50863 -13.44441,12.30826 -2.55002,1.32685 -2.44152,1.70771 1.04147,2.36698 6.04191,1.14364 11.86437,0.15385 17.79964,-1.51487 4.89568,-1.37644 15.37286,-1.31457 14.72258,-2.22495 l -4.21321,-0.33138 c -0.0351,-0.0702 12.59856,1.46677 18.4624,-0.56807 1.21777,-0.42258 2.36997,-0.52847 3.50312,0.0947 1.79323,0.98618 5.49138,2.74569 5.49138,2.74569 l -2.49512,-1.23083 c 0,0 -2.68669,1.72774 -4.22709,2.08294 -1.59617,0.36806 -2.20326,1.02659 0.56808,1.51486 3.34174,0.58877 6.77816,-0.75524 10.03597,-1.70422 2.50724,-0.73034 1.81127,-2.17483 -0.28404,-3.12441 -1.23439,-0.55941 -2.75993,-0.83854 -3.71615,-1.79889 -1.84007,-1.84802 0.95748,-2.1782 1.2545,-2.08294 -0.23363,-0.12369 -3.0717,0.30545 -1.23083,2.08293 0.9142,0.88272 3.71102,1.80137 3.71496,1.7994 0,0 2.0631,-1.37242 3.04647,-2.04421 2.17049,-1.48279 0.42181,-2.25182 -1.17537,-3.25831 -2.50083,-1.57593 -8.15848,-3.96106 -9.56258,-2.08294 1.77195,-1.36489 3.61314,-0.36372 5.60034,0.12143 0,0 -0.42816,-0.83069 -1.10546,-1.83139 -0.77746,-1.14868 -2.27807,-1.28319 -3.54809,-0.94105 -2.69144,0.72507 -5.13361,2.15372 -7.66456,3.34383 -5.15539,1.83444 -7.17569,2.28232 -12.32976,3.26548 5.21898,-0.93002 7.14675,-1.61049 12.32533,-3.29554 0.85749,-5.88362 -1.69495,-10.70164 -4.82863,-15.33802 z"
         style="fill:#9dac93;fill-rule:evenodd;stroke:#000000;stroke-width:0.30000001;stroke-linecap:round;stroke-linejoin:round;stroke-miterlimit:4;stroke-dasharray:none;stroke-opacity:1" />
      <path
         sodipodi:nodetypes="cscccc"
         inkscape:connector-curvature="0"
         id="path1014"
         d="m 209.07483,202.32104 c 0.78478,0.24209 0.77284,0.51587 0.3077,1.34917 -1.36502,2.44543 4.03502,1.10238 5.29366,0.47052 -1.0178,0.65486 -2.02723,1.35994 -3.04503,2.0148 -1.10006,-0.33254 -2.17328,-0.71877 -3.14808,-1.30183 -2.18644,-1.56082 -1.02983,-2.37686 0.59175,-2.53266 z"
         style="fill:#3e4837;fill-rule:evenodd;stroke:#000000;stroke-width:0.30000001;stroke-linecap:round;stroke-linejoin:round;stroke-miterlimit:4;stroke-dasharray:none;stroke-opacity:1" />
      <path
         sodipodi:nodetypes="cscccc"
         inkscape:connector-curvature="0"
         id="path1012"
         d="m 192.10362,184.42671 c 0,0 -11.74754,10.97072 -18.27304,15.62203 -3.81601,2.72001 -3.51995,5.84787 -2.27229,5.30202 -0.93991,-1.17792 2.46228,-3.64916 4.40692,-1.67271 -1.4696,-2.48715 0.19248,-4.58083 5.25033,-6.65904 -0.96019,-2.95909 7.88859,-7.38994 10.88808,-12.5923 z"
         style="fill:#3e4837;fill-rule:evenodd;stroke:#000000;stroke-width:0.30000001;stroke-linecap:round;stroke-linejoin:round;stroke-miterlimit:4;stroke-dasharray:none;stroke-opacity:1" />
      <path
         sodipodi:nodetypes="csssscc"
         inkscape:connector-curvature="0"
         id="path1048"
         d="m 155.7469,188.02451 c 0,0 10.01949,-5.64728 15.05396,-8.42643 0.75287,-0.4156 0.73913,-1.12839 0.47339,-1.7989 -0.31632,-0.79812 -0.83805,-1.60693 -0.75743,-2.46165 0.0567,-0.60091 -1.67992,-1.16996 -1.89358,-1.23083 -7.02935,-2.00257 -11.51969,-2.54077 -17.42093,-2.65101 -0.65897,6.5374 1.43544,11.78988 4.54459,16.56882 z"
         style="fill:#c8c4b7;fill-rule:evenodd;stroke:#000000;stroke-width:0.30000001;stroke-linecap:round;stroke-linejoin:round;stroke-miterlimit:4;stroke-dasharray:none;stroke-opacity:1" />
      <path
         sodipodi:nodetypes="cccccccccccc"
         inkscape:connector-curvature="0"
         id="path1052"
         d="m 152.70871,171.47224 c -0.2744,0.49193 -1.66679,0.26045 0,2.00845 -1.2209,0.54165 -1.11006,1.36367 0.0669,2.41013 -0.77563,0.82173 -1.42216,1.62502 0.40169,2.07539 -0.37807,0.95697 -1.17822,2.00279 0.73643,2.47708 -0.0774,0.86952 -1.39489,2.24637 1.07117,2.07539 0.11453,0.74692 -1.75301,2.26943 0.93728,2.00845 -0.96392,1.47018 -0.42681,1.83433 1.00422,1.53981 -0.41252,0.62411 -1.15546,1.35452 0.73643,0.88706 l -1.91597,1.07051 c -3.47324,-5.29348 -4.96543,-10.85711 -4.51105,-16.68617 z"
         style="fill:#6c6753;fill-rule:evenodd;stroke:#000000;stroke-width:0.30000001;stroke-linecap:round;stroke-linejoin:round;stroke-miterlimit:4;stroke-dasharray:none;stroke-opacity:1" />
      <path
         sodipodi:nodetypes="ccccc"
         inkscape:connector-curvature="0"
         id="path1056"
         d="m 153.98072,172.87815 c 5.02388,0.53413 10.02775,0.9982 15.39807,2.74488 -0.10378,1.09089 0.24406,2.03123 0.66948,2.94572 -0.608,-0.68071 -1.18924,-1.37927 -1.27201,-2.41014 -4.78903,-1.52193 -9.84718,-2.23651 -14.79554,-3.28046 z"
         style="fill:#676c53;fill-rule:evenodd;stroke:#000000;stroke-width:0.30000001;stroke-linecap:round;stroke-linejoin:round;stroke-miterlimit:4;stroke-dasharray:none;stroke-opacity:1" />
      <path
         sodipodi:nodetypes="cccc"
         inkscape:connector-curvature="0"
         id="path1064"
         d="m 203.25455,208.72888 c 1.28771,-0.34457 2.50794,-0.97098 4.13405,-0.38495 -0.59767,-0.3034 -1.23221,-0.60681 -1.87403,-0.91021 z"
         style="fill:#3e4837;fill-rule:evenodd;stroke:#000000;stroke-width:0.30000001;stroke-linecap:round;stroke-linejoin:round;stroke-miterlimit:4;stroke-dasharray:none;stroke-opacity:1" />
      <path
         sodipodi:nodetypes="cccc"
         inkscape:connector-curvature="0"
         id="path1271"
         d="m 230.4486,181.23129 c -1.26454,0.95123 -1.65315,2.20356 -1.49119,3.64515 -1.05768,-1.4907 -0.6564,-3.17157 0.48493,-4.37689 0.36061,0.24036 0.73361,0.49138 1.00626,0.73174 z"
         style="fill:#17280b;fill-rule:evenodd;stroke:#000000;stroke-width:0.30000001;stroke-linecap:round;stroke-linejoin:round;stroke-miterlimit:4;stroke-dasharray:none;stroke-opacity:1" />
    </g>
    <path
       id="path1084"
       style="fill:none;fill-rule:evenodd;stroke:#000000;stroke-width:0.26458332px;stroke-linecap:butt;stroke-linejoin:miter;stroke-opacity:1"
       d="M 82.296324,226.10322 61.140711,202.80527 m 44.453569,5.62364 -22.494578,-25.1725 m 53.826308,2.14234 -21.6912,-20.88782 m 49.54162,25.1725 8.03378,-43.91798 m 29.99277,35.88421 31.06393,-31.33173 m -49.00603,25.1725 c 1.33896,-0.80338 27.75064,-34.93511 27.75064,-34.93511 m -17.30673,89.56479 -5.75754,26.51146 m 50.345,-34.00965 6.42702,19.68275 m -9.37274,-60.92281 14.05911,-10.44391 m -10.04222,33.34018 21.02171,-14.99639"
       inkscape:connector-curvature="0"
       sodipodi:nodetypes="cccccccccccccccccccc" />
    <flowRoot
       xml:space="preserve"
       id="flowRoot1120-57"
       style="font-style:normal;font-variant:normal;font-weight:normal;font-stretch:normal;font-size:18.66666794px;line-height:100%;font-family:'Times New Roman';-inkscape-font-specification:'Times New Roman, ';text-align:center;letter-spacing:0px;word-spacing:0px;text-anchor:middle;fill:#000000;fill-opacity:1;stroke:none;stroke-width:1px;stroke-linecap:round;stroke-linejoin:round;stroke-opacity:1"
       transform="matrix(0.26458333,0,0,0.26458333,218.65978,92.148266)"><flowRegion
         id="flowRegion1122-3"
         style="font-style:normal;font-variant:normal;font-weight:normal;font-stretch:normal;font-size:18.66666794px;line-height:100%;font-family:'Times New Roman';-inkscape-font-specification:'Times New Roman, ';text-align:center;text-anchor:middle;stroke-linecap:round;stroke-linejoin:round"><rect
           id="rect1124-2"
           width="196.2256"
           height="26.343304"
           x="64"
           y="579.51971"
           style="font-style:normal;font-variant:normal;font-weight:normal;font-stretch:normal;font-size:18.66666794px;line-height:100%;font-family:'Times New Roman';-inkscape-font-specification:'Times New Roman, ';text-align:center;text-anchor:middle;stroke-linecap:round;stroke-linejoin:round" /></flowRegion><flowPara
         style="font-style:normal;font-variant:normal;font-weight:normal;font-stretch:normal;font-size:18.66666794px;line-height:100%;font-family:'Times New Roman';-inkscape-font-specification:'Times New Roman, ';text-align:center;text-anchor:middle;stroke-linecap:round;stroke-linejoin:round"
         id="flowPara1211">Возрастные наросты</flowPara></flowRoot>    <flowRoot
       xml:space="preserve"
       id="flowRoot1120-57-5"
       style="font-style:normal;font-variant:normal;font-weight:normal;font-stretch:normal;font-size:18.66666794px;line-height:100%;font-family:'Times New Roman';-inkscape-font-specification:'Times New Roman, ';text-align:center;letter-spacing:0px;word-spacing:0px;text-anchor:middle;fill:#000000;fill-opacity:1;stroke:none;stroke-width:1px;stroke-linecap:round;stroke-linejoin:round;stroke-opacity:1"
       transform="matrix(0.26458333,0,0,0.26458333,228.28256,28.909305)"><flowRegion
         id="flowRegion1122-3-6"
         style="font-style:normal;font-variant:normal;font-weight:normal;font-stretch:normal;font-size:18.66666794px;line-height:100%;font-family:'Times New Roman';-inkscape-font-specification:'Times New Roman, ';text-align:center;text-anchor:middle;stroke-linecap:round;stroke-linejoin:round"><rect
           id="rect1124-2-2"
           width="196.2256"
           height="26.343304"
           x="64"
           y="579.51971"
           style="font-style:normal;font-variant:normal;font-weight:normal;font-stretch:normal;font-size:18.66666794px;line-height:100%;font-family:'Times New Roman';-inkscape-font-specification:'Times New Roman, ';text-align:center;text-anchor:middle;stroke-linecap:round;stroke-linejoin:round" /></flowRegion><flowPara
         style="font-style:normal;font-variant:normal;font-weight:normal;font-stretch:normal;font-size:18.66666794px;line-height:100%;font-family:'Times New Roman';-inkscape-font-specification:'Times New Roman, ';text-align:center;text-anchor:middle;stroke-linecap:round;stroke-linejoin:round"
         id="flowPara1211-9">Маска</flowPara></flowRoot>    <flowRoot
       xml:space="preserve"
       id="flowRoot1120-57-1"
       style="font-style:normal;font-variant:normal;font-weight:normal;font-stretch:normal;font-size:18.66666794px;line-height:100%;font-family:'Times New Roman';-inkscape-font-specification:'Times New Roman, ';text-align:center;letter-spacing:0px;word-spacing:0px;text-anchor:middle;fill:#000000;fill-opacity:1;stroke:none;stroke-width:1px;stroke-linecap:round;stroke-linejoin:round;stroke-opacity:1"
       transform="matrix(0.26458333,0,0,0.26458333,217.86787,10.920301)"><flowRegion
         id="flowRegion1122-3-2"
         style="font-style:normal;font-variant:normal;font-weight:normal;font-stretch:normal;font-size:18.66666794px;line-height:100%;font-family:'Times New Roman';-inkscape-font-specification:'Times New Roman, ';text-align:center;text-anchor:middle;stroke-linecap:round;stroke-linejoin:round"><rect
           id="rect1124-2-7"
           width="196.2256"
           height="26.343304"
           x="64"
           y="579.51971"
           style="font-style:normal;font-variant:normal;font-weight:normal;font-stretch:normal;font-size:18.66666794px;line-height:100%;font-family:'Times New Roman';-inkscape-font-specification:'Times New Roman, ';text-align:center;text-anchor:middle;stroke-linecap:round;stroke-linejoin:round" /></flowRegion><flowPara
         style="font-style:normal;font-variant:normal;font-weight:normal;font-stretch:normal;font-size:18.66666794px;line-height:100%;font-family:'Times New Roman';-inkscape-font-specification:'Times New Roman, ';text-align:center;text-anchor:middle;stroke-linecap:round;stroke-linejoin:round"
         id="flowPara1211-0">Ноздри</flowPara></flowRoot>    <flowRoot
       xml:space="preserve"
       id="flowRoot1120-57-9"
       style="font-style:normal;font-variant:normal;font-weight:normal;font-stretch:normal;font-size:18.66666794px;line-height:100%;font-family:'Times New Roman';-inkscape-font-specification:'Times New Roman, ';text-align:center;letter-spacing:0px;word-spacing:0px;text-anchor:middle;fill:#000000;fill-opacity:1;stroke:none;stroke-width:1px;stroke-linecap:round;stroke-linejoin:round;stroke-opacity:1"
       transform="matrix(0.26458333,0,0,0.26458333,201.01502,-11.04522)"><flowRegion
         id="flowRegion1122-3-3"
         style="font-style:normal;font-variant:normal;font-weight:normal;font-stretch:normal;font-size:18.66666794px;line-height:100%;font-family:'Times New Roman';-inkscape-font-specification:'Times New Roman, ';text-align:center;text-anchor:middle;stroke-linecap:round;stroke-linejoin:round"><rect
           id="rect1124-2-6"
           width="196.2256"
           height="26.343304"
           x="64"
           y="579.51971"
           style="font-style:normal;font-variant:normal;font-weight:normal;font-stretch:normal;font-size:18.66666794px;line-height:100%;font-family:'Times New Roman';-inkscape-font-specification:'Times New Roman, ';text-align:center;text-anchor:middle;stroke-linecap:round;stroke-linejoin:round" /></flowRegion><flowPara
         style="font-style:normal;font-variant:normal;font-weight:normal;font-stretch:normal;font-size:18.66666794px;line-height:100%;font-family:'Times New Roman';-inkscape-font-specification:'Times New Roman, ';text-align:center;text-anchor:middle;stroke-linecap:round;stroke-linejoin:round"
         id="flowPara1211-06">Родовой орнамент</flowPara></flowRoot>    <flowRoot
       xml:space="preserve"
       id="flowRoot1120-57-2"
       style="font-style:normal;font-variant:normal;font-weight:normal;font-stretch:normal;font-size:18.66666794px;line-height:100%;font-family:'Times New Roman';-inkscape-font-specification:'Times New Roman, ';text-align:center;letter-spacing:0px;word-spacing:0px;text-anchor:middle;fill:#000000;fill-opacity:1;stroke:none;stroke-width:1px;stroke-linecap:round;stroke-linejoin:round;stroke-opacity:1"
       transform="matrix(0.26458333,0,0,0.26458333,173.36876,-24.489633)"><flowRegion
         id="flowRegion1122-3-61"
         style="font-style:normal;font-variant:normal;font-weight:normal;font-stretch:normal;font-size:18.66666794px;line-height:100%;font-family:'Times New Roman';-inkscape-font-specification:'Times New Roman, ';text-align:center;text-anchor:middle;stroke-linecap:round;stroke-linejoin:round"><rect
           id="rect1124-2-8"
           width="184.77464"
           height="44.951099"
           x="64"
           y="579.51971"
           style="font-style:normal;font-variant:normal;font-weight:normal;font-stretch:normal;font-size:18.66666794px;line-height:100%;font-family:'Times New Roman';-inkscape-font-specification:'Times New Roman, ';text-align:center;text-anchor:middle;stroke-linecap:round;stroke-linejoin:round" /></flowRegion><flowPara
         style="font-style:normal;font-variant:normal;font-weight:normal;font-stretch:normal;font-size:18.66666794px;line-height:100%;font-family:'Times New Roman';-inkscape-font-specification:'Times New Roman, ';text-align:center;text-anchor:middle;stroke-linecap:round;stroke-linejoin:round"
         id="flowPara1327">Жилет</flowPara><flowPara
         style="font-style:normal;font-variant:normal;font-weight:normal;font-stretch:normal;font-size:18.66666794px;line-height:100%;font-family:'Times New Roman';-inkscape-font-specification:'Times New Roman, ';text-align:center;text-anchor:middle;stroke-linecap:round;stroke-linejoin:round"
         id="flowPara1331">(акулья кожа)</flowPara></flowRoot>    <flowRoot
       xml:space="preserve"
       id="flowRoot1120-57-92"
       style="font-style:normal;font-variant:normal;font-weight:normal;font-stretch:normal;font-size:18.66666794px;line-height:100%;font-family:'Times New Roman';-inkscape-font-specification:'Times New Roman, ';text-align:center;letter-spacing:0px;word-spacing:0px;text-anchor:middle;fill:#000000;fill-opacity:1;stroke:none;stroke-width:1px;stroke-linecap:round;stroke-linejoin:round;stroke-opacity:1"
       transform="matrix(0.26458333,0,0,0.26458333,128.68029,-15.021736)"><flowRegion
         id="flowRegion1122-3-0"
         style="font-style:normal;font-variant:normal;font-weight:normal;font-stretch:normal;font-size:18.66666794px;line-height:100%;font-family:'Times New Roman';-inkscape-font-specification:'Times New Roman, ';text-align:center;text-anchor:middle;stroke-linecap:round;stroke-linejoin:round"><rect
           id="rect1124-2-23"
           width="196.2256"
           height="26.343304"
           x="64"
           y="579.51971"
           style="font-style:normal;font-variant:normal;font-weight:normal;font-stretch:normal;font-size:18.66666794px;line-height:100%;font-family:'Times New Roman';-inkscape-font-specification:'Times New Roman, ';text-align:center;text-anchor:middle;stroke-linecap:round;stroke-linejoin:round" /></flowRegion><flowPara
         style="font-style:normal;font-variant:normal;font-weight:normal;font-stretch:normal;font-size:18.66666794px;line-height:100%;font-family:'Times New Roman';-inkscape-font-specification:'Times New Roman, ';text-align:center;text-anchor:middle;stroke-linecap:round;stroke-linejoin:round"
         id="flowPara1211-75">Карманы для мелочи</flowPara></flowRoot>    <flowRoot
       xml:space="preserve"
       id="flowRoot1120-57-922"
       style="font-style:normal;font-variant:normal;font-weight:normal;font-stretch:normal;font-size:18.66666794px;line-height:100%;font-family:'Times New Roman';-inkscape-font-specification:'Times New Roman, ';text-align:center;letter-spacing:0px;word-spacing:0px;text-anchor:middle;fill:#000000;fill-opacity:1;stroke:none;stroke-width:1px;stroke-linecap:round;stroke-linejoin:round;stroke-opacity:1"
       transform="matrix(0.26458333,0,0,0.26458333,145.34379,105.03119)"><flowRegion
         id="flowRegion1122-3-8"
         style="font-style:normal;font-variant:normal;font-weight:normal;font-stretch:normal;font-size:18.66666794px;line-height:100%;font-family:'Times New Roman';-inkscape-font-specification:'Times New Roman, ';text-align:center;text-anchor:middle;stroke-linecap:round;stroke-linejoin:round"><rect
           id="rect1124-2-9"
           width="196.2256"
           height="26.343304"
           x="64"
           y="579.51971"
           style="font-style:normal;font-variant:normal;font-weight:normal;font-stretch:normal;font-size:18.66666794px;line-height:100%;font-family:'Times New Roman';-inkscape-font-specification:'Times New Roman, ';text-align:center;text-anchor:middle;stroke-linecap:round;stroke-linejoin:round" /></flowRegion><flowPara
         style="font-style:normal;font-variant:normal;font-weight:normal;font-stretch:normal;font-size:18.66666794px;line-height:100%;font-family:'Times New Roman';-inkscape-font-specification:'Times New Roman, ';text-align:center;text-anchor:middle;stroke-linecap:round;stroke-linejoin:round"
         id="flowPara1211-73">Плавникоруки</flowPara></flowRoot>    <flowRoot
       xml:space="preserve"
       id="flowRoot1120-57-6"
       style="font-style:normal;font-variant:normal;font-weight:normal;font-stretch:normal;font-size:18.66666794px;line-height:100%;font-family:'Times New Roman';-inkscape-font-specification:'Times New Roman, ';text-align:center;letter-spacing:0px;word-spacing:0px;text-anchor:middle;fill:#000000;fill-opacity:1;stroke:none;stroke-width:1px;stroke-linecap:round;stroke-linejoin:round;stroke-opacity:1"
       transform="matrix(0.26458333,0,0,0.26458333,54.451979,-7.4474142)"><flowRegion
         id="flowRegion1122-3-1"
         style="font-style:normal;font-variant:normal;font-weight:normal;font-stretch:normal;font-size:18.66666794px;line-height:100%;font-family:'Times New Roman';-inkscape-font-specification:'Times New Roman, ';text-align:center;text-anchor:middle;stroke-linecap:round;stroke-linejoin:round"><rect
           id="rect1124-2-29"
           width="200.51968"
           height="67.852966"
           x="64"
           y="579.51971"
           style="font-style:normal;font-variant:normal;font-weight:normal;font-stretch:normal;font-size:18.66666794px;line-height:100%;font-family:'Times New Roman';-inkscape-font-specification:'Times New Roman, ';text-align:center;text-anchor:middle;stroke-linecap:round;stroke-linejoin:round" /></flowRegion><flowPara
         style="font-style:normal;font-variant:normal;font-weight:normal;font-stretch:normal;font-size:18.66666794px;line-height:100%;font-family:'Times New Roman';-inkscape-font-specification:'Times New Roman, ';text-align:center;text-anchor:middle;stroke-linecap:round;stroke-linejoin:round"
         id="flowPara1211-3">Пятна</flowPara><flowPara
         style="font-style:normal;font-variant:normal;font-weight:normal;font-stretch:normal;font-size:18.66666794px;line-height:100%;font-family:'Times New Roman';-inkscape-font-specification:'Times New Roman, ';text-align:center;text-anchor:middle;stroke-linecap:round;stroke-linejoin:round"
         id="flowPara1212">(вторичные половые признаки самок)</flowPara></flowRoot>    <flowRoot
       xml:space="preserve"
       id="flowRoot1120-57-19"
       style="font-style:normal;font-variant:normal;font-weight:normal;font-stretch:normal;font-size:18.66666794px;line-height:100%;font-family:'Times New Roman';-inkscape-font-specification:'Times New Roman, ';text-align:center;letter-spacing:0px;word-spacing:0px;text-anchor:middle;fill:#000000;fill-opacity:1;stroke:none;stroke-width:1px;stroke-linecap:round;stroke-linejoin:round;stroke-opacity:1"
       transform="matrix(0.26458333,0,0,0.26458333,40.254164,17.660588)"><flowRegion
         id="flowRegion1122-3-4"
         style="font-style:normal;font-variant:normal;font-weight:normal;font-stretch:normal;font-size:18.66666794px;line-height:100%;font-family:'Times New Roman';-inkscape-font-specification:'Times New Roman, ';text-align:center;text-anchor:middle;stroke-linecap:round;stroke-linejoin:round"><rect
           id="rect1124-2-78"
           width="180.48056"
           height="44.951069"
           x="64"
           y="579.51971"
           style="font-style:normal;font-variant:normal;font-weight:normal;font-stretch:normal;font-size:18.66666794px;line-height:100%;font-family:'Times New Roman';-inkscape-font-specification:'Times New Roman, ';text-align:center;text-anchor:middle;stroke-linecap:round;stroke-linejoin:round" /></flowRegion><flowPara
         style="font-style:normal;font-variant:normal;font-weight:normal;font-stretch:normal;font-size:18.66666794px;line-height:100%;font-family:'Times New Roman';-inkscape-font-specification:'Times New Roman, ';text-align:center;text-anchor:middle;stroke-linecap:round;stroke-linejoin:round"
         id="flowPara1211-4">Кушак</flowPara><flowPara
         style="font-style:normal;font-variant:normal;font-weight:normal;font-stretch:normal;font-size:18.66666794px;line-height:100%;font-family:'Times New Roman';-inkscape-font-specification:'Times New Roman, ';text-align:center;text-anchor:middle;stroke-linecap:round;stroke-linejoin:round"
         id="flowPara1333">(акулья кожа)</flowPara></flowRoot>    <flowRoot
       xml:space="preserve"
       id="flowRoot1120-57-50"
       style="font-style:normal;font-variant:normal;font-weight:normal;font-stretch:normal;font-size:18.66666794px;line-height:100%;font-family:'Times New Roman';-inkscape-font-specification:'Times New Roman, ';text-align:center;letter-spacing:0px;word-spacing:0px;text-anchor:middle;fill:#000000;fill-opacity:1;stroke:none;stroke-width:1px;stroke-linecap:round;stroke-linejoin:round;stroke-opacity:1"
       transform="matrix(0.26458333,0,0,0.26458333,11.278366,36.862338)"><flowRegion
         id="flowRegion1122-3-36"
         style="font-style:normal;font-variant:normal;font-weight:normal;font-stretch:normal;font-size:18.66666794px;line-height:100%;font-family:'Times New Roman';-inkscape-font-specification:'Times New Roman, ';text-align:center;text-anchor:middle;stroke-linecap:round;stroke-linejoin:round"><rect
           id="rect1124-2-1"
           width="227.71568"
           height="39.22562"
           x="64"
           y="579.51971"
           style="font-style:normal;font-variant:normal;font-weight:normal;font-stretch:normal;font-size:18.66666794px;line-height:100%;font-family:'Times New Roman';-inkscape-font-specification:'Times New Roman, ';text-align:center;text-anchor:middle;stroke-linecap:round;stroke-linejoin:round" /></flowRegion><flowPara
         style="font-style:normal;font-variant:normal;font-weight:normal;font-stretch:normal;font-size:18.66666794px;line-height:100%;font-family:'Times New Roman';-inkscape-font-specification:'Times New Roman, ';text-align:center;text-anchor:middle;stroke-linecap:round;stroke-linejoin:round"
         id="flowPara1211-063">Венец кушака</flowPara><flowPara
         style="font-style:normal;font-variant:normal;font-weight:normal;font-stretch:normal;font-size:18.66666794px;line-height:100%;font-family:'Times New Roman';-inkscape-font-specification:'Times New Roman, ';text-align:center;text-anchor:middle;stroke-linecap:round;stroke-linejoin:round"
         id="flowPara1238">(лиственница, акульи зубы)</flowPara></flowRoot>    <flowRoot
       xml:space="preserve"
       id="flowRoot1120-57-20"
       style="font-style:normal;font-variant:normal;font-weight:normal;font-stretch:normal;font-size:18.66666794px;line-height:100%;font-family:'Times New Roman';-inkscape-font-specification:'Times New Roman, ';text-align:center;letter-spacing:0px;word-spacing:0px;text-anchor:middle;fill:#000000;fill-opacity:1;stroke:none;stroke-width:1px;stroke-linecap:round;stroke-linejoin:round;stroke-opacity:1"
       transform="matrix(0.26458333,0,0,0.26458333,56.373262,-48.614845)"><flowRegion
         id="flowRegion1122-3-615"
         style="font-style:normal;font-variant:normal;font-weight:normal;font-stretch:normal;font-size:18.66666794px;line-height:100%;font-family:'Times New Roman';-inkscape-font-specification:'Times New Roman, ';text-align:center;text-anchor:middle;stroke-linecap:round;stroke-linejoin:round"><rect
           id="rect1124-2-5"
           width="578.81049"
           height="50.634434"
           x="64"
           y="579.51971"
           style="font-style:normal;font-variant:normal;font-weight:normal;font-stretch:normal;font-size:18.66666794px;line-height:100%;font-family:'Times New Roman';-inkscape-font-specification:'Times New Roman, ';text-align:center;text-anchor:middle;stroke-linecap:round;stroke-linejoin:round" /></flowRegion><flowPara
         style="font-style:normal;font-variant:normal;font-weight:normal;font-stretch:normal;font-size:37.33333206px;line-height:100%;font-family:'Times New Roman';-inkscape-font-specification:'Times New Roman, ';text-align:center;text-anchor:middle;stroke-linecap:round;stroke-linejoin:round"
         id="flowPara1211-47">Стрелохвост Голубого Зеркала</flowPara></flowRoot>  </g>
</svg>
