<?xml version="1.0" encoding="UTF-8" standalone="no"?>
<!-- Created with Inkscape (http://www.inkscape.org/) -->

<svg
   xmlns:dc="http://purl.org/dc/elements/1.1/"
   xmlns:cc="http://creativecommons.org/ns#"
   xmlns:rdf="http://www.w3.org/1999/02/22-rdf-syntax-ns#"
   xmlns:svg="http://www.w3.org/2000/svg"
   xmlns="http://www.w3.org/2000/svg"
   xmlns:sodipodi="http://sodipodi.sourceforge.net/DTD/sodipodi-0.dtd"
   xmlns:inkscape="http://www.inkscape.org/namespaces/inkscape"
   width="210mm"
   height="297mm"
   viewBox="0 0 210 297"
   version="1.1"
   id="svg8"
   inkscape:version="0.92.3 (2405546, 2018-03-11)"
   sodipodi:docname="pic_OldSilvaSpirits.svg">
  <defs
     id="defs2" />
  <sodipodi:namedview
     id="base"
     pagecolor="#ffffff"
     bordercolor="#666666"
     borderopacity="1.0"
     inkscape:pageopacity="0.0"
     inkscape:pageshadow="2"
     inkscape:zoom="0.38781585"
     inkscape:cx="195.21052"
     inkscape:cy="615.36783"
     inkscape:document-units="mm"
     inkscape:current-layer="layer1"
     showgrid="false"
     inkscape:window-width="1366"
     inkscape:window-height="703"
     inkscape:window-x="0"
     inkscape:window-y="0"
     inkscape:window-maximized="1"
     objecttolerance="1"
     guidetolerance="1">
    <inkscape:grid
       type="xygrid"
       id="grid815" />
  </sodipodi:namedview>
  <metadata
     id="metadata5">
    <rdf:RDF>
      <cc:Work
         rdf:about="">
        <dc:format>image/svg+xml</dc:format>
        <dc:type
           rdf:resource="http://purl.org/dc/dcmitype/StillImage" />
        <dc:title />
      </cc:Work>
    </rdf:RDF>
  </metadata>
  <g
     inkscape:label="Layer 1"
     inkscape:groupmode="layer"
     id="layer1">
    <path
       id="path838"
       style="opacity:1;fill:#241c1c;fill-rule:evenodd;stroke:#000000;stroke-width:0.3;stroke-linecap:butt;stroke-linejoin:miter;stroke-miterlimit:4;stroke-dasharray:none;stroke-opacity:1"
       d="m 170.19791,51.036876 c 2.65666,-1.557191 5.40265,1.796067 2.81182,4.150786 -6.58971,5.98917 -24.48504,8.3578 -34.57872,3.68215 -0.79213,-0.36693 -2.23427,-0.67312 -3.44782,-0.60254 -2.32643,0.1353 -3.49296,1.11371 -7.0965,-0.53558 -1.07389,-0.4915 0.0178,-1.80563 0.66948,-1.33896 1.3144,0.94121 3.16566,0.97421 4.75331,0.66948 0.9305,-0.1786 0.56461,-0.65818 0.33474,-0.97075 -0.97996,-1.33256 -3.40136,-1.8011 -4.95416,-2.77835 -1.08502,-0.682853 -0.20942,-1.413149 0.53559,-1.338963 2.00644,0.199796 3.60638,1.809283 5.35585,2.811823 0.84099,0.48193 1.42992,-0.0278 0.93727,-0.80338 -0.93824,-1.477009 -2.46026,-2.878038 -3.3474,-4.686367 -0.49652,-1.012094 -0.069,-1.554842 0.66948,-1.104646 2.05706,1.253995 3.10566,4.433587 4.95416,6.460493 0.7428,0.81449 1.77111,1.37725 2.81182,1.74066 13.49987,4.7141 22.80254,-1.37679 29.59108,-5.355856 z M 132.54794,38.951085 c -0.96712,-0.830102 -4.41281,1.10076 -1.89358,3.597802 4.29041,4.252619 19.12666,10.998815 32.38021,3.787158 1.44209,-0.784687 2.49216,-0.944899 3.5978,-0.94679 2.55754,-0.0044 6.10076,-0.333782 7.76367,-1.514864 1.4063,-0.998826 0.30517,-1.68458 -0.94679,-1.136147 -1.65689,0.725814 -3.73544,1.342684 -5.30202,1.325507 -1.29435,-0.01419 -0.8291,-0.680653 -0.37872,-0.946791 0.86789,-0.512846 2.95012,-1.701344 4.35524,-3.029728 0.82188,-0.776994 0.0925,-1.273149 -0.75743,-1.136147 -1.49332,0.240709 -2.77423,2.259872 -5.11267,3.219085 -1.08626,0.445576 -0.53175,-0.578391 -0.37872,-1.136147 0.41334,-1.506543 1.26316,-2.66903 2.46166,-3.597802 1.29344,-1.002345 0.35753,-1.451355 -0.74595,-1.225082 -1.65807,0.339997 -3.28373,3.90291 -3.86559,6.027951 -0.23955,0.87488 -0.51086,1.044581 -1.63727,1.635301 -12.06538,6.327415 -28.70517,-4.206887 -29.53984,-4.923306 z m 22.72295,-15.337993 c 4.11027,8.345194 13.13172,6.616208 16.47414,-0.568074 l 12.68698,-0.946788 c 1.05537,4.811818 3.43699,7.160626 6.24881,8.710465 -3.79325,0.46316 -6.28821,-2.765566 -9.08917,-5.775418 l -8.33176,-0.09468 -0.94679,1.70422 c 2.23691,0.599327 4.58891,0.627902 6.24882,3.029728 1.67843,2.428627 3.8951,3.855085 6.05945,5.302023 0.0232,0.20899 -4.96744,-1.016002 -7.57432,-4.165875 -1.61079,-1.946303 -6.62752,-2.084635 -6.62752,-1.893581 -8.14529,5.137069 -13.65282,1.168783 -15.14864,-5.302022 z m -7.669,-1.041469 c -1.2754,7.802647 -15.20335,10.203216 -17.5156,0.662755 l -11.92956,0.189357 c 0.52917,5.263113 -2.25687,7.211024 -4.35523,9.846614 2.5643,-1.603359 5.48974,-2.68084 7.10093,-7.858355 l 6.72221,-2e-6 1.51486,2.84037 c 0.068,-0.203994 -4.55338,0.283995 -6.05946,3.408443 -1.05616,2.191057 -3.95549,4.512991 -3.97652,4.449912 0.082,-0.04099 4.12183,-2.308394 4.73395,-3.408445 1.98451,-3.566392 9.18231,-2.520557 8.71047,-2.272294 10.9559,3.891984 14.9332,-2.065359 15.05395,-7.858355 z m 8.42643,-4.828625 -0.18935,-3.408444 c 10.60978,0.591022 20.94982,0.103074 31.0547,-1.325505 -1.33519,0.901174 -2.55794,1.892295 -2.65102,3.787159 -8.96301,-0.78882 -18.7974,0.600814 -28.21433,0.94679 z M 116.0738,14.71327 c 10.28845,0.631193 20.57689,0.631193 30.86534,0 l 0.18936,3.219085 -29.06645,0.189357 c -0.67512,-2.571387 -1.55676,-2.742213 -1.98825,-3.408442 z"
       inkscape:connector-curvature="0" />
    <path
       id="path831"
       style="opacity:1;fill:#241c1c;fill-rule:evenodd;stroke:#000000;stroke-width:0.3;stroke-linecap:butt;stroke-linejoin:miter;stroke-miterlimit:4;stroke-dasharray:none;stroke-opacity:1"
       d="m 143.82629,193.99839 c 3.56667,2.10148 7.13333,2.4234 10.7,0.18609 -2.36029,2.35122 -5.03853,4.11544 -5.86174,9.30434 -0.1456,-2.39129 -0.10976,-4.68708 -4.83826,-9.49043 z m -5.5826,-2.51217 c 2.39954,0.58171 6.11787,-2.34932 7.16435,-2.7913 1.22054,-0.5155 2.67602,1.33381 4.00087,1.34913 1.41234,0.0163 2.45878,-1.46972 3.86129,-1.30261 0.58033,0.0691 4.89786,2.70525 6.8387,2.09348 0,0 -1.31978,0.6334 -1.99645,0.74446 -1.55073,0.2545 -2.99266,-1.00954 -4.88877,-1.16316 -1.48158,-0.12004 -2.42139,1.76388 -3.90782,1.76783 -1.58417,0.004 -2.00064,-1.4904 -3.58218,-1.58174 -1.96925,-0.11373 -3.9995,1.79554 -5.95478,1.53522 -0.46927,-0.0625 -1.53521,-0.65131 -1.53521,-0.65131 z m 8.28086,-21.30695 c -1.05727,10.00657 -18.72238,8.77044 -17.86434,-1.95391 0.19078,-2.38448 5.70664,-0.37221 8.56,-0.55826 -2.97376,-0.61302 -6.08822,-1.50745 -8.83913,-1.67478 -2.17844,7.80587 -11.59319,1.65991 -12.18869,1.30261 0.62676,1.08258 5.27879,4.28578 8.8222,4.00651 0.78364,-0.0618 0.22877,0.84636 -0.0279,1.01945 -2.03053,1.36917 -7.47102,1.393 -7.49168,1.30099 0.30175,0.38796 6.63186,1.30221 8.3673,0.1748 0.67779,-0.44032 1.01794,0.75501 0.79232,1.2921 -0.69891,1.66372 -4.85927,3.73031 -5.06571,3.55745 0.1679,0.35258 4.78778,-0.60402 6.36907,-2.20453 0.36559,-0.37003 1.26048,0.0802 1.49641,0.25626 6.63249,4.94982 17.11131,4.043 17.07016,-6.51869 z m 8.65304,-0.18608 c 3.92109,12.74406 20.33649,6.5703 15.35217,-2.60522 -2.19739,0.59248 -4.30811,0.66491 -6.42,0.74435 2.4794,-0.54902 5.09575,-0.85153 7.16435,-2.14 2.12524,6.66484 14.3869,0.6513 14.60782,0.6513 0.11385,0.0683 -5.45561,4.64432 -11.46114,3.89106 -0.62701,-0.0786 -0.46325,0.89369 0.0111,1.30534 2.53459,2.19934 8.38763,0.77992 8.37955,0.75838 0.0172,0.0125 -5.40995,2.69059 -9.35166,1.40473 -0.49126,-0.16025 -1.09985,0.46429 -0.45643,1.38851 1.37847,1.98006 5.33789,1.79886 5.34201,1.76589 0.27496,0.17497 -4.21092,1.7862 -6.69913,0.093 -0.66708,-0.45394 -1.47157,-0.38846 -2.32608,0.18609 -8.12954,5.46612 -14.65618,-2.23882 -14.14261,-7.44343 z m -7.81564,-5.11739 -0.18609,-1.39566 c -11.71998,-4.69783 -20.65478,-7.33256 -25.67999,-7.0713 -0.64316,1.63562 -1.53446,3.51939 -2.41913,5.39652 11.96423,-4.04816 19.57095,0.61868 28.28521,3.07044 z m 8.18782,0.37217 v -1.39565 c 8.0685,-3.44745 16.43656,-6.22092 25.4939,-7.44348 1.70808,1.74388 2.42047,2.76767 2.41913,3.81478 -9.9542,-1.41204 -18.92602,1.84225 -27.91303,5.02435 z"
       inkscape:connector-curvature="0" />
    <path
       id="path843"
       style="opacity:1;fill:#241c1c;fill-rule:evenodd;stroke:#000000;stroke-width:0.3;stroke-linecap:butt;stroke-linejoin:miter;stroke-miterlimit:4;stroke-dasharray:none;stroke-opacity:1"
       d="m 34.709528,133.65625 c 0.255696,0.2557 7.177104,-1.98174 9.583476,-5.02435 1.610406,-2.03619 4.619247,-0.3334 3.954345,0.6513 -0.283665,-0.65873 -2.613576,-0.67314 -2.186521,1.25609 0.377406,1.70493 3.099423,1.41631 4.838258,1.25609 1.145972,-0.10559 1.092211,-0.84335 1.209567,-1.4887 0.377299,-2.07481 0.458804,-4.74635 1.39565,-5.86173 1.405283,-1.67308 7.952984,-1.76765 9.676519,-0.27913 0.818638,0.70701 0.0697,3.99647 0.279127,5.5826 0.122139,0.92503 0.02377,1.43294 0.976955,1.44218 1.950904,0.0189 2.742521,-0.13177 4.04739,0.0465 1.307265,0.17861 2.114736,-1.19051 1.488694,-2.04696 -1.242949,-1.7004 -2.82605,-0.20383 -2.326084,0.55826 -0.237918,0.20418 -0.913435,-0.79192 0.232612,-2.00043 0.717206,-0.7563 2.316529,-0.12204 3.209997,0.46522 6.255335,4.11152 6.234165,3.0548 10.374344,4.37304 -0.06286,0.16189 -12.729752,-0.0914 -18.93434,0.51174 -1.114797,0.10837 -1.238224,-0.72736 -1.163042,-1.34914 0.326233,-2.69807 -0.569736,-4.87496 -3.116956,-4.88477 -2.494888,-0.01 -4.221153,2.05327 -4.186955,5.02434 0.0111,0.96456 -0.173916,1.60158 -1.023477,1.58174 -5.66256,-0.13227 -18.121294,0.51931 -18.329559,0.18609 z m 4.745215,-19.07391 c 5.120836,3.34517 8.614564,8.80375 19.446081,1.11652 9.46627,8.1428 14.016246,2.07178 17.585208,-0.83739 -1.05253,2.76493 -8.766932,12.73308 -17.585208,2.32609 -9.432457,8.66157 -16.330084,1.53161 -19.446081,-2.60522 z M 54.713867,95.880618 c 0.456562,4.538542 -3.875104,12.609612 -13.677384,8.773332 -0.473525,-0.18532 -1.151686,0.0235 -1.767827,0.62405 -1.739922,1.69583 -2.272212,6.27015 -2.139997,6.32695 -0.369549,0 -1.225594,-5.18426 0.689843,-8.42841 0.424152,-0.71838 -0.68053,-2.20001 -1.341147,-2.55071 -2.018318,-1.071467 -5.082963,-0.24907 -6.233911,1.58173 -0.819481,1.30354 -0.378828,4.04516 1.488694,3.44261 2.062905,-0.66559 0.831404,-2.7913 0.186089,-2.7913 0.228217,-0.30429 2.893429,0.99626 1.302607,3.34956 -1.099628,1.62668 -3.965322,1.1463 -4.67378,-1.00187 -1.167952,-3.54144 1.099355,-5.941204 3.474536,-7.256412 1.415057,-0.78356 5.200112,-0.76692 5.200112,-0.76692 4.720643,8.517162 13.649346,8.616462 17.492165,-1.30261 z m 9.397389,-0.093 c 1.109837,6.216902 13.645289,11.296712 17.026948,0.93043 0,0 3.725888,-0.69208 5.582607,-0.44195 2.433388,0.32781 5.432172,2.15752 5.024345,5.001072 -0.222258,1.54969 -2.458736,3.20768 -3.861302,2.51218 -2.800862,-1.38889 -0.787954,-4.045937 -0.325652,-3.814787 -0.318086,0.339337 -1.015968,2.712037 0.83739,2.419127 1.774994,-0.28052 2.021349,-2.0473 0.04652,-3.326294 -1.419484,-0.919328 -3.921436,-0.524978 -5.815214,-0.209348 0.145022,0.0453 -2.581801,3.235502 -2.046957,3.628692 2.771321,2.03735 3.855711,5.62447 1.953914,6.88521 0.352458,-0.2014 1.306625,-4.13193 -4.000868,-5.30347 -0.556609,-0.12286 -1.064344,0.0594 -1.488696,0.18608 -5.663601,1.69022 -12.519422,-0.63089 -12.933035,-8.466942 z m 18.050427,-10.04869 c -0.182276,1.24058 -0.333031,2.48115 0.09304,3.72173 -6.140867,-0.63443 -12.281734,-0.22857 -18.422601,-0.18608 0.274851,-0.84167 0.121694,-2.11135 -0.09304,-3.44261 3.107664,2.47436 6.258961,2.94158 9.49043,-0.27913 2.68996,2.41896 5.622596,2.84797 8.932171,0.18609 z m -45.68073,4.91945 c 6.417597,-0.62738 12.631512,-0.89831 18.553242,-0.65792 -0.08749,-1.09675 0.114897,-2.48339 0.263168,-3.81591 -3.430173,3.11945 -6.68569,2.30911 -9.868746,-0.13158 -2.468759,3.7386 -5.627002,3.49352 -9.210831,0.7895 0.152283,1.22355 0.560169,2.2554 0.263167,3.81591 z"
       inkscape:connector-curvature="0" />
    <path
       id="path853"
       style="opacity:1;fill:#241c1c;fill-rule:evenodd;stroke:#000000;stroke-width:0.3;stroke-linecap:butt;stroke-linejoin:miter;stroke-miterlimit:4;stroke-dasharray:none;stroke-opacity:1"
       d="m 51.015525,193.733 c 4.726136,-1.07083 9.501998,-1.671 14.474161,-0.52633 -3.108118,-2.59172 -7.301364,-5.34234 -14.474161,0.52633 z M 64.04227,169.12692 c 3.57055,11.29454 18.159021,5.74284 18.026911,0 1.289837,12.63167 -19.88571,12.3573 -18.026911,0 z m -28.158824,-0.26316 c 0.01559,13.50521 17.76334,14.29144 18.553245,0.13158 -4.719425,10.3375 -15.18488,9.85027 -18.553245,-0.13158 z m 29.145699,-8.75029 c -1.043485,0.0847 -1.485398,2.57028 0.197376,2.63167 4.981732,0.18173 11.008775,0.0633 15.789994,0.0658 1.585701,8.4e-4 1.404912,-2.96628 -0.263165,-2.76325 -4.027854,0.49025 -10.777994,-0.33552 -15.724205,0.0658 z m -27.96145,0.26316 c -1.027846,0.007 -1.121626,2.91111 0.06579,2.89484 6.273894,-0.086 11.711769,-0.3598 16.184743,-0.46054 2.107732,-0.0475 1.65531,-3.20292 -0.197373,-2.96063 -4.654735,0.60875 -12.478083,0.50137 -16.053163,0.52633 z"
       inkscape:connector-curvature="0" />
    <path
       id="path881"
       style="opacity:1;fill:#241c1c;fill-rule:evenodd;stroke:#000000;stroke-width:0.30000001;stroke-linecap:butt;stroke-linejoin:miter;stroke-miterlimit:4;stroke-dasharray:none;stroke-opacity:1"
       d="m 138.57512,129.20782 c 0,0 -1.21801,-0.0109 -1.65152,-0.37218 -0.39496,-0.32916 -0.58165,-0.90529 -0.60478,-1.41891 -0.0958,-2.12755 -0.0679,-4.5356 0.25587,-6.74565 0.10903,-0.74415 0.95091,-1.30784 1.67478,-1.51195 0.69085,-0.1948 1.57612,-0.0767 2.11674,0.39543 0.8735,0.76291 0.94868,2.15233 1.09326,3.30304 0.16666,1.32644 -0.16277,2.66907 -0.27913,4.00087 -0.14004,1.60284 -2.20661,4.00148 -2.24832,3.9816 0.0969,0.0822 1.48091,-2.98734 1.00352,-5.15331 -0.24511,-1.11212 0.11503,-2.76179 0.27349,-3.88952 0.12522,-0.89113 -0.47001,-1.77048 -1.30825,-1.87051 -0.91297,-0.10894 -1.53508,0.75989 -1.55848,1.605 -0.0488,1.76292 -0.0436,3.70332 -0.18609,5.48957 -0.0369,0.46306 0.11277,0.98214 0.67456,1.06999 0.44193,0.0691 0.74435,1.11653 0.74435,1.11653 z m -2.55869,-0.0931 c -2.36708,0.7359 -5.09514,-2.2812 -1.07,-3.53565 l 0.093,-0.83739 c -3.12902,1.00776 -2.17798,-1.90653 -0.093,-2.18652 -3.49764,-0.28694 -1.86473,-2.75952 0.46522,-2.55869 l 0.32565,-1.07 c 0,0 -2.37714,0.27285 -3.53565,0.55826 -0.59091,0.14557 -1.15278,0.86357 -1.11652,1.81435 0.0806,2.11415 -0.0753,4.47557 0.093,6.69912 0.049,0.64769 0.46234,1.27521 1.02348,1.30261 1.09522,0.0535 3.25652,0.46522 3.25652,0.46522 z m -3.21,2.41913 c 2.27356,0.90321 4.44069,1.16893 6.46652,0.0931 0.50052,1.22309 1.12859,2.2336 2.00043,2.83782 -5.17481,-3.71416 -5.07835,1.45011 -5.39652,6.46652 -0.89757,-2.44477 1.32376,-11.81224 -4.55912,-5.72217 1.00686,-1.13998 1.19712,-2.41607 1.48869,-3.67527 z m 32.9839,-16.04999 c 1.3483,0.33662 1.73006,2.97107 0.32565,3.8613 -1.72261,1.09193 -5.5533,0.44858 -2.00043,-0.55826 -4.10674,-0.74286 -1.80685,-1.68662 0.27913,-2.14 -2.30139,-0.56256 -2.42857,-2.11781 1.39565,-1.16304 z m -3.07044,-4.83826 c 0.18609,-0.32014 2.83783,-0.60736 2.83783,-0.18609 l -0.0465,3.90783 c 4.17008,2.59248 1.9106,5.88042 -0.51174,6.69913 0.15759,0 -0.11674,1.40241 -0.65131,2.18652 -0.59106,0.86696 0.34062,1.9473 0.51174,2.32608 0.94055,2.08199 0.0519,4.44835 -0.6513,5.72217 -1.03082,1.86734 -1.11108,6.49544 -1.07,6.51305 0,0 -0.82132,-6.06686 0.46522,-8.65304 0.75744,-1.5226 -0.066,-2.39503 -0.65131,-3.25652 -1.08648,-1.59926 -0.24573,-5.13727 -0.18608,-5.11739 -1.89368,-1.01851 -3.5232,-4.00973 0.13956,-6.69913 z m -28.2852,1.16304 c 1.09709,-1.5212 3.22171,-1.24644 4.04739,-0.18608 1.48916,1.91244 0.28742,4.92457 -1.11652,1.62826 -0.53585,3.84493 -2.06188,2.64837 -1.90739,-0.093 -0.67899,1.86723 -3.04689,1.45644 -1.02348,-1.34918 z m 2.09348,-1.90739 c -4.68078,-0.11433 -4.43237,7.05265 0.18608,6.8387 4.3311,-0.20064 4.51938,-6.72376 -0.18608,-6.8387 z m 8.55999,4.18696 c 0.0944,0.65158 0.24795,1.31498 0.0465,1.90739 3.13543,0.14205 6.32467,0.045 9.58348,0 -0.2887,-0.66681 -0.16073,-1.33362 -0.093,-2.00043 -3.24204,1.8908 -6.41899,1.86174 -9.53698,0.093 z m -16.1645,-15.491735 c 1.08772,-0.53463 2.7971,-0.70321 4.25494,-0.74435 -0.24097,4.032975 7.29225,5.735745 7.16435,-0.0465 1.59833,0.0454 3.23244,0.402209 4.58686,0.691559 0.36874,4.978716 -11.47053,11.444066 -16.00615,0.09929 z m 16.86233,-0.79087 c -5.92377,-1.44612 -11.84753,-1.48457 -17.7713,0.0465 1.70441,12.624915 17.71544,10.304565 17.7713,-0.0465 z m 9.90582,0.34726 c 0.92485,-0.79928 2.56895,-1.08716 4.2833,-1.18466 0.27192,4.334975 7.05201,5.242465 7.25739,-0.13956 2.064,0.0604 3.24749,0.4234 4.46609,0.83739 0.6672,6.043795 -13.35714,10.583805 -16.00678,0.48683 z m -1.06669,-0.62639 c 6.01681,-2.12018 12.03361,-2.02585 18.05042,-0.46522 0.59867,11.001165 -16.61401,12.388635 -18.05042,0.46522 z m -8.28087,-7.0713 c -8.09838,0.11463 -16.16219,0.0219 -24.37738,0.83739 -0.26629,-1.02776 -0.0853,-2.20461 0,-3.34957 7.94426,0.99204 16.0947,1.26241 24.28433,1.39565 z m 8.65304,-0.55826 0.46522,1.67478 c 8.57837,-1.20493 16.97631,-1.2371 25.30781,-0.83739 -0.0467,-1.3367 -0.009,-2.69034 -0.6513,-3.90783 -8.16257,1.37572 -15.92178,3.42369 -25.12173,3.07044 z"
       inkscape:connector-curvature="0"
       sodipodi:nodetypes="ccccscsscccccccccccccccccccccccccccsccccccccccccccccscccscsccccccccccccccccccccccccccccccccc" />
    <path
       id="path874"
       style="color:#000000;clip-rule:nonzero;display:inline;overflow:visible;visibility:visible;opacity:1;isolation:auto;mix-blend-mode:normal;color-interpolation:sRGB;color-interpolation-filters:linearRGB;solid-color:#000000;solid-opacity:1;fill:#241c1c;fill-opacity:1;fill-rule:evenodd;stroke:#000000;stroke-width:0.30000001;stroke-linecap:round;stroke-linejoin:round;stroke-miterlimit:4;stroke-dasharray:none;stroke-dashoffset:0;stroke-opacity:1;paint-order:normal;color-rendering:auto;image-rendering:auto;shape-rendering:auto;text-rendering:auto;enable-background:accumulate"
       d="m 74.400425,35.546121 c 0,0.71937 -0.554717,1.302534 -1.238996,1.302534 -0.684279,0 -1.238996,-0.583164 -1.238996,-1.302534 0,-0.71937 0.554717,-1.302534 1.238996,-1.302534 0.684279,0 1.238996,0.583164 1.238996,1.302534 z M 47.523742,35.228433 c 0,0.614096 -0.526271,1.111919 -1.175458,1.111919 -0.649187,0 -1.175457,-0.497823 -1.175457,-1.111919 0,-0.614096 0.52627,-1.11192 1.175457,-1.11192 0.649188,0 1.175458,0.497823 1.175458,1.11192 z M 42.909528,48.43971 c -0.681403,3.186796 1.932687,4.390391 3.600927,6.163211 1.198204,-2.065995 2.792262,-3.943402 3.000771,-6.480902 1.131378,4.264197 -2.845511,4.644562 -1.250322,12.389952 -0.63548,-4.1259 -8.061537,-7.34004 -5.351376,-12.072261 z m -0.761095,-6.533538 c 0.668001,2.963149 2.484084,3.68447 3.890835,5.396236 1.605566,-2.22148 4.647036,-2.903334 4.361288,-6.476387 2.333895,4.543607 -4.067417,6.715358 -4.301107,10.48381 -0.103618,-3.659749 -4.756475,-5.411673 -3.951016,-9.403659 z m 0.890795,-6.803107 c -1.05423,3.460466 1.856398,4.000253 3.050785,5.957177 1.759642,-2.179159 3.923505,-3.902006 4.301105,-6.719637 1.704451,4.166906 -3.595436,6.002709 -4.401131,10.420273 0.606959,-3.454821 -5.770833,-5.607456 -2.950759,-9.657813 z m 26.248299,13.702458 c 1.213769,3.874926 3.358504,5.860038 3.297037,7.624578 0.47806,-2.96224 5.178041,-3.768192 4.970916,-7.751655 1.60864,4.917165 -5.109507,8.343555 -5.98539,13.088875 1.233793,-4.92424 -2.883631,-7.89702 -2.282563,-12.961798 z m -0.432642,-6.903866 c 0.09713,3.322808 2.359046,4.559708 4.108616,6.290286 1.862303,-2.169897 4.977825,-3.50871 4.768024,-7.052744 2.163881,4.319057 -3.432745,6.357266 -4.514406,10.992111 -0.549894,-3.647824 -6.076752,-5.951447 -4.362234,-10.229653 z m 0.418069,-7.109897 c -0.832635,4.575553 2.324262,4.986583 3.652102,7.306897 1.581414,-2.498411 4.979391,-4.200399 4.159338,-7.751667 3.454379,4.848082 -2.911876,6.517789 -4.05789,11.055657 -0.708288,-3.779113 -5.881579,-4.400351 -3.75355,-10.610887 z m -8.342643,9.046101 c 0,0.736915 -0.654282,1.334303 -1.461379,1.334303 -0.807098,0 -1.46138,-0.597388 -1.46138,-1.334303 0,-0.736915 0.654282,-1.334303 1.46138,-1.334303 0.807097,0 1.461379,0.597388 1.461379,1.334303 z m 1.651999,0 c 0,1.649287 -1.393905,2.986298 -3.113375,2.986298 -1.719469,0 -3.113374,-1.337011 -3.113374,-2.986298 0,-1.649286 1.393905,-2.986297 3.113374,-2.986297 1.719469,0 3.113375,1.33701 3.113375,2.986297 z M 63.725996,22.55255 c 3.541988,7.282413 15.028251,9.806536 17.663631,0.127077 0,0 5.893044,0.277569 8.768278,-0.254153 0.92096,-0.170315 2.148973,0.134594 1.779072,1.524918 -0.911124,3.424586 -2.843617,16.023622 -2.541531,15.948101 -0.23867,0.15188 0.0014,-11.247267 1.207226,-14.740873 0.352842,-1.022311 -0.382783,-1.456885 -1.906147,-1.270767 -1.538074,0.187915 -4.156819,-0.180206 -5.845518,0.38123 -0.918361,0.305324 -1.270764,2.732147 -1.270764,2.732147 1.995891,0.821345 5.642068,-0.23087 4.828906,1.524918 -2.027945,4.378759 -2.76352,17.353423 -2.668606,17.409478 -0.06578,0 -0.617897,-13.321203 0.889534,-15.848557 0.721479,-1.209628 0.356234,-1.332338 -1.045504,-1.356587 -1.281827,-0.02218 -3.663059,-0.30508 -3.974018,0.176894 -6.795481,5.406216 -15.953819,0.346943 -15.884559,-6.353826 z m -8.532492,-0.502597 c 0.170571,6.477459 -12.286019,11.966663 -16.939644,1.293101 0,0 -5.906932,1.107685 -8.661553,0.276491 -1.583065,-0.477682 -2.046275,0.355055 -1.297571,2.01883 1.5045,3.343306 3.34087,14.800425 3.188082,14.781327 0,0 -0.350616,-10.38181 -1.377739,-13.245241 -0.854251,-2.381497 0.435842,-1.996962 2.264047,-1.74904 1.497575,0.203085 3.306622,-0.03271 4.591631,-0.0134 0.767348,0.01153 1.422413,1.810342 1.422413,1.810342 0,0 -1.729641,1.052168 -2.586204,0.775862 -1.048535,-0.338231 -1.216308,0.44964 -0.905174,1.681035 0.88721,3.511363 2.228308,15.500354 2.228308,15.500354 0,0 -0.06825,-11.203192 -0.935204,-14.336563 -0.257664,-0.931254 -0.466675,-1.715725 1.118865,-1.64158 0.740777,0.03464 1.356022,-0.332688 1.984581,-0.168762 0.567295,0.147948 0.927966,0.719466 1.422413,1.034481 10.214287,6.507594 15.632382,-4.928778 14.482749,-8.017235 z m 25.862052,-4.655169 c -0.03837,-0.255346 -0.05302,-0.260161 -0.06368,-0.381439 -5.177139,-1.630584 -11.569517,-3.304455 -16.746657,-5.696143 -0.217757,0.905171 -0.736824,1.810343 0,2.715514 5.357179,1.859486 11.135382,2.455902 16.810334,3.362068 z M 38.51248,18.041333 c 0.04556,-0.30294 0.05533,-0.470544 0.10335,-0.644028 5.432122,-1.686023 13.089845,-3.73593 18.258707,-6.080103 0.536798,0.87409 0.261822,1.533163 0.258619,2.068962 -6.021118,2.201932 -12.26138,3.63686 -18.620676,4.655169 z"
       inkscape:connector-curvature="0"
       sodipodi:nodetypes="ssssssssssccccccccccccccccccccccccccccccssssssssssccssccsscscscccccsscssccsscscssccccccccccccc" />
    <path
       id="path853-3"
       style="opacity:1;fill:#241c1c;fill-rule:evenodd;stroke:#000000;stroke-width:0.3;stroke-linecap:butt;stroke-linejoin:miter;stroke-miterlimit:4;stroke-dasharray:none;stroke-opacity:1"
       d="m 155.83577,222.08308 c -1.04349,0.0847 -1.4854,2.57028 0.19737,2.63167 4.8453,-0.84153 10.80892,-1.43565 15.79,0.0658 1.5857,8.5e-4 1.35177,-2.29882 -0.26317,-2.76325 -3.34648,-0.96239 -7.01345,-2.04411 -15.7242,0.0658 z m -29.03973,-0.45569 c -0.91097,0.47609 -1.12163,2.91111 0.0658,2.89484 6.36852,-2.07333 11.78605,-1.91971 16.18474,-0.46054 2.10773,-0.0475 1.54761,-2.29267 -0.19737,-2.96063 -5.04119,-1.92972 -12.23766,-1.46774 -16.05317,0.52633 z m 23.64407,39.7245 a 0.98842317,1.0333514 0 0 1 -0.98842,1.03335 0.98842317,1.0333514 0 0 1 -0.98842,-1.03335 0.98842317,1.0333514 0 0 1 0.98842,-1.03335 0.98842317,1.0333514 0 0 1 0.98842,1.03335 z m -3.45949,-1.34785 c -1.17319,-1.48193 1.86023,-5.785 5.66097,-4.7624 3.21999,0.86634 4.94962,4.18904 4.17833,7.95231 -0.90341,4.40794 -6.02406,5.67236 -8.08709,8.89582 -0.43083,0.67316 -0.53915,2.33627 -0.53915,2.33627 0,0 0.59177,-1.78392 1.21307,-2.42614 2.03682,-2.10541 4.83963,-3.41921 6.96389,-5.39139 2.21962,-2.06071 2.85042,-6.26111 1.52756,-8.98567 -1.29488,-2.66693 -4.78788,-4.78618 -7.72767,-4.40297 -2.54129,0.33126 -5.04492,2.86601 -5.48125,5.39139 -0.36895,2.13541 0.89928,4.7973 2.96527,5.48126 1.65042,0.54638 3.75844,0.14735 4.67254,-1.70728 0.64649,-1.31168 0.17209,-2.95691 -1.34785,-3.86383 -2.34771,-1.40084 -4.30998,1.05396 -3.99862,1.48263 z m 14.78142,-25.02507 c -4.48033,2.46903 -0.23585,10.19561 4.7624,6.91896 4.00453,-2.62521 0.73576,-9.94889 -4.7624,-6.91896 z m -4.18604,7.7803 c -4.92238,-8.92366 8.23989,-15.37166 13.20893,-8.44652 5.57857,7.77464 -7.98666,17.91386 -13.20893,8.44652 z m 16.94568,4.61991 c 0.74827,-0.0935 0.52353,-9.81173 -2.51598,-13.83792 -4.03197,-5.34082 -12.77327,-4.74005 -15.62416,0.87225 -4.61837,9.09181 4.85754,17.24612 12.8386,11.61783 2.83219,-1.99727 5.54636,0.72219 5.30154,1.34784 z m -36.34701,-11.5915 c -4.90445,-2.61872 -8.9327,5.58664 -2.96527,8.49145 3.85695,1.87748 9.62761,-4.9341 2.96527,-8.49145 z m -6.78418,-1.258 c -9.45938,6.47928 2.59268,18.89162 9.70452,11.59151 7.1098,-7.29802 -0.85319,-17.6543 -9.70452,-11.59151 z m -6.11025,15.81477 c -0.29763,-0.54786 0.9929,-6.37167 0.76378,-9.07552 -0.66595,-7.85892 10.52753,-13.30193 16.12927,-7.90739 8.70392,8.38196 -3.19106,19.02584 -8.4093,15.74034 -4.46627,-2.81204 -8.54224,0.51441 -8.48375,1.24257 z"
       inkscape:connector-curvature="0" />
    <path
       id="path1630-6-7"
       style="color:#000000;clip-rule:nonzero;display:inline;overflow:visible;visibility:visible;opacity:1;isolation:auto;mix-blend-mode:normal;color-interpolation:sRGB;color-interpolation-filters:linearRGB;solid-color:#000000;solid-opacity:1;fill:#241c1c;fill-opacity:1;fill-rule:evenodd;stroke:#000000;stroke-width:0.3;stroke-linecap:round;stroke-linejoin:round;stroke-miterlimit:4;stroke-dasharray:none;stroke-dashoffset:0;stroke-opacity:1;paint-order:normal;color-rendering:auto;image-rendering:auto;shape-rendering:auto;text-rendering:auto;enable-background:accumulate"
       d="m 53.031804,227.60726 c -8.588225,-0.67471 -17.895255,-1.81084 -27.192171,-2.94041 2.008165,-1.16551 -0.319536,-2.9208 -1.156525,-4.47333 3.02404,0.22641 11.307415,5.90765 8.448377,0.0323 4.097607,0.87877 13.158847,8.16561 11.162481,1.06334 2.916735,2.8544 5.954719,4.2374 9.068981,4.6947 z m 9.82327,-0.18398 0.125303,-1.43224 c 5.125166,0.23847 6.849082,-2.04974 9.179681,-3.88727 0.47465,5.65659 6.596516,-0.78458 10.081568,-1.82396 -1.525721,5.37278 4.834953,-0.45844 7.691535,-1.31144 -0.760351,1.70589 -2.16128,3.53568 -1.333714,4.9345 -8.083592,1.98051 -16.557441,2.26208 -25.744365,3.52045 z M 36.287175,273.7771 c 1e-6,0.62033 -0.563222,1.12321 -1.257993,1.12321 -0.694771,0 -1.257994,-0.50288 -1.257993,-1.12321 -10e-7,-0.62033 0.563222,-1.12321 1.257993,-1.12321 0.694771,0 1.257994,0.50288 1.257993,1.12321 z m 50.634224,1.79712 c 2e-6,0.64515 -0.502876,1.16814 -1.123208,1.16814 -0.620332,0 -1.12321,-0.52299 -1.123208,-1.16814 -2e-6,-0.64515 0.502876,-1.16814 1.123208,-1.16814 0.620332,0 1.12321,0.52299 1.123208,1.16814 z m -26.238138,-3.59424 c 0,0.59552 -0.522992,1.07828 -1.168136,1.07828 -0.645144,0 -1.168136,-0.48276 -1.168136,-1.07828 0,-0.59552 0.522992,-1.07828 1.168136,-1.07828 0.645144,0 1.168136,0.48276 1.168136,1.07828 z m 23.812008,7.45809 c -2.598522,0.24924 -1.830143,-3.73934 -4.04355,-6.11026 2.30079,0.0525 3.954481,-3.52616 6.469678,-1.43769 -2.931101,-0.12118 -3.113204,1.30395 -4.313118,2.15656 0.310707,1.91955 0.11981,4.03202 1.88699,5.39139 z m -19.58875,-13.38863 c -0.883873,-0.62892 -0.163587,-1.8199 0.718854,-1.34787 4.808051,2.57188 7.756186,4.21523 11.501652,6.28997 1.289795,0.71446 5.111859,-2.64906 5.571112,-1.34784 -1.435572,0.35056 -2.64857,2.5171 -4.04355,2.78556 0.726204,1.37814 1.140646,4.09393 2.426131,5.57112 -2.063243,0 -2.814602,-4.45959 -4.313122,-5.48127 -3.359037,-2.29018 -9.814731,-5.01359 -11.861077,-6.46967 z m -28.888911,12.04078 c 3.175236,-0.21382 2.50749,-4.64867 4.043548,-6.11026 -1.498603,0.28907 -2.853355,-3.36535 -6.020395,-2.42612 2.371819,0.18093 3.006673,1.97476 4.313118,3.14497 -0.690892,1.83228 -0.517884,4.01013 -2.336271,5.39141 z m 3.99862,-1.43771 c 1.375128,0.6357 1.621005,-3.72348 3.002489,-4.54094 2.461607,-1.4566 8.153715,-3.71127 12.003572,-5.79257 0.897883,-0.48541 -0.01502,-1.49436 -0.718854,-1.16814 -2.888867,1.33895 -7.481951,3.7927 -11.321936,4.94213 -1.462419,0.43775 -4.402821,-3.50853 -5.66097,-1.97687 2.354908,0.4827 2.916184,3.43739 4.668965,3.24483 -0.995986,0.45868 -0.770171,3.25307 -1.973266,5.29156 z m 9.345092,-5.30154 c 0.372187,-0.27914 5.47554,4.96861 7.727672,6.82911 1.388583,1.14712 4.180174,0.97359 5.391398,-0.35944 2.218508,-2.44162 6.867506,-7.45109 7.008818,-7.27837 -0.928886,-0.86824 -2.040446,-1.55382 -3.684122,-1.70727 -1.134922,1.1619 -2.49026,1.5303 -4.223263,0.53911 4.500687,7.84611 -8.010904,9.45301 -4.223261,0.26959 -1.64715,0.74568 -3.235063,0.66205 -4.762404,-0.26959 -1.115975,0.43278 -2.235451,0.84455 -3.234838,1.97686 z m 18.869895,-12.04079 c -2.528157,-1.64443 -0.724687,-5.15233 1.976847,-3.59427 2.741598,1.58117 -0.04127,4.85326 -1.976847,3.59427 z m -19.319179,-2.78556 c 3.202435,-1.17513 4.987973,2.6633 2.246416,4.13341 -2.897609,1.55379 -4.989322,-3.1269 -2.246416,-4.13341 z m -6.020395,-4.94211 c 6.83249,0.45049 12.126943,-1.91874 16.084341,-6.73925 4.444006,4.67555 9.663693,6.7655 15.545199,6.64939 -0.176782,-0.0354 0.79412,8.13163 0.539139,12.22052 -0.06675,1.07036 -1.886988,2.60583 -1.886988,2.60583 0.230725,0.10458 0.305525,-6.77545 -0.179715,-10.7828 -0.115874,-0.95695 -0.966718,-1.63586 -1.797132,-1.79713 -2.030641,-0.39435 -7.152763,-2.20628 -7.278389,-2.42613 -3.061473,5.00848 -7.147304,2.66982 -9.884232,0.17971 0.282146,0.32245 -4.154103,2.4231 -7.008818,2.78556 -0.944267,0.11989 -1.540436,1.10449 -1.797132,2.15656 -0.805825,3.3027 0.103692,9.9568 0.539139,9.88423 0,0 -2.776013,-1.17601 -2.875412,-2.42613 -0.309996,-3.89874 0.361305,-12.35552 0,-12.31036 z m 20.66703,-17.34234 c 1.078279,-0.58816 2.156559,-0.72062 3.234838,-0.80871 0.938138,6.32057 9.163971,6.67975 9.434949,0 1.130216,-0.17779 2.184164,-0.0505 3.144983,0.44929 -0.838941,12.45417 -14.90908,8.03298 -15.81477,0.35942 z m -1.707277,-0.71885 c 5.408094,-1.32559 11.178837,-2.16765 18.600327,-0.80871 0.06656,13.54778 -15.734146,12.31877 -18.600327,0.80871 z m -25.429432,1.258 c 1.173705,-0.49018 2.213746,-0.57936 3.219423,-0.56546 0.232612,5.32509 8.764181,7.11113 9.360509,-0.24325 1.331031,-0.2102 2.572859,-0.0899 3.684122,0.53913 0.126209,10.84732 -14.861154,11.37196 -16.264054,0.26958 z m 17.522047,-1.34786 c -1.282773,16.1305 -18.342894,11.39716 -18.78004,0.71886 6.129731,-1.4773 12.315049,-2.42652 18.78004,-0.71886 z"
       inkscape:connector-curvature="0" />
    <flowRoot
       xml:space="preserve"
       id="flowRoot1120-57"
       style="font-style:normal;font-variant:normal;font-weight:normal;font-stretch:normal;font-size:18.66666794px;line-height:100%;font-family:'Times New Roman';-inkscape-font-specification:'Times New Roman, ';text-align:center;letter-spacing:0px;word-spacing:0px;text-anchor:middle;fill:#241c1c;fill-opacity:1;stroke:none;stroke-width:1px;stroke-linecap:round;stroke-linejoin:round;stroke-opacity:1;"
       transform="matrix(0.26458333,0,0,0.26458333,11.974172,-83.199706)"><flowRegion
         id="flowRegion1122-3"
         style="font-style:normal;font-variant:normal;font-weight:normal;font-stretch:normal;font-size:18.66666794px;line-height:100%;font-family:'Times New Roman';-inkscape-font-specification:'Times New Roman, ';text-align:center;text-anchor:middle;stroke-linecap:round;stroke-linejoin:round;fill:#241c1c;"><rect
           id="rect1124-2"
           width="227"
           height="70"
           x="64"
           y="579.51971"
           style="font-style:normal;font-variant:normal;font-weight:normal;font-stretch:normal;font-size:18.66666794px;line-height:100%;font-family:'Times New Roman';-inkscape-font-specification:'Times New Roman, ';text-align:center;text-anchor:middle;stroke-linecap:round;stroke-linejoin:round;fill:#241c1c;" /></flowRegion><flowPara
         style="font-style:normal;font-variant:normal;font-weight:normal;font-stretch:normal;font-size:18.66666794px;line-height:100%;font-family:'Times New Roman';-inkscape-font-specification:'Times New Roman, ';text-align:center;text-anchor:middle;stroke-linecap:round;stroke-linejoin:round;fill:#241c1c;"
         id="flowPara1211">Печальный Митр</flowPara></flowRoot>    <flowRoot
       xml:space="preserve"
       id="flowRoot1120-57-5"
       style="font-style:normal;font-variant:normal;font-weight:normal;font-stretch:normal;font-size:18.66666794px;line-height:100%;font-family:'Times New Roman';-inkscape-font-specification:'Times New Roman, ';text-align:center;letter-spacing:0px;word-spacing:0px;text-anchor:middle;fill:#241c1c;fill-opacity:1;stroke:none;stroke-width:1px;stroke-linecap:round;stroke-linejoin:round;stroke-opacity:1;"
       transform="matrix(0.26458333,0,0,0.26458333,104.52677,-83.401855)"><flowRegion
         id="flowRegion1122-3-3"
         style="font-style:normal;font-variant:normal;font-weight:normal;font-stretch:normal;font-size:18.66666794px;line-height:100%;font-family:'Times New Roman';-inkscape-font-specification:'Times New Roman, ';text-align:center;text-anchor:middle;stroke-linecap:round;stroke-linejoin:round;fill:#241c1c;"><rect
           id="rect1124-2-5"
           width="227"
           height="70"
           x="64"
           y="579.51971"
           style="font-style:normal;font-variant:normal;font-weight:normal;font-stretch:normal;font-size:18.66666794px;line-height:100%;font-family:'Times New Roman';-inkscape-font-specification:'Times New Roman, ';text-align:center;text-anchor:middle;stroke-linecap:round;stroke-linejoin:round;fill:#241c1c;" /></flowRegion><flowPara
         style="font-style:normal;font-variant:normal;font-weight:normal;font-stretch:normal;font-size:18.66666794px;line-height:100%;font-family:'Times New Roman';-inkscape-font-specification:'Times New Roman, ';text-align:center;text-anchor:middle;stroke-linecap:round;stroke-linejoin:round;fill:#241c1c;"
         id="flowPara1211-6">Обнимающий Сит</flowPara></flowRoot>    <flowRoot
       xml:space="preserve"
       id="flowRoot1120-57-5-2"
       style="font-style:normal;font-variant:normal;font-weight:normal;font-stretch:normal;font-size:18.66666794px;line-height:100%;font-family:'Times New Roman';-inkscape-font-specification:'Times New Roman, ';text-align:center;letter-spacing:0px;word-spacing:0px;text-anchor:middle;fill:#241c1c;fill-opacity:1;stroke:none;stroke-width:1px;stroke-linecap:round;stroke-linejoin:round;stroke-opacity:1;"
       transform="matrix(0.26458333,0,0,0.26458333,12.096904,-11.243726)"><flowRegion
         id="flowRegion1122-3-3-9"
         style="font-style:normal;font-variant:normal;font-weight:normal;font-stretch:normal;font-size:18.66666794px;line-height:100%;font-family:'Times New Roman';-inkscape-font-specification:'Times New Roman, ';text-align:center;text-anchor:middle;stroke-linecap:round;stroke-linejoin:round;fill:#241c1c;"><rect
           id="rect1124-2-5-1"
           width="227"
           height="70"
           x="64"
           y="579.51971"
           style="font-style:normal;font-variant:normal;font-weight:normal;font-stretch:normal;font-size:18.66666794px;line-height:100%;font-family:'Times New Roman';-inkscape-font-specification:'Times New Roman, ';text-align:center;text-anchor:middle;stroke-linecap:round;stroke-linejoin:round;fill:#241c1c;" /></flowRegion><flowPara
         style="font-style:normal;font-variant:normal;font-weight:normal;font-stretch:normal;font-size:18.66666794px;line-height:100%;font-family:'Times New Roman';-inkscape-font-specification:'Times New Roman, ';text-align:center;text-anchor:middle;stroke-linecap:round;stroke-linejoin:round;fill:#241c1c;"
         id="flowPara1211-6-2">Тёплый Хетр</flowPara></flowRoot>    <flowRoot
       xml:space="preserve"
       id="flowRoot1120-57-5-7"
       style="font-style:normal;font-variant:normal;font-weight:normal;font-stretch:normal;font-size:18.66666794px;line-height:100%;font-family:'Times New Roman';-inkscape-font-specification:'Times New Roman, ';text-align:center;letter-spacing:0px;word-spacing:0px;text-anchor:middle;fill:#241c1c;fill-opacity:1;stroke:none;stroke-width:1px;stroke-linecap:round;stroke-linejoin:round;stroke-opacity:1;"
       transform="matrix(0.26458333,0,0,0.26458333,103.06283,-11.264586)"><flowRegion
         id="flowRegion1122-3-3-0"
         style="font-style:normal;font-variant:normal;font-weight:normal;font-stretch:normal;font-size:18.66666794px;line-height:100%;font-family:'Times New Roman';-inkscape-font-specification:'Times New Roman, ';text-align:center;text-anchor:middle;stroke-linecap:round;stroke-linejoin:round;fill:#241c1c;"><rect
           id="rect1124-2-5-9"
           width="227"
           height="70"
           x="64"
           y="579.51971"
           style="font-style:normal;font-variant:normal;font-weight:normal;font-stretch:normal;font-size:18.66666794px;line-height:100%;font-family:'Times New Roman';-inkscape-font-specification:'Times New Roman, ';text-align:center;text-anchor:middle;stroke-linecap:round;stroke-linejoin:round;fill:#241c1c;" /></flowRegion><flowPara
         style="font-style:normal;font-variant:normal;font-weight:normal;font-stretch:normal;font-size:18.66666794px;line-height:100%;font-family:'Times New Roman';-inkscape-font-specification:'Times New Roman, ';text-align:center;text-anchor:middle;stroke-linecap:round;stroke-linejoin:round;fill:#241c1c;"
         id="flowPara1211-6-3">Сат-скиталец</flowPara></flowRoot>    <flowRoot
       xml:space="preserve"
       id="flowRoot1120-57-5-6"
       style="font-style:normal;font-variant:normal;font-weight:normal;font-stretch:normal;font-size:18.66666794px;line-height:100%;font-family:'Times New Roman';-inkscape-font-specification:'Times New Roman, ';text-align:center;letter-spacing:0px;word-spacing:0px;text-anchor:middle;fill:#241c1c;fill-opacity:1;stroke:none;stroke-width:1px;stroke-linecap:round;stroke-linejoin:round;stroke-opacity:1;"
       transform="matrix(0.26458333,0,0,0.26458333,10.763556,51.444796)"><flowRegion
         id="flowRegion1122-3-3-06"
         style="font-style:normal;font-variant:normal;font-weight:normal;font-stretch:normal;font-size:18.66666794px;line-height:100%;font-family:'Times New Roman';-inkscape-font-specification:'Times New Roman, ';text-align:center;text-anchor:middle;stroke-linecap:round;stroke-linejoin:round;fill:#241c1c;"><rect
           id="rect1124-2-5-2"
           width="227"
           height="70"
           x="64"
           y="579.51971"
           style="font-style:normal;font-variant:normal;font-weight:normal;font-stretch:normal;font-size:18.66666794px;line-height:100%;font-family:'Times New Roman';-inkscape-font-specification:'Times New Roman, ';text-align:center;text-anchor:middle;stroke-linecap:round;stroke-linejoin:round;fill:#241c1c;" /></flowRegion><flowPara
         style="font-style:normal;font-variant:normal;font-weight:normal;font-stretch:normal;font-size:18.66666794px;line-height:100%;font-family:'Times New Roman';-inkscape-font-specification:'Times New Roman, ';text-align:center;text-anchor:middle;stroke-linecap:round;stroke-linejoin:round;fill:#241c1c;"
         id="flowPara1211-6-6">Сан-сновидец</flowPara></flowRoot>    <flowRoot
       xml:space="preserve"
       id="flowRoot1120-57-5-1"
       style="font-style:normal;font-variant:normal;font-weight:normal;font-stretch:normal;font-size:18.66666794px;line-height:100%;font-family:'Times New Roman';-inkscape-font-specification:'Times New Roman, ';text-align:center;letter-spacing:0px;word-spacing:0px;text-anchor:middle;fill:#241c1c;fill-opacity:1;stroke:none;stroke-width:1px;stroke-linecap:round;stroke-linejoin:round;stroke-opacity:1;"
       transform="matrix(0.26458333,0,0,0.26458333,101.45446,52.10295)"><flowRegion
         id="flowRegion1122-3-3-8"
         style="font-style:normal;font-variant:normal;font-weight:normal;font-stretch:normal;font-size:18.66666794px;line-height:100%;font-family:'Times New Roman';-inkscape-font-specification:'Times New Roman, ';text-align:center;text-anchor:middle;stroke-linecap:round;stroke-linejoin:round;fill:#241c1c;"><rect
           id="rect1124-2-5-7"
           width="227"
           height="70"
           x="64"
           y="579.51971"
           style="font-style:normal;font-variant:normal;font-weight:normal;font-stretch:normal;font-size:18.66666794px;line-height:100%;font-family:'Times New Roman';-inkscape-font-specification:'Times New Roman, ';text-align:center;text-anchor:middle;stroke-linecap:round;stroke-linejoin:round;fill:#241c1c;" /></flowRegion><flowPara
         style="font-style:normal;font-variant:normal;font-weight:normal;font-stretch:normal;font-size:18.66666794px;line-height:100%;font-family:'Times New Roman';-inkscape-font-specification:'Times New Roman, ';text-align:center;text-anchor:middle;stroke-linecap:round;stroke-linejoin:round;fill:#241c1c;"
         id="flowPara1211-6-9">Хри-соблазнитель</flowPara></flowRoot>    <flowRoot
       xml:space="preserve"
       id="flowRoot1120-57-5-20"
       style="font-style:normal;font-variant:normal;font-weight:normal;font-stretch:normal;font-size:18.66666794px;line-height:100%;font-family:'Times New Roman';-inkscape-font-specification:'Times New Roman, ';text-align:center;letter-spacing:0px;word-spacing:0px;text-anchor:middle;fill:#241c1c;fill-opacity:1;stroke:none;stroke-width:1px;stroke-linecap:round;stroke-linejoin:round;stroke-opacity:1;"
       transform="matrix(0.26458333,0,0,0.26458333,12.288474,131.94872)"><flowRegion
         id="flowRegion1122-3-3-2"
         style="font-style:normal;font-variant:normal;font-weight:normal;font-stretch:normal;font-size:18.66666794px;line-height:100%;font-family:'Times New Roman';-inkscape-font-specification:'Times New Roman, ';text-align:center;text-anchor:middle;stroke-linecap:round;stroke-linejoin:round;fill:#241c1c;"><rect
           id="rect1124-2-5-3"
           width="227"
           height="70"
           x="64"
           y="579.51971"
           style="font-style:normal;font-variant:normal;font-weight:normal;font-stretch:normal;font-size:18.66666794px;line-height:100%;font-family:'Times New Roman';-inkscape-font-specification:'Times New Roman, ';text-align:center;text-anchor:middle;stroke-linecap:round;stroke-linejoin:round;fill:#241c1c;" /></flowRegion><flowPara
         style="font-style:normal;font-variant:normal;font-weight:normal;font-stretch:normal;font-size:18.66666794px;line-height:100%;font-family:'Times New Roman';-inkscape-font-specification:'Times New Roman, ';text-align:center;text-anchor:middle;stroke-linecap:round;stroke-linejoin:round;fill:#241c1c;"
         id="flowPara1211-6-7">Кхар-защитник</flowPara></flowRoot>    <flowRoot
       xml:space="preserve"
       id="flowRoot1120-57-5-5"
       style="font-style:normal;font-variant:normal;font-weight:normal;font-stretch:normal;font-size:18.66666794px;line-height:100%;font-family:'Times New Roman';-inkscape-font-specification:'Times New Roman, ';text-align:center;letter-spacing:0px;word-spacing:0px;text-anchor:middle;fill:#241c1c;fill-opacity:1;stroke:none;stroke-width:1px;stroke-linecap:round;stroke-linejoin:round;stroke-opacity:1;"
       transform="matrix(0.26458333,0,0,0.26458333,103.80443,132.43616)"><flowRegion
         id="flowRegion1122-3-3-92"
         style="font-style:normal;font-variant:normal;font-weight:normal;font-stretch:normal;font-size:18.66666794px;line-height:100%;font-family:'Times New Roman';-inkscape-font-specification:'Times New Roman, ';text-align:center;text-anchor:middle;stroke-linecap:round;stroke-linejoin:round;fill:#241c1c;"><rect
           id="rect1124-2-5-28"
           width="227"
           height="70"
           x="64"
           y="579.51971"
           style="font-style:normal;font-variant:normal;font-weight:normal;font-stretch:normal;font-size:18.66666794px;line-height:100%;font-family:'Times New Roman';-inkscape-font-specification:'Times New Roman, ';text-align:center;text-anchor:middle;stroke-linecap:round;stroke-linejoin:round;fill:#241c1c;" /></flowRegion><flowPara
         style="font-style:normal;font-variant:normal;font-weight:normal;font-stretch:normal;font-size:18.66666794px;line-height:100%;font-family:'Times New Roman';-inkscape-font-specification:'Times New Roman, ';text-align:center;text-anchor:middle;stroke-linecap:round;stroke-linejoin:round;fill:#241c1c;"
         id="flowPara1211-6-97">Удивлённый Лю</flowPara></flowRoot>  </g>
</svg>
