<?xml version="1.0" encoding="UTF-8" standalone="no"?>
<!-- Created with Inkscape (http://www.inkscape.org/) -->

<svg
   xmlns:dc="http://purl.org/dc/elements/1.1/"
   xmlns:cc="http://creativecommons.org/ns#"
   xmlns:rdf="http://www.w3.org/1999/02/22-rdf-syntax-ns#"
   xmlns:svg="http://www.w3.org/2000/svg"
   xmlns="http://www.w3.org/2000/svg"
   xmlns:sodipodi="http://sodipodi.sourceforge.net/DTD/sodipodi-0.dtd"
   xmlns:inkscape="http://www.inkscape.org/namespaces/inkscape"
   width="210mm"
   height="297mm"
   viewBox="0 0 210 297"
   version="1.1"
   id="svg8"
   inkscape:version="0.92.3 (2405546, 2018-03-11)"
   sodipodi:docname="pic_HathComparison.svg">
  <defs
     id="defs2" />
  <sodipodi:namedview
     id="base"
     pagecolor="#ffffff"
     bordercolor="#666666"
     borderopacity="1.0"
     inkscape:pageopacity="0.0"
     inkscape:pageshadow="2"
     inkscape:zoom="0.988016"
     inkscape:cx="458.73448"
     inkscape:cy="823.82249"
     inkscape:document-units="mm"
     inkscape:current-layer="layer1"
     showgrid="false"
     objecttolerance="1"
     guidetolerance="1"
     inkscape:window-width="1366"
     inkscape:window-height="703"
     inkscape:window-x="0"
     inkscape:window-y="0"
     inkscape:window-maximized="1" />
  <metadata
     id="metadata5">
    <rdf:RDF>
      <cc:Work
         rdf:about="">
        <dc:format>image/svg+xml</dc:format>
        <dc:type
           rdf:resource="http://purl.org/dc/dcmitype/StillImage" />
        <dc:title></dc:title>
      </cc:Work>
    </rdf:RDF>
  </metadata>
  <g
     inkscape:label="Layer 1"
     inkscape:groupmode="layer"
     id="layer1">
    <path
       id="path850"
       style="fill:#241c1c;fill-rule:evenodd;stroke:#000000;stroke-width:0.3;stroke-linecap:round;stroke-linejoin:round;stroke-opacity:1;stroke-miterlimit:4;stroke-dasharray:none"
       d="m 62.582797,91.073244 c -0.08705,-11.928164 0.415386,-9.183337 7.858353,-10.982759 -4.558631,-0.285611 -8.353759,1.425686 -9.373217,-3.881839 0.382378,3.407206 -1.773202,4.4514 -4.923305,5.112665 5.961179,-0.51405 5.698857,4.007614 6.438169,9.751933 z m 2.088681,-7.185099 c -0.725617,-0.930897 -0.02877,-1.14263 0.50014,-0.744961 1.485249,1.116708 3.483526,3.795626 3.531837,3.78043 0.116593,-0.06201 -2.969463,-1.672366 -4.031977,-3.035469 z M 63.65536,77.450959 c -0.432455,0.762611 0.04854,1.175228 0.639781,0.58432 0.917273,-0.916752 3.64484,-4.214555 3.765169,-4.154391 0.03641,0.02979 -3.651334,2.241112 -4.40495,3.570071 z m -8.414942,10.904326 c 0.145597,-0.108717 2.221793,-4.053942 3.241074,-4.95678 0.748571,-0.663054 1.648442,-0.260047 0.767933,0.661767 -1.268209,1.327701 -4.038451,4.258208 -4.009007,4.295013 z M 43.449522,88.116209 c 0.05274,-0.02198 -2.510189,-2.540529 -3.929177,-3.69248 -1.024682,-0.831849 0.124008,-1.927608 0.92312,-0.781101 0.998994,1.433284 2.928632,4.539095 3.006057,4.473581 z m -14.308008,0.790905 c 0.03297,0.04616 1.938351,-3.594225 3.395069,-4.764057 1.084051,-0.870558 1.959981,-0.141427 0.778434,0.767439 -0.866291,0.666366 -3.792219,3.474908 -4.173503,3.996618 z m 0.827743,-15.611528 c -0.06118,0.06883 2.98637,2.919243 4.026235,3.921054 0.967593,0.932183 -0.127111,1.740957 -0.884598,0.767934 -1.062546,-1.364884 -3.105302,-4.718056 -3.141637,-4.688988 z m 13.867105,8.49912 c 0.399515,-0.978514 0.126302,-0.965569 0.09468,-1.704221 2.939866,1.771671 5.738963,1.572571 8.426429,-0.189359 -0.21054,0.892986 -0.01458,1.596621 0,1.89358 z m -19.333343,0.134392 c 4.597725,-1.318263 11.787119,0.444926 12.452353,-6.259649 -0.01205,3.391337 0.270692,5.350175 4.552474,5.121531 -4.613092,0.468014 -4.764437,5.757021 -5.75754,10.812127 C 37.166297,80.721302 35.370657,81.5146 24.503019,81.929098 Z m 27.31484,-19.113692 c 1.627038,6.51491 12.786567,8.505412 14.728592,0.267792 0.194732,10.837403 -14.158681,10.008196 -14.728592,-0.267792 z m -22.226783,0 c 3.321539,8.596153 13.16468,6.529216 14.728592,-0.133898 2.132431,8.44136 -12.841257,13.659207 -14.728592,0.133898 z m 21.958991,-3.882993 0.133897,-2.81182 c 3.456504,-0.247992 7.060223,0.976166 10.042221,-4.016891 3.959104,5.245023 7.668107,4.987826 11.381184,4.820266 l 0.401688,2.142342 C 66.053904,58.615208 58.753036,58.626961 51.550067,58.932413 Z m -29.764191,-2.567002 0.03922,2.433106 c 7.131626,-0.621939 14.142554,-0.640392 21.021714,0 v -3.079615 c -3.279728,0.528273 -6.459725,0.153908 -9.238845,-4.323897 -1.302967,6.010938 -6.917553,4.962082 -11.822089,4.970406 z" />
    <g
       id="g1208"
       style="stroke-width:0.3;stroke-miterlimit:4;stroke-dasharray:none;stroke-linejoin:round;stroke-linecap:round">
      <path
         sodipodi:nodetypes="cccccccccccc"
         inkscape:connector-curvature="0"
         id="path864-9"
         d="m 102.02897,31.88537 c 4.0988,23.267801 -1.90587,45.170119 1.47285,67.751518 4.60743,2.801492 9.20914,7.148512 12.05067,11.715922 4.00873,-3.52268 6.32207,-7.02327 8.56936,-9.84138 6.08866,3.96602 11.51421,8.01107 13.32071,13.40448 -0.0234,-5.34806 1.37628,-5.89622 3.41632,-11.12824 0.47952,5.01335 4.44023,8.19652 2.60089,12.58625 4.4365,-5.79724 8.46627,-9.88852 12.2616,-14.86249 2.95943,5.90189 7.28147,9.38703 10.59545,12.098 4.51884,-5.3332 7.65848,-8.79404 11.49743,-12.76747 0.68407,-23.604388 -7.98521,-62.156077 -4.28467,-71.232828 z"
         style="fill:#483e37;fill-rule:evenodd;stroke:#000000;stroke-width:0.3;stroke-linecap:round;stroke-linejoin:round;stroke-opacity:1;stroke-miterlimit:4;stroke-dasharray:none" />
      <path
         sodipodi:nodetypes="cccccccccccc"
         inkscape:connector-curvature="0"
         id="path864"
         d="m 102.02897,31.885366 c 4.0988,23.267802 -1.90587,45.170118 1.47285,67.751517 4.60743,2.801497 7.73628,7.081577 10.57781,11.648977 4.00873,-3.52267 7.79493,-6.95633 10.04222,-9.77443 6.08866,3.96602 10.37806,8.5318 12.18456,13.92521 -0.0234,-5.34806 2.51243,-6.41696 4.55247,-11.64897 0.47952,5.01334 3.4461,8.19651 1.60676,12.58625 4.4365,-5.79724 9.4604,-9.88853 13.25573,-14.86249 2.95943,5.90189 6.19266,9.33968 9.50664,12.05066 4.51884,-5.33321 8.21171,-9.0145 12.05066,-12.98793 0.68407,-23.604385 -7.44963,-61.888281 -3.74909,-70.965031 z"
         style="fill:#aca793;fill-rule:evenodd;stroke:#000000;stroke-width:0.3;stroke-linecap:round;stroke-linejoin:round;stroke-opacity:1;stroke-miterlimit:4;stroke-dasharray:none" />
      <path
         sodipodi:nodetypes="cccccccc"
         inkscape:connector-curvature="0"
         id="path866"
         d="m 102.02897,31.885366 c 2.544,13.739791 1.14042,25.795997 0.87032,37.089267 4.40984,-4.591321 8.9217,-8.468508 13.45658,-12.18456 5.82924,5.378078 11.30099,10.867869 15.13028,16.870931 7.8669,-6.193359 14.98597,-13.496498 20.62002,-21.557302 8.07704,5.350957 15.81082,10.873544 23.13058,16.603141 -0.98731,-13.13928 -3.88406,-29.170703 -1.70717,-39.097714 z"
         style="fill:#5f5fd3;fill-rule:evenodd;stroke:#000000;stroke-width:0.3;stroke-linecap:round;stroke-linejoin:round;stroke-opacity:1;stroke-miterlimit:4;stroke-dasharray:none" />
      <path
         d="m 151.1313,38.100362 c 2.85875,0.194177 2.9074,-2.883369 3.29009,-5.041654 0.0645,2.218223 -1.12234,5.285752 2.17762,5.349362 -2.34619,0.01666 -2.89203,1.278022 -2.93505,2.982386 -0.0309,-3.013827 -1.28205,-3.151308 -2.53266,-3.290094 z m -1.16747,-1.863368 c -8.91553,0.359826 -3.29274,12.547631 2.81182,5.958385 -5.01636,2.164905 -7.07086,-3.699817 -2.81182,-5.958385 z M 129.6116,46.48006 c 5.06249,-0.237994 4.09149,-2.871807 4.82026,-5.489749 -0.15466,2.945006 -0.0674,5.915965 3.94994,5.556697 -3.61886,0.617634 -4.24697,1.621432 -4.41857,5.355851 0.0176,-3.998942 -1.40301,-5.412942 -4.35163,-5.422799 z m 0.29888,-3.272337 c -6.90709,3.259821 -5.73892,11.659531 3.24937,10.034097 -10.07287,7.620637 -17.50287,-9.204667 -3.24937,-10.034097 z"
         style="fill:#d3bc5f;fill-rule:evenodd;stroke:#000000;stroke-width:0.3;stroke-linecap:round;stroke-linejoin:round;stroke-opacity:1;stroke-miterlimit:4;stroke-dasharray:none"
         id="path862" />
      <path
         sodipodi:nodetypes="csssssccc"
         inkscape:connector-curvature="0"
         id="path869"
         d="m 144.57478,61.438728 c -0.87802,0.853983 -1.38773,4.68145 3.07707,1.136148 1.50874,-1.198026 3.13744,-2.634948 2.32775,0.65463 -0.62578,2.542393 2.88637,3.893745 4.03199,0.1028 0.78352,-2.592745 2.7811,-2.756773 4.10228,-1.278165 1.76699,1.977535 3.55239,1.957527 2.17762,-0.852112 -0.43256,-0.88403 2.22495,-1.940917 2.22495,-1.940917 l -10.41027,-7.15741 c -2.30949,3.312644 -4.77647,6.46781 -7.53139,9.335026 z"
         style="fill:#ffffff;fill-rule:evenodd;stroke:#000000;stroke-width:0.3;stroke-linecap:round;stroke-linejoin:round;stroke-opacity:1;stroke-miterlimit:4;stroke-dasharray:none" />
      <path
         sodipodi:nodetypes="csssssccc"
         inkscape:connector-curvature="0"
         id="path871"
         d="m 112.45494,60.042212 c 0.16508,-0.06003 0.42581,0.442256 -0.14202,0.946791 -0.99738,0.886205 0.38752,2.148569 1.42019,0.686422 0.70496,-0.998142 2.16916,-0.490053 2.22495,0.710091 0.084,1.808098 1.61916,1.740738 1.84624,0.07101 0.12388,-0.910874 0.94335,-0.819736 1.51487,-0.09468 0.88108,1.117774 2.9972,0.609416 2.66081,-0.175491 -1.67526,-1.732279 -3.70093,-3.581364 -5.62411,-5.396282 -1.22701,1.014141 -2.48534,2.112276 -3.90093,3.252139 z"
         style="fill:#ffffff;fill-rule:evenodd;stroke:#000000;stroke-width:0.3;stroke-linecap:round;stroke-linejoin:round;stroke-opacity:1;stroke-miterlimit:4;stroke-dasharray:none" />
      <path
         sodipodi:nodetypes="sssss"
         inkscape:connector-curvature="0"
         id="path852"
         d="m 102.02897,31.885366 c -2.417912,-0.07655 -1.99311,-3.386934 -0.4017,-3.347408 21.05356,0.522913 51.18545,-2.437009 71.36672,-2.544029 1.81003,-0.0096 2.27555,3.68724 0.1339,3.749095 -22.08163,0.637758 -48.93558,2.843993 -71.09892,2.142342 z"
         style="fill:#784421;fill-rule:evenodd;stroke:#000000;stroke-width:0.3;stroke-linecap:round;stroke-linejoin:round;stroke-opacity:1;stroke-miterlimit:4;stroke-dasharray:none" />
      <path
         sodipodi:nodetypes="scscsssssssssssccccscsccccccccccccccccccccccccccccccscccscccccccccccccccccccscccc"
         inkscape:connector-curvature="0"
         d="m 140.95931,73.878586 c 0,0.526888 -0.41964,0.954014 -0.93728,0.954011 -0.51764,-2e-6 -0.93727,-0.427127 -0.93727,-0.954011 0,-0.526884 0.41963,-0.954009 0.93727,-0.954011 0.51764,-3e-6 0.93728,0.427123 0.93728,0.954011 z m -0.16737,4.000152 c 0,0.628567 -0.51705,1.138121 -1.15486,1.138119 -0.63781,-3e-6 -1.15485,-0.509555 -1.15485,-1.138119 0,-0.628563 0.51704,-1.138115 1.15485,-1.138118 0.63781,-2e-6 1.15486,0.509551 1.15486,1.138118 z m -25.87546,0 c 0,0.573104 -0.47958,1.037697 -1.07117,1.037697 -0.59159,0 -1.07117,-0.464593 -1.07117,-1.037697 0,-0.573104 0.47958,-1.037696 1.07117,-1.037696 0.59159,0 1.07117,0.464592 1.07117,1.037696 z m 43.95145,3.386624 0.1339,1.902278 2.41013,-0.133895 c -1.64436,1.295735 -1.09522,3.030171 -0.93727,4.686368 -0.38294,-0.312346 2.00059,-5.922181 4.35163,-3.816043 3.11144,2.787328 -4.42736,9.534911 -4.15079,9.64053 -0.10881,-0.13325 5.20578,-3.213898 6.02534,-6.42702 0.41544,-1.628754 -0.23827,-4.284681 -0.46864,-4.284681 l 1.87455,0.06695 -0.1339,-1.539808 z m -13.30307,-0.161629 0.18124,1.863061 c 6.8709,-0.333486 -0.21002,2.398729 -0.87033,5.02111 6.57819,-6.3179 3.13479,4.894488 4.15079,9.841377 0.0177,-5.346226 2.07624,-8.541076 1.5398,-13.054885 2.35215,-2.941038 5.07919,0.897376 1.60676,2.008444 3.30254,0.962807 3.70531,-3.309395 2.14234,-3.481305 h 0.93728 l -0.10617,-2.005078 c -2.7275,0.01706 -4.98512,-0.01095 -9.58171,-0.192724 z m -7.50967,-0.04397 0.13389,1.405912 0.46864,-0.06695 c 1.04154,4.399638 -1.12996,7.242238 -0.60254,11.01297 0.14509,-4.051612 2.33993,-7.664252 2.54404,-11.079917 l 1.33896,0.06695 -0.0669,-1.405911 c -1.6227,-0.211466 -2.71534,-0.06956 -3.81609,0.06695 z m -4.49365,-1.239527 c 0.92918,1.880236 0.62082,3.265459 0.73643,4.820266 0.69773,-1.511553 1.48813,-2.930442 1.6737,-4.954161 z m -11.81635,0.867948 -0.23432,1.408289 0.46864,0.133897 c 0,0 -0.64589,0.958355 -0.66948,1.539807 -0.0737,1.815311 3.76551,4.476119 2.10886,5.221956 -0.6161,0.277373 -0.59898,1.693085 -0.53558,1.707176 -0.17254,-0.658549 3.18931,-2.655611 2.97919,0 -0.10921,1.380197 -6.17888,6.558789 -5.48975,6.996081 0.30555,-1.088571 4.32951,-3.957204 6.42703,-5.489747 1.10725,-0.809008 0.43691,-2.827851 0.13389,-3.94994 -0.36795,-1.362559 2.39597,-2.326436 3.14657,-3.749096 0.16952,-0.321301 -0.20085,-1.071171 -0.20085,-1.071171 l 0.87033,-0.200845 -0.0947,-2.320212 -3.05189,-0.01961 c -0.31018,0.09305 1.14721,2.0839 1.00422,2.811822 -0.16674,0.848871 -3.65912,3.930093 -3.28045,4.281317 0,0 -2.71756,-2.537298 -2.54403,-4.150786 0.0793,-0.737567 1.53981,-1.606754 1.53981,-1.606754 l 0.13389,-1.433641 z m -12.41888,-0.131517 c 3.24085,0.04846 6.38908,0.09692 8.7506,0.145382 l -0.24818,1.595269 -2.55075,-0.133895 c 0.58706,1.353972 -2.6875,2.769709 -2.74726,2.787454 -1.80773,0.536712 4.04997,0.639343 3.55735,3.304826 -0.15855,0.857913 -4.39108,4.655794 -6.29312,8.033776 -0.38082,-0.06467 2.45936,-4.692867 4.71984,-7.632087 1.59809,-2.077942 -4.26064,-1.199942 -3.84952,-3.280459 0.26533,-1.342723 3.78751,-2.645773 2.9792,-3.28046 h -4.18426 z"
         style="color:#000000;clip-rule:nonzero;display:inline;overflow:visible;visibility:visible;opacity:1;isolation:auto;mix-blend-mode:normal;color-interpolation:sRGB;color-interpolation-filters:linearRGB;solid-color:#000000;solid-opacity:1;fill:#d3bc5f;fill-opacity:1;fill-rule:evenodd;stroke:#000000;stroke-width:0.3;stroke-linecap:round;stroke-linejoin:round;stroke-miterlimit:4;stroke-dasharray:none;stroke-dashoffset:0;stroke-opacity:1;paint-order:normal;color-rendering:auto;image-rendering:auto;shape-rendering:auto;text-rendering:auto;enable-background:accumulate"
         id="path889" />
      <ellipse
         ry="1.7989004"
         rx="1.8462398"
         cy="111.33455"
         cx="114.1355"
         id="path897"
         style="color:#000000;clip-rule:nonzero;display:inline;overflow:visible;visibility:visible;opacity:1;isolation:auto;mix-blend-mode:normal;color-interpolation:sRGB;color-interpolation-filters:linearRGB;solid-color:#000000;solid-opacity:1;fill:#d3bc5f;fill-opacity:1;fill-rule:evenodd;stroke:#000000;stroke-width:0.3;stroke-linecap:round;stroke-linejoin:round;stroke-miterlimit:4;stroke-dasharray:none;stroke-dashoffset:0;stroke-opacity:1;paint-order:normal;color-rendering:auto;image-rendering:auto;shape-rendering:auto;text-rendering:auto;enable-background:accumulate" />
      <ellipse
         ry="1.7989004"
         rx="1.8462398"
         cy="114.83766"
         cx="136.14836"
         id="path897-3"
         style="color:#000000;clip-rule:nonzero;display:inline;overflow:visible;visibility:visible;opacity:1;isolation:auto;mix-blend-mode:normal;color-interpolation:sRGB;color-interpolation-filters:linearRGB;solid-color:#000000;solid-opacity:1;fill:#d3bc5f;fill-opacity:1;fill-rule:evenodd;stroke:#000000;stroke-width:0.3;stroke-linecap:round;stroke-linejoin:round;stroke-miterlimit:4;stroke-dasharray:none;stroke-dashoffset:0;stroke-opacity:1;paint-order:normal;color-rendering:auto;image-rendering:auto;shape-rendering:auto;text-rendering:auto;enable-background:accumulate" />
      <ellipse
         ry="1.7989004"
         rx="1.8462398"
         cy="116.0685"
         cx="142.87056"
         id="path897-6"
         style="color:#000000;clip-rule:nonzero;display:inline;overflow:visible;visibility:visible;opacity:1;isolation:auto;mix-blend-mode:normal;color-interpolation:sRGB;color-interpolation-filters:linearRGB;solid-color:#000000;solid-opacity:1;fill:#d3bc5f;fill-opacity:1;fill-rule:evenodd;stroke:#000000;stroke-width:0.3;stroke-linecap:round;stroke-linejoin:round;stroke-miterlimit:4;stroke-dasharray:none;stroke-dashoffset:0;stroke-opacity:1;paint-order:normal;color-rendering:auto;image-rendering:auto;shape-rendering:auto;text-rendering:auto;enable-background:accumulate" />
      <ellipse
         ry="1.7989004"
         rx="1.8462398"
         cy="113.32281"
         cx="165.02545"
         id="path897-7"
         style="color:#000000;clip-rule:nonzero;display:inline;overflow:visible;visibility:visible;opacity:1;isolation:auto;mix-blend-mode:normal;color-interpolation:sRGB;color-interpolation-filters:linearRGB;solid-color:#000000;solid-opacity:1;fill:#d3bc5f;fill-opacity:1;fill-rule:evenodd;stroke:#000000;stroke-width:0.3;stroke-linecap:round;stroke-linejoin:round;stroke-miterlimit:4;stroke-dasharray:none;stroke-dashoffset:0;stroke-opacity:1;paint-order:normal;color-rendering:auto;image-rendering:auto;shape-rendering:auto;text-rendering:auto;enable-background:accumulate" />
      <ellipse
         ry="0.94678968"
         rx="0.99412912"
         cy="113.70152"
         cx="113.6621"
         id="path932"
         style="color:#000000;clip-rule:nonzero;display:inline;overflow:visible;visibility:visible;opacity:1;isolation:auto;mix-blend-mode:normal;color-interpolation:sRGB;color-interpolation-filters:linearRGB;solid-color:#000000;solid-opacity:1;fill:#918a6f;fill-opacity:1;fill-rule:evenodd;stroke:#000000;stroke-width:0.3;stroke-linecap:round;stroke-linejoin:round;stroke-miterlimit:4;stroke-dasharray:none;stroke-dashoffset:0;stroke-opacity:1;paint-order:normal;color-rendering:auto;image-rendering:auto;shape-rendering:auto;text-rendering:auto;enable-background:accumulate" />
      <ellipse
         ry="0.94678968"
         rx="0.99412912"
         cy="115.50042"
         cx="113.4254"
         id="path932-3"
         style="color:#000000;clip-rule:nonzero;display:inline;overflow:visible;visibility:visible;opacity:1;isolation:auto;mix-blend-mode:normal;color-interpolation:sRGB;color-interpolation-filters:linearRGB;solid-color:#000000;solid-opacity:1;fill:#c8c4b7;fill-opacity:1;fill-rule:evenodd;stroke:#000000;stroke-width:0.3;stroke-linecap:round;stroke-linejoin:round;stroke-miterlimit:4;stroke-dasharray:none;stroke-dashoffset:0;stroke-opacity:1;paint-order:normal;color-rendering:auto;image-rendering:auto;shape-rendering:auto;text-rendering:auto;enable-background:accumulate" />
      <ellipse
         ry="0.94678968"
         rx="0.99412912"
         cy="117.394"
         cx="113.33072"
         id="path932-5"
         style="color:#000000;clip-rule:nonzero;display:inline;overflow:visible;visibility:visible;opacity:1;isolation:auto;mix-blend-mode:normal;color-interpolation:sRGB;color-interpolation-filters:linearRGB;solid-color:#000000;solid-opacity:1;fill:#918a6f;fill-opacity:1;fill-rule:evenodd;stroke:#000000;stroke-width:0.3;stroke-linecap:round;stroke-linejoin:round;stroke-miterlimit:4;stroke-dasharray:none;stroke-dashoffset:0;stroke-opacity:1;paint-order:normal;color-rendering:auto;image-rendering:auto;shape-rendering:auto;text-rendering:auto;enable-background:accumulate" />
      <ellipse
         ry="0.94678968"
         rx="0.99412912"
         cy="117.10996"
         cx="135.67497"
         id="path932-6"
         style="color:#000000;clip-rule:nonzero;display:inline;overflow:visible;visibility:visible;opacity:1;isolation:auto;mix-blend-mode:normal;color-interpolation:sRGB;color-interpolation-filters:linearRGB;solid-color:#000000;solid-opacity:1;fill:#c8c4b7;fill-opacity:1;fill-rule:evenodd;stroke:#000000;stroke-width:0.3;stroke-linecap:round;stroke-linejoin:round;stroke-miterlimit:4;stroke-dasharray:none;stroke-dashoffset:0;stroke-opacity:1;paint-order:normal;color-rendering:auto;image-rendering:auto;shape-rendering:auto;text-rendering:auto;enable-background:accumulate" />
      <ellipse
         ry="0.94678968"
         rx="0.99412912"
         cy="118.81419"
         cx="135.58028"
         id="path932-2"
         style="color:#000000;clip-rule:nonzero;display:inline;overflow:visible;visibility:visible;opacity:1;isolation:auto;mix-blend-mode:normal;color-interpolation:sRGB;color-interpolation-filters:linearRGB;solid-color:#000000;solid-opacity:1;fill:#c8c4b7;fill-opacity:1;fill-rule:evenodd;stroke:#000000;stroke-width:0.3;stroke-linecap:round;stroke-linejoin:round;stroke-miterlimit:4;stroke-dasharray:none;stroke-dashoffset:0;stroke-opacity:1;paint-order:normal;color-rendering:auto;image-rendering:auto;shape-rendering:auto;text-rendering:auto;enable-background:accumulate" />
      <ellipse
         ry="0.94678968"
         rx="0.99412912"
         cy="120.42372"
         cx="136.52708"
         id="path932-9"
         style="color:#000000;clip-rule:nonzero;display:inline;overflow:visible;visibility:visible;opacity:1;isolation:auto;mix-blend-mode:normal;color-interpolation:sRGB;color-interpolation-filters:linearRGB;solid-color:#000000;solid-opacity:1;fill:#918a6f;fill-opacity:1;fill-rule:evenodd;stroke:#000000;stroke-width:0.3;stroke-linecap:round;stroke-linejoin:round;stroke-miterlimit:4;stroke-dasharray:none;stroke-dashoffset:0;stroke-opacity:1;paint-order:normal;color-rendering:auto;image-rendering:auto;shape-rendering:auto;text-rendering:auto;enable-background:accumulate" />
      <ellipse
         ry="0.94678968"
         rx="0.99412912"
         cy="118.43547"
         cx="142.49185"
         id="path932-1"
         style="color:#000000;clip-rule:nonzero;display:inline;overflow:visible;visibility:visible;opacity:1;isolation:auto;mix-blend-mode:normal;color-interpolation:sRGB;color-interpolation-filters:linearRGB;solid-color:#000000;solid-opacity:1;fill:#c8c4b7;fill-opacity:1;fill-rule:evenodd;stroke:#000000;stroke-width:0.3;stroke-linecap:round;stroke-linejoin:round;stroke-miterlimit:4;stroke-dasharray:none;stroke-dashoffset:0;stroke-opacity:1;paint-order:normal;color-rendering:auto;image-rendering:auto;shape-rendering:auto;text-rendering:auto;enable-background:accumulate" />
      <ellipse
         ry="0.94678968"
         rx="0.99412912"
         cy="119.76097"
         cx="141.63974"
         id="path932-27"
         style="color:#000000;clip-rule:nonzero;display:inline;overflow:visible;visibility:visible;opacity:1;isolation:auto;mix-blend-mode:normal;color-interpolation:sRGB;color-interpolation-filters:linearRGB;solid-color:#000000;solid-opacity:1;fill:#918a6f;fill-opacity:1;fill-rule:evenodd;stroke:#000000;stroke-width:0.3;stroke-linecap:round;stroke-linejoin:round;stroke-miterlimit:4;stroke-dasharray:none;stroke-dashoffset:0;stroke-opacity:1;paint-order:normal;color-rendering:auto;image-rendering:auto;shape-rendering:auto;text-rendering:auto;enable-background:accumulate" />
      <ellipse
         ry="0.94678968"
         rx="0.99412912"
         cy="120.99179"
         cx="140.59827"
         id="path932-0"
         style="color:#000000;clip-rule:nonzero;display:inline;overflow:visible;visibility:visible;opacity:1;isolation:auto;mix-blend-mode:normal;color-interpolation:sRGB;color-interpolation-filters:linearRGB;solid-color:#000000;solid-opacity:1;fill:#c8c4b7;fill-opacity:1;fill-rule:evenodd;stroke:#000000;stroke-width:0.3;stroke-linecap:round;stroke-linejoin:round;stroke-miterlimit:4;stroke-dasharray:none;stroke-dashoffset:0;stroke-opacity:1;paint-order:normal;color-rendering:auto;image-rendering:auto;shape-rendering:auto;text-rendering:auto;enable-background:accumulate" />
      <ellipse
         ry="1.7989004"
         rx="1.8462398"
         cy="122.69602"
         cx="138.61"
         id="path897-5"
         style="color:#000000;clip-rule:nonzero;display:inline;overflow:visible;visibility:visible;opacity:1;isolation:auto;mix-blend-mode:normal;color-interpolation:sRGB;color-interpolation-filters:linearRGB;solid-color:#000000;solid-opacity:1;fill:#d3bc5f;fill-opacity:1;fill-rule:evenodd;stroke:#000000;stroke-width:0.3;stroke-linecap:round;stroke-linejoin:round;stroke-miterlimit:4;stroke-dasharray:none;stroke-dashoffset:0;stroke-opacity:1;paint-order:normal;color-rendering:auto;image-rendering:auto;shape-rendering:auto;text-rendering:auto;enable-background:accumulate" />
      <ellipse
         ry="0.94678968"
         rx="0.99412912"
         cy="124.77895"
         cx="137.09515"
         id="path932-93"
         style="color:#000000;clip-rule:nonzero;display:inline;overflow:visible;visibility:visible;opacity:1;isolation:auto;mix-blend-mode:normal;color-interpolation:sRGB;color-interpolation-filters:linearRGB;solid-color:#000000;solid-opacity:1;fill:#c8c4b7;fill-opacity:1;fill-rule:evenodd;stroke:#000000;stroke-width:0.3;stroke-linecap:round;stroke-linejoin:round;stroke-miterlimit:4;stroke-dasharray:none;stroke-dashoffset:0;stroke-opacity:1;paint-order:normal;color-rendering:auto;image-rendering:auto;shape-rendering:auto;text-rendering:auto;enable-background:accumulate" />
      <ellipse
         ry="0.94678968"
         rx="0.99412912"
         cy="126.67254"
         cx="136.4324"
         id="path932-60"
         style="color:#000000;clip-rule:nonzero;display:inline;overflow:visible;visibility:visible;opacity:1;isolation:auto;mix-blend-mode:normal;color-interpolation:sRGB;color-interpolation-filters:linearRGB;solid-color:#000000;solid-opacity:1;fill:#c8c4b7;fill-opacity:1;fill-rule:evenodd;stroke:#000000;stroke-width:0.3;stroke-linecap:round;stroke-linejoin:round;stroke-miterlimit:4;stroke-dasharray:none;stroke-dashoffset:0;stroke-opacity:1;paint-order:normal;color-rendering:auto;image-rendering:auto;shape-rendering:auto;text-rendering:auto;enable-background:accumulate" />
      <ellipse
         ry="0.94678968"
         rx="0.99412912"
         cy="128.56613"
         cx="135.959"
         id="path932-62"
         style="color:#000000;clip-rule:nonzero;display:inline;overflow:visible;visibility:visible;opacity:1;isolation:auto;mix-blend-mode:normal;color-interpolation:sRGB;color-interpolation-filters:linearRGB;solid-color:#000000;solid-opacity:1;fill:#918a6f;fill-opacity:1;fill-rule:evenodd;stroke:#000000;stroke-width:0.3;stroke-linecap:round;stroke-linejoin:round;stroke-miterlimit:4;stroke-dasharray:none;stroke-dashoffset:0;stroke-opacity:1;paint-order:normal;color-rendering:auto;image-rendering:auto;shape-rendering:auto;text-rendering:auto;enable-background:accumulate" />
      <ellipse
         ry="0.94678968"
         rx="0.99412912"
         cy="130.36501"
         cx="135.58028"
         id="path932-61"
         style="color:#000000;clip-rule:nonzero;display:inline;overflow:visible;visibility:visible;opacity:1;isolation:auto;mix-blend-mode:normal;color-interpolation:sRGB;color-interpolation-filters:linearRGB;solid-color:#000000;solid-opacity:1;fill:#c8c4b7;fill-opacity:1;fill-rule:evenodd;stroke:#000000;stroke-width:0.3;stroke-linecap:round;stroke-linejoin:round;stroke-miterlimit:4;stroke-dasharray:none;stroke-dashoffset:0;stroke-opacity:1;paint-order:normal;color-rendering:auto;image-rendering:auto;shape-rendering:auto;text-rendering:auto;enable-background:accumulate" />
      <ellipse
         ry="0.94678968"
         rx="0.99412912"
         cy="132.35327"
         cx="135.58029"
         id="path932-8"
         style="color:#000000;clip-rule:nonzero;display:inline;overflow:visible;visibility:visible;opacity:1;isolation:auto;mix-blend-mode:normal;color-interpolation:sRGB;color-interpolation-filters:linearRGB;solid-color:#000000;solid-opacity:1;fill:#918a6f;fill-opacity:1;fill-rule:evenodd;stroke:#000000;stroke-width:0.3;stroke-linecap:round;stroke-linejoin:round;stroke-miterlimit:4;stroke-dasharray:none;stroke-dashoffset:0;stroke-opacity:1;paint-order:normal;color-rendering:auto;image-rendering:auto;shape-rendering:auto;text-rendering:auto;enable-background:accumulate" />
      <ellipse
         ry="0.94678968"
         rx="0.99412912"
         cy="125.15768"
         cx="140.21954"
         id="path932-7"
         style="color:#000000;clip-rule:nonzero;display:inline;overflow:visible;visibility:visible;opacity:1;isolation:auto;mix-blend-mode:normal;color-interpolation:sRGB;color-interpolation-filters:linearRGB;solid-color:#000000;solid-opacity:1;fill:#c8c4b7;fill-opacity:1;fill-rule:evenodd;stroke:#000000;stroke-width:0.3;stroke-linecap:round;stroke-linejoin:round;stroke-miterlimit:4;stroke-dasharray:none;stroke-dashoffset:0;stroke-opacity:1;paint-order:normal;color-rendering:auto;image-rendering:auto;shape-rendering:auto;text-rendering:auto;enable-background:accumulate" />
      <ellipse
         ry="0.94678968"
         rx="0.99412912"
         cy="127.05125"
         cx="140.50359"
         id="path932-92"
         style="color:#000000;clip-rule:nonzero;display:inline;overflow:visible;visibility:visible;opacity:1;isolation:auto;mix-blend-mode:normal;color-interpolation:sRGB;color-interpolation-filters:linearRGB;solid-color:#000000;solid-opacity:1;fill:#918a6f;fill-opacity:1;fill-rule:evenodd;stroke:#000000;stroke-width:0.3;stroke-linecap:round;stroke-linejoin:round;stroke-miterlimit:4;stroke-dasharray:none;stroke-dashoffset:0;stroke-opacity:1;paint-order:normal;color-rendering:auto;image-rendering:auto;shape-rendering:auto;text-rendering:auto;enable-background:accumulate" />
      <ellipse
         ry="0.94678968"
         rx="0.99412912"
         cy="128.6608"
         cx="140.50359"
         id="path932-02"
         style="color:#000000;clip-rule:nonzero;display:inline;overflow:visible;visibility:visible;opacity:1;isolation:auto;mix-blend-mode:normal;color-interpolation:sRGB;color-interpolation-filters:linearRGB;solid-color:#000000;solid-opacity:1;fill:#c8c4b7;fill-opacity:1;fill-rule:evenodd;stroke:#000000;stroke-width:0.3;stroke-linecap:round;stroke-linejoin:round;stroke-miterlimit:4;stroke-dasharray:none;stroke-dashoffset:0;stroke-opacity:1;paint-order:normal;color-rendering:auto;image-rendering:auto;shape-rendering:auto;text-rendering:auto;enable-background:accumulate" />
      <ellipse
         ry="0.94678968"
         rx="0.99412912"
         cy="130.55438"
         cx="140.59828"
         id="path932-37"
         style="color:#000000;clip-rule:nonzero;display:inline;overflow:visible;visibility:visible;opacity:1;isolation:auto;mix-blend-mode:normal;color-interpolation:sRGB;color-interpolation-filters:linearRGB;solid-color:#000000;solid-opacity:1;fill:#c8c4b7;fill-opacity:1;fill-rule:evenodd;stroke:#000000;stroke-width:0.3;stroke-linecap:round;stroke-linejoin:round;stroke-miterlimit:4;stroke-dasharray:none;stroke-dashoffset:0;stroke-opacity:1;paint-order:normal;color-rendering:auto;image-rendering:auto;shape-rendering:auto;text-rendering:auto;enable-background:accumulate" />
      <ellipse
         ry="0.94678968"
         rx="0.99412912"
         cy="115.78445"
         cx="164.83609"
         id="path932-59"
         style="color:#000000;clip-rule:nonzero;display:inline;overflow:visible;visibility:visible;opacity:1;isolation:auto;mix-blend-mode:normal;color-interpolation:sRGB;color-interpolation-filters:linearRGB;solid-color:#000000;solid-opacity:1;fill:#c8c4b7;fill-opacity:1;fill-rule:evenodd;stroke:#000000;stroke-width:0.3;stroke-linecap:round;stroke-linejoin:round;stroke-miterlimit:4;stroke-dasharray:none;stroke-dashoffset:0;stroke-opacity:1;paint-order:normal;color-rendering:auto;image-rendering:auto;shape-rendering:auto;text-rendering:auto;enable-background:accumulate" />
      <ellipse
         ry="0.94678968"
         rx="0.99412912"
         cy="117.77271"
         cx="164.55205"
         id="path932-22"
         style="color:#000000;clip-rule:nonzero;display:inline;overflow:visible;visibility:visible;opacity:1;isolation:auto;mix-blend-mode:normal;color-interpolation:sRGB;color-interpolation-filters:linearRGB;solid-color:#000000;solid-opacity:1;fill:#918a6f;fill-opacity:1;fill-rule:evenodd;stroke:#000000;stroke-width:0.3;stroke-linecap:round;stroke-linejoin:round;stroke-miterlimit:4;stroke-dasharray:none;stroke-dashoffset:0;stroke-opacity:1;paint-order:normal;color-rendering:auto;image-rendering:auto;shape-rendering:auto;text-rendering:auto;enable-background:accumulate" />
      <ellipse
         ry="0.94678968"
         rx="0.99412912"
         cy="119.6663"
         cx="164.36269"
         id="path932-89"
         style="color:#000000;clip-rule:nonzero;display:inline;overflow:visible;visibility:visible;opacity:1;isolation:auto;mix-blend-mode:normal;color-interpolation:sRGB;color-interpolation-filters:linearRGB;solid-color:#000000;solid-opacity:1;fill:#c8c4b7;fill-opacity:1;fill-rule:evenodd;stroke:#000000;stroke-width:0.3;stroke-linecap:round;stroke-linejoin:round;stroke-miterlimit:4;stroke-dasharray:none;stroke-dashoffset:0;stroke-opacity:1;paint-order:normal;color-rendering:auto;image-rendering:auto;shape-rendering:auto;text-rendering:auto;enable-background:accumulate" />
      <ellipse
         ry="0.94678968"
         rx="0.99412912"
         cy="121.31475"
         cx="164.45737"
         id="path932-73"
         style="color:#000000;clip-rule:nonzero;display:inline;overflow:visible;visibility:visible;opacity:1;isolation:auto;mix-blend-mode:normal;color-interpolation:sRGB;color-interpolation-filters:linearRGB;solid-color:#000000;solid-opacity:1;fill:#c8c4b7;fill-opacity:1;fill-rule:evenodd;stroke:#000000;stroke-width:0.3;stroke-linecap:round;stroke-linejoin:round;stroke-miterlimit:4;stroke-dasharray:none;stroke-dashoffset:0;stroke-opacity:1;paint-order:normal;color-rendering:auto;image-rendering:auto;shape-rendering:auto;text-rendering:auto;enable-background:accumulate" />
      <path
         sodipodi:nodetypes="ccccccc"
         inkscape:connector-curvature="0"
         id="path1069"
         d="m 164.52431,122.31058 -2.17761,2.84037 c 0.52326,3.29188 1.70824,4.93356 2.74569,7.00624 0.72396,-2.17953 1.63765,-4.16933 1.89358,-6.81689 -2.08508,0.98079 -3.28007,0.94432 -3.59781,-0.0947 1.51603,0.43061 2.58427,0.32386 2.84037,-0.75744 z"
         style="fill:#483e37;fill-rule:evenodd;stroke:#000000;stroke-width:0.3;stroke-linecap:round;stroke-linejoin:round;stroke-opacity:1;stroke-miterlimit:4;stroke-dasharray:none" />
      <path
         sodipodi:nodetypes="ccccccc"
         inkscape:connector-curvature="0"
         id="path1069-6"
         d="m 140.70963,131.66663 -2.17761,2.84037 c 1.18327,3.12688 2.03289,4.8524 2.74569,7.00624 0.19263,-2.2858 0.91295,-4.31427 1.89358,-6.81689 -2.08508,-0.32675 -3.28007,0.60981 -3.59781,-0.0947 1.51603,-0.64657 2.58427,-0.0341 2.84037,-0.75744 z"
         style="fill:#483e37;fill-rule:evenodd;stroke:#000000;stroke-width:0.3;stroke-linecap:round;stroke-linejoin:round;stroke-opacity:1;stroke-miterlimit:4;stroke-dasharray:none" />
      <path
         sodipodi:nodetypes="ccccccc"
         inkscape:connector-curvature="0"
         id="path1069-1"
         d="m 135.5257,133.14087 c -0.28214,1.22412 -1.19186,2.05601 -2.17761,2.84037 0.52326,3.29188 1.70824,4.93356 2.74569,7.00624 0.72396,-2.17953 1.63765,-4.16933 1.89358,-6.81689 -2.01592,0.6811 -1.85487,0.36978 -2.35927,0.0727 1.16672,0.0508 1.10873,-0.29342 1.30056,-0.62354 -0.96045,-0.46428 -0.94269,-1.68111 -1.40295,-2.47885 z"
         style="fill:#483e37;fill-rule:evenodd;stroke:#000000;stroke-width:0.3;stroke-linecap:round;stroke-linejoin:round;stroke-opacity:1;stroke-miterlimit:4;stroke-dasharray:none" />
      <path
         sodipodi:nodetypes="ccccccc"
         inkscape:connector-curvature="0"
         id="path1069-2"
         d="m 113.27614,118.37095 c -0.66797,1.1205 -1.42245,1.98145 -2.17761,2.84037 0.8076,3.00754 1.92704,4.71476 2.74569,7.00624 1.26994,-2.99849 1.82568,-6.43968 1.13614,-7.66903 -0.13775,1.96111 -2.74136,1.94192 -3.48014,0.86363 1.51603,0.43061 3.22404,0.21767 3.48014,-0.86363 z"
         style="fill:#483e37;fill-rule:evenodd;stroke:#000000;stroke-width:0.3;stroke-linecap:round;stroke-linejoin:round;stroke-opacity:1;stroke-miterlimit:4;stroke-dasharray:none" />
    </g>
    <flowRoot
       xml:space="preserve"
       id="flowRoot1120-57"
       style="font-style:normal;font-variant:normal;font-weight:normal;font-stretch:normal;font-size:18.66666794px;line-height:100%;font-family:'Times New Roman';-inkscape-font-specification:'Times New Roman, ';text-align:center;letter-spacing:0px;word-spacing:0px;text-anchor:middle;fill:#000000;fill-opacity:1;stroke:none;stroke-width:1px;stroke-linecap:round;stroke-linejoin:round;stroke-opacity:1"
       transform="matrix(0.26458333,0,0,0.26458333,3.524948,-53.734096)"><flowRegion
         id="flowRegion1122-3"
         style="font-style:normal;font-variant:normal;font-weight:normal;font-stretch:normal;font-size:18.66666794px;line-height:100%;font-family:'Times New Roman';-inkscape-font-specification:'Times New Roman, ';text-align:center;text-anchor:middle;stroke-linecap:round;stroke-linejoin:round"><rect
           id="rect1124-2"
           width="227"
           height="70"
           x="64"
           y="579.51971"
           style="font-style:normal;font-variant:normal;font-weight:normal;font-stretch:normal;font-size:18.66666794px;line-height:100%;font-family:'Times New Roman';-inkscape-font-specification:'Times New Roman, ';text-align:center;text-anchor:middle;stroke-linecap:round;stroke-linejoin:round" /></flowRegion><flowPara
         style="font-style:normal;font-variant:normal;font-weight:normal;font-stretch:normal;font-size:18.66666794px;line-height:100%;font-family:'Times New Roman';-inkscape-font-specification:'Times New Roman, ';text-align:center;text-anchor:middle;stroke-linecap:round;stroke-linejoin:round"
         id="flowPara1211">Самоотверженный Хат</flowPara></flowRoot>    <flowRoot
       xml:space="preserve"
       id="flowRoot1120-57-3"
       style="font-style:normal;font-variant:normal;font-weight:normal;font-stretch:normal;font-size:18.66666794px;line-height:100%;font-family:'Times New Roman';-inkscape-font-specification:'Times New Roman, ';text-align:center;letter-spacing:0px;word-spacing:0px;text-anchor:middle;fill:#000000;fill-opacity:1;stroke:none;stroke-width:1px;stroke-linecap:round;stroke-linejoin:round;stroke-opacity:1"
       transform="matrix(0.26458333,0,0,0.26458333,99.662477,-5.5314326)"><flowRegion
         id="flowRegion1122-3-1"
         style="font-style:normal;font-variant:normal;font-weight:normal;font-stretch:normal;font-size:18.66666794px;line-height:100%;font-family:'Times New Roman';-inkscape-font-specification:'Times New Roman, ';text-align:center;text-anchor:middle;stroke-linecap:round;stroke-linejoin:round"><rect
           id="rect1124-2-9"
           width="208.78168"
           height="66.963623"
           x="64"
           y="579.51971"
           style="font-style:normal;font-variant:normal;font-weight:normal;font-stretch:normal;font-size:18.66666794px;line-height:100%;font-family:'Times New Roman';-inkscape-font-specification:'Times New Roman, ';text-align:center;text-anchor:middle;stroke-linecap:round;stroke-linejoin:round" /></flowRegion><flowPara
         style="font-style:normal;font-variant:normal;font-weight:normal;font-stretch:normal;font-size:18.66666794px;line-height:100%;font-family:'Times New Roman';-inkscape-font-specification:'Times New Roman, ';text-align:center;text-anchor:middle;stroke-linecap:round;stroke-linejoin:round"
         id="flowPara1145">Боевое знамя Ангары, баронессы Краснобуря</flowPara></flowRoot>  </g>
</svg>
