<?xml version="1.0" encoding="UTF-8" standalone="no"?>
<!-- Created with Inkscape (http://www.inkscape.org/) -->

<svg
   xmlns:dc="http://purl.org/dc/elements/1.1/"
   xmlns:cc="http://creativecommons.org/ns#"
   xmlns:rdf="http://www.w3.org/1999/02/22-rdf-syntax-ns#"
   xmlns:svg="http://www.w3.org/2000/svg"
   xmlns="http://www.w3.org/2000/svg"
   xmlns:sodipodi="http://sodipodi.sourceforge.net/DTD/sodipodi-0.dtd"
   xmlns:inkscape="http://www.inkscape.org/namespaces/inkscape"
   width="210mm"
   height="297mm"
   viewBox="0 0 744.09448819 1052.3622047"
   id="svg2"
   version="1.1"
   inkscape:version="0.92.3 (2405546, 2018-03-11)"
   sodipodi:docname="pic_MitchoeOldBook.svg">
  <defs
     id="defs4" />
  <sodipodi:namedview
     id="base"
     pagecolor="#ffffff"
     bordercolor="#666666"
     borderopacity="1.0"
     inkscape:pageopacity="0.0"
     inkscape:pageshadow="2"
     inkscape:zoom="0.77714959"
     inkscape:cx="529.54042"
     inkscape:cy="586.70507"
     inkscape:document-units="px"
     inkscape:current-layer="layer1"
     showgrid="false"
     inkscape:window-width="1366"
     inkscape:window-height="703"
     inkscape:window-x="0"
     inkscape:window-y="0"
     inkscape:window-maximized="1"
     objecttolerance="1"
     guidetolerance="1" />
  <metadata
     id="metadata7">
    <rdf:RDF>
      <cc:Work
         rdf:about="">
        <dc:format>image/svg+xml</dc:format>
        <dc:type
           rdf:resource="http://purl.org/dc/dcmitype/StillImage" />
        <dc:title />
      </cc:Work>
    </rdf:RDF>
  </metadata>
  <g
     inkscape:label="Layer 1"
     inkscape:groupmode="layer"
     id="layer1">
    <path
       style="opacity:1;fill:#916f6f;stroke:none;stroke-width:1.0629921;stroke-miterlimit:4;stroke-dasharray:none;stroke-opacity:1"
       d="m 424.6388,781.9102 c -5.96035,-13.28933 -44.33717,-24.97809 -30.94583,-26.4933 2.54703,-0.28819 7.09506,0.84367 14.29234,-1.92435 11.92135,-18.93719 -54.77741,-53.33794 -31.06274,-50.13821 28.90462,20.42867 38.53306,14.06647 16.6993,-13.0627 -14.10048,-22.5741 -41.18154,-37.4841 -53.15828,-58.95134 25.9517,16.85302 48.50182,39.31787 73.18825,58.38604 12.25242,8.74393 26.94921,21.4449 41.35712,24.55933 6.52529,1.41052 10.84458,-0.48705 9.04645,3.79204 0.80126,4.1712 2.49861,8.79264 7.28249,14.28131 2.60581,2.98973 -0.64481,8.03928 -3.19122,11.51107 -8.66288,11.81102 -22.05608,26.38428 -26.99956,37.36507 -2.94167,10.4968 -12.08781,8.16074 -16.50832,0.67504 z m 15.47055,-28.9964 c 2.97605,-7.12707 5.37235,-11.53091 7.23683,-13.70046 5.10086,-5.9355 -17.05441,-16.25383 -14.77988,-10.88589 2.26966,5.35645 -2.74506,6.2277 -3.81166,11.52081 3.79609,1.55873 8.12373,20.47061 11.35471,13.06554 z m -265.80176,15.98528 c 17.76011,-33.31848 25.28178,-71.16822 41.56984,-104.71129 -2.87667,24.60114 -12.34928,56.34749 -15.22565,83.30698 -11.26397,3.66044 -17.32979,17.2311 -26.34419,21.40431 z m 337.55466,-18.08891 c -11.85906,-2.13189 -38.07753,-10.87331 -29.92579,-15.43751 2.79201,-1.56326 5.50485,-5.47816 8.69629,-12.31487 4.56163,-18.38718 9.47332,-29.38302 8.88456,-2.72948 9.29334,25.65268 47.64869,26.41895 67.61589,12.95027 14.4528,-7.75697 15.6231,-31.13062 7.5766,-30.6951 -10.9982,0.59531 -2.962,-4.47529 -1.9899,-4.11012 28.0167,-17.32197 -45.6072,-6.32698 -4.1987,-15.98538 16.0609,-3.4784 40.3772,-19.91836 29.4505,-27.44494 -7.1653,-4.93563 -5.357,-7.66836 -12.6926,-10.2901 -12.6648,-4.86564 -9.3805,-10.47059 0.2576,-7.99148 2.1124,0.54335 4.8938,0.52438 6.7186,2.17905 9.734,8.82617 19.1977,9.91335 18.9989,-0.67567 -1.3581,-23.96023 14.5184,5.90994 4.6645,19.70973 -2.3713,3.32084 -4.5418,6.31308 -9.4264,6.28719 -23.2506,20.52445 -3.5103,62.97459 -35.1062,79.11232 -17.893,10.39246 -39.7179,7.18843 -59.52385,7.43609 z M 168.85818,693.96371 c -32.39355,-3.2545 -6.94661,-69.05241 9.95945,-35.1958 7.89333,15.80743 -5.75172,11.31498 -10.23506,3.81349 -22.35351,18.02062 28.05826,28.59695 17.80103,-2.71449 -5.78549,-26.84918 22.14418,-32.88772 34.36649,-46.24871 -27.00133,-17.46052 5.95227,-59.07687 18.61942,-46.34572 -41.45157,12.02243 13.53336,46.728 -12.29716,63.72978 -29.76227,-2.34752 -25.97527,36.5495 -35.92455,54.52903 -4.0139,7.25359 -14.21487,9.24367 -22.28962,8.43242 z m 153.18069,-8.08885 c -21.05288,-15.88239 15.78672,-39.15518 -3.82324,-58.43913 0.97323,-15.59608 32.95145,-51.3753 15.07454,-15.98442 -10.21719,20.22695 16.09602,38.56729 -6.63822,58.2613 4.70005,25.0466 16.99759,-20.66798 15.88053,9.20784 -0.277,7.40831 -14.79275,11.25517 -20.49361,6.95441 z m 85.40814,-4.59355 c 1.48752,-2.14889 0.72976,2.20531 0,0 z m 127.12879,-4.63739 c -2.8563,-7.03483 2.3421,-11.24793 8.0205,-19.37378 7.3788,-10.55915 15.0171,-28.04967 16.1281,-40.73574 0.5495,-6.27497 2.9951,-3.80108 4.0466,-4.92851 3.5786,20.57878 18.5953,14.75951 31.889,3.92505 8.0357,-6.54909 16.7767,-8.03148 25.2882,-5.66253 -0.9518,-37.45775 9.6907,-18.25389 5.8542,6.02108 -10.8734,22.52739 -45.0641,11.59462 -65.6599,15.37577 -6.0293,13.86029 -9.7983,40.74171 -25.5667,45.37866 z M 280.16737,652.82845 c -10.72129,-14.60405 1.05688,-16.30899 6.43727,-10.71715 -13.3247,-20.88352 -6.32261,-47.07041 23.06898,-43.06573 27.01974,-16.74393 -5.09052,16.38518 -18.18693,12.04747 -2.58792,13.91311 20.96033,43.33135 -11.31932,41.73541 z m 150.78155,-1.14337 c 4.09849,-29.03794 -10.49416,-61.00522 5.07254,-87.67837 10.01736,-27.19568 78.83155,-18.00361 42.4165,10.68392 -35.63197,1.88179 -43.66694,38.69888 -42.85692,67.93293 -1.80646,2.22407 -0.71267,10.5528 -4.63212,9.06152 z m 44.45386,-86.85088 c 7.43155,-20.91659 -21.49584,9.39312 0,0 z m -7.93527,82.26687 c 29.03913,-52.35226 42.46669,-115.97548 28.61326,-175.07323 15.66803,9.74831 22.3,34.60548 41.36043,42.24159 -12.4941,47.90068 -39.4048,90.4752 -67.2464,130.77821 z m 18.09663,-2.26349 c 21.1858,-28.53329 36.32398,-61.42123 50.31256,-94.30448 8.7455,-11.80653 34.7554,-39.22589 36.0815,-39.17634 -3.2386,31.81072 -12.3082,62.72069 -35.8743,85.61212 -14.79001,17.74981 -33.54463,35.32862 -50.51976,47.8687 z M 367.03119,630.70964 c -25.77386,-4.88727 -20.16618,-62.85305 -11.42187,-20.53117 4.74442,22.96265 43.13234,1.23582 21.77716,-2.7237 -12.98741,16.00439 -7.26084,-23.49838 10.5037,-6.29364 14.46045,14.00477 -2.32135,33.06364 -20.85899,29.54851 z M 141.98408,567.43595 c -24.01734,3.02339 -18.58841,37.92301 -3.81386,52.76918 -29.05377,-8.57403 -30.18393,-60.02718 3.88463,-66.20002 35.03747,-6.3484 48.47149,28.36954 29.4078,51.48132 26.44669,14.18281 14.40969,-34.50377 17.75193,-50.02302 3.08802,-14.33883 32.55017,-28.70431 12.35905,-7.0352 -18.09897,19.42381 19.92838,69.25598 -22.68924,74.57563 -62.01693,8.04975 33.34427,-64.41054 -36.90031,-55.56789 z m 383.39262,53.00583 c 23.7221,-20.8189 45.8142,-45.28777 55.7128,-75.82243 9.5883,-10.82269 17.5592,-10.36819 14.016,-8.3707 -8.0215,4.52212 -15.921,36.10442 6.5439,30.7164 5.5014,-3.77392 13.9125,-5.82873 18.9796,-11.64947 6.7409,-7.7435 22.8978,6.25006 5.3913,14.85535 -4.5651,2.9108 -8.8354,8.48199 -9.0783,13.75632 -0.4939,10.72657 -4.9807,13.10342 -14.1111,-1.53948 -31.4767,-15.99049 -50.7069,28.2724 -76.0969,38.95159 l -1.0877,0.0409 z M 143.04471,593.65369 c -23.55011,-20.51102 31.23471,-16.49932 4.27852,0.6059 z m 190.80933,-9.72287 c -30.95384,-12.39177 8.98971,-52.48367 30.41791,-32.27976 20.90417,19.70982 -12.75353,39.35135 -30.41791,32.27976 z m 16.89908,-10.03729 c -3.60683,-7.8069 -0.24127,-13.13219 -2.53753,-12.78488 -3.91827,0.59265 -10.55965,6.16661 -10.89707,7.97349 4.70279,-1.23928 10.06587,5.61664 13.4346,4.81139 z m 276.29768,4.28761 c 8.1523,-6.75037 15.6857,-15.08739 16.2663,-24.8643 0.2371,-3.99321 -0.2765,-8.88841 2.5653,-11.56618 3.8201,-3.59967 2.0983,-8.44429 0.1032,-13.07326 -5.6142,-31.16279 -25.3687,-9.64441 -33.2659,-10.82872 16.1843,-10.07477 17.2969,-30.90176 -2.9575,-13.00958 -13.4328,10.71544 -34.0555,21.55272 -10.5012,2.45047 9.7626,-5.97681 12.5932,-13.12414 16.7342,-17.60173 5.1955,-5.6177 2.1952,-11.09557 -0.2388,-16.38243 -4.1138,-8.93577 -8.2262,-18.27028 -5.6549,-26.2007 4.8614,10.53884 9.4392,21.421 16.795,30.31874 8.3076,10.04899 14.6601,20.33975 18.51,31.37487 2.8374,8.13304 7.5452,15.49994 10.266,23.82049 3.0656,5.24209 4.0747,10.0873 6.5262,13.865 3.3629,5.18219 -0.7922,10.71366 -2.8286,12.68284 -8.2399,7.96808 -20.7871,15.67668 -32.3193,19.01449 z m -352.25699,-4.78676 c -21.47383,-11.5204 -39.66132,-30.28223 -58.86148,-45.00928 -16.39295,-17.39448 -10.67855,-46.13929 -24.13685,-66.08605 -12.64224,-31.29407 16.85883,-57.57327 15.44459,-88.79293 -10.2401,-20.80958 4.3514,-43.18001 18.81959,-18.02358 17.75151,21.62567 41.89607,37.49921 58.22875,60.66353 -19.47363,-2.52124 -37.65,-39.35206 -63.72428,-36.92687 -6.71543,27.99252 -43.33687,57.10318 -17.94553,85.23461 16.5989,24.28005 -2.62324,66.04966 37.54367,74.20028 13.16575,7.29983 38.73244,41.67539 49.27221,21.33542 -23.10003,-9.19869 -41.42393,-28.18191 -51.75593,-50.40243 14.0717,10.67347 47.68525,42.56924 64.77871,24.31009 9.43438,23.14737 0.57121,44.82145 -27.66345,39.49721 z M 106.00353,547.47849 c -23.362232,-7.04763 7.46273,-36.83457 -2.55224,-10.34994 25.04357,10.24865 17.8393,-18.32058 -2.04718,-24.5793 -31.443966,-9.89611 -5.096639,-71.35722 23.81468,-52.89121 10.54703,6.73651 -1.44404,27.53297 20.29157,15.96279 30.41227,-16.18889 2.95348,66.68131 25.00976,48.10378 -5.25518,-16.75962 8.90263,-24.45828 -5.49369,-43.63676 -10.35001,-13.78808 28.4885,-24.22077 11.28617,-3.39552 4.65217,14.26041 17.52762,24.33923 5.14646,39.90958 19.15549,41.918 -42.54454,30.84529 -29.61884,-8.74341 6.72481,-20.59667 -10.38607,-26.77964 -19.91106,-12.51964 -10.20873,15.28365 -12.95813,-45.12201 -28.76923,-18.71275 -19.390034,32.38714 52.33099,29.06789 22.68299,62.73966 -5.38506,6.11591 -12.4133,10.35293 -19.83939,8.11272 z M 335.45161,541.926 c -13.70795,-5.37463 -9.52493,-44.60156 -4.73625,-41.16815 7.75645,5.56127 3.00493,-2.38568 2.29756,-3.33528 -9.9248,-5.58863 -10.70506,-37.44459 9.20185,-37.27907 41.44501,-14.32127 38.03349,35.01281 31.15656,60.37934 -5.33434,19.20983 -18.85935,25.63428 -37.91972,21.40316 z m 7.15055,-3.45732 c 9.60397,-19.36845 13.928,-59.79525 1.21161,-72.20943 -1.99994,23.6195 0.49069,50.35032 -1.21161,72.20943 z m 18.29286,-2.81189 c 2.02631,-9.48625 -3.76189,-19.93418 2.41823,-18.54909 1.35273,0.30317 0.60982,-5.31478 -0.3217,-4.18879 -3.00998,3.63835 -1.40616,-7.02572 -1.43008,-15.41869 -0.46233,-6.02721 2.13868,-6.72767 5.23544,-5.85902 1.16059,0.32554 1.05328,-2.80657 0.13366,-3.7717 -4.82933,-5.0683 -3.6288,-11.27196 -6.81095,-18.54105 -1.66018,19.07177 -10.01168,53.2873 0.7754,66.32834 z m 181.59448,-9.09011 c 3.7281,-3.64555 3.4078,-7.90591 5.6201,-9.89834 11.2772,-10.15648 -35.1629,-21.06123 -22.9205,-26.67451 20.5487,9.44219 45.2743,6.47228 50.6935,-14.05655 -0.5807,19.65518 -15.0508,44.62926 -33.3931,50.6294 z m -313.54119,-4.2353 c -19.10796,-17.64573 0.82104,-49.68413 -18.97428,-68.53391 -13.49636,-25.02292 18.51815,-65.75934 44.26034,-43.36246 14.30931,5.37273 36.0532,28.60164 7.1225,23.45962 -14.67372,14.29803 -27.6968,4.22674 -13.63463,-12.75929 -40.7985,2.46733 -13.1304,41.73365 -18.20756,65.00391 -10.5438,7.17996 11.21019,43.61923 -0.56637,36.19213 z m 53.33034,0.15183 c -22.96773,-13.04886 -55.10768,-21.83713 -39.72672,-56.43735 8.61074,-17.11033 54.05601,-41.53685 40.61216,-3.01118 -10.11794,6.8862 -42.3773,25.78755 -11.20482,16.78638 12.50893,-1.47644 32.62373,-25.45245 14.84868,1.19081 -14.70949,10.537 9.22048,45.31361 -4.5293,41.47134 z m 126.91498,-21.90099 c -41.28589,-14.22276 31.6193,-52.08697 -0.86369,-75.45058 -33.29543,-23.62569 21.87784,0.19262 17.72021,20.25085 -0.91501,15.10364 -34.41104,53.08006 -4.96171,47.81212 13.21442,-2.36382 -2.12638,10.75278 -11.89481,7.38761 z M 301.89117,485.79826 c 24.40504,-9.70062 -15.5556,-35.2499 -13.71764,-51.69521 1.45081,-12.98129 24.61374,-23.50483 13.26043,-38.39215 -9.07846,-21.00181 18.87419,14.05829 2.59475,29.67978 -17.7411,17.02407 37.03495,53.77878 -1.25421,73.709 -13.1899,6.86559 -4.45846,-41.69938 -0.88333,-13.30142 z m 250.32893,2.11678 c -13.5752,0.88363 -26.8209,-9.04958 -38.2895,-19.73572 -12.53976,-11.68421 -31.18016,-6.8549 -36.30385,-1.04787 9.76776,-10.12831 24.01959,-13.14571 34.16352,-8.87341 5.94588,2.50422 11.41465,10.60021 12.07913,9.0799 2.4376,-5.57727 3.8618,-3.15006 5.5538,-4.64589 -0.5258,13.91526 8.8962,16.79945 8.8945,12.27305 0,-9.03169 1.1229,-22.57836 7.2495,2.61547 4.7047,-1.15909 6.2587,2.75949 6.3807,0.44644 0.093,-1.76486 2.6523,-9.92028 -1.5641,-15.205 -3.8795,-4.86236 -18.5572,-2.34302 -25.0071,-3.30543 -14.43482,-3.01292 -44.03466,-21.90344 -12.58773,-8.07785 22.34593,10.67841 61.08533,-8.21477 72.75203,14.54852 -28.3579,-13.02609 -28.1539,19.86377 -22.2142,21.18319 l -11.1067,0.74463 z M 78.691545,465.93135 c -25.13258,-6.16906 -21.159208,-59.554 7.12904,-43.43192 30.514335,17.39077 10.77125,-49.83055 44.057265,-26.66795 -0.64846,13.29257 2.2782,42.30626 11.00236,13.39709 9.06276,-34.66877 44.55905,-5.14847 21.6145,16.88385 -18.76832,18.02213 1.50515,27.77458 13.40437,16.90422 -7.68739,29.10329 -50.99439,10.69612 -26.40106,-12.03565 11.44314,-10.57697 8.80685,-38.22261 -0.16475,-13.47441 -4.52895,38.89921 -37.13962,11.24197 -32.21404,-10.38329 0.1206,19.03775 -7.9182,31.07949 -32.599755,25.73792 -22.767545,-4.92734 -5.56032,26.3017 -5.82793,33.07014 z M 326.61539,453.90531 c -25.77855,-2.6741 0.80895,-35.861 18.32278,-29.87718 21.3571,-14.6277 76.04107,17.5271 35.40367,26.75832 -16.38693,3.72247 -35.5739,5.00189 -53.72645,3.11886 z m 3.7028,-11.19798 c 6.7228,-5.90008 -9.31844,-1.6911 0,0 z m 28.61455,-0.6191 c 16.61916,-13.5588 -33.74948,-0.15911 -3.60449,0.718 z m 22.98069,-2.49049 c 3.54981,-11.78484 -13.71675,4.07372 0,0 z m 72.13241,5.17255 c 0.75356,-7.3493 12.19367,-7.91863 16.45948,-9.71808 2.47483,-1.04397 -6.80318,-0.58661 -4.98905,-9.83925 9.79645,-3.23258 22.38942,-2.03371 20.56543,-4.69736 -1.4359,-2.0969 -7.62364,-5.66987 -1.19207,-8.76319 27.71298,-1.52579 66.86407,-10.77053 84.17697,16.87009 3.0416,7.61512 3.8708,15.87141 0.5493,14.53201 -4.3112,-1.73853 -12.839,-4.01428 -22.3297,-3.23316 -9.4925,0.78127 -18.98,2.58587 -26.81932,0.72281 -2.87631,-0.68031 11.09622,0.68297 23.45272,-3.53859 11.5795,-3.95606 21.7312,-1.80261 22.8677,-1.26952 2.8069,1.31656 -0.7731,-7.1304 -8.26,-13.58815 -16.718,-7.19893 -34.4735,-7.00317 -47.35845,2.79485 -12.04366,9.1583 -23.93656,23.32153 -42.0674,20.36843 -5.02045,-0.0662 -10.07147,0.13589 -15.05561,-0.64089 z m 153.51976,-5.25921 c -24.4005,-33.01397 -69.825,-55.04003 -110.36659,-39.28697 -12.83395,-12.95289 21.61522,-17.39437 35.97559,-20.44801 2.8789,-0.61218 -2.8461,-2.95179 -6.3398,-5.5868 11.9005,-6.5259 36.5304,8.11208 38.9954,9.91628 2.6599,1.94678 1.3292,-2.99195 1.5177,-8.05417 11.7757,4.85126 22.2935,12.85517 25.4525,22.95719 0.8688,2.77802 6.3722,-1.3592 8.0703,0.55462 3.5674,4.02056 3.8178,13.40721 3.6119,19.94794 3.0022,-3.33074 5.1743,-7.98602 2.1473,-14.12111 -5.4639,-11.07448 3.1906,-25.19553 -2.5597,-35.62501 -5.8029,-10.52499 -16.7403,-19.54562 -26.7995,-26.67145 -16.078,-13.86414 13.303,-0.38405 23.703,10.15522 2.5807,2.61532 0.055,-9.93053 -2.812,-15.1432 -0.3344,-22.0104 -21.237,-49.13094 -21.3711,-63.32341 26.5351,32.35656 33.7395,74.82123 40.4959,115.05022 1.4326,6.9938 3.794,9.68888 5.4071,11.56648 3.4169,3.97711 0.7683,12.81577 -4.2588,15.54976 -6.4877,3.52834 -9.1847,17.75742 -8.8308,23.17297 0.1905,2.9138 -1.9825,-2.95825 -2.0384,-0.61055 z m -229.345,-29.94497 c -16.36523,-26.70167 22.30297,-49.28191 32.31327,-15.71947 36.76147,17.93413 -28.78215,-46.1441 11.50936,-44.77274 11.86686,0.4039 47.88945,7.57253 21.62256,-6.91766 -25.18983,-13.89602 -15.69871,-54.29638 18.011,-36.07848 19.2553,10.40623 -8.78467,-42.79127 24.89444,-48.0013 26.06587,-4.03229 23.03552,29.2783 38.79317,29.20976 18.58946,-0.0809 3.46914,-55.32277 41.5868,-44.74258 19.07892,5.29567 33.46592,26.31605 25.7142,42.62036 -1.2287,-30.2103 -54.60965,-49.99311 -48.6862,-2.89083 3.70279,29.44397 -43.20558,12.00875 -43.18876,-12.1106 -43.46202,-9.37252 0.54237,79.60067 -26.42762,52.78677 -14.14428,-14.06243 -51.13037,-8.2299 -26.21927,8.26164 33.01774,21.85827 23.8851,48.06879 -16.61318,33.43686 -31.00696,-11.20274 28.52199,41.4896 -6.21843,46.31551 -25.02478,3.47628 -34.81998,-52.51757 -47.09134,-1.39724 z m -16.57445,-1.09157 c -19.36273,-23.17228 -1.22364,-44.75059 14.63241,-59.63572 -1.8265,-36.5513 -56.41007,8.26546 -53.46004,-33.60701 -0.13814,-30.91527 34.82123,-42.51127 58.46956,-30.19308 8.56804,-10.5573 -26.6865,-40.43076 9.30961,-54.42969 7.73956,-3.00992 59.72265,-12.02185 33.90638,-39.47256 -24.73451,1.41317 -32.71091,-22.38011 -35.0134,-39.22176 -33.57112,12.05455 -57.97423,-53.103593 -16.42726,-51.976938 19.82614,0.537638 29.28007,19.728988 48.51424,0.348638 16.22304,-16.346331 23.11547,42.43594 54.60007,32.73142 -21.28218,15.24128 -40.97538,-2.46958 -50.81552,-21.07703 -14.01956,8.40845 -24.85167,8.80066 -45.17564,-0.30474 -37.66404,-16.873961 -16.64311,45.33294 18.61578,28.99995 15.36539,-7.11771 -7.13505,40.58065 29.94858,38.90513 24.26591,-1.09638 14.54578,50.84511 -8.0145,54.88123 -29.41224,5.26196 -37.96154,16.43513 -25.19393,45.65224 16.67298,38.15407 -58.01232,-8.00823 -62.59328,31.47219 2.37192,32.64565 47.5302,-10.0974 55.51055,30.02377 7.36395,37.02222 -41.422,20.86048 -27.94735,55.49657 0.83873,-0.89889 6.18313,17.20578 1.13374,11.40739 z m -33.62191,-2.41588 c -9.71016,-16.98047 -3.08206,-71.51147 -30.32132,-33.92819 -29.85325,23.13277 -57.82078,-23.17003 -24.16503,-40.33315 -15.49111,12.82905 -53.70224,-11.66352 -25.98713,-29.84415 24.53795,-4.12441 21.74621,-18.37432 0.23773,-22.78966 -2.22496,-12.92506 -23.29717,-38.94668 -16.4138,-9.35959 16.43956,35.53061 -32.23841,62.94487 -52.12185,28.21307 -32.4727,-7.6712 5.70896,17.3549 15.8303,22.63989 18.50779,23.96487 -29.46674,45.48761 -29.75863,16.18516 21.33641,24.69671 35.31735,-18.81757 0.11678,-18.09292 -33.25046,-20.84873 18.82726,-52.66391 31.21379,-17.71153 31.88041,15.47436 29.38619,-28.56368 19.02166,-46.10729 5.78348,-32.53208 41.6644,-1.10797 40.27943,18.08328 28.02282,0.62415 29.68707,35.22864 0.49144,33.91205 -22.87837,15.941 13.32363,21.38804 24.43953,10.82859 31.9869,11.58384 -39.71961,38.55835 1.6972,49.14232 17.79565,-0.59575 30.10085,-41.92411 47.87162,-12.14106 5.44196,15.91519 -7.75448,41.23208 -2.43172,51.30318 z M 75.300895,405.92993 c -32.678802,-14.8029 -0.93482,-46.3566 13.81616,-59.43446 -6.67036,-42.05897 52.400585,-21.108 23.970435,9.39819 -17.424496,18.69687 23.50084,27.70844 18.94383,-0.58585 -5.0002,-31.04602 34.53176,4.75675 16.88748,4.15502 -13.42407,-21.06225 -4.29488,38.33024 -34.97354,23.62458 -29.753595,-14.26224 6.56045,-44.87309 -9.72056,-53.27563 -12.672675,12.34569 -6.540215,37.14397 -29.933225,43.63318 -11.04078,32.48311 26.525855,16.24065 13.12047,4.13433 23.853175,4.93024 3.580278,35.45853 -12.11105,28.35064 z M 169.1747,390.65539 c -36.36435,-19.20998 22.59692,-48.40113 20.2737,-12.65482 1.65412,10.98508 -11.5799,14.14604 -20.2737,12.65482 z m 7.27416,-10.03119 c 11.22612,-25.04041 -18.31298,-3.54393 0,0 z M 400.6658,337.59607 c -23.81599,-19.78834 18.49524,-37.32083 12.35468,-56.94969 -7.27179,-23.24495 17.29459,-40.68549 31.0944,-29.82656 -7.94663,-30.72362 25.00261,-39.48664 46.86305,-30.66608 -2.38497,-16.19659 -55.04488,-22.84779 -26.37573,-52.53654 20.21871,-20.93778 54.12606,-26.54062 76.4583,-8.42375 18.58896,15.08016 17.1458,44.1077 -2.344,56.202 5.2014,19.3806 -28.41209,37.89867 -9.8932,14.59519 -6.16278,-24.80346 30.26451,-35.84968 2.5338,-63.29996 -13.06589,-12.93376 -41.48434,-3.02263 -44.7664,-1.99755 -21.67541,6.76982 -25.25273,15.62584 2.99042,33.09578 23.79335,14.71749 14.11797,45.36692 -17.80702,33.68726 -27.10919,-9.91782 -16.96488,13.70622 -15.42781,29.96753 1.65753,17.53576 -6.24085,12.90946 -19.788,1.76372 -25.07506,-20.63017 -3.69778,33.28853 -25.59869,45.47507 -27.13459,15.09877 12.12922,41.68573 -10.2938,28.91358 z M 296.07604,317.86805 c -20.37313,-12.87787 6.81482,-33.42291 6.82374,-16.34312 0.81855,-18.09869 -19.8726,-63.74131 17.58244,-52.53197 22.35857,6.69135 -16.44622,-24.64936 0.83511,-42.00623 29.67223,-29.80193 -39.07328,10.38512 -34.29192,-24.66532 5.46712,-40.07754 -51.79442,-2.1456 -47.64171,-38.27213 0.97414,-8.47455 29.26838,-29.07791 5.25515,-19.33412 -6.37993,21.60637 -38.48467,36.14742 -51.2189,23.79165 37.10182,17.15232 32.19502,-42.10826 64.51699,-36.69521 30.60189,5.12498 -12.80971,24.45212 -8.93887,34.4126 7.64762,19.67893 48.51548,-6.96843 46.79386,33.81618 -0.86527,20.49804 71.26681,-9.50358 46.38569,21.34668 -24.73617,30.67054 26.25755,71.51612 -14.08869,61.8471 -43.89547,-10.5196 -4.12349,30.83294 -15.01231,46.28481 -3.61054,5.12357 -10.89946,12.2056 -17.00058,8.34908 z M 81.707655,313.11973 c -22.579041,-23.89933 12.713301,-43.55119 35.303385,-23.45405 33.79027,30.0613 1.70769,-42.18525 31.5749,-44.8345 10.15094,-0.9004 14.7816,33.3735 23.90641,9.33625 13.74945,-11.71488 -3.03739,32.95122 -18.65603,9.65869 -16.88833,-25.18604 3.58666,28.30392 -15.3555,41.32544 -23.73422,16.31575 -49.951275,-38.07899 -51.451535,-0.89906 22.441755,-5.88661 5.883552,20.72763 -5.32163,8.86723 z m 526.762745,-7.441 c 22.9215,-9.09688 19.21518,-29.11373 3.546,-48.09789 -9.96008,-12.06724 -33.1563,-27.10763 -3.2303,-15.47535 36.0285,-0.40097 43.0304,61.56898 6.169,63.57562 l -6.4847,-0.002 z m -413.75182,-18.6127 c -24.89993,-20.20042 31.36031,-31.48307 16.03356,-2.39749 -2.89441,5.49273 -11.80563,5.82746 -16.03356,2.39749 z m 8.29755,-7.86008 c -0.0312,-22.08337 -13.04452,7.23248 0,0 z m -101.40219,-9.88332 c -24.278758,-5.50154 10.54575,-40.40018 -1.1804,-9.26667 31.39973,3.0499 -5.723086,-39.2536 15.79412,-32.52584 19.72877,6.16858 11.86939,47.79356 -14.61372,41.79251 z m 168.29868,-9.69601 c -29.69409,-7.94707 14.19077,-66.58154 -21.86677,-51.10558 -24.12821,10.35587 -29.00918,-10.92197 -25.96624,-25.58542 -18.384,26.25352 -55.68617,17.66955 -61.47437,-9.21031 -36.14747,-7.76032 3.61482,-53.64296 26.66602,-61.72834 26.79847,-9.39976 45.55818,24.29998 14.12695,28.79737 24.31495,-18.20895 -10.82757,-23.19744 -25.88976,-9.58149 -14.9012,13.47042 -35.76985,42.28263 -2.15362,29.40834 11.19962,7.33938 -9.43292,36.73679 19.37162,27.99111 13.90485,-4.22182 50.48751,-37.74751 40.8043,-1.97229 -8.58115,31.70359 22.82864,-3.45777 37.1847,6.63777 20.10806,14.14049 -16.07814,71.8707 15.08283,55.77448 10.7171,-5.53592 12.91083,-33.98865 10.16289,-6.11368 -3.58272,10.78013 -13.62541,20.01286 -26.04855,16.68804 z m -85.91343,-20.69099 c -13.5212,-10.28844 -0.55606,-32.72181 -29.66199,-17.05766 -16.6431,8.95694 -21.49473,-40.89187 -38.93307,-10.61392 -3.14588,5.46215 -4.26092,-0.91348 -7.75798,13.35381 -25.856305,-9.23704 30.53178,-57.26359 36.15135,-28.5578 6.78111,34.63915 38.59722,-14.59519 42.57558,22.39958 3.43905,31.97968 17.21042,-38.63786 32.84978,-0.71816 0.25414,18.86573 -12.06549,-11.88615 -14.3587,10.97141 -1.20859,12.04664 -13.76177,15.62765 -20.86497,10.22274 z m 171.65644,-2.91154 c -35.52223,-15.76011 30.53715,-44.25676 19.89028,-7.95359 -2.21898,7.56618 -11.44249,11.70161 -19.89028,7.95359 z m 6.74971,-11.33649 c 4.77002,-18.67181 -15.8067,8.11323 0,0 z m 199.91496,10.05928 c 3.6455,-5.29228 -5.3698,-8.51315 7.0916,-14.76512 1.263,-20.43258 -9.8445,21.78124 -16.0828,-3.26082 -0.4527,-33.44032 43.192,-13.01241 29.7638,13.34985 -6.3347,-5.38032 -13.4125,8.5948 -20.7726,4.67609 z M 390.25521,210.86234 c 7.47701,-21.104 -47.05771,0.43377 -41.85072,-48.89431 -19.79895,-7.87028 -44.64613,4.4409 -56.96148,-24.01716 -14.61472,-33.77138 36.39533,-67.450162 52.25317,-33.00264 15.00551,32.59602 -45.84137,15.09199 -26.72366,10.03536 21.44115,19.98347 16.10622,-30.764754 -8.44186,-12.78344 -27.23667,19.95069 1.97186,57.18298 31.55554,47.85874 34.73973,-10.94934 4.55389,45.32919 39.83478,36.92989 14.03821,-3.58888 29.74101,25.11818 10.33423,23.87356 z M 356.8869,158.17552 c -0.77094,-0.90691 1.80166,2.11942 0,0 z m 153.7109,39.32297 c -33.25744,-19.01559 23.8189,-39.20267 19.6543,-7.97971 -3.6979,6.50006 -12.29182,12.77283 -19.6543,7.97971 z m 6.45946,-6.56063 c 12.03354,-21.16419 -16.78361,0.43704 0,0 z m -88.19591,-22.98404 c -29.35919,-10.105 15.16931,-45.17919 20.50952,-12.63616 1.36508,11.06826 -12.46075,13.95279 -20.50952,12.63616 z m 7.56812,-11.74925 c 9.05076,-15.87841 -14.47708,0.21511 0,0 z"
       id="path4147"
       inkscape:connector-curvature="0"
       sodipodi:nodetypes="cscccccscsscccsscccccccscccsccscsscscccsscccccssscscsscccsscsccccccccccccccccccccccccccsscssscscsscsccscscscccccccssscscccssccccsscsscssccccccccccccccscssscsccssssscsccccccccsscsscccsccccccccccccccccsccsscscssccscsscscsscccccccsccscsccscscssccccccccscsccsscsscsccccscscsscsscscccssscccsssssscscsssscccccsccssccssssscsccccccccccccccccccccscsscscccsccccccsccssccssssssscscssssccsssssssssscsscscsccccsssccscssssccscscsssscsssscsscssssscccccccccsscssccsscccccccccc" />
  </g>
</svg>
