<?xml version="1.0" encoding="UTF-8" standalone="no"?>
<!-- Created with Inkscape (http://www.inkscape.org/) -->

<svg
   xmlns:dc="http://purl.org/dc/elements/1.1/"
   xmlns:cc="http://creativecommons.org/ns#"
   xmlns:rdf="http://www.w3.org/1999/02/22-rdf-syntax-ns#"
   xmlns:svg="http://www.w3.org/2000/svg"
   xmlns="http://www.w3.org/2000/svg"
   xmlns:sodipodi="http://sodipodi.sourceforge.net/DTD/sodipodi-0.dtd"
   xmlns:inkscape="http://www.inkscape.org/namespaces/inkscape"
   width="210mm"
   height="297mm"
   viewBox="0 0 210 297"
   version="1.1"
   id="svg8"
   inkscape:version="0.92.3 (2405546, 2018-03-11)"
   sodipodi:docname="pic_PlantQi.svg">
  <defs
     id="defs2" />
  <sodipodi:namedview
     id="base"
     pagecolor="#ffffff"
     bordercolor="#666666"
     borderopacity="1.0"
     inkscape:pageopacity="0.0"
     inkscape:pageshadow="2"
     inkscape:zoom="0.76223306"
     inkscape:cx="339.13182"
     inkscape:cy="703.70555"
     inkscape:document-units="mm"
     inkscape:current-layer="layer1"
     showgrid="false"
     inkscape:window-width="1366"
     inkscape:window-height="703"
     inkscape:window-x="0"
     inkscape:window-y="0"
     inkscape:window-maximized="1"
     objecttolerance="1"
     guidetolerance="1"
     showguides="true" />
  <metadata
     id="metadata5">
    <rdf:RDF>
      <cc:Work
         rdf:about="">
        <dc:format>image/svg+xml</dc:format>
        <dc:type
           rdf:resource="http://purl.org/dc/dcmitype/StillImage" />
        <dc:title />
      </cc:Work>
    </rdf:RDF>
  </metadata>
  <g
     inkscape:label="Layer 1"
     inkscape:groupmode="layer"
     id="layer1">
    <path
       style="fill:#447821;fill-rule:evenodd;stroke:#000000;stroke-width:0.30000001;stroke-linecap:round;stroke-linejoin:round;stroke-miterlimit:4;stroke-dasharray:none;stroke-opacity:1"
       d="m 52.228387,81.52719 c 1.739269,-3.00779 3.167405,-6.093363 1.488697,-9.955647 l 0.27913,-0.814131 c 3.331583,-0.675229 5.256823,-2.327437 4.745214,-5.97804 l 0.837391,-1.000217 c 2.356569,-0.527916 2.279519,-2.788409 2.41913,-5.233694 11.990783,12.735388 4.944231,25.419088 -9.769562,22.981729 z"
       id="path874"
       inkscape:connector-curvature="0"
       sodipodi:nodetypes="ccccccc" />
    <path
       style="fill:#447821;fill-rule:evenodd;stroke:#000000;stroke-width:0.30000001;stroke-linecap:round;stroke-linejoin:round;stroke-miterlimit:4;stroke-dasharray:none;stroke-opacity:1"
       d="m 43.599917,23.266438 c 4.3072,1.84698 6.637639,0.564087 8.881875,-0.855292 l 1.102008,0.197376 c 2.606404,2.686075 5.814935,3.607965 9.473997,2.960624 l 1.398074,-0.559231 c 1.258481,2.992156 1.332474,6.467737 6.908122,7.467354 l 3.026415,0.06579 c 3.225401,-0.630586 5.260894,-2.55024 6.38179,-5.460706 l 1.052666,-0.592124 c 6.682406,2.676024 8.823876,-0.37348 11.645121,-2.565877 l 0.986875,0.263168 c 4.483353,3.163568 7.10621,1.209781 10.63898,-0.03854 L 71.499002,61.186946 Z"
       id="path884"
       inkscape:connector-curvature="0"
       sodipodi:nodetypes="cccccccccccccc" />
    <path
       style="fill:#447821;fill-rule:evenodd;stroke:#000000;stroke-width:0.30000001;stroke-linecap:round;stroke-linejoin:round;stroke-miterlimit:4;stroke-dasharray:none;stroke-opacity:1"
       d="m 124.52364,92.018707 c -3.57439,4.558422 -2.78203,8.215323 1.18425,11.020103 l -0.85529,1.01977 c -7.70783,-1.37939 -9.21574,2.05319 -6.38179,8.48712 l -1.31583,0.65792 c -12.67407,-2.44418 -10.37659,7.09217 -9.474,9.53979 -0.50825,-0.14625 -0.22102,0.94726 -0.67564,0.85912 -8.508998,-4.06868 -11.703624,3.96338 -12.745854,7.95696 C 71.516288,99.315869 95.019089,79.732339 124.52364,92.018707 Z"
       id="path866"
       inkscape:connector-curvature="0"
       sodipodi:nodetypes="ccccccccc" />
    <path
       style="fill:#447821;fill-rule:evenodd;stroke:#000000;stroke-width:0.30000001;stroke-linecap:round;stroke-linejoin:round;stroke-miterlimit:4;stroke-dasharray:none;stroke-opacity:1"
       d="m 86.92315,77.34717 c -2.296911,-0.503467 -2.59268,-3.118548 -0.262599,-5.460707 l -0.263168,-0.855292 c -4.189862,2.104491 -4.646491,1.059671 -2.894831,-4.079081 l -0.657918,-0.526333 c -4.07825,1.870389 -2.131845,-4.290144 -1.447415,-6.84233 -5.677396,6.660858 -9.433307,21.425907 5.525931,17.763743 z"
       id="path876"
       inkscape:connector-curvature="0"
       sodipodi:nodetypes="ccccccc" />
    <path
       style="fill:#2d5016;fill-rule:evenodd;stroke:#000000;stroke-width:0.30000001;stroke-linecap:round;stroke-linejoin:round;stroke-miterlimit:4;stroke-dasharray:none;stroke-opacity:1"
       d="m 79.676203,72.688064 c -0.49066,-0.01163 1.317405,-2.37066 3.050596,-5.991383 0.188966,-0.394759 1.46261,-1.410842 0.744348,0.186086 -1.330226,2.957521 -3.329727,6.642687 -3.329727,6.642687 0.39126,1.056403 3.711892,0.07114 6.255351,-2.451057 0.390431,-0.387168 0.99456,0.0078 0.372173,0.697827 -3.243739,3.59651 -6.54982,3.139445 -6.069263,2.637143 z"
       id="path872"
       inkscape:connector-curvature="0"
       sodipodi:nodetypes="csscsscc" />
    <path
       style="fill:#2d5016;fill-rule:evenodd;stroke:#000000;stroke-width:0.30000001;stroke-linecap:round;stroke-linejoin:round;stroke-miterlimit:4;stroke-dasharray:none;stroke-opacity:1"
       d="m 62.649253,76.595888 c -3.480117,-1.378095 -6.917968,-2.803153 -9.304343,-5.396518 -0.259413,-0.311296 0.173213,-0.903446 0.83739,-0.325655 3.177647,2.764346 10.331363,5.245775 10.141736,5.536086 0.04669,0.026 -5.050873,-7.032364 -5.62913,-12.18869 -0.09236,-0.823607 0.881838,-1.183233 0.930434,-0.372176 0.277742,4.635428 5.136615,11.585781 5.256956,11.537389 z"
       id="path870"
       inkscape:connector-curvature="0"
       sodipodi:nodetypes="ccscsscc" />
    <path
       style="fill:#2d5016;fill-rule:evenodd;stroke:#000000;stroke-width:0.30000001;stroke-linecap:round;stroke-linejoin:round;stroke-miterlimit:4;stroke-dasharray:none;stroke-opacity:1"
       d="m 95.970068,92.742417 c -0.556344,0.913994 17.018442,11.166733 29.474652,10.263493 1.3281,-0.0963 0.57093,0.94502 -0.52633,1.05267 -11.60449,1.13852 -31.320333,-10.238935 -29.73782,-10.526665 -1.849735,1.688884 12.77582,15.245805 23.55341,19.079575 0.93962,0.33424 -0.38802,1.1154 -1.18425,0.7895 -10.89547,-4.4596 -24.396626,-17.028481 -23.027079,-18.816411 -0.639649,0.31162 1.455493,22.652861 13.553079,28.421991 0.65906,0.3143 0.10983,1.19121 -1.31583,0.52634 C 95.338558,118.20644 92.689833,95.659829 93.733153,95.242499 Z"
       id="path864"
       inkscape:connector-curvature="0"
       sodipodi:nodetypes="csscsscsscc" />
    <path
       id="path844"
       style="fill:#5aa02c;fill-rule:evenodd;stroke:#000000;stroke-width:0.30000001;stroke-linecap:round;stroke-linejoin:round;stroke-miterlimit:4;stroke-dasharray:none;stroke-opacity:1"
       d="m 79.210984,63.290675 c 0,0 -0.01976,6.827471 1.58174,9.676519 1.120901,1.994067 5.210432,4.466085 5.210432,4.466085 9.649945,-0.319752 10.194185,1.608469 14.979994,2.884346 7.8402,-1.010301 13.23505,-0.612497 21.56738,0.923821 0.8325,0.153497 1.79162,0.816486 2.51217,0.372174 11.46665,-5.374454 16.81202,-3.308946 25.57645,-6.057172 1.05878,-0.331996 2.30629,-0.605039 2.97739,-1.488696 1.99731,-2.629923 2.92204,-5.489777 5.21043,-6.792169 0.96624,-0.549918 1.91254,-1.13476 2.88435,-1.674784 0.98234,-0.545875 2.97739,-1.581737 2.97739,-1.581737 0.55543,2.239447 -1.03041,2.921599 -2.32609,3.814781 -0.42943,0.99723 -0.89938,1.95395 -1.67478,2.605214 0.76814,4.152754 -0.94576,5.078865 -1.76783,7.164345 0.9113,-1.950147 2.63123,-3.63217 1.73895,-7.137199 0.71276,-0.55839 1.1451,-1.236957 1.42453,-1.981057 0.0353,0.05878 6.82039,-3.225998 9.90114,-5.078848 1.16255,-0.69919 2.44612,0.329685 1.17103,1.357111 -3.01372,2.428362 -5.75523,3.404056 -7.53652,5.303475 -0.18753,0.199966 -0.0707,0.682508 0.37218,0.372173 2.97779,-2.086496 6.14249,-3.883068 9.11825,-5.768692 1.59307,-1.009469 2.57299,0.547498 1.30261,1.674781 -2.78967,2.475443 -7.16322,4.74556 -9.49043,6.140868 -0.40188,0.240951 -0.0744,0.887704 0.55826,0.55826 3.52573,-1.835813 6.07568,-3.566452 8.56,-4.373041 1.40491,-0.456135 1.93215,0.862203 1.02347,1.581738 -2.09517,1.659057 -6.0506,3.594007 -8.46695,5.11739 -0.18768,0.118324 -0.0699,0.421479 0.18609,0.372174 2.34797,-0.452191 4.63853,-1.471032 6.97826,-2.14 1.861,-0.532092 2.00127,1.112173 0.74434,1.953913 -2.65832,1.780223 -7.67987,3.280396 -8.37391,3.628694 -3.0185,1.803167 -6.4357,2.636713 -10.15301,3.129613 0.17299,0.07414 -2.07401,1.495156 -4.09391,1.767824 -7.5009,2.928158 -13.12286,6.148915 -26.30871,7.615535 -2.94706,0.785518 -2.26027,0.427169 -4.61363,0.311057 -5.70259,0.61427 -9.61212,1.515369 -24.625395,-0.06772 -3.623674,0.595322 -5.499411,5.579848 -5.913501,9.310949 l -42.96778,40.89954 c 0,0 -2.71183,5.52659 -4.116252,8.95758 -0.640632,3.17651 -1.737271,7.47629 -3.778745,9.99042 -1.035222,3.0491 -2.27818,6.18672 -3.486956,9.01346 -0.390711,0.91368 -2.284539,1.20426 -1.842168,-0.46055 0.548369,-2.06371 1.477915,-3.96432 1.644793,-6.2502 0.03471,-0.47543 -0.383267,-0.62315 -0.526333,-0.32896 -1.30865,2.691 -2.638087,5.12342 -4.177771,7.96079 -0.423249,0.77997 -2.152075,0.33602 -1.743477,-0.65792 1.14436,-2.78373 2.638664,-5.15573 4.01329,-8.09237 0.173964,-0.37164 -0.461831,-0.64268 -0.72371,-0.26317 -1.894574,2.74559 -3.661732,5.56358 -5.329122,8.15816 -0.816271,1.27018 -2.527983,0.71654 -1.710583,-0.98687 1.389847,-2.89635 3.143309,-5.37463 5.000165,-8.35554 0.310205,-0.49799 -0.382401,-0.61184 -0.657916,-0.32896 -1.686355,1.73144 -3.187831,3.88706 -5.000165,5.72387 -1.998695,2.0257 -2.547628,0.46311 -1.710583,-1.05266 1.122883,-2.03338 4.563664,-6.05382 4.299717,-6.23858 0.3896,-0.26904 0.642952,-0.6627 0.846666,-1.11763 1.065772,-0.28962 1.92096,-0.9583 2.677541,-1.80446 2.787624,0.54606 5.430259,-1.30006 6.905932,-3.12684 0.113841,-0.0853 -2.645152,3.64862 -6.885212,3.16347 -0.731313,0.59368 -1.294979,1.30184 -2.698261,1.76783 -1.06381,2.25323 -4.107645,2.24023 -4.186955,1.67478 -0.07134,0.0713 1.41989,-1.69365 2.512173,-2.97739 0.687465,-0.80797 1.427944,-1.59088 1.953912,-2.51217 1.395975,-2.4452 3.548743,-4.36465 5.954779,-5.86174 0.874318,-0.54402 1.658483,-1.42715 2.14,-3.4426 2.073545,-8.67909 2.887914,-15.7555 7.164345,-25.12173 0.520538,-1.14008 0.201125,-2.71338 -4e-6,-3.8613 -1.41012,-8.04811 -0.956257,-15.48435 4e-6,-20.409821 -1.075339,-5.561286 -1.678755,-11.320987 5.954779,-13.597563 2.331873,-0.33544 4.762791,-0.757345 6.792171,-1.95391 2.229167,-1.314364 4.348944,-3.166696 5.489565,-5.489565 1.074996,-2.189235 0.976956,-7.745866 0.976956,-7.745866 -4.22376,-17.511247 8.195104,-4.055928 14.003035,-3.23326 z"
       inkscape:connector-curvature="0"
       sodipodi:nodetypes="csccsccccsccccccssscssccscccssccccccccccccsccscccscccsccccccccsssssccsccc" />
    <path
       id="path1133"
       style="fill:#5aa02c;fill-rule:evenodd;stroke:#000000;stroke-width:0.26458332px;stroke-linecap:butt;stroke-linejoin:miter;stroke-opacity:1"
       d="m 177.19997,150.29953 c -0.98717,-7.10126 0.88845,-14.42817 -2.96987,-23.66069 l -1.34325,-2.93688 1.25799,2.87541 c 2.36153,-8.81752 4.26801,-17.95994 2.33627,-27.316416 2.64721,-4.93424 1.80663,-18.02724 -9.16538,-18.51047 0,0 -8.6652,-3.14134 -12.40021,-5.75082 -1.52784,-1.06743 -3.24046,-2.23178 -3.9537,-3.9537 -0.66481,-1.60499 0,-5.21169 0,-5.21169 l -16.71333,0.71886 c 0,0 0.10532,4.11779 -0.71886,5.93054 -0.66713,1.46732 -1.89921,2.69194 -3.23484,3.59426 -2.7481,1.85656 -9.34509,3.41456 -9.34509,3.41456 -11.72013,1.88479 -9.91469,15.15113 -7.54796,18.51047 -2.14825,11.315696 -0.0995,19.483696 1.43771,28.035266 l 1.61742,-3.77398 -1.79713,3.9537 c -2.15411,1.9128 -1.24492,16.17672 -3.23484,21.56559 -0.44796,1.2131 -0.41979,2.57272 -0.89857,3.77398 m 8.35667,2.9653 c 0.59444,-1.35486 0.43171,-2.49303 0.98842,-3.86383 2.66739,-6.56793 6.16728,-20.84854 5.84069,-24.44102 l 0.0899,-5.03197 36.80736,4.73666 c 0.74282,8.75824 4.28847,16.73191 5.89076,24.29937"
       inkscape:connector-curvature="0"
       sodipodi:nodetypes="ccccccscccccccccccccccccc" />
    <path
       style="fill:#5aa02c;fill-rule:evenodd;stroke:#000000;stroke-width:0.30000001;stroke-linecap:round;stroke-linejoin:round;stroke-miterlimit:4;stroke-dasharray:none;stroke-opacity:1"
       d="m 55.005517,103.8445 c 0.300215,-0.0219 4.540988,8.39006 1.338964,13.65742 -1.017655,1.67405 -1.308248,3.19689 -1.543971,5.0621 -0.339317,2.68493 -2.237965,5.51049 -3.242789,8.4234 -3.707865,10.74883 -2.054309,20.58455 -0.569092,29.6291 1.015633,6.18492 4.686369,18.2099 4.686369,18.2099 l -0.133895,3.6152 0.133895,-3.6152 c -2.661193,5.79224 -4.91716,13.22723 -5.489747,18.74547 -0.367946,3.86964 0.806304,7.77132 0.535585,11.64898 -0.0506,0.72479 -0.126833,1.46978 -0.40169,2.14234 -0.674789,1.65117 -2.028112,3.15328 -1.472859,5.08806 0.210743,0.73434 0.267793,2.00844 0.267793,2.00844 1.334314,-3.08426 0.699124,-2.04575 1.807601,-5.35585 -1.086409,3.32237 -0.384615,2.25787 -1.807601,5.35585 -0.451685,0.62986 -2.837834,5.76967 -3.061436,8.24938 -0.678432,2.30333 -2.068404,5.02157 0.785199,4.87246 1.609626,0.14413 3.191486,0.14504 4.686371,0 2.177439,-0.21126 2.719711,0.52321 2.945719,-1.33896 0.185606,-1.52928 -1.060794,-5.52237 0.669481,-4.28469 1.426971,1.02073 -0.126871,3.27264 0.937274,4.41858 0.859018,0.92504 2.554523,0.94378 3.749096,0.53559 0.874927,-0.29896 1.415037,-1.51059 1.205066,-2.54403 -0.884795,-4.35482 -1.900591,-8.80321 -1.87455,-13.1773 0.01018,-1.71061 0.334417,-3.41056 0.669484,-5.08806 1.376307,-6.89043 4.79379,-13.09438 6.560916,-19.89508 0.92561,-3.56217 1.826217,-7.13116 2.677925,-10.71171 4.129952,-11.33881 3.231512,-23.99122 3.749097,-34.00965 0.0528,-0.89162 1.455438,-1.18986 1.338963,0.1339 -0.882006,10.02414 0.185255,19.06975 1.338961,28.51991 0.305243,2.50029 0.597216,5.0024 0.937276,7.49819 0.371541,2.72683 0.336199,5.5564 1.205066,8.16767 2.562065,7.69997 5.567111,12.83723 6.42702,19.68275 0.256432,2.04139 -0.401688,6.15923 -0.401688,6.15923 l 2.47708,-5.48974 -2.343185,5.22195 c 0,0 -2.207904,6.31635 -3.21351,9.50664 -0.5732,1.81848 -1.004087,3.08189 -1.467188,4.93148 -0.371911,1.48538 0.454503,2.24329 1.978927,2.60756 1.32717,0.31713 2.07178,-0.047 3.22035,-0.0931 1.050611,-0.15188 1.786425,-3.73114 2.025451,-4.63417 0.243475,-0.98264 0.785345,-0.51332 1.071171,0.40169 0.346259,1.10847 -0.20859,2.388 0.334742,3.41435 0.394,0.74426 0.851631,1.22327 1.673702,1.40591 1.799592,0.39982 3.805794,-0.50713 5.623643,-0.20084 2.732241,0.46036 2.480081,-2.31673 2.142341,-4.21773 -0.574533,-3.2338 -2.030492,-6.33062 -3.112395,-9.44881 -0.296818,-0.85547 0.673059,-1.91339 0.458474,-2.77534 -0.168064,-0.67509 -1.310784,-1.6153 -1.296019,-2.3036 1.460531,-9.97973 4.866898,-21.01806 -1.666975,-28.89387 -0.896583,-1.04239 -1.522505,-2.08567 -1.747379,-3.44208 -0.175498,-1.05858 0.653554,-2.04478 0.937274,-3.07962 1.640063,-5.98198 3.304439,-11.97414 4.418576,-18.07599 2.161302,-11.83691 1.502142,-23.75815 -2.811823,-34.67914 -1.057856,-2.67801 -1.860561,-5.44997 -2.811819,-8.16767 -1.078833,-3.08217 -1.946243,-4.329 -0.133897,-7.63209 1.200434,-2.18785 3.070848,-8.31748 3.006293,-8.75133"
       id="path845"
       inkscape:connector-curvature="0"
       sodipodi:nodetypes="cssssccccssscccccsssssssssccssssscccsssccsssssssccssssssc" />
    <path
       style="fill:#447821;fill-rule:evenodd;stroke:#000000;stroke-width:0.30000001;stroke-linecap:round;stroke-linejoin:round;stroke-miterlimit:4;stroke-dasharray:none;stroke-opacity:1"
       d="m 59.59056,127.46872 c 0.200112,10.44232 13.664567,22.23471 13.791722,17.25047 0.12536,-4.91389 0.511377,-1.82487 0.158218,0.007 -1.047562,5.4338 12.620823,-6.80801 13.137763,-15.70662 -1.997434,8.18653 -7.233117,12.59956 -10.095131,13.76577 -1.217081,0.49594 -1.688359,1.55143 -1.562,0.008 0.03944,-0.48184 -0.03668,-0.57249 0.369588,-1.34572 1.295827,-2.46626 0.434649,-2.43418 0.01294,-4.34315 -0.06522,-0.29522 -1.622208,6.63784 -3.138107,2.38069 -0.130288,-0.36589 -0.399166,3.00541 0.140218,3.74514 -1.137489,1.81126 -0.430755,-2.42229 -1.644931,-0.97762 -0.758081,0.90458 -0.294059,-1.57597 -0.04069,-1.26208 -5.943563,-3.12098 -9.366771,-5.77238 -11.129582,-13.52191 z"
       id="path851"
       inkscape:connector-curvature="0"
       sodipodi:nodetypes="csscsssssccccc" />
    <path
       style="fill:#447821;fill-rule:evenodd;stroke:#000000;stroke-width:0.30000001;stroke-linecap:round;stroke-linejoin:round;stroke-miterlimit:4;stroke-dasharray:none;stroke-opacity:1"
       d="m 68.395146,108.53087 c 0.146757,0.44027 2.109141,-2.36542 2.945717,-4.41858 0.661886,-1.62443 2.241799,-0.65464 2.677926,0.53559 0.925265,2.52513 4.199174,4.13365 4.150785,4.15078"
       id="path853"
       inkscape:connector-curvature="0"
       sodipodi:nodetypes="cssc" />
    <path
       style="fill:#5aa02c;fill-opacity:1;fill-rule:evenodd;stroke:#000000;stroke-width:0.30000001;stroke-linecap:round;stroke-linejoin:round;stroke-miterlimit:4;stroke-dasharray:none;stroke-opacity:1"
       d="m 76.175622,100.18168 c 3.36424,8.24755 18.578052,10.21419 16.320851,-3.500631 -0.771947,-2.743305 -0.214486,-4.255083 3.483923,-9.866847"
       id="path849-3"
       inkscape:connector-curvature="0"
       sodipodi:nodetypes="ccc" />
    <path
       style="fill:#447821;fill-rule:evenodd;stroke:#000000;stroke-width:0.30000001;stroke-linecap:round;stroke-linejoin:round;stroke-miterlimit:4;stroke-dasharray:none;stroke-opacity:1"
       d="m 85.226821,102.9962 c -2.861045,-1.45561 0.215875,-4.977921 2.631665,-3.618541 1.538606,0.865781 0.35398,5.137541 -2.631665,3.618541 z"
       id="path822"
       inkscape:connector-curvature="0"
       sodipodi:nodetypes="sss" />
    <path
       style="fill:#447821;fill-rule:evenodd;stroke:#000000;stroke-width:0.30000001;stroke-linecap:round;stroke-linejoin:round;stroke-miterlimit:4;stroke-dasharray:none;stroke-opacity:1"
       d="m 85.786049,101.12114 c -0.223934,1.72918 1.966916,0.80833 1.381625,-0.32896"
       id="path828"
       inkscape:connector-curvature="0"
       sodipodi:nodetypes="cc" />
    <path
       style="fill:#5aa02c;fill-rule:evenodd;stroke:#000000;stroke-width:0.30000001;stroke-linecap:round;stroke-linejoin:round;stroke-miterlimit:4;stroke-dasharray:none;stroke-opacity:1"
       d="m 55.857081,105.71848 c 0.159354,4.27479 5.091759,4.26225 5.824933,7.95932 2.189534,11.04084 0.860278,21.61755 11.015931,21.44241"
       id="path830"
       inkscape:connector-curvature="0"
       sodipodi:nodetypes="csc" />
    <path
       style="fill:#447821;fill-rule:evenodd;stroke:#000000;stroke-width:0.30000001;stroke-linecap:round;stroke-linejoin:round;stroke-miterlimit:4;stroke-dasharray:none;stroke-opacity:1"
       d="m 71.805354,122.77351 c 3.109544,-2.53511 3.457133,4.41175 0.251877,2.80839"
       id="path832"
       inkscape:connector-curvature="0"
       sodipodi:nodetypes="cc" />
    <path
       style="fill:#5aa02c;fill-rule:evenodd;stroke:#000000;stroke-width:0.30000001;stroke-linecap:round;stroke-linejoin:round;stroke-miterlimit:4;stroke-dasharray:none;stroke-opacity:1"
       d="m 54.494141,89.293591 c 0,0 0.671621,2.719445 0.473395,4.071197 -0.289206,1.972171 -2.086633,4.090311 -2.103808,6.083501 -2.344712,9.631101 13.809007,10.968681 16.116295,1.490821"
       id="path847"
       inkscape:connector-curvature="0"
       sodipodi:nodetypes="cscc" />
    <path
       style="fill:#447821;fill-rule:evenodd;stroke:#000000;stroke-width:0.30000001;stroke-linecap:round;stroke-linejoin:round;stroke-miterlimit:4;stroke-dasharray:none;stroke-opacity:1"
       d="m 54.769241,100.41054 c -1.149046,1.63286 1.185554,5.20523 2.884347,2.97738 1.686839,-2.21218 -2.012003,-4.217031 -2.884347,-2.97738 z"
       id="path824"
       inkscape:connector-curvature="0"
       sodipodi:nodetypes="sss" />
    <path
       style="fill:#447821;fill-rule:evenodd;stroke:#000000;stroke-width:0.30000001;stroke-linecap:round;stroke-linejoin:round;stroke-miterlimit:4;stroke-dasharray:none;stroke-opacity:1"
       d="m 55.653155,101.45727 c -0.801128,0.8779 0.713092,1.98386 1.186303,1.00022"
       id="path826"
       inkscape:connector-curvature="0"
       sodipodi:nodetypes="cc" />
    <path
       style="fill:#5aa02c;fill-rule:evenodd;stroke:#000000;stroke-width:0.30000001;stroke-linecap:round;stroke-linejoin:round;stroke-miterlimit:4;stroke-dasharray:none;stroke-opacity:1"
       d="m 64.328279,62.236984 c 1.311174,6.411247 4.093902,13.266159 5.602261,18.295669"
       id="path838"
       inkscape:connector-curvature="0"
       sodipodi:nodetypes="cc" />
    <path
       style="fill:#5aa02c;fill-rule:evenodd;stroke:#000000;stroke-width:0.30000001;stroke-linecap:round;stroke-linejoin:round;stroke-miterlimit:4;stroke-dasharray:none;stroke-opacity:1"
       d="m 57.745123,81.821002 c 1.260447,1.166069 6.000086,-0.255618 8.256849,-1.019771 2.099912,-0.711042 5.138111,1.604045 4.375146,2.13823"
       id="path840"
       inkscape:connector-curvature="0"
       sodipodi:nodetypes="csc" />
    <path
       style="fill:#5aa02c;fill-rule:evenodd;stroke:#000000;stroke-width:0.30000001;stroke-linecap:round;stroke-linejoin:round;stroke-miterlimit:4;stroke-dasharray:none;stroke-opacity:1"
       d="m 73.825754,83.181332 c -0.397661,-0.499229 0.834489,-2.618708 3.190729,-2.539423 2.903925,0.09771 8.716464,-1.089232 8.55669,-1.565775"
       id="path868"
       inkscape:connector-curvature="0"
       sodipodi:nodetypes="csc" />
    <path
       style="fill:#2d5016;fill-rule:evenodd;stroke:#000000;stroke-width:0.30000001;stroke-linecap:round;stroke-linejoin:round;stroke-miterlimit:4;stroke-dasharray:none;stroke-opacity:1"
       d="m 87.957068,42.448946 c -3.257369,3.069337 4.008107,-10.15593 6.606083,-18.515644 0.319365,-1.027647 -0.533905,-1.211163 -0.952041,-0.30872 -2.483548,5.360127 -4.276551,10.710736 -7.165998,15.637626 -0.172819,0.294679 -0.541768,0.119216 -0.55826,-0.139565 -0.299086,-4.693189 -0.836589,-9.780409 -4.117173,-12.723689 -0.896061,-0.803929 -1.950855,-0.140927 -1.0883,0.651303 5.238159,4.811081 3.38651,16.705814 3.972648,15.910428 l -0.697826,2.837825 1.767824,0.372174 z"
       id="path880"
       inkscape:connector-curvature="0"
       sodipodi:nodetypes="csssssscccc" />
    <path
       style="fill:#2d5016;fill-rule:evenodd;stroke:#000000;stroke-width:0.30000001;stroke-linecap:round;stroke-linejoin:round;stroke-miterlimit:4;stroke-dasharray:none;stroke-opacity:1"
       d="m 56.554909,40.308949 c 0,0 0.921378,0.43549 0.883912,0.139565 -0.688407,-5.437354 -2.84695,-11.632549 -5.024347,-18.09695 -0.314999,-0.935191 0.708932,-0.780082 0.976958,-0.186086 3.520937,7.803049 5.413372,19.221184 5.256953,19.818251 0.06574,0.06574 1.449475,-12.504152 5.024345,-17.259559 0.37537,-0.499329 1.462966,-0.639228 0.790871,0.325655 -3.421232,4.911637 -4.791739,17.306078 -4.791739,17.306078 l 0.09304,3.768259 -1.302608,0.139565 z"
       id="path882"
       inkscape:connector-curvature="0"
       sodipodi:nodetypes="cssscsscccc" />
    <path
       style="fill:#5aa02c;fill-rule:evenodd;stroke:#000000;stroke-width:0.30000001;stroke-linecap:round;stroke-linejoin:round;stroke-miterlimit:4;stroke-dasharray:none;stroke-opacity:1"
       d="m 60.230125,54.916766 c 0.840274,0.539231 -4.178654,6.537548 -4.093911,0.372174 0.01465,-1.065732 -3e-6,-3.163475 -3e-6,-3.163475 -2.090438,-3.045601 -1.936335,-6.839382 -2.698257,-10.327822 0,0 -2.433985,-7.071892 -4.373042,-10.234779 -1.808262,-2.949541 -3.99622,-5.182605 -6.885215,-7.815649 -1.425127,-1.298867 0.554547,-1.177744 1.209564,-0.651304 4.430175,3.56055 6.646324,7.278762 9.490432,11.258256 2.433997,3.405665 6.419996,10.79304 6.419996,10.79304 0.911986,-17.612874 25.783133,-16.12584 25.400859,-0.186087 0,0 3.929998,-4.317668 5.954779,-6.419998 4.685656,-4.865119 8.913683,-10.291065 14.328693,-14.32869 0.93342,-0.695991 1.86851,-0.454566 0.6513,0.651306 -4.44233,4.035992 -7.775002,6.941258 -10.793038,11.258254 -2.008367,2.872766 -5.582606,8.839128 -5.582606,8.839128 -0.248546,2.697829 -1.209608,4.683143 -2.14,6.699126 0,0 -0.132398,0.929399 -0.186087,1.395653 -0.548266,4.761293 -3.657368,2.668995 -3.721737,1.767824 0.347489,0.0695 -1.804815,5.421159 -3.628692,7.908692 -1.107942,1.51109 -1.562511,2.731316 -2.465651,4.373043 -0.571777,1.039377 -1.572515,1.659298 -2.605218,1.674781 -1.311659,0.01967 -2.477803,0.141333 -3.784222,0.02257 -1.028641,-0.0935 -1.550663,-0.03805 -3.100993,-1.97649 -1.284075,-1.60553 -2.705642,-3.949413 -3.954346,-5.582605 -1.373455,-1.796354 -3.478418,-6.25533 -3.442605,-6.326955 z"
       id="path878"
       inkscape:connector-curvature="0"
       sodipodi:nodetypes="csccssssccssssccscsssssscc" />
    <path
       id="path888"
       style="fill:#447821;fill-rule:evenodd;stroke:#000000;stroke-width:0.30000001;stroke-linecap:round;stroke-linejoin:round;stroke-miterlimit:4;stroke-dasharray:none;stroke-opacity:1"
       d="m 73.6749,53.567638 c -0.07617,-1.336583 0.817851,-3.943922 1.953914,-4.652172 1.564699,-0.975472 3.698902,-1.274405 5.582605,-1.442175 1.61989,-0.144274 1.379209,3.929279 1.349129,3.954346 m -20.237261,0.146541 c 0,0 0.987363,-3.290161 1.935209,-3.241123 1.75873,0.09099 3.855336,-0.0056 5.329121,0.460541 1.235269,0.390673 2.442476,3.469213 2.078082,4.712487 m 0,0 c -0.829857,2.831385 -0.865101,2.245598 -1.721863,4.797309 -0.519738,1.547945 0.53022,2.620825 0.844003,2.161204" />
    <path
       id="path892"
       style="fill:#008033;fill-rule:evenodd;stroke:#000000;stroke-width:0.30000001;stroke-linecap:round;stroke-linejoin:round;stroke-miterlimit:4;stroke-dasharray:none;stroke-opacity:1"
       d="m 74.300322,53.357605 c 1.546808,-3.695863 4.38223,-2.629881 6.513041,-2.77534 -0.805039,4.388826 -3.956789,3.25234 -6.513041,2.77534 z M 70.87094,53.237311 c -3.068353,1.020816 -5.921126,1.46635 -6.915774,-2.244332 2.988696,-0.831501 6.380553,-0.05776 6.915774,2.244332 z" />
    <path
       id="path894"
       style="fill:#447821;fill-rule:evenodd;stroke:#000000;stroke-width:0.30000001;stroke-linecap:round;stroke-linejoin:round;stroke-miterlimit:4;stroke-dasharray:none;stroke-opacity:1"
       d="m 75.508866,63.267749 c -0.56968,-0.410784 -1.234066,-1.032192 -2.32363,-1.174615 -0.493476,0.429014 -0.641789,0.874174 -1.492284,0.02327 -0.898867,0.223126 -2.172385,0.566712 -2.631667,1.315834 -0.492046,0.301942 -0.958538,-0.02756 -0.832031,-0.373829 -0.117656,0.09805 0.11682,0.615028 0.58648,0.470179 0.935563,-0.288539 1.837388,-0.716277 2.712738,-0.277762 0.513615,0.257301 1.104305,0.400329 1.546103,0.09869 0.885068,-0.604284 1.886137,-0.223213 2.776876,0.01859 0.609826,0.100828 0.484958,-0.403233 0.446916,-0.429298 0.186978,0.591054 -0.529829,0.460211 -0.789501,0.328941 z"
       inkscape:connector-curvature="0"
       sodipodi:nodetypes="cccccsssccc" />
    <path
       style="fill:#5aa02c;fill-rule:evenodd;stroke:#000000;stroke-width:0.30000001;stroke-linecap:round;stroke-linejoin:round;stroke-miterlimit:4;stroke-dasharray:none;stroke-opacity:1"
       d="m 70.706077,64.057257 c 1.184249,0.487059 2.138228,1.012618 3.322477,0.0329"
       id="path898"
       inkscape:connector-curvature="0"
       sodipodi:nodetypes="cc" />
    <path
       id="path902"
       style="fill:#2d5016;fill-rule:evenodd;stroke:#000000;stroke-width:0.30000001;stroke-linecap:round;stroke-linejoin:round;stroke-miterlimit:4;stroke-dasharray:none;stroke-opacity:1"
       d="m 72.021908,59.945281 c 0.139333,-1.597011 0.09764,-2.962798 0.224629,-4.716358 0.022,-0.303715 -0.159,-0.535641 -0.361854,0 -0.62767,1.657374 -1.360999,3.342876 -1.375982,4.420294 -0.002,0.144212 0.427646,0.06579 0.427646,0.06579 0,0 0.240307,-1.844983 0.493437,-1.414521 0.164324,0.279443 0.204427,1.52227 0.263168,1.480312 0,0 0.3183,0.286614 0.328956,0.164483 z m 0.986875,-0.427646 c 0.0385,-1.626043 -0.0846,-2.504201 0.04418,-4.072069 0.05067,-0.616881 0.1278,-0.274083 0.23027,0.03289 0.489811,1.467339 0.826525,1.89633 1.041379,3.677319 0.04046,0.335362 -0.23027,0.986875 -0.23027,0.986875 0,0 -0.524973,-2.007501 -0.592127,-1.480312 -0.0421,0.330488 -0.302848,1.431926 -0.328956,1.414521 0,0 -0.16908,-0.364975 -0.164481,-0.559224 z"
       inkscape:connector-curvature="0"
       sodipodi:nodetypes="ccsccccccccccccc" />
    <path
       id="path912"
       style="fill:#abc837;fill-rule:evenodd;stroke:#000000;stroke-width:0.30000001;stroke-linecap:round;stroke-linejoin:round;stroke-miterlimit:4;stroke-dasharray:none;stroke-opacity:1"
       d="m 84.840113,64.593285 0.744347,-0.83739 -0.790868,-0.651307 0.697825,-0.83739 -0.83739,-0.744347 0.883912,-0.697825 -0.837391,-0.651304 0.790869,-0.604784 -0.651304,-0.232609 0.651304,0.883915 -0.790869,0.55826 0.744347,0.744347 -0.651303,0.744347 0.697825,0.604782 -0.55826,0.837393 0.744347,1.069999 z m -0.511738,0.325652 c -0.801173,0.813746 0.430395,2.830344 1.535215,1.674781 1.354553,-1.416766 -0.829694,-2.391375 -1.535215,-1.674781 z m 0.488477,-6.885215 c 0.783874,-0.687474 2.07837,0.480149 1.256086,1.232827 -1.151156,1.053711 -2.07288,-0.516481 -1.256086,-1.232827 z m -0.634776,-4.063226 c 1.29728,-1.25153 4.745259,0.394168 3.092207,2.76325 -1.729636,2.478838 -4.90619,-1.013239 -3.092207,-2.76325 z" />
    <path
       style="fill:#800000;fill-rule:evenodd;stroke:#000000;stroke-width:0.30000001;stroke-linecap:round;stroke-linejoin:round;stroke-miterlimit:4;stroke-dasharray:none;stroke-opacity:1"
       d="m 84.971574,54.694206 c -0.766917,0.433204 0.05577,2.5923 1.513208,1.710581 0.781627,-0.47287 -0.03318,-2.546599 -1.513208,-1.710581 z"
       id="path906"
       inkscape:connector-curvature="0"
       sodipodi:nodetypes="sss" />
    <path
       id="path916"
       style="fill:#e3dbdb;fill-rule:evenodd;stroke:#000000;stroke-width:0.30000001;stroke-linecap:round;stroke-linejoin:round;stroke-miterlimit:4;stroke-dasharray:none;stroke-opacity:1"
       d="m 59.738827,56.374572 c 1.798247,1.764823 0.06082,3.340496 -1.401581,4.590479 0.392382,-1.074597 1.99992,-2.253869 0.139565,-3.328466 0.56736,-0.482275 0.911709,-0.809477 1.262016,-1.262013 z m -1.664748,-1.725519 c -1.727462,0.185718 -1.727986,1.193518 -0.820744,2.159493 0.628244,-0.127532 1.811718,-0.991179 0.820744,-2.159493 z" />
    <path
       id="path920"
       style="fill:#447821;fill-rule:evenodd;stroke:#000000;stroke-width:0.30000001;stroke-linecap:round;stroke-linejoin:round;stroke-miterlimit:4;stroke-dasharray:none;stroke-opacity:1"
       d="m 59.192537,49.451512 c -0.302153,-0.161149 -1.582693,1.443438 2e-6,3.355374 0.338236,0.408598 -1.381625,0.789501 -1.381625,0.789501 -0.876584,-0.7895 -0.595073,-1.579 -0.460542,-2.3685 0.100197,0.02505 -2.064051,-4.18551 -1.578999,-5.394915 0.288855,-0.720216 1.578999,1.710582 1.578999,1.710582 m 27.540939,1.340551 c 0.731951,0.926122 1.060819,1.627938 0.01129,2.675685 -1.180522,1.178515 0.178963,1.001619 0.725077,1.167717 0.495169,-0.932039 1.178025,-1.884932 0.604782,-2.698258 1.098588,-0.918568 1.776496,-2.599128 1.578434,-4.640886 -0.07022,-0.723908 -0.774991,0.350827 -1.252782,1.663496" />
    <path
       style="fill:#5aa02c;fill-rule:evenodd;stroke:#000000;stroke-width:0.30000001;stroke-linecap:round;stroke-linejoin:round;stroke-miterlimit:4;stroke-dasharray:none;stroke-opacity:1"
       d="m 83.338073,54.583262 c -0.810519,1.359694 -0.55101,2.916762 -3.158001,4.276456"
       id="path922"
       inkscape:connector-curvature="0"
       sodipodi:nodetypes="cc" />
    <path
       style="fill:#447821;fill-rule:evenodd;stroke:#000000;stroke-width:0.30000001;stroke-linecap:round;stroke-linejoin:round;stroke-miterlimit:4;stroke-dasharray:none;stroke-opacity:1"
       d="m 60.230125,54.916759 c 0.915188,2.413892 1.47999,2.819074 3.041494,3.679791 2.498873,2.553516 3.523281,6.172185 4.932922,8.881306 -1.189441,-1.339239 -1.383874,-1.948797 -2.790633,-3.7757 -1.585642,-2.05921 -4.022102,-5.69046 -5.183783,-8.785397 z"
       id="path924"
       inkscape:connector-curvature="0"
       sodipodi:nodetypes="cccsc" />
    <path
       id="path930"
       style="fill:#445016;fill-rule:evenodd;stroke:#000000;stroke-width:0.30000001;stroke-linecap:round;stroke-linejoin:round;stroke-miterlimit:4;stroke-dasharray:none;stroke-opacity:1"
       d="m 68.271786,33.003602 c 1.81194,0.315323 2.89704,1.357485 3.750122,2.631665 0.839496,-1.359979 2.013572,-2.354962 3.815916,-2.664561 -2.215046,-0.646821 -4.736937,-0.636116 -7.566038,0.0329 z m 0.471813,2.467086 c 1.344882,2.282632 3.433931,4.387011 3.76826,6.140867 1.061737,-2.001446 1.560145,-4.359635 3.209998,-6.373476 -1.384399,0.82751 -3.161145,1.458848 -3.628694,2.744783 -0.496335,-0.849616 -1.837114,-2.068452 -3.349564,-2.512174 z m 3.913651,12.13866 c 0,0 2.795615,-6.377714 6.052832,-6.176034 1.07789,0.06674 1.893126,1.686064 1.315832,2.59877 -1.124267,1.777474 -1.90089,-0.01178 -1.710584,-0.328956 -1.116934,0.921888 0.810135,3.252581 2.697459,0.789498 1.156711,-1.509585 -0.460698,-4.239117 -2.302708,-4.40804 -2.845603,-0.260958 -6.195703,4.235179 -6.195703,4.235179 0,0 -3.373318,-5.109647 -5.755799,-4.934374 -1.666972,0.122635 -3.307917,1.947165 -3.289585,3.618541 0.05023,4.579256 4.45923,2.00343 4.276458,1.25004 -0.158517,0.792587 -3.372979,2.1522 -3.092207,-1.381623 0.07517,-0.946133 1.093988,-1.858523 2.03954,-1.776376 2.380979,0.206852 5.799965,6.583875 5.964465,6.513375 z" />
    <path
       id="path956"
       style="fill:#002b11;fill-rule:evenodd;stroke:#000000;stroke-width:0.30000001;stroke-linecap:round;stroke-linejoin:round;stroke-miterlimit:4;stroke-dasharray:none;stroke-opacity:1"
       d="m 75.936511,51.227887 c -0.455774,1.453529 0.202573,2.230626 1.480312,2.631665 -0.987957,-0.08 -2.009334,-0.260269 -3.059311,-0.526333 0.336963,-0.945253 0.809263,-1.716501 1.578999,-2.105332 z M 65.673014,50.767346 c -0.766002,1.617892 0.145452,2.470684 0.625023,2.993519 -0.936858,-0.205825 -1.882132,-0.966549 -2.302709,-2.829041 z" />
    <path
       id="path958-7"
       style="fill:#d5ffe6;fill-rule:evenodd;stroke:#000000;stroke-width:0.30000001;stroke-linecap:round;stroke-linejoin:round;stroke-miterlimit:4;stroke-dasharray:none;stroke-opacity:1"
       d="m 67.155353,51.952907 c -0.520592,0 -0.395897,0.721085 0.186087,0.721085 0.450154,0 0.30136,-0.721085 -0.186087,-0.721085 z m 10.047419,-0.220539 c -0.520592,0 -0.395897,0.721085 0.186087,0.721085 0.450155,0 0.30136,-0.721085 -0.186087,-0.721085 z m -9.479057,0.690412 c 0.681323,0.861004 2.141006,0.219781 1.116521,-1.070002 -0.713292,-0.898005 -1.817657,0.18396 -1.116521,1.070002 z m 10.003723,-0.40729 c 0.681323,0.861004 2.141006,0.219781 1.116521,-1.070002 -0.713292,-0.898005 -1.817657,0.18396 -1.116521,1.070002 z" />
    <path
       inkscape:connector-curvature="0"
       id="path1013-6-2-9-7"
       style="fill:#445016;fill-rule:evenodd;stroke:#000000;stroke-width:0.30000001;stroke-linecap:round;stroke-linejoin:round;stroke-miterlimit:4;stroke-dasharray:none;stroke-opacity:1"
       d="m 78.331918,177.9141 c -0.163078,-1.20856 1.070933,-1.47784 1.075242,0.21527 0.0039,1.53308 -0.921599,0.92337 -1.075242,-0.21527 z m -0.784068,-3.31223 c -0.163078,-1.20856 1.070933,-1.47784 1.075242,0.21527 0.0039,1.53308 -0.921599,0.92337 -1.075242,-0.21527 z m 14.518536,-14.98598 c 0.235728,-1.19652 0.825977,-1.29003 0.74959,0.40136 -0.07036,1.55783 -1.000479,0.87212 -0.74959,-0.40136 z m 0.264099,-3.20399 c 0.235728,-1.19652 0.825977,-1.29003 0.74959,0.40136 -0.07036,1.55783 -1.000479,0.87212 -0.74959,-0.40136 z m -8.048258,13.16564 c 0.641453,-1.03719 2.32225,-0.39692 1.447416,1.05266 -0.526884,0.87304 -1.976722,-0.19681 -1.447416,-1.05266 z m -0.143367,-3.26079 c 0.641453,-1.03719 2.32225,-0.39692 1.447416,1.05266 -0.526884,0.87304 -1.976722,-0.19681 -1.447416,-1.05266 z m -7.626134,7.78866 c -0.116441,3.25449 1.183443,6.15082 1.34913,8.97869 -1.455578,-0.57117 -1.583247,-2.95876 -1.953912,-5.30347 z M 93.167501,153.0776 c 0.883093,1.76415 0.83368,3.76143 0.744347,5.76869 2.50602,-3.78377 2.069683,-7.56753 2.512173,-11.3513 -0.472099,2.22654 -0.474863,5.34883 -1.647531,7.264 -0.354609,-0.47692 -0.733422,-1.55177 -1.608989,-1.68139 z m -10.327823,12.18869 c -0.132948,3.69072 -0.257845,7.38144 -1.11652,11.07216 -1.299379,-1.70902 -2.732813,-3.28399 -3.442608,-5.5826 0.807799,0.71049 1.561632,1.52891 2.605217,1.76782 0.952205,-2.01792 1.332738,-4.79808 1.953911,-7.25738 z m 2.233044,-2.69827 c 2.004579,1.96194 2.244073,4.05966 2.69826,6.14087 2.548461,-4.17343 2.9625,-7.67509 3.288448,-12.46588 -0.761092,3.3749 -0.650907,5.29254 -2.962796,8.46502 -0.646779,-0.73442 -1.441744,-1.75636 -3.023912,-2.14001 z m -9.343742,13.48962 c -0.422107,-2.16624 1.084673,-5.09838 3.035886,-7.83352 0.465898,0.909 0.924857,1.19612 1.524575,1.69631 0.327717,-1.47942 0.49673,-2.96216 0.741705,-4.50266 1.437668,-1.69118 3.506296,-4.15908 5.124553,-5.92598 1.731214,0.80009 1.721187,1.42502 2.070812,2.28595 0.599911,-2.05405 1.32548,-3.82897 1.33468,-5.88302 1.453915,-1.69548 2.799789,-3.38931 3.900015,-5.05546 0.895322,0.44147 0.906585,1.19116 1.231203,1.76521 0.357554,-1.90865 0.885779,-3.91799 1.018149,-6.10813 0.520262,-1.49064 0.650462,-2.82077 0.418199,-4.20183 -0.06612,-0.80969 -0.135992,-1.61939 -0.262996,-2.42908 1.790208,10.64474 -22.098449,25.1735 -20.399776,33.89106 z m 4.008842,19.36244 c -0.407413,-0.037 -3.768219,-11.36402 3.223625,-18.78349 4.704505,-4.99224 13.506171,-18.43468 12.653907,-19.63216 0.245771,0.62315 -0.315606,2.20907 -0.444596,3.23751 -0.160773,1.28184 -6.882224,12.96514 -11.58673,17.95738 -6.991841,7.41947 -3.364006,18.80002 -3.190729,18.91507 z" />
    <path
       id="path1117-9"
       style="fill:#bec8b7;fill-rule:evenodd;stroke:#000000;stroke-width:0.30000001;stroke-linecap:round;stroke-linejoin:round;stroke-miterlimit:4;stroke-dasharray:none;stroke-opacity:1"
       d="m 56.25374,227.90825 c -0.162103,-1.70534 3.438787,-2.043 4.096921,-0.0999 0.151084,0.44606 -1.268262,-0.34138 -1.970944,0.78326 -0.387041,-1.06122 -2.112102,-0.53738 -2.125977,-0.68333 z m -9.394162,0.14114 c -0.980863,-2.13725 6.686675,-1.53914 5.489565,0.0698 -0.163,0.21907 -2.094608,-0.29019 -2.606638,0.68736 -0.701065,-1.17303 -2.882927,-0.64127 -2.882927,-0.75714 z m 42.488533,1.02511 c -1.074773,-2.13725 7.326864,-1.53914 6.015144,0.0698 -0.178603,0.21907 -2.36724,-0.28922 -2.928296,0.68833 -0.768182,-1.17303 -3.033889,-0.6528 -3.086848,-0.75811 z m -8.793103,-0.47485 c -0.04745,-1.7125 3.965885,-1.79816 4.544174,0.18609 0.132754,0.45551 -1.45718,-0.69123 -2.322326,0.38167 -0.346392,-1.08565 -2.217786,-0.4212 -2.221848,-0.56776 z" />
    <path
       style="fill:none;fill-rule:evenodd;stroke:#000000;stroke-width:0.30000001;stroke-linecap:butt;stroke-linejoin:miter;stroke-miterlimit:4;stroke-dasharray:none;stroke-opacity:1"
       d="m 96.385248,92.729955 c 1.775092,-1.54207 4.759732,-2.139339 7.570422,-2.53074"
       id="path875"
       inkscape:connector-curvature="0"
       sodipodi:nodetypes="cc" />
    <path
       style="fill:#447821;fill-rule:evenodd;stroke:#000000;stroke-width:0.30000001;stroke-linecap:butt;stroke-linejoin:miter;stroke-miterlimit:4;stroke-dasharray:none;stroke-opacity:1"
       d="m 50.976602,160.06835 c -0.49507,-4.03169 1.054509,-23.6336 3.190722,-26.32755 -1.525581,2.80133 2.661017,15.85421 8.557131,19.52804 -4.494097,-7.46944 -8.394811,-25.39406 -3.337683,-34.09086 0.211257,4.35794 2.46845,8.45552 5.426946,11.02178 -1.434233,-2.42679 -2.131214,-11.86879 -3.122443,-16.40321 -0.384266,-1.75784 -1.483085,-2.66063 -3.467656,-4.15381 -0.954376,-0.71806 -2.242206,-2.19535 -2.11389,-2.38392 0.716549,0.92574 2.550824,6.58284 0.316288,10.00773 -0.71779,1.10016 -1.177731,2.63196 -1.432627,4.08432 -0.292136,1.66453 -0.589131,3.5952 -1.453687,5.10924 -7.464245,13.07161 -2.705486,33.93476 -2.563101,33.60824 z"
       id="path897"
       inkscape:connector-curvature="0"
       sodipodi:nodetypes="cccccsscsssc" />
    <path
       style="fill:#445016;fill-rule:evenodd;stroke:#000000;stroke-width:0.30000001;stroke-linecap:round;stroke-linejoin:round;stroke-miterlimit:4;stroke-dasharray:none;stroke-opacity:1"
       d="m 165.47367,107.43794 c 0.84359,-1.70235 2.27376,-2.81812 4.13341,-3.50441 -0.91547,3.39958 -1.35535,6.79915 -0.58407,10.19873 -1.46019,-1.39026 -3.81446,-2.08514 -3.90876,-4.53776 z"
       id="path963"
       inkscape:connector-curvature="0"
       sodipodi:nodetypes="ccccc" />
    <path
       style="fill:#5aa02c;fill-rule:evenodd;stroke:#000000;stroke-width:0.30000001;stroke-linecap:round;stroke-linejoin:round;stroke-miterlimit:4;stroke-dasharray:none;stroke-opacity:1"
       d="m 166.95631,97.104424 c 1.66563,0.42209 -1.16007,14.530716 -3.59427,21.206166 -1.19925,3.28877 -0.83745,7.09114 -0.53914,10.7828 0.21846,2.70348 0.42397,5.41666 0.89857,8.0871 0.65846,3.70497 1.66934,7.34215 2.6957,10.96251 3.15279,11.12106 2.54184,32.29711 2.15656,32.16868 0.85279,4.12093 1.48843,8.29197 -0.71886,13.11907 -1.36244,9.6786 -3.31159,13.99287 -5.93279,22.7274 0,0 -0.74627,4.62265 -0.11698,5.43302 1.05127,1.35381 2.68771,3.37078 3.93044,4.48837 0.98925,0.88963 2.34104,1.96962 3.60516,2.38442 1.67149,0.54847 2.82485,-0.0583 4.98385,0.63987 1.66066,0.537 1.26119,2.82731 0.98843,2.82731 0.0781,-0.15616 -3.13234,0.61865 -4.85226,0.49739 -2.52462,-0.178 -6.99651,-5.83802 -7.08139,-5.83802 0,0 3.93716,5.03994 7.03646,5.83804 1.82945,0.4711 4.32946,-1.01694 5.97547,-0.0899 1.03933,0.58537 1.3701,2.0008 1.70727,3.145 0.25174,0.85427 0.24432,1.85481 -1.07828,1.88698 -1.56166,0.038 -3.19501,-0.14765 -4.67254,0.35941 -3.58168,1.22917 -5.88609,-0.21917 -8.44653,-1.25799 -2.2409,-0.90918 -5.17102,-2.91369 -7.63078,-2.27911 -2.51372,0.64849 -5.00917,0.89023 -7.64485,0.0327 -2.90964,-0.94667 -2.79394,-3.2013 -2.15656,-5.12183 0.87795,-2.64543 2.2823,-5.2677 3.59427,-8.17695 0.98851,-2.192 1.56282,-4.60857 1.70727,-7.00881 -0.84013,-8.52257 -4.25632,-14.77977 -1.8099,-22.46416 0.68313,-2.21076 3.78675,-6.46968 3.78675,-6.46968 -0.96228,0.37011 -8.95516,-16.09607 -9.16538,-25.78886 -0.0281,-1.29595 -2.21441,-2.03944 -2.15656,0.0899 0.33531,12.34203 -6.0573,31.90348 -6.55953,31.62954 0,0 0.83283,6.52922 0.62899,9.79438 -0.41321,6.61892 -3.98232,12.47135 -5.03197,19.58875 -0.80732,5.47425 3.12124,10.73433 3.3247,16.26404 0.0397,1.07789 0.15459,2.53305 -0.80871,2.60586 -1.1652,0.0881 -2.33727,0.14656 -3.50441,0.0898 -1.17921,-0.0573 -1.84616,-0.93363 -1.79714,-2.33627 0.0555,-1.58763 0.30753,-3.25037 -0.17971,-4.7624 -0.46407,-1.44012 -1.27547,-1.28034 -1.61742,-0.26958 -0.32692,0.96634 0.0407,2.04451 0.17971,3.05514 0.21991,1.59917 -0.76315,2.38573 -2.33627,2.15654 -2.26212,-0.32957 -4.56638,-0.95442 -6.8291,-0.62899 -1.45092,0.20868 -2.028,-0.84532 -1.43771,-3.14497 1.22757,-4.78236 5.40261,-9.40288 4.22326,-14.19736 -0.57182,-2.32468 -0.78876,-4.06559 -0.0898,-5.39138 -4.56028,-15.6882 -2.05372,-18.83037 0.17971,-24.7106 0.57469,-1.51307 0.006,-3.24443 -0.17971,-4.85226 -1.40328,-12.14365 -2.4552,-24.29091 0.98842,-35.94265 1.11723,-3.78023 2.51177,-7.48483 3.41455,-11.32194 1.01212,-4.30185 1.72628,-8.53877 0.98842,-13.38864 -0.32964,-2.16671 0.20613,-4.4682 -0.44928,-6.55954 -2.29017,-7.30771 -4.04062,-21.938406 -1.70728,-22.104736"
       id="path903"
       inkscape:connector-curvature="0"
       sodipodi:nodetypes="csssscccsssscscsssssssssscccsscssssssssssssccssssssc" />
    <path
       style="fill:none;fill-rule:evenodd;stroke:#000000;stroke-width:0.30000001;stroke-linecap:round;stroke-linejoin:round;stroke-miterlimit:4;stroke-dasharray:none;stroke-opacity:1"
       d="m 167.9763,96.927324 c 0.19822,-0.46252 -1.37411,-1.1816 -2.28738,0.19061 -1.77032,2.65996 -0.88675,5.715086 -2.73215,8.323516 -0.97509,1.37827 -1.74049,3.1829 -4.95598,3.30398 -2.92559,0.11016 -5.08732,-0.34032 -8.00582,-0.57184 -2.89449,-0.22962 -3.46922,-2.70724 -4.0029,-4.25706 -0.98312,-2.85501 -0.78376,-6.651146 -0.19063,-7.624586"
       id="path905"
       inkscape:connector-curvature="0"
       sodipodi:nodetypes="csssssc" />
    <path
       style="fill:none;fill-rule:evenodd;stroke:#000000;stroke-width:0.30000001;stroke-linecap:round;stroke-linejoin:round;stroke-miterlimit:4;stroke-dasharray:none;stroke-opacity:1"
       d="m 143.08923,103.06421 c 0,0 -0.097,2.28698 -0.12708,3.43106 -0.0357,1.35863 -1.45465,2.35827 -2.79568,2.41446 -3.31363,0.13886 -7.57397,-0.052 -10.37666,-0.54553 -1.64237,-0.28924 -3.23584,-2.31322 -3.8123,-4.19352 -1.0814,-3.52731 0.75116,-7.802646 -1.39784,-10.801496 -0.92152,-1.28595 -2.27217,-0.33148 -1.90615,0.25415"
       id="path907"
       inkscape:connector-curvature="0"
       sodipodi:nodetypes="csssssc" />
    <path
       style="fill:#447821;fill-rule:evenodd;stroke:#000000;stroke-width:0.30000001;stroke-linecap:round;stroke-linejoin:round;stroke-miterlimit:4;stroke-dasharray:none;stroke-opacity:1"
       d="m 144.31357,128.64763 c 1.37649,-3.91674 3.78389,1.40064 1.17907,0.99815"
       id="path832-6"
       inkscape:connector-curvature="0"
       sodipodi:nodetypes="cc" />
    <path
       style="fill:none;fill-rule:evenodd;stroke:#000000;stroke-width:0.30000001;stroke-linecap:round;stroke-linejoin:round;stroke-miterlimit:4;stroke-dasharray:none;stroke-opacity:1"
       d="m 141.17675,109.86096 c 3.58135,-0.52742 3.06867,2.55095 3.14499,4.40298"
       id="path927"
       inkscape:connector-curvature="0"
       sodipodi:nodetypes="cc" />
    <path
       style="fill:#447821;fill-rule:evenodd;stroke:#000000;stroke-width:0.30000001;stroke-linecap:round;stroke-linejoin:round;stroke-miterlimit:4;stroke-dasharray:none;stroke-opacity:1"
       d="m 129.85335,141.14994 c 1.41366,3.43811 3.91039,8.17384 7.98993,8.56178 0.84935,-0.87383 0.6869,-1.99568 0.33357,-3.16103 0.28223,1.11442 0.55832,2.22796 -0.31769,3.17691 -5.24035,9.05092 0.49634,10.66467 5.65491,9.65782 10.04881,0.97058 8.18858,-6.10235 7.24336,-8.83182 6.13302,-1.87487 7.15117,-7.79246 7.87874,-9.65781 -2.19351,4.55632 -6.00079,7.66655 -9.86279,8.93925 3.90695,6.25322 -0.28309,10.23004 -5.10545,7.73581 -2.80508,1.37319 -4.86059,0.50081 -5.91229,-0.55994 -0.22267,0.008 4.33822,0.88109 4.21224,0.004 -0.23735,0.51723 -4.92439,-0.71117 -4.87653,-1.51212 -0.0305,0.1373 3.56432,0.90833 3.56016,0.0973 -0.45108,0.38764 -3.94506,-0.89336 -3.66612,-1.56847 0.0757,0.17293 2.49517,0.80061 2.46968,0.14125 -0.10006,0.27632 -2.41097,-1.02216 -2.26427,-1.57316 0.20513,-0.88911 0.22318,-1.90222 0.66653,-2.88573 0.67808,-0.65363 0.76048,-1.51343 0.37173,-3.15558 -1.93712,0.36415 -6.96276,-2.9202 -8.37573,-5.40872 z"
       id="path929"
       inkscape:connector-curvature="0"
       sodipodi:nodetypes="cccccccccccccccccccc" />
    <path
       style="fill:none;fill-rule:evenodd;stroke:#000000;stroke-width:0.30000001;stroke-linecap:round;stroke-linejoin:round;stroke-miterlimit:4;stroke-dasharray:none;stroke-opacity:1"
       d="m 134.69777,109.95393 c -0.13007,-0.10839 -2.5287,0.49153 -2.29135,2.60584 0.53783,4.79104 -0.0653,7.75728 1.30293,11.77122 1.22663,3.5985 4.31295,3.69841 4.31311,3.59426 -0.0509,0.0509 -3.72631,0.36789 -3.82022,1.78172 -0.1975,2.97338 0.28125,3.79228 1.07189,6.76633 1.04215,3.92012 8.16496,5.68872 8.22959,5.55945"
       id="path909"
       inkscape:connector-curvature="0"
       sodipodi:nodetypes="csscssc" />
    <path
       style="fill:none;fill-rule:evenodd;stroke:#000000;stroke-width:0.30000001;stroke-linecap:round;stroke-linejoin:round;stroke-miterlimit:4;stroke-dasharray:none;stroke-opacity:1"
       d="m 141.86207,145.97885 c -3.97778,7.65978 8.08058,9.51297 5.71845,0.44476"
       id="path931"
       inkscape:connector-curvature="0"
       sodipodi:nodetypes="cc" />
    <path
       style="fill:#447821;fill-rule:evenodd;stroke:#000000;stroke-width:0.30000001;stroke-linecap:round;stroke-linejoin:round;stroke-miterlimit:4;stroke-dasharray:none;stroke-opacity:1"
       d="m 144.28743,151.1717 c 2.34378,0.0659 1.22337,-2.19298 0.0635,-2.22384 -1.06639,-0.0284 -2.22249,2.16311 -0.0635,2.22384 z"
       id="path933"
       inkscape:connector-curvature="0"
       sodipodi:nodetypes="sss" />
    <path
       style="fill:#447821;fill-rule:evenodd;stroke:#000000;stroke-width:0.30000001;stroke-linecap:round;stroke-linejoin:round;stroke-miterlimit:4;stroke-dasharray:none;stroke-opacity:1"
       d="m 158.25495,103.66237 c -1.10703,0.3385 -1.34936,2.90621 0.69892,2.28738 2.14829,-0.64904 0.72601,-2.72309 -0.69892,-2.28738 z"
       id="path935"
       inkscape:connector-curvature="0"
       sodipodi:nodetypes="sss" />
    <path
       style="fill:#447821;fill-rule:evenodd;stroke:#000000;stroke-width:0.30000001;stroke-linecap:round;stroke-linejoin:round;stroke-miterlimit:4;stroke-dasharray:none;stroke-opacity:1"
       d="m 130.6093,103.52918 c -1.14722,0.63104 -0.0572,2.24844 0.94349,1.70727 1.41025,-0.76268 0.39354,-2.44273 -0.94349,-1.70727 z"
       id="path938"
       inkscape:connector-curvature="0"
       sodipodi:nodetypes="sss" />
    <path
       style="fill:none;fill-rule:evenodd;stroke:#000000;stroke-width:0.30000001;stroke-linecap:round;stroke-linejoin:round;stroke-miterlimit:4;stroke-dasharray:none;stroke-opacity:1"
       d="m 151.72055,221.09664 c -0.25519,2.44387 -3.35452,4.28383 0.76378,5.84066"
       id="path940"
       inkscape:connector-curvature="0"
       sodipodi:nodetypes="cc" />
    <path
       style="fill:#cdde87;fill-rule:evenodd;stroke:#000000;stroke-width:0.30000001;stroke-linecap:round;stroke-linejoin:round;stroke-miterlimit:4;stroke-dasharray:none;stroke-opacity:1"
       d="m 153.65752,97.733424 c 0.0325,-3.29195 0.27514,-6.3685 0.80871,-9.07552 -1.53648,1.57854 -3.15856,3.0715 -5.03197,4.31311 1.20999,1.90861 2.53973,3.59271 4.22326,4.76241 z"
       id="path942"
       inkscape:connector-curvature="0"
       sodipodi:nodetypes="cccc" />
    <path
       style="fill:#677821;fill-rule:evenodd;stroke:#000000;stroke-width:0.30000001;stroke-linecap:round;stroke-linejoin:round;stroke-miterlimit:4;stroke-dasharray:none;stroke-opacity:1"
       d="m 153.92402,97.90082 c 2.05375,-1.24531 3.84594,-2.83937 5.3914,-4.7624 -0.0236,3.07117 -0.39975,6.08357 -1.43771,8.98567 -1.56215,-1.08208 -2.89969,-2.46366 -3.95369,-4.22327 z"
       id="path944"
       inkscape:connector-curvature="0"
       sodipodi:nodetypes="cccc" />
    <path
       style="fill:#eef4d7;fill-rule:evenodd;stroke:#000000;stroke-width:0.30000001;stroke-linecap:round;stroke-linejoin:round;stroke-miterlimit:4;stroke-dasharray:none;stroke-opacity:1"
       d="m 154.73273,88.515421 c 1.49761,1.76002 2.99522,3.54307 4.49283,4.31312 1.07115,-2.1678 1.06037,-5.01566 1.4377,-9.70452 -1.1115,3.55079 -2.8689,5.20628 -5.93053,5.3914 z"
       id="path946"
       inkscape:connector-curvature="0"
       sodipodi:nodetypes="cccc" />
    <path
       style="fill:#bcd35f;fill-rule:evenodd;stroke:#000000;stroke-width:0.30000001;stroke-linecap:round;stroke-linejoin:round;stroke-miterlimit:4;stroke-dasharray:none;stroke-opacity:1"
       d="m 133.6021,102.39161 c -0.91298,-3.137896 -0.76147,-6.123726 0,-9.022426 1.21162,1.89546 2.23193,3.81327 4.44768,5.59137 -1.6443,1.790646 -3.03489,2.566456 -4.44768,3.431056 z"
       id="path948"
       inkscape:connector-curvature="0"
       sodipodi:nodetypes="cccc" />
    <path
       style="fill:none;fill-rule:evenodd;stroke:#000000;stroke-width:0.30000001;stroke-linecap:round;stroke-linejoin:round;stroke-miterlimit:4;stroke-dasharray:none;stroke-opacity:1"
       d="m 122.92768,182.19565 c -1.42484,3.35876 -2.11417,6.6358 -0.50831,9.65781"
       id="path950"
       inkscape:connector-curvature="0"
       sodipodi:nodetypes="cc" />
    <path
       style="fill:none;fill-rule:evenodd;stroke:#000000;stroke-width:0.30000001;stroke-linecap:round;stroke-linejoin:round;stroke-miterlimit:4;stroke-dasharray:none;stroke-opacity:1"
       d="m 127.66528,79.411694 c -0.27714,-0.0252 -2.93355,1.59221 -0.35942,2.33627 2.48239,0.71754 6.82156,2.13879 9.37967,2.14753 4.10367,0.014 3.55193,2.44248 3.15401,2.69571"
       id="path957"
       inkscape:connector-curvature="0"
       sodipodi:nodetypes="cssc" />
    <path
       style="fill:none;fill-rule:evenodd;stroke:#000000;stroke-width:0.30000001;stroke-linecap:round;stroke-linejoin:round;stroke-miterlimit:4;stroke-dasharray:none;stroke-opacity:1"
       d="m 158.49078,79.674874 c 1.90282,0.50387 -4.88789,4.37383 -8.07807,4.13077 -3.6862,-0.28085 -5.57065,1.62312 -4.94211,2.60584"
       id="path959"
       inkscape:connector-curvature="0"
       sodipodi:nodetypes="csc" />
    <path
       style="fill:none;fill-rule:evenodd;stroke:#000000;stroke-width:0.30000001;stroke-linecap:round;stroke-linejoin:round;stroke-miterlimit:4;stroke-dasharray:none;stroke-opacity:1"
       d="m 134.50748,71.121514 c 0.21746,2.31403 -0.10348,2.57433 0.85852,5.27479"
       id="path961"
       inkscape:connector-curvature="0"
       sodipodi:nodetypes="cc" />
    <path
       style="fill:#dde9af;fill-rule:evenodd;stroke:#000000;stroke-width:0.30000001;stroke-linecap:round;stroke-linejoin:round;stroke-miterlimit:4;stroke-dasharray:none;stroke-opacity:1"
       d="m 169.20272,114.17719 c 1.99883,-1.82553 3.7285,-3.826 4.53776,-6.42475 1.05737,3.8001 0.31874,7.36994 -0.94349,10.87265 -0.80604,-1.82945 -1.30394,-3.93148 -3.59427,-4.4479 z"
       id="path965"
       inkscape:connector-curvature="0"
       sodipodi:nodetypes="cccc" />
    <path
       style="fill:#5aa02c;fill-rule:evenodd;stroke:#000000;stroke-width:0.30000001;stroke-linecap:round;stroke-linejoin:round;stroke-miterlimit:4;stroke-dasharray:none;stroke-opacity:1"
       d="m 129.50172,49.229453 c 0.94413,-21.52668 29.45744,-14.52924 26.16059,-0.10436 0,0 2.37591,-3.67172 3.86234,-5.25982 1.43603,-1.53426 2.22957,-1.44794 1.19878,0.85725 -0.94904,2.1224 -1.13545,4.5122 -1.56085,6.79787 -0.37302,2.004321 -1.10379,4.029371 -0.86751,6.054361 0.67099,5.75043 -3.29189,5.0246 -4.13288,2.66184 0.78898,0.99764 -1.2908,5.17675 -3.19535,7.27366 -1.73495,1.91017 -2.0409,3.55657 -3.60731,4.96839 -0.48998,0.44163 -1.55632,1.34978 -2.19487,1.51523 -1.04783,0.27149 -2.43719,-0.27453 -2.43719,-0.27453 0,0 -1.35607,0.66977 -2.41211,0.44387 -0.78865,-0.1687 -1.53497,-0.61896 -2.10935,-1.1851 -1.71784,-1.69321 -2.15479,-3.48482 -3.48152,-5.49921 -1.62116,-2.46141 -4.65516,-6.36353 -3.33863,-8.06535 -0.0111,0.88123 -4.14131,3.41437 -4.64575,-1.72591 -0.2273,-2.31615 0.54205,-4.48359 -0.7991,-7.434741 -0.87503,-1.92547 -0.54679,-4.29467 -1.5634,-6.14929 -1.02503,-1.86995 -0.52742,-1.3051 0.6192,-0.29136 1.9389,1.71422 4.77864,5.3617 4.50491,5.4172 z"
       id="path967"
       inkscape:connector-curvature="0"
       sodipodi:nodetypes="ccsssscssscssscssssc" />
    <path
       id="path971"
       style="fill:#447821;fill-rule:evenodd;stroke:#000000;stroke-width:0.30000001;stroke-linecap:round;stroke-linejoin:round;stroke-miterlimit:4;stroke-dasharray:none;stroke-opacity:1"
       d="m 146.15921,67.845404 c 0,0 -1.97998,-2.12318 -2.79699,-1.80965 -0.58608,0.22492 -1.12714,0.0117 -1.65653,-0.10109 -0.79418,-0.16965 -2.67837,1.58759 -2.67837,1.58759 -0.2359,-0.1017 -0.22979,-0.37723 -0.30558,-0.59393 0,0 0.10919,0.58331 0.33939,0.70743 0.66242,0.35713 1.48989,-0.39127 2.23722,-0.3029 0.45306,0.0536 0.82022,0.4759 1.27604,0.49491 0.54075,0.0226 1.01621,-0.46103 1.55742,-0.45898 0.64882,0.002 1.23988,0.74553 1.86289,0.56432 0.25441,-0.074 0.51843,-0.60252 0.51843,-0.60252 -0.13008,0.21265 -0.25058,0.39283 -0.35392,0.51482 z"
       inkscape:connector-curvature="0"
       sodipodi:nodetypes="cscccccccccc" />
    <path
       style="fill:none;fill-rule:evenodd;stroke:#000000;stroke-width:0.30000001;stroke-linecap:round;stroke-linejoin:round;stroke-miterlimit:4;stroke-dasharray:none;stroke-opacity:1"
       d="m 140.67871,68.386444 c 1.15912,0.70512 2.57433,1.44274 3.82077,0.11157"
       id="path973"
       inkscape:connector-curvature="0"
       sodipodi:nodetypes="cc" />
    <path
       id="path977"
       style="fill:#2d5016;fill-rule:evenodd;stroke:#000000;stroke-width:0.30000001;stroke-linecap:round;stroke-linejoin:round;stroke-miterlimit:4;stroke-dasharray:none;stroke-opacity:1"
       d="m 142.41759,63.337674 c 0.0534,-0.0355 0.38683,-2.24014 0.29744,-4.35605 -0.01,-0.21796 -0.34265,-0.81251 -0.45057,-0.0292 -0.63003,2.0524 -1.8954,4.25722 -1.82564,4.36446 0.0455,0.16186 0.0845,0.27993 0.64115,0.33726 -0.0288,0.0742 0.61835,-2.92534 1.02139,-2.93531 0.14683,0.23644 -0.096,2.14414 -0.25494,2.99847 z m 1.02958,-0.12591 c -0.0971,-1.21658 0.22433,-2.28622 0.30842,-4.04175 0.034,-0.70754 0.34887,-0.18015 0.36235,0.0773 0.41682,1.83763 1.17909,2.93469 1.04959,4.30902 -0.006,0.12064 -0.35764,0.0575 -0.35764,0.0575 -0.2428,-0.67231 -0.43917,-2.56397 -0.65769,-2.74181 -0.38909,-0.33689 -0.20014,2.63689 -0.20014,2.63689 0,0 -0.48935,-0.10242 -0.50489,-0.29707 z"
       inkscape:connector-curvature="0"
       sodipodi:nodetypes="cccccccccccccccc" />
    <path
       id="path985"
       style="fill:#447821;fill-rule:evenodd;stroke:#000000;stroke-width:0.30000001;stroke-linecap:round;stroke-linejoin:round;stroke-miterlimit:4;stroke-dasharray:none;stroke-opacity:1"
       d="m 145.29239,58.174174 c -0.009,0.0132 -1.36018,-2.5835 -0.36969,-3.89107 1.67574,-2.21219 4.54335,-3.673571 7.29861,-4.005911 0.93889,-0.1132 2.33847,-0.0671 2.20112,1.13109 -0.11462,0.999871 -0.18733,2.230421 -0.18733,2.230421 m -22.51198,0.81114 c 0,0 -0.0961,-0.74534 -0.39901,-1.78991 -0.34246,-1.181201 0.99578,-1.188561 1.8673,-1.146011 2.76157,0.13479 5.65722,1.086251 7.7921,2.843171 0.62455,0.51397 0.77211,1.19967 0.82629,1.81487 0.0731,0.83054 -0.0449,1.62911 -0.25912,2.3918 m 0,0 c -0.52052,1.85306 -1.60894,3.49436 -1.90329,4.86791 -0.22458,1.04802 0.77358,1.05542 0.79799,0.78321" />
    <path
       id="path981"
       style="fill:#16502d;fill-rule:evenodd;stroke:#000000;stroke-width:0.30000001;stroke-linecap:round;stroke-linejoin:round;stroke-miterlimit:4;stroke-dasharray:none;stroke-opacity:1"
       d="m 140.52512,58.064004 c -0.99193,-4.67689 -3.86489,-2.99799 -7.47084,-3.56354 2.42919,4.83577 3.67269,2.24439 7.47084,3.56354 z m 5.33289,-0.19622 c 0.60911,-4.71108 4.38266,-3.24577 7.06499,-3.66334 -1.44669,4.86967 -4.21863,2.45305 -7.06499,3.66334 z" />
    <path
       id="path996"
       style="fill:#445016;fill-rule:evenodd;stroke:#000000;stroke-width:0.30000001;stroke-linecap:round;stroke-linejoin:round;stroke-miterlimit:4;stroke-dasharray:none;stroke-opacity:1"
       d="m 137.59767,42.967893 c 1.07356,0.88972 0.018,2.27417 -1.09865,1.3099 -0.68269,-0.58956 -0.083,-2.28891 1.09865,-1.3099 z m 9.79667,0.16651 c -1.25011,0.787 0.35304,2.35479 1.33208,1.73363 0.88921,-0.56417 0.22126,-2.71153 -1.33208,-1.73363 z m -4.65661,8.773331 c -2.34015,-1.392641 -3.23859,-3.820871 -4.21727,-6.191481 0.80315,0.81366 1.47521,1.86411 2.59129,2.11235 -0.30261,-1.61502 2.22334,-2.20543 1.398,-3.48954 -1.58266,-2.46233 -0.78368,-4.18899 0.56638,-4.62613 -0.52889,0.68558 -0.47694,2.58876 0.95248,4.10265 1.32086,1.39894 -0.87736,3.54967 -0.5324,4.06461 1.6779,-0.62378 1.88132,-1.74251 2.69449,-2.65657 -0.63667,2.42752 -1.16671,4.89639 -3.45297,6.684111 z m -0.9908,3.81088 c 0.16129,-0.006 0.94175,-2.05321 -0.4209,-3.04228 -1.53402,-1.113461 -3.35103,-4.558361 -3.35103,-4.558361 1.06747,4.462231 -1.23832,2.22218 -4.1795,-1.24769 1.65363,3.52375 0.36688,2.93543 -1.85292,1.00877 0.56789,0.91268 2.31197,2.36873 -0.91096,1.92315 1.3599,0.43599 3.41501,1.59069 4.82533,2.031141 1.86571,0.58264 3.35202,1.27151 4.7977,2.2151 0.8154,0.53221 1.19832,1.70836 1.09228,1.67017 z m 2.75801,-0.01066 c -0.44656,0.0847 -0.9534,-2.74042 0.43539,-3.65067 1.31845,-0.864141 2.46578,-4.119501 2.46268,-4.123121 -0.56266,4.887331 3.86005,-0.77349 4.99498,-1.70028 -1.06259,3.76864 1.13133,0.94847 2.05861,0.69103 -0.59931,0.91903 -1.56575,2.389 0.53944,1.79311 -2.09209,1.88611 -2.54311,1.27824 -4.73101,1.97716 -3.48028,1.452271 -4.17937,2.467601 -5.34344,3.556171 -0.33792,0.31599 -0.40852,1.00163 -0.41665,1.4566 z" />
    <path
       id="path920-5"
       style="fill:#447821;fill-rule:evenodd;stroke:#000000;stroke-width:0.30000001;stroke-linecap:round;stroke-linejoin:round;stroke-miterlimit:4;stroke-dasharray:none;stroke-opacity:1"
       d="m 130.17393,52.435934 c -0.30866,-0.18095 -1.52183,1.77047 0.13921,3.9872 0.35498,0.47373 -1.34804,0.98639 -1.34804,0.98639 -0.9088,-0.90758 -0.66022,-1.85556 -0.55854,-2.79843 0.10118,0.0262 -2.23648,-4.901611 -1.80191,-6.355671 0.25879,-0.86591 1.64903,1.97757 1.64903,1.97757 m 27.54125,3.168511 c 0.76924,1.05518 1.12651,1.86266 0.12031,3.12194 -1.13178,1.41643 0.21967,1.16258 0.77222,1.33734 0.45688,-1.10491 1.10049,-2.24071 0.49446,-3.16978 1.06049,-1.11025 1.6695,-3.095001 1.38835,-5.470671 -0.0996,-0.84229 -0.76022,0.43644 -1.18423,1.98491" />
    <path
       id="path958-7-2"
       style="fill:#d5ffe6;fill-rule:evenodd;stroke:#000000;stroke-width:0.30000001;stroke-linecap:round;stroke-linejoin:round;stroke-miterlimit:4;stroke-dasharray:none;stroke-opacity:1"
       d="m 136.57049,55.753524 c -0.52028,0.0181 -0.37049,0.73446 0.21114,0.71414 0.44988,-0.0159 0.27601,-0.73115 -0.21114,-0.71414 z m 12.08776,-0.007 c -0.52028,0.0181 -0.37049,0.73446 0.21114,0.71414 0.44988,-0.0159 0.27601,-0.73116 -0.21114,-0.71414 z m -11.50334,0.45677 c 0.71095,0.83671 2.14737,0.14493 1.07849,-1.10832 -0.74419,-0.87257 -1.81013,0.24729 -1.07849,1.10832 z m 12.03757,-0.19213 c 0.71095,0.83671 2.14737,0.14492 1.07849,-1.10832 -0.74419,-0.87257 -1.81013,0.24728 -1.07849,1.10832 z" />
    <path
       id="path1040-9"
       style="fill:#0b2817;fill-rule:evenodd;stroke:#000000;stroke-width:0.30000001;stroke-linecap:round;stroke-linejoin:round;stroke-miterlimit:4;stroke-dasharray:none;stroke-opacity:1"
       d="m 147.33407,54.966224 c -0.39252,0.95677 -0.51086,1.61175 0.29179,2.52678 -0.71532,0.026 -0.61223,0.101 -1.73811,0.37431 -0.0667,-0.16946 0.39049,-2.22582 1.44632,-2.90109 z m -12.22095,-0.30878 c -0.39251,0.95677 -0.35472,1.89851 0.44793,2.81355 -1.40288,-0.82788 -2.0049,-1.84947 -2.50677,-2.97053 0.70336,0.0612 1.52024,0.17114 2.05884,0.15698 z" />
    <path
       id="path1067"
       style="fill:#c6e9af;fill-rule:evenodd;stroke:#000000;stroke-width:0.30000001;stroke-linecap:round;stroke-linejoin:round;stroke-miterlimit:4;stroke-dasharray:none;stroke-opacity:1"
       d="m 124.45411,232.96767 c -1.79879,-0.98011 -3.80558,-0.92025 -5.84068,-0.71884 l -0.629,1.43769 c 2.15449,-0.0375 2.65522,2.27369 3.41456,3.86385 0.89824,-1.1589 1.75297,-3.46765 3.32469,-3.05512 z m 5.30154,1.53755 c 1.75815,-1.12711 2.80642,-0.59783 3.86384,-0.0899 l 0.26957,1.4377 c -0.52353,1.01837 -1.21462,2.03674 -1.97685,3.05511 -0.28376,-1.55475 -0.82908,-2.78254 -2.0667,-3.14497 z m 43.3037,-3.76634 c 0.5161,0.22018 1.07565,0.38299 2.09677,-0.0636 1.31685,-0.96504 1.99831,-0.27407 2.85922,-0.57184 -1.65587,-1.06193 -3.4979,-1.98847 -6.98921,-1.71553 h -1.652 c 1.98543,0.69954 4.60242,1.32891 3.68522,2.35097 z m -0.12707,1.77905 c 1.49982,0.85209 0.30971,0.90066 0.38123,1.33432 1.16269,0.65292 1.65847,0.19432 2.35091,0.0635 1.35739,-0.41765 2.55758,0.42229 3.74876,1.3343 -0.75221,-1.4363 -0.78117,-3.21295 -4.25706,-3.36752 z" />
    <path
       inkscape:connector-curvature="0"
       style="fill:#445016;fill-rule:evenodd;stroke:#000000;stroke-width:0.30000001;stroke-linecap:round;stroke-linejoin:round;stroke-miterlimit:4;stroke-dasharray:none;stroke-opacity:1"
       d="m 168.21445,159.01564 c -5.41439,4.24016 -12.78477,6.50382 -22.82393,6.0203 l 0.48679,2.06706 c 8.663,0.53086 16.38192,-0.57772 22.60637,-5.46582 z m -1.98541,5.61154 c -0.81989,0.0318 -0.68264,1.96658 0.31781,1.93787 0.75622,-0.0217 0.70555,-1.9776 -0.31781,-1.93787 z m 1.81074,0.0956 -0.38137,3.11299 1.20716,4.47983 -0.12661,-5.87768 z m -3.87573,1.71514 c -0.12707,0.63539 -1.01647,3.622 -1.01647,3.622 l 2.41432,5.71852 0.5085,-6.73499 z m -2.51664,0.23771 c -0.0839,-0.007 -0.17369,-0.007 -0.26975,10e-4 -1.12191,0.0949 -0.96234,2.05321 0.31781,1.93787 1.10693,-0.0997 1.20983,-1.83018 -0.0481,-1.9389 z m -3.45612,1.35083 -1.71566,3.74912 3.30419,5.84512 1.1436,-6.79855 z m -3.86643,0.27026 c -1.06662,0.0487 -1.25698,2.01125 0.31781,1.93787 1.22955,-0.0573 1.41957,-2.01723 -0.31781,-1.93787 z m -5.78208,0.0956 c -0.54212,10e-4 -0.36825,1.9031 0.31781,1.93787 0.71583,0.0363 0.74573,-1.94061 -0.31781,-1.93787 z m 3.04064,0.58756 -1.1436,2.7957 2.92282,5.33714 0.12713,-5.27358 z m -5.11493,0.0636 c 0.88142,2.87851 1.73664,5.22884 2.82774,7.78298 l -1.017,-5.49578 z m 21.01732,1.43453 -0.26717,6.51795 c -0.80693,0.40108 -1.62977,0.77379 -2.47581,1.10536 l -2.26395,-5.63066 -1.01337,6.65127 c -0.8287,0.18933 -1.68391,0.33185 -2.57091,0.41755 l -3.65662,-5.97638 -0.57464,5.94641 c -0.65282,-0.0697 -1.32661,-0.15 -2.01125,-0.30335 l -2.99516,-5.60327 0.66301,5.04103 c -0.15047,-0.0406 -0.14146,-0.0873 -0.29301,-0.13332 l 0.95291,2.03295 c 7.20553,1.32105 13.27197,1.12176 17.77463,-2.2872 l 0.0956,-2.19211 z"
       id="path1069" />
    <path
       id="path909-6"
       style="fill:#447821;fill-rule:evenodd;stroke:#000000;stroke-width:0.30000001;stroke-linecap:round;stroke-linejoin:round;stroke-miterlimit:4;stroke-dasharray:none;stroke-opacity:1"
       d="m 134.69777,109.95393 c -0.13007,-0.10839 -2.5287,0.49153 -2.29135,2.60584 0.53783,4.79104 -0.0653,7.75728 1.30293,11.77122 1.22663,3.5985 4.31295,3.69841 4.31311,3.59426 -0.0509,0.0509 -3.72631,0.36789 -3.82022,1.78172 -0.1975,2.97338 0.28125,3.79228 1.07189,6.76633 1.04215,3.92012 8.16496,5.68872 8.22959,5.55945 -7.07823,1.08624 -10.63431,-1.64604 -14.47526,-5.18448 -3.3835,1.95127 -8.60156,18.47449 -9.65733,25.29251 0.14709,-2.73577 0.74933,-11.65572 3.3734,-17.92562 1.20065,-2.86881 1.96683,-6.10593 2.24877,-7.30426 1.01212,-4.30185 1.72628,-8.53877 0.98842,-13.38864 -0.32964,-2.16671 0.20613,-4.4682 -0.44928,-6.55954 -2.29017,-7.30771 -4.04062,-21.938406 -1.70728,-22.104736 0.90191,-0.59026 0.89011,-0.90245 0.58282,-1.70305 1.15087,1.43021 1.34002,2.82981 1.32338,4.14326 -0.2386,6.367486 0.67171,10.253346 4.59199,11.132176 0.99523,0.22311 1.65028,0.0198 2.75145,0.3567"
       inkscape:connector-curvature="0"
       sodipodi:nodetypes="ccccsscccsscccccsc" />
    <path
       style="fill:none;fill-rule:evenodd;stroke:#000000;stroke-width:0.30000001;stroke-linecap:round;stroke-linejoin:round;stroke-miterlimit:4;stroke-dasharray:none;stroke-opacity:1"
       d="m 59.031476,178.31707 c -1.42484,3.35876 -2.634844,3.51176 -1.028984,6.53377"
       id="path950-3"
       inkscape:connector-curvature="0"
       sodipodi:nodetypes="cc" />
    <path
       style="fill:#2d5016;fill-rule:evenodd;stroke:#000000;stroke-width:0.26458332px;stroke-linecap:butt;stroke-linejoin:miter;stroke-opacity:1"
       d="m 127.05008,235.63797 c -0.67687,-1.9525 -1.37664,-4.38902 -1.23558,-6.15237 0.60977,0.60229 0.0447,1.18316 1.9259,1.59624 -1.74932,0.13448 -0.53242,3.5689 -0.69032,4.55613 z"
       id="path1138"
       inkscape:connector-curvature="0"
       sodipodi:nodetypes="cccc" />
    <path
       style="fill:#2d5016;fill-rule:evenodd;stroke:#000000;stroke-width:0.26458332px;stroke-linecap:butt;stroke-linejoin:miter;stroke-opacity:1"
       d="m 54.453832,230.22355 c 0.152812,-2.2307 -2.650001,-3.05556 -0.781013,-6.42165 0.145949,1.12156 0.01119,0.94368 1.171516,1.95253 -1.097495,-0.27249 -0.388887,1.67324 -0.390503,4.46912 z"
       id="path1140"
       inkscape:connector-curvature="0"
       sodipodi:nodetypes="cccc" />
  </g>
</svg>
