<?xml version="1.0" encoding="UTF-8" standalone="no"?>
<!-- Created with Inkscape (http://www.inkscape.org/) -->

<svg
   xmlns:dc="http://purl.org/dc/elements/1.1/"
   xmlns:cc="http://creativecommons.org/ns#"
   xmlns:rdf="http://www.w3.org/1999/02/22-rdf-syntax-ns#"
   xmlns:svg="http://www.w3.org/2000/svg"
   xmlns="http://www.w3.org/2000/svg"
   xmlns:sodipodi="http://sodipodi.sourceforge.net/DTD/sodipodi-0.dtd"
   xmlns:inkscape="http://www.inkscape.org/namespaces/inkscape"
   width="210mm"
   height="297mm"
   viewBox="0 0 210 297"
   version="1.1"
   id="svg8"
   inkscape:version="0.92.3 (2405546, 2018-03-11)"
   sodipodi:docname="pic_PlantQi.svg">
  <defs
     id="defs2" />
  <sodipodi:namedview
     id="base"
     pagecolor="#ffffff"
     bordercolor="#666666"
     borderopacity="1.0"
     inkscape:pageopacity="0.0"
     inkscape:pageshadow="2"
     inkscape:zoom="1.4722523"
     inkscape:cx="304.21257"
     inkscape:cy="366.41773"
     inkscape:document-units="mm"
     inkscape:current-layer="layer1"
     showgrid="false"
     inkscape:window-width="1366"
     inkscape:window-height="703"
     inkscape:window-x="0"
     inkscape:window-y="0"
     inkscape:window-maximized="1"
     objecttolerance="1"
     guidetolerance="1"
     showguides="true" />
  <metadata
     id="metadata5">
    <rdf:RDF>
      <cc:Work
         rdf:about="">
        <dc:format>image/svg+xml</dc:format>
        <dc:type
           rdf:resource="http://purl.org/dc/dcmitype/StillImage" />
        <dc:title></dc:title>
      </cc:Work>
    </rdf:RDF>
  </metadata>
  <g
     inkscape:label="Layer 1"
     inkscape:groupmode="layer"
     id="layer1">
    <path
       style="fill:#447821;fill-rule:evenodd;stroke:#000000;stroke-width:0.3;stroke-linecap:round;stroke-linejoin:round;stroke-opacity:1;stroke-miterlimit:4;stroke-dasharray:none"
       d="m 48.103456,87.094001 c 1.739269,-3.00779 3.167405,-6.093363 1.488697,-9.955647 l 0.27913,-0.814131 c 3.331583,-0.675229 5.256823,-2.327437 4.745214,-5.97804 l 0.837391,-1.000217 c 2.356569,-0.527916 2.279519,-2.788409 2.41913,-5.233694 11.990783,12.735388 4.944231,25.419088 -9.769562,22.981729 z"
       id="path874"
       inkscape:connector-curvature="0"
       sodipodi:nodetypes="ccccccc" />
    <path
       style="fill:#447821;fill-rule:evenodd;stroke:#000000;stroke-width:0.3;stroke-linecap:round;stroke-linejoin:round;stroke-opacity:1;stroke-miterlimit:4;stroke-dasharray:none"
       d="m 39.474986,28.833249 c 4.3072,1.84698 6.637639,0.564087 8.881875,-0.855292 l 1.102008,0.197376 c 2.606404,2.686075 5.814935,3.607965 9.473997,2.960624 l 1.398074,-0.559231 c 1.258481,2.992156 1.332474,6.467737 6.908122,7.467354 l 3.026415,0.06579 c 3.225401,-0.630586 5.260894,-2.55024 6.38179,-5.460706 l 1.052666,-0.592124 c 6.682406,2.676024 8.823876,-0.37348 11.645121,-2.565877 l 0.986875,0.263168 c 4.483353,3.163568 7.106213,1.209781 10.638981,-0.03854 L 67.374071,66.753757 Z"
       id="path884"
       inkscape:connector-curvature="0"
       sodipodi:nodetypes="cccccccccccccc" />
    <path
       style="fill:#447821;fill-rule:evenodd;stroke:#000000;stroke-width:0.3;stroke-linecap:round;stroke-linejoin:round;stroke-opacity:1;stroke-miterlimit:4;stroke-dasharray:none"
       d="m 120.39871,97.585518 c -3.57439,4.558422 -2.78203,8.215322 1.18425,11.020102 l -0.85529,1.01977 c -7.70783,-1.37939 -9.21574,2.05319 -6.38179,8.48712 l -1.31583,0.65792 c -12.67407,-2.44418 -10.37659,7.09217 -9.474,9.53979 -0.50825,-0.14625 -0.22102,0.94726 -0.67564,0.85912 -8.508999,-4.06868 -11.703625,3.96338 -12.745855,7.95696 -22.743198,-32.24362 0.759603,-51.82715 30.264155,-39.540782 z"
       id="path866"
       inkscape:connector-curvature="0"
       sodipodi:nodetypes="ccccccccc" />
    <path
       style="fill:#447821;fill-rule:evenodd;stroke:#000000;stroke-width:0.3;stroke-linecap:round;stroke-linejoin:round;stroke-opacity:1;stroke-miterlimit:4;stroke-dasharray:none"
       d="m 82.798219,82.913981 c -2.296911,-0.503467 -2.59268,-3.118548 -0.262599,-5.460707 l -0.263168,-0.855292 c -4.189862,2.104491 -4.646491,1.059671 -2.894831,-4.079081 l -0.657918,-0.526333 c -4.07825,1.870389 -2.131845,-4.290144 -1.447415,-6.84233 -5.677396,6.660858 -9.433307,21.425907 5.525931,17.763743 z"
       id="path876"
       inkscape:connector-curvature="0"
       sodipodi:nodetypes="ccccccc" />
    <path
       style="fill:#2d5016;fill-rule:evenodd;stroke:#000000;stroke-width:0.3;stroke-linecap:round;stroke-linejoin:round;stroke-opacity:1;stroke-miterlimit:4;stroke-dasharray:none"
       d="m 75.551272,78.254875 c -0.49066,-0.01163 1.317405,-2.37066 3.050596,-5.991383 0.188966,-0.394759 1.46261,-1.410842 0.744348,0.186086 -1.330226,2.957521 -3.329727,6.642687 -3.329727,6.642687 0.39126,1.056403 3.711892,0.07114 6.255351,-2.451057 0.390431,-0.387168 0.99456,0.0078 0.372173,0.697827 -3.243739,3.59651 -6.54982,3.139445 -6.069263,2.637143 z"
       id="path872"
       inkscape:connector-curvature="0"
       sodipodi:nodetypes="csscsscc" />
    <path
       style="fill:#2d5016;fill-rule:evenodd;stroke:#000000;stroke-width:0.3;stroke-linecap:round;stroke-linejoin:round;stroke-opacity:1;stroke-miterlimit:4;stroke-dasharray:none"
       d="m 58.524322,82.162699 c -3.480117,-1.378095 -6.917968,-2.803153 -9.304343,-5.396518 -0.259413,-0.311296 0.173213,-0.903446 0.83739,-0.325655 3.177647,2.764346 10.331363,5.245775 10.141736,5.536086 0.04669,0.026 -5.050873,-7.032364 -5.62913,-12.18869 -0.09236,-0.823607 0.881838,-1.183233 0.930434,-0.372176 0.277742,4.635428 5.136615,11.585781 5.256956,11.537389 z"
       id="path870"
       inkscape:connector-curvature="0"
       sodipodi:nodetypes="ccscsscc" />
    <path
       style="fill:#2d5016;fill-rule:evenodd;stroke:#000000;stroke-width:0.3;stroke-linecap:round;stroke-linejoin:round;stroke-opacity:1;stroke-miterlimit:4;stroke-dasharray:none"
       d="m 91.845137,98.309228 c -0.556344,0.913994 17.018443,11.166732 29.474653,10.263492 1.3281,-0.0963 0.57093,0.94502 -0.52633,1.05267 -11.60449,1.13852 -31.320334,-10.238934 -29.737821,-10.526664 -1.849735,1.688884 12.775821,15.245804 23.553411,19.079574 0.93962,0.33424 -0.38802,1.1154 -1.18425,0.7895 -10.89547,-4.4596 -24.396627,-17.02848 -23.02708,-18.81641 -0.639649,0.31162 1.455493,22.65286 13.55308,28.42199 0.65906,0.3143 0.10983,1.19121 -1.31583,0.52634 -11.421343,-5.32647 -14.070068,-27.87308 -13.026748,-28.29041 z"
       id="path864"
       inkscape:connector-curvature="0"
       sodipodi:nodetypes="csscsscsscc" />
    <path
       id="path844"
       style="fill:#5aa02c;fill-rule:evenodd;stroke:#000000;stroke-width:0.30000001;stroke-linecap:round;stroke-linejoin:round;stroke-miterlimit:4;stroke-dasharray:none;stroke-opacity:1"
       d="m 75.086053,68.857486 c 0,0 -0.01976,6.827471 1.58174,9.676519 1.120901,1.994067 5.210432,4.466085 5.210432,4.466085 9.649945,-0.319752 10.194185,1.608469 14.979993,2.884346 7.840202,-1.010301 13.235052,-0.612497 21.567382,0.923821 0.8325,0.153497 1.79162,0.816486 2.51217,0.372174 11.46665,-5.374454 16.81202,-3.308946 25.57645,-6.057172 1.05878,-0.331996 2.30629,-0.605039 2.97739,-1.488696 1.99731,-2.629923 2.92204,-5.489777 5.21043,-6.792169 0.96624,-0.549918 1.91254,-1.13476 2.88435,-1.674784 0.98234,-0.545875 2.97739,-1.581737 2.97739,-1.581737 0.55543,2.239447 -1.03041,2.921599 -2.32609,3.814781 -0.42943,0.99723 -0.89938,1.95395 -1.67478,2.605214 0.76814,4.152754 -0.94576,5.078865 -1.76783,7.164345 0.9113,-1.950147 2.63123,-3.63217 1.73895,-7.137199 0.71276,-0.55839 1.1451,-1.236957 1.42453,-1.981057 0.0353,0.05878 6.82039,-3.225998 9.90114,-5.078848 1.16255,-0.69919 2.44612,0.329685 1.17103,1.357111 -3.01372,2.428362 -5.75523,3.404056 -7.53652,5.303475 -0.18753,0.199966 -0.0707,0.682508 0.37218,0.372173 2.97779,-2.086496 6.14249,-3.883068 9.11825,-5.768692 1.59307,-1.009469 2.57299,0.547498 1.30261,1.674781 -2.78967,2.475443 -7.16322,4.74556 -9.49043,6.140868 -0.40188,0.240951 -0.0744,0.887704 0.55826,0.55826 3.52573,-1.835813 6.07568,-3.566452 8.56,-4.373041 1.40491,-0.456135 1.93215,0.862203 1.02347,1.581738 -2.09517,1.659057 -6.0506,3.594007 -8.46695,5.11739 -0.18768,0.118324 -0.0699,0.421479 0.18609,0.372174 2.34797,-0.452191 4.63853,-1.471032 6.97826,-2.14 1.861,-0.532092 2.00127,1.112173 0.74434,1.953913 -2.65832,1.780223 -7.67987,3.280396 -8.37391,3.628694 -3.0185,1.803167 -6.4357,2.636713 -10.15301,3.129613 0.17299,0.07414 -2.07401,1.495156 -4.09391,1.767824 -7.5009,2.928158 -13.12286,6.148915 -26.30871,7.615535 -2.94706,0.785518 -2.26027,0.427169 -4.61363,0.311057 -5.70259,0.61427 -9.61212,1.515369 -24.625396,-0.06772 -2.381146,-0.251082 -3.679787,3.115418 -4.983068,5.123988 -0.778207,1.19935 -0.930433,4.18696 -0.930433,4.18696 l -42.96778,40.89954 c 0,0 -2.71183,5.52659 -4.116252,8.95758 -0.640632,3.17651 -1.737271,7.47629 -3.778745,9.99042 -1.035222,3.0491 -2.27818,6.18672 -3.486956,9.01346 -0.390711,0.91368 -2.284539,1.20426 -1.842168,-0.46055 0.548369,-2.06371 1.477915,-3.96432 1.644793,-6.2502 0.03471,-0.47543 -0.383267,-0.62315 -0.526333,-0.32896 -1.30865,2.691 -2.638087,5.12342 -4.177771,7.96079 -0.423249,0.77997 -2.152075,0.33602 -1.743477,-0.65792 1.14436,-2.78373 2.638664,-5.15573 4.01329,-8.09237 0.173964,-0.37164 -0.461831,-0.64268 -0.72371,-0.26317 -1.894574,2.74559 -3.661732,5.56358 -5.329122,8.15816 -0.816271,1.27018 -2.527983,0.71654 -1.710583,-0.98687 1.389847,-2.89635 3.143309,-5.37463 5.000165,-8.35554 0.310205,-0.49799 -0.382401,-0.61184 -0.657916,-0.32896 -1.686355,1.73144 -3.187831,3.88706 -5.000165,5.72387 -1.998695,2.0257 -2.547628,0.46311 -1.710583,-1.05266 1.122883,-2.03338 4.563664,-6.05382 4.299717,-6.23858 0.3896,-0.26904 0.642952,-0.6627 0.846666,-1.11763 1.065772,-0.28962 1.92096,-0.9583 2.677541,-1.80446 2.787624,0.54606 5.430259,-1.30006 6.905932,-3.12684 0.113841,-0.0853 -2.645152,3.64862 -6.885212,3.16347 -0.731313,0.59368 -1.294979,1.30184 -2.698261,1.76783 -1.06381,2.25323 -4.107645,2.24023 -4.186955,1.67478 -0.07134,0.0713 1.41989,-1.69365 2.512173,-2.97739 0.687465,-0.80797 1.427944,-1.59088 1.953912,-2.51217 1.395975,-2.4452 3.548743,-4.36465 5.954779,-5.86174 0.874318,-0.54402 1.658483,-1.42715 2.14,-3.4426 2.073545,-8.67909 2.887914,-15.7555 7.164345,-25.12173 0.520538,-1.14008 0.201125,-2.71338 -4e-6,-3.8613 -1.41012,-8.04811 -0.956257,-15.48435 4e-6,-20.40982 -1.075339,-5.561286 -1.678755,-11.320987 5.954779,-13.597563 2.331873,-0.33544 4.762791,-0.757345 6.792171,-1.95391 2.229167,-1.314364 4.348944,-3.166696 5.489565,-5.489565 1.074996,-2.189235 0.976956,-7.745866 0.976956,-7.745866 -4.22376,-17.511247 8.195104,-4.055928 14.003035,-3.23326 z"
       inkscape:connector-curvature="0"
       sodipodi:nodetypes="csccsccccsccccccssscssccscccsscccccscccccccsccscccscccsccccccccsssssccsccc" />
    <path
       style="fill:#5aa02c;fill-rule:evenodd;stroke:#000000;stroke-width:0.3;stroke-linecap:round;stroke-linejoin:round;stroke-opacity:1;stroke-miterlimit:4;stroke-dasharray:none"
       d="m 50.880586,109.41131 c 0.196965,-0.0219 3.157324,8.39006 1.338964,13.65742 -0.639284,1.85186 -1.308248,3.19689 -1.543971,5.0621 -0.339317,2.68493 -2.237965,5.51049 -3.242789,8.4234 -3.707865,10.74883 -2.054309,20.58455 -0.569092,29.6291 1.015633,6.18492 4.686369,18.2099 4.686369,18.2099 l -0.133895,3.6152 0.133895,-3.6152 c -2.661193,5.79224 -4.91716,13.22723 -5.489747,18.74547 -0.367946,3.86964 0.806304,7.77132 0.535585,11.64898 -0.0506,0.72479 -0.126833,1.46978 -0.40169,2.14234 -0.674789,1.65117 -2.028112,3.15328 -1.472859,5.08806 0.210743,0.73434 0.267793,2.00844 0.267793,2.00844 1.334314,-3.08426 0.699124,-2.04575 1.807601,-5.35585 -1.086409,3.32237 -0.384615,2.25787 -1.807601,5.35585 -0.451685,0.62986 -2.837834,5.76967 -3.061436,8.24938 -0.678432,2.30333 -2.068404,5.02157 0.785199,4.87246 1.609626,0.14413 3.191486,0.14504 4.686371,0 2.177439,-0.21126 2.719711,0.52321 2.945719,-1.33896 0.185606,-1.52928 -1.060794,-5.52237 0.669481,-4.28469 1.426971,1.02073 -0.126871,3.27264 0.937274,4.41858 0.859018,0.92504 2.554523,0.94378 3.749096,0.53559 0.874927,-0.29896 1.415037,-1.51059 1.205066,-2.54403 -0.884795,-4.35482 -1.900591,-8.80321 -1.87455,-13.1773 0.01018,-1.71061 0.334417,-3.41056 0.669484,-5.08806 1.376307,-6.89043 4.79379,-13.09438 6.560916,-19.89508 0.92561,-3.56217 1.826217,-7.13116 2.677925,-10.71171 4.129952,-11.33881 3.231512,-23.99122 3.749097,-34.00965 0.0528,-0.89162 1.455438,-1.18986 1.338963,0.1339 -0.882006,10.02414 0.185255,19.06975 1.338961,28.51991 0.305243,2.50029 0.597216,5.0024 0.937276,7.49819 0.371541,2.72683 0.336199,5.5564 1.205066,8.16767 2.562065,7.69997 5.567111,12.83723 6.42702,19.68275 0.256432,2.04139 -0.401688,6.15923 -0.401688,6.15923 l 2.47708,-5.48974 -2.343185,5.22195 c 0,0 -2.207904,6.31635 -3.21351,9.50664 -0.5732,1.81848 -1.004087,3.08189 -1.467188,4.93148 -0.371911,1.48538 0.454503,2.24329 1.978927,2.60756 1.32717,0.31713 2.07178,-0.047 3.22035,-0.0931 1.050611,-0.15188 1.786425,-3.73114 2.025451,-4.63417 0.243475,-0.98264 0.785345,-0.51332 1.071171,0.40169 0.346259,1.10847 -0.20859,2.388 0.334742,3.41435 0.394,0.74426 0.851631,1.22327 1.673702,1.40591 1.799592,0.39982 3.805794,-0.50713 5.623643,-0.20084 2.732241,0.46036 2.480081,-2.31673 2.142341,-4.21773 -0.574533,-3.2338 -2.030492,-6.33062 -3.112395,-9.44881 -0.296818,-0.85547 0.673059,-1.91339 0.458474,-2.77534 -0.168064,-0.67509 -1.310784,-1.6153 -1.296019,-2.3036 1.460531,-9.97973 4.866898,-21.01806 -1.666975,-28.89387 -0.896583,-1.04239 -1.522505,-2.08567 -1.747379,-3.44208 -0.175498,-1.05858 0.653554,-2.04478 0.937274,-3.07962 1.640063,-5.98198 3.304439,-11.97414 4.418576,-18.07599 2.161302,-11.83691 1.502142,-23.75815 -2.811823,-34.67914 -1.057856,-2.67801 -1.860561,-5.44997 -2.811819,-8.16767 -1.078833,-3.08217 -1.982225,-4.349 -0.133897,-7.63209 1.231723,-2.18785 3.256552,-8.31748 3.006293,-8.75133"
       id="path845"
       inkscape:connector-curvature="0"
       sodipodi:nodetypes="cssssccccssscccccsssssssssccssssscccsssccsssssssccssssssc" />
    <path
       style="fill:#5aa02c;fill-rule:evenodd;stroke:#000000;stroke-width:0.3;stroke-linecap:round;stroke-linejoin:round;stroke-opacity:1;stroke-miterlimit:4;stroke-dasharray:none"
       d="m 72.050692,105.74849 c 1.372969,5.58824 13.592214,6.82771 15.852215,0.11457 0.387702,-1.15164 0.70852,-2.42396 0.468635,-3.6152 -0.514662,-2.55575 -3.409173,-6.101893 -3.548248,-9.439688"
       id="path849"
       inkscape:connector-curvature="0"
       sodipodi:nodetypes="cssc" />
    <path
       style="fill:#17280b;fill-rule:evenodd;stroke:#000000;stroke-width:0.3;stroke-linecap:round;stroke-linejoin:round;stroke-opacity:1;stroke-miterlimit:4;stroke-dasharray:none"
       d="m 68.883852,150.58069 1.184251,-0.0329 0.131583,-6.2831 -1.085562,0.36186 z"
       id="path935"
       inkscape:connector-curvature="0" />
    <path
       style="fill:#447821;fill-rule:evenodd;stroke:#000000;stroke-width:0.3;stroke-linecap:round;stroke-linejoin:round;stroke-opacity:1;stroke-miterlimit:4;stroke-dasharray:none"
       d="m 55.465629,133.03553 c -0.38847,7.64656 8.292719,17.80036 13.188109,17.66347 1.234675,-0.86768 0.481644,-4.98298 0.36723,-5.56407 0.284036,1.23898 0.568073,0.33588 0.852109,0.0947 0.01656,2.18445 -0.16934,3.44903 0.177873,5.50861 5.564623,-0.0664 12.574909,-10.13945 12.502381,-16.15139 -1.997434,8.18653 -7.980898,13.08102 -10.85759,14.21054 -1.143011,0.4488 -0.767092,0.75441 -1.158968,-0.45967 -0.148502,-0.46008 -0.1586,-0.59409 0.144947,-1.41312 0.798677,-2.15499 -0.294601,-2.24023 -0.473097,-4.19454 -0.05586,-0.61161 -0.186565,3.41968 -1.702464,1.22318 -0.220612,-0.31966 -0.326985,2.46534 0.212399,3.20507 -1.137489,1.81126 -0.191358,-1.31263 -1.405533,0.13204 -0.758081,0.90458 -0.971177,-1.0468 -0.717811,-0.73291 -5.943563,-3.12098 -9.366771,-5.77238 -11.129582,-13.52191 z"
       id="path851"
       inkscape:connector-curvature="0"
       sodipodi:nodetypes="ccccccsssssccccc" />
    <path
       style="fill:#5aa02c;fill-rule:evenodd;stroke:#000000;stroke-width:0.3;stroke-linecap:round;stroke-linejoin:round;stroke-opacity:1;stroke-miterlimit:4;stroke-dasharray:none"
       d="m 64.270215,114.09768 c 0.146757,0.44027 2.109141,-2.36542 2.945717,-4.41858 0.661886,-1.62443 2.241799,-0.65464 2.677926,0.53559 0.925265,2.52513 4.199174,4.13365 4.150785,4.15078"
       id="path853"
       inkscape:connector-curvature="0"
       sodipodi:nodetypes="cssc" />
    <path
       style="fill:#447821;fill-rule:evenodd;stroke:#000000;stroke-width:0.3;stroke-linecap:round;stroke-linejoin:round;stroke-opacity:1;stroke-miterlimit:4;stroke-dasharray:none"
       d="m 81.9106,107.12531 c -2.861045,-1.45561 0.215875,-4.97792 2.631665,-3.61854 1.538606,0.86578 0.35398,5.13754 -2.631665,3.61854 z"
       id="path822"
       inkscape:connector-curvature="0"
       sodipodi:nodetypes="sss" />
    <path
       style="fill:#447821;fill-rule:evenodd;stroke:#000000;stroke-width:0.3;stroke-linecap:round;stroke-linejoin:round;stroke-opacity:1;stroke-miterlimit:4;stroke-dasharray:none"
       d="m 82.469828,105.25025 c -0.223934,1.72918 1.966916,0.80833 1.381625,-0.32896"
       id="path828"
       inkscape:connector-curvature="0"
       sodipodi:nodetypes="cc" />
    <path
       style="fill:#5aa02c;fill-rule:evenodd;stroke:#000000;stroke-width:0.3;stroke-linecap:round;stroke-linejoin:round;stroke-opacity:1;stroke-miterlimit:4;stroke-dasharray:none"
       d="m 51.73215,111.28529 c 0.159354,4.27479 5.091759,4.26225 5.824933,7.95932 2.189534,11.04084 0.860278,21.61755 11.015931,21.44241"
       id="path830"
       inkscape:connector-curvature="0"
       sodipodi:nodetypes="csc" />
    <path
       style="fill:#447821;fill-rule:evenodd;stroke:#000000;stroke-width:0.3;stroke-linecap:round;stroke-linejoin:round;stroke-opacity:1;stroke-miterlimit:4;stroke-dasharray:none"
       d="m 68.039849,131.2257 c 3.109544,-2.53511 3.457133,4.41175 0.251877,2.80839"
       id="path832"
       inkscape:connector-curvature="0"
       sodipodi:nodetypes="cc" />
    <path
       style="fill:#5aa02c;fill-rule:evenodd;stroke:#000000;stroke-width:0.3;stroke-linecap:round;stroke-linejoin:round;stroke-opacity:1;stroke-miterlimit:4;stroke-dasharray:none"
       d="m 50.36921,94.860402 c 0,0 0.671621,2.719445 0.473395,4.071197 -0.289206,1.972171 -2.086633,4.090311 -2.103808,6.083501 0.309578,8.09028 15.66997,9.82425 16.116295,1.49082"
       id="path847"
       inkscape:connector-curvature="0"
       sodipodi:nodetypes="cscc" />
    <path
       style="fill:#447821;fill-rule:evenodd;stroke:#000000;stroke-width:0.3;stroke-linecap:round;stroke-linejoin:round;stroke-opacity:1;stroke-miterlimit:4;stroke-dasharray:none"
       d="m 51.45302,104.53965 c -1.149046,1.63286 1.185554,5.20523 2.884347,2.97738 1.686839,-2.21218 -2.012003,-4.21703 -2.884347,-2.97738 z"
       id="path824"
       inkscape:connector-curvature="0"
       sodipodi:nodetypes="sss" />
    <path
       style="fill:#447821;fill-rule:evenodd;stroke:#000000;stroke-width:0.3;stroke-linecap:round;stroke-linejoin:round;stroke-opacity:1;stroke-miterlimit:4;stroke-dasharray:none"
       d="m 52.336934,105.58638 c -0.801128,0.8779 0.713092,1.98386 1.186303,1.00022"
       id="path826"
       inkscape:connector-curvature="0"
       sodipodi:nodetypes="cc" />
    <path
       style="fill:#5aa02c;fill-rule:evenodd;stroke:#000000;stroke-width:0.3;stroke-linecap:round;stroke-linejoin:round;stroke-opacity:1;stroke-miterlimit:4;stroke-dasharray:none"
       d="m 60.203348,67.803795 c 1.311174,6.411247 2.632522,12.186009 4.140881,17.215519"
       id="path838"
       inkscape:connector-curvature="0"
       sodipodi:nodetypes="cc" />
    <path
       style="fill:#5aa02c;fill-rule:evenodd;stroke:#000000;stroke-width:0.3;stroke-linecap:round;stroke-linejoin:round;stroke-opacity:1;stroke-miterlimit:4;stroke-dasharray:none"
       d="m 53.620192,87.387813 c 1.260447,1.166069 6.000086,-0.255618 8.256849,-1.019771 2.099912,-0.711042 5.138111,1.604045 4.375146,2.13823"
       id="path840"
       inkscape:connector-curvature="0"
       sodipodi:nodetypes="csc" />
    <path
       style="fill:#5aa02c;fill-rule:evenodd;stroke:#000000;stroke-width:0.3;stroke-linecap:round;stroke-linejoin:round;stroke-opacity:1;stroke-miterlimit:4;stroke-dasharray:none"
       d="m 69.700823,88.748143 c -0.397661,-0.499229 0.834489,-2.618708 3.190729,-2.539423 2.903925,0.09771 8.716464,-1.089232 8.55669,-1.565775"
       id="path868"
       inkscape:connector-curvature="0"
       sodipodi:nodetypes="csc" />
    <path
       style="fill:#2d5016;fill-rule:evenodd;stroke:#000000;stroke-width:0.3;stroke-linecap:round;stroke-linejoin:round;stroke-opacity:1;stroke-miterlimit:4;stroke-dasharray:none"
       d="m 83.832137,48.015757 c -3.257369,3.069337 4.008107,-10.15593 6.606083,-18.515644 0.319365,-1.027647 -0.533905,-1.211163 -0.952041,-0.30872 -2.483548,5.360127 -4.276551,10.710736 -7.165998,15.637626 -0.172819,0.294679 -0.541768,0.119216 -0.55826,-0.139565 -0.299086,-4.693189 -0.836589,-9.780409 -4.117173,-12.723689 -0.896061,-0.803929 -1.950855,-0.140927 -1.0883,0.651303 5.238159,4.811081 3.38651,16.705814 3.972648,15.910428 l -0.697826,2.837825 1.767824,0.372174 z"
       id="path880"
       inkscape:connector-curvature="0"
       sodipodi:nodetypes="csssssscccc" />
    <path
       style="fill:#2d5016;fill-rule:evenodd;stroke:#000000;stroke-width:0.3;stroke-linecap:round;stroke-linejoin:round;stroke-opacity:1;stroke-miterlimit:4;stroke-dasharray:none"
       d="m 52.429978,45.87576 c 0,0 0.921378,0.43549 0.883912,0.139565 -0.688407,-5.437354 -2.84695,-11.632549 -5.024347,-18.09695 -0.314999,-0.935191 0.708932,-0.780082 0.976958,-0.186086 3.520937,7.803049 5.413372,19.221184 5.256953,19.818251 0.06574,0.06574 1.449475,-12.504152 5.024345,-17.259559 0.37537,-0.499329 1.462966,-0.639228 0.790871,0.325655 -3.421232,4.911637 -4.791739,17.306078 -4.791739,17.306078 l 0.09304,3.768259 -1.302608,0.139565 z"
       id="path882"
       inkscape:connector-curvature="0"
       sodipodi:nodetypes="cssscsscccc" />
    <path
       style="fill:#5aa02c;fill-rule:evenodd;stroke:#000000;stroke-width:0.3;stroke-linecap:round;stroke-linejoin:round;stroke-opacity:1;stroke-miterlimit:4;stroke-dasharray:none"
       d="m 56.105194,60.483577 c 0.840274,0.539231 -4.178654,6.537548 -4.093911,0.372174 0.01465,-1.065732 -3e-6,-3.163475 -3e-6,-3.163475 -2.090438,-3.045601 -1.936335,-6.839382 -2.698257,-10.327822 0,0 -2.433985,-7.071892 -4.373042,-10.234779 -1.808262,-2.949541 -3.99622,-5.182605 -6.885215,-7.815649 -1.425127,-1.298867 0.554547,-1.177744 1.209564,-0.651304 4.430175,3.56055 6.646324,7.278762 9.490432,11.258256 2.433997,3.405665 6.419996,10.79304 6.419996,10.79304 0.911986,-17.612874 25.783133,-16.12584 25.400859,-0.186087 0,0 3.929998,-4.317668 5.954779,-6.419998 4.685656,-4.865119 8.913683,-10.291065 14.328694,-14.32869 0.93342,-0.695991 1.86851,-0.454566 0.6513,0.651306 -4.442335,4.035992 -7.775003,6.941258 -10.793039,11.258254 -2.008367,2.872766 -5.582606,8.839128 -5.582606,8.839128 -0.248546,2.697829 -1.209608,4.683143 -2.14,6.699126 0,0 -0.132398,0.929399 -0.186087,1.395653 -0.548266,4.761293 -3.657368,2.668995 -3.721737,1.767824 0.347489,0.0695 -1.804815,5.421159 -3.628692,7.908692 -1.107942,1.51109 -1.562511,2.731316 -2.465651,4.373043 -0.571777,1.039377 -1.572515,1.659298 -2.605218,1.674781 -1.311659,0.01967 -2.477803,0.141333 -3.784222,0.02257 -1.028641,-0.0935 -1.550663,-0.03805 -3.100993,-1.97649 -1.284075,-1.60553 -2.705642,-3.949413 -3.954346,-5.582605 -1.373455,-1.796354 -3.478418,-6.25533 -3.442605,-6.326955 z"
       id="path878"
       inkscape:connector-curvature="0"
       sodipodi:nodetypes="csccssssccssssccscsssssscc" />
    <path
       style="fill:#447821;fill-rule:evenodd;stroke:#000000;stroke-width:0.3;stroke-linecap:round;stroke-linejoin:round;stroke-opacity:1;stroke-miterlimit:4;stroke-dasharray:none"
       d="m 58.198356,57.140989 c 0,0 0.987363,-3.290161 1.935209,-3.241123 1.75873,0.09099 3.855336,-0.0056 5.329121,0.460541 1.235269,0.390673 2.442476,3.469213 2.078082,4.712487 m 0,0 c -0.829857,2.831385 -0.865101,2.245598 -1.721863,4.797309 -0.519738,1.547945 0.53022,2.620825 0.844003,2.161204"
       id="path886"
       inkscape:connector-curvature="0"
       sodipodi:nodetypes="cssccsc" />
    <path
       style="fill:#447821;fill-rule:evenodd;stroke:#000000;stroke-width:0.3;stroke-linecap:round;stroke-linejoin:round;stroke-opacity:1;stroke-miterlimit:4;stroke-dasharray:none"
       d="m 69.549969,59.134449 c -0.07617,-1.336583 0.817851,-3.943922 1.953914,-4.652172 1.564699,-0.975472 3.698902,-1.274405 5.582605,-1.442175 1.61989,-0.144274 1.379209,3.929279 1.349129,3.954346"
       id="path888"
       inkscape:connector-curvature="0"
       sodipodi:nodetypes="cssc" />
    <path
       style="fill:#008033;fill-rule:evenodd;stroke:#000000;stroke-width:0.3;stroke-linecap:round;stroke-linejoin:round;stroke-opacity:1;stroke-miterlimit:4;stroke-dasharray:none"
       d="m 66.746009,58.804122 c -3.068353,1.020816 -5.921126,1.46635 -6.915774,-2.244332 2.988696,-0.831501 6.380553,-0.05776 6.915774,2.244332 z"
       id="path890"
       inkscape:connector-curvature="0"
       sodipodi:nodetypes="ccc" />
    <path
       style="fill:#008033;fill-rule:evenodd;stroke:#000000;stroke-width:0.3;stroke-linecap:round;stroke-linejoin:round;stroke-opacity:1;stroke-miterlimit:4;stroke-dasharray:none"
       d="m 70.175391,58.924416 c 1.546808,-3.695863 4.38223,-2.629881 6.513041,-2.77534 -0.805039,4.388826 -3.956789,3.25234 -6.513041,2.77534 z"
       id="path892"
       inkscape:connector-curvature="0"
       sodipodi:nodetypes="ccc" />
    <path
       id="path894"
       style="fill:#447821;fill-rule:evenodd;stroke:#000000;stroke-width:0.3;stroke-linecap:round;stroke-linejoin:round;stroke-opacity:1;stroke-miterlimit:4;stroke-dasharray:none"
       d="m 71.383935,68.83456 c -0.56968,-0.410784 -1.234066,-1.032192 -2.32363,-1.174615 -0.493476,0.429014 -0.641789,0.874174 -1.492284,0.02327 -0.898867,0.223126 -2.172385,0.566712 -2.631667,1.315834 -0.492046,0.301942 -0.958538,-0.02756 -0.832031,-0.373829 -0.117656,0.09805 0.11682,0.615028 0.58648,0.470179 0.935563,-0.288539 1.837388,-0.716277 2.712738,-0.277762 0.513615,0.257301 1.104305,0.400329 1.546103,0.09869 0.885068,-0.604284 1.886137,-0.223213 2.776876,0.01859 0.609826,0.100828 0.484958,-0.403233 0.446916,-0.429298 0.186978,0.591054 -0.529829,0.460211 -0.789501,0.328941 z"
       inkscape:connector-curvature="0"
       sodipodi:nodetypes="cccccsssccc" />
    <path
       style="fill:#5aa02c;fill-rule:evenodd;stroke:#000000;stroke-width:0.3;stroke-linecap:round;stroke-linejoin:round;stroke-opacity:1;stroke-miterlimit:4;stroke-dasharray:none"
       d="m 66.581146,69.624068 c 1.184249,0.487059 2.138228,1.012618 3.322477,0.0329"
       id="path898"
       inkscape:connector-curvature="0"
       sodipodi:nodetypes="cc" />
    <path
       id="path902"
       style="fill:#2d5016;fill-rule:evenodd;stroke:#000000;stroke-width:0.3;stroke-linecap:round;stroke-linejoin:round;stroke-opacity:1;stroke-miterlimit:4;stroke-dasharray:none"
       d="m 67.896977,65.512092 c 0.139333,-1.597011 0.09764,-2.962798 0.224629,-4.716358 0.022,-0.303715 -0.159,-0.535641 -0.361854,0 -0.62767,1.657374 -1.360999,3.342876 -1.375982,4.420294 -0.002,0.144212 0.427646,0.06579 0.427646,0.06579 0,0 0.240307,-1.844983 0.493437,-1.414521 0.164324,0.279443 0.204427,1.52227 0.263168,1.480312 0,0 0.3183,0.286614 0.328956,0.164483 z m 0.986875,-0.427646 c 0.0385,-1.626043 -0.0846,-2.504201 0.04418,-4.072069 0.05067,-0.616881 0.1278,-0.274083 0.23027,0.03289 0.489811,1.467339 0.826525,1.89633 1.041379,3.677319 0.04046,0.335362 -0.23027,0.986875 -0.23027,0.986875 0,0 -0.524973,-2.007501 -0.592127,-1.480312 -0.0421,0.330488 -0.302848,1.431926 -0.328956,1.414521 0,0 -0.16908,-0.364975 -0.164481,-0.559224 z"
       inkscape:connector-curvature="0"
       sodipodi:nodetypes="ccsccccccccccccc" />
    <path
       style="fill:#abc837;fill-rule:evenodd;stroke:#000000;stroke-width:0.3;stroke-linecap:round;stroke-linejoin:round;stroke-opacity:1;stroke-miterlimit:4;stroke-dasharray:none"
       d="m 80.057145,59.537307 c 1.29728,-1.25153 4.745259,0.394168 3.092207,2.76325 -1.729636,2.478838 -4.90619,-1.013239 -3.092207,-2.76325 z"
       id="path904"
       inkscape:connector-curvature="0"
       sodipodi:nodetypes="sss" />
    <path
       style="fill:#800000;fill-rule:evenodd;stroke:#000000;stroke-width:0.3;stroke-linecap:round;stroke-linejoin:round;stroke-opacity:1;stroke-miterlimit:4;stroke-dasharray:none"
       d="m 80.846643,60.261017 c -0.766917,0.433204 0.05577,2.5923 1.513208,1.710581 0.781627,-0.47287 -0.03318,-2.546599 -1.513208,-1.710581 z"
       id="path906"
       inkscape:connector-curvature="0"
       sodipodi:nodetypes="sss" />
    <path
       style="fill:#abc837;fill-rule:evenodd;stroke:#000000;stroke-width:0.3;stroke-linecap:round;stroke-linejoin:round;stroke-opacity:1;stroke-miterlimit:4;stroke-dasharray:none"
       d="m 80.691921,63.600533 c 0.783874,-0.687474 2.07837,0.480149 1.256086,1.232827 -1.151156,1.053711 -2.07288,-0.516481 -1.256086,-1.232827 z"
       id="path908"
       inkscape:connector-curvature="0"
       sodipodi:nodetypes="sss" />
    <path
       style="fill:#abc837;fill-rule:evenodd;stroke:#000000;stroke-width:0.3;stroke-linecap:round;stroke-linejoin:round;stroke-opacity:1;stroke-miterlimit:4;stroke-dasharray:none"
       d="m 80.203444,70.485748 c -0.801173,0.813746 0.430395,2.830344 1.535215,1.674781 1.354553,-1.416766 -0.829694,-2.391375 -1.535215,-1.674781 z"
       id="path910"
       inkscape:connector-curvature="0"
       sodipodi:nodetypes="sss" />
    <path
       style="fill:#abc837;fill-rule:evenodd;stroke:#000000;stroke-width:0.3;stroke-linecap:round;stroke-linejoin:round;stroke-opacity:1;stroke-miterlimit:4;stroke-dasharray:none"
       d="m 80.715182,70.160096 0.744347,-0.83739 -0.790868,-0.651307 0.697825,-0.83739 -0.83739,-0.744347 0.883912,-0.697825 -0.837391,-0.651304 0.790869,-0.604784 -0.651304,-0.232609 0.651304,0.883915 -0.790869,0.55826 0.744347,0.744347 -0.651303,0.744347 0.697825,0.604782 -0.55826,0.837393 0.744347,1.069999 z"
       id="path912"
       inkscape:connector-curvature="0" />
    <path
       style="fill:#e3dbdb;fill-rule:evenodd;stroke:#000000;stroke-width:0.3;stroke-linecap:round;stroke-linejoin:round;stroke-opacity:1;stroke-miterlimit:4;stroke-dasharray:none"
       d="m 53.949148,60.215864 c -1.727462,0.185718 -1.727986,1.193518 -0.820744,2.159493 0.628244,-0.127532 1.811718,-0.991179 0.820744,-2.159493 z"
       id="path914"
       inkscape:connector-curvature="0"
       sodipodi:nodetypes="ccc" />
    <path
       style="fill:#e3dbdb;fill-rule:evenodd;stroke:#000000;stroke-width:0.3;stroke-linecap:round;stroke-linejoin:round;stroke-opacity:1;stroke-miterlimit:4;stroke-dasharray:none"
       d="m 55.613896,61.941383 c 1.798247,1.764823 0.06082,3.340496 -1.401581,4.590479 0.392382,-1.074597 1.99992,-2.253869 0.139565,-3.328466 0.56736,-0.482275 0.911709,-0.809477 1.262016,-1.262013 z"
       id="path916"
       inkscape:connector-curvature="0"
       sodipodi:nodetypes="cccc" />
    <path
       style="fill:#447821;fill-rule:evenodd;stroke:#000000;stroke-width:0.3;stroke-linecap:round;stroke-linejoin:round;stroke-opacity:1;stroke-miterlimit:4;stroke-dasharray:none"
       d="m 80.76638,54.450916 c 0.731951,0.926122 1.060819,1.627938 0.01129,2.675685 -1.180522,1.178515 0.178963,1.001619 0.725077,1.167717 0.495169,-0.932039 1.178025,-1.884932 0.604782,-2.698258 1.098588,-0.918568 1.776496,-2.599128 1.578434,-4.640886 -0.07022,-0.723908 -0.774991,0.350827 -1.252782,1.663496"
       id="path918"
       inkscape:connector-curvature="0"
       sodipodi:nodetypes="csccsc" />
    <path
       style="fill:#2d5016;fill-rule:evenodd;stroke:#000000;stroke-width:0.3;stroke-linecap:round;stroke-linejoin:round;stroke-opacity:1;stroke-miterlimit:4;stroke-dasharray:none"
       d="m 55.067606,55.018323 c -0.302153,-0.161149 -1.582693,1.443438 2e-6,3.355374 0.338236,0.408598 -1.381625,0.789501 -1.381625,0.789501 -0.876584,-0.7895 -0.595073,-1.579 -0.460542,-2.3685 0.100197,0.02505 -2.064051,-4.18551 -1.578999,-5.394915 0.288855,-0.720216 1.578999,1.710582 1.578999,1.710582"
       id="path920"
       inkscape:connector-curvature="0"
       sodipodi:nodetypes="csccsc" />
    <path
       style="fill:#5aa02c;fill-rule:evenodd;stroke:#000000;stroke-width:0.3;stroke-linecap:round;stroke-linejoin:round;stroke-opacity:1;stroke-miterlimit:4;stroke-dasharray:none"
       d="m 79.213142,60.150073 c -0.810519,1.359694 -0.55101,2.916762 -3.158001,4.276456"
       id="path922"
       inkscape:connector-curvature="0"
       sodipodi:nodetypes="cc" />
    <path
       style="fill:#447821;fill-rule:evenodd;stroke:#000000;stroke-width:0.3;stroke-linecap:round;stroke-linejoin:round;stroke-opacity:1;stroke-miterlimit:4;stroke-dasharray:none"
       d="m 56.105194,60.48357 c 0.915188,2.413892 1.47999,2.819074 3.041494,3.679791 2.498873,2.553516 3.523281,6.172185 4.932922,8.881306 -1.189441,-1.339239 -1.383874,-1.948797 -2.790633,-3.7757 -1.585642,-2.05921 -4.022102,-5.69046 -5.183783,-8.785397 z"
       id="path924"
       inkscape:connector-curvature="0"
       sodipodi:nodetypes="cccsc" />
    <path
       style="fill:#677821;fill-rule:evenodd;stroke:#000000;stroke-width:0.3;stroke-linecap:round;stroke-linejoin:round;stroke-opacity:1;stroke-miterlimit:4;stroke-dasharray:none"
       d="m 68.532319,53.176159 c 0,0 2.795615,-6.377714 6.052832,-6.176034 1.07789,0.06674 1.893126,1.686064 1.315832,2.59877 -1.124267,1.777474 -1.90089,-0.01178 -1.710584,-0.328956 -1.116934,0.921888 0.810135,3.252581 2.697459,0.789498 1.156711,-1.509585 -0.460698,-4.239117 -2.302708,-4.40804 -2.845603,-0.260958 -6.195703,4.235179 -6.195703,4.235179 0,0 -3.373318,-5.109647 -5.755799,-4.934374 -1.666972,0.122635 -3.307917,1.947165 -3.289585,3.618541 0.05023,4.579256 4.45923,2.00343 4.276458,1.25004 -0.158517,0.792587 -3.372979,2.1522 -3.092207,-1.381623 0.07517,-0.946133 1.093988,-1.858523 2.03954,-1.776376 2.380979,0.206852 5.799965,6.583875 5.964465,6.513375 z"
       id="path926"
       inkscape:connector-curvature="0"
       sodipodi:nodetypes="csscsscsscssc" />
    <path
       style="fill:#677821;fill-rule:evenodd;stroke:#000000;stroke-width:0.3;stroke-linecap:round;stroke-linejoin:round;stroke-opacity:1;stroke-miterlimit:4;stroke-dasharray:none"
       d="m 64.618668,41.037499 c 1.344882,2.282632 3.433931,4.387011 3.76826,6.140867 1.061737,-2.001446 1.560145,-4.359635 3.209998,-6.373476 -1.384399,0.82751 -3.161145,1.458848 -3.628694,2.744783 -0.496335,-0.849616 -1.837114,-2.068452 -3.349564,-2.512174 z"
       id="path928"
       inkscape:connector-curvature="0"
       sodipodi:nodetypes="ccccc" />
    <path
       style="fill:#677821;fill-rule:evenodd;stroke:#000000;stroke-width:0.3;stroke-linecap:round;stroke-linejoin:round;stroke-opacity:1;stroke-miterlimit:4;stroke-dasharray:none"
       d="m 64.146855,38.570413 c 1.81194,0.315323 2.89704,1.357485 3.750122,2.631665 0.839496,-1.359979 2.013572,-2.354962 3.815916,-2.664561 -2.215046,-0.646821 -4.736937,-0.636116 -7.566038,0.0329 z"
       id="path930"
       inkscape:connector-curvature="0"
       sodipodi:nodetypes="cccc" />
    <path
       style="fill:#d5ffe6;fill-rule:evenodd;stroke:#000000;stroke-width:0.3;stroke-linecap:round;stroke-linejoin:round;stroke-opacity:1;stroke-miterlimit:4;stroke-dasharray:none"
       d="m 73.602507,57.582301 c 0.681323,0.861004 2.141006,0.219781 1.116521,-1.070002 -0.713292,-0.898005 -1.817657,0.18396 -1.116521,1.070002 z"
       id="path937"
       inkscape:connector-curvature="0"
       sodipodi:nodetypes="sss" />
    <path
       style="fill:#d5ffe6;fill-rule:evenodd;stroke:#000000;stroke-width:0.3;stroke-linecap:round;stroke-linejoin:round;stroke-opacity:1;stroke-miterlimit:4;stroke-dasharray:none"
       d="m 63.598784,57.989591 c 0.681323,0.861004 2.141006,0.219781 1.116521,-1.070002 -0.713292,-0.898005 -1.817657,0.18396 -1.116521,1.070002 z"
       id="path937-6"
       inkscape:connector-curvature="0"
       sodipodi:nodetypes="sss" />
    <path
       style="fill:#002b11;fill-rule:evenodd;stroke:#000000;stroke-width:0.3;stroke-linecap:round;stroke-linejoin:round;stroke-opacity:1;stroke-miterlimit:4;stroke-dasharray:none"
       d="m 61.548083,56.334157 c -0.766002,1.617892 0.145452,2.470684 0.625023,2.993519 -0.936858,-0.205825 -1.882132,-0.966549 -2.302709,-2.829041 z"
       id="path954"
       inkscape:connector-curvature="0"
       sodipodi:nodetypes="cccc" />
    <path
       style="fill:#002b11;fill-rule:evenodd;stroke:#000000;stroke-width:0.3;stroke-linecap:round;stroke-linejoin:round;stroke-opacity:1;stroke-miterlimit:4;stroke-dasharray:none"
       d="m 71.81158,56.794698 c -0.455774,1.453529 0.202573,2.230626 1.480312,2.631665 -0.987957,-0.08 -2.009334,-0.260269 -3.059311,-0.526333 0.336963,-0.945253 0.809263,-1.716501 1.578999,-2.105332 z"
       id="path956"
       inkscape:connector-curvature="0"
       sodipodi:nodetypes="cccc" />
    <path
       style="fill:#d5ffe6;fill-rule:evenodd;stroke:#000000;stroke-width:0.3;stroke-linecap:round;stroke-linejoin:round;stroke-opacity:1;stroke-miterlimit:4;stroke-dasharray:none"
       d="m 73.077841,57.299179 c -0.520592,0 -0.395897,0.721085 0.186087,0.721085 0.450155,0 0.30136,-0.721085 -0.186087,-0.721085 z"
       id="path958"
       inkscape:connector-curvature="0"
       sodipodi:nodetypes="sss" />
    <path
       style="fill:#d5ffe6;fill-rule:evenodd;stroke:#000000;stroke-width:0.3;stroke-linecap:round;stroke-linejoin:round;stroke-opacity:1;stroke-miterlimit:4;stroke-dasharray:none"
       d="m 63.030422,57.519718 c -0.520592,0 -0.395897,0.721085 0.186087,0.721085 0.450154,0 0.30136,-0.721085 -0.186087,-0.721085 z"
       id="path958-7"
       inkscape:connector-curvature="0"
       sodipodi:nodetypes="sss" />
    <path
       id="path1013-6-2-9-7"
       style="fill:#677821;fill-rule:evenodd;stroke:#000000;stroke-width:0.3;stroke-linecap:round;stroke-linejoin:round;stroke-opacity:1;stroke-miterlimit:4;stroke-dasharray:none"
       d="m 74.206987,183.48091 c -0.163078,-1.20856 1.070933,-1.47784 1.075242,0.21527 0.0039,1.53308 -0.921599,0.92337 -1.075242,-0.21527 z m -0.784068,-3.31223 c -0.163078,-1.20856 1.070933,-1.47784 1.075242,0.21527 0.0039,1.53308 -0.921599,0.92337 -1.075242,-0.21527 z M 87.941455,165.1827 c 0.235728,-1.19652 0.825977,-1.29003 0.74959,0.40136 -0.07036,1.55783 -1.000479,0.87212 -0.74959,-0.40136 z m 0.264099,-3.20399 c 0.235728,-1.19652 0.825977,-1.29003 0.74959,0.40136 -0.07036,1.55783 -1.000479,0.87212 -0.74959,-0.40136 z m -8.048258,13.16564 c 0.641453,-1.03719 2.32225,-0.39692 1.447416,1.05266 -0.526884,0.87304 -1.976722,-0.19681 -1.447416,-1.05266 z m -0.143367,-3.26079 c 0.641453,-1.03719 2.32225,-0.39692 1.447416,1.05266 -0.526884,0.87304 -1.976722,-0.19681 -1.447416,-1.05266 z m -7.626134,7.78866 c -0.116441,3.25449 1.183443,6.15082 1.34913,8.97869 -1.455578,-0.57117 -1.583247,-2.95876 -1.953912,-5.30347 z M 89.04257,158.64441 c 0.883093,1.76415 0.83368,3.76143 0.744347,5.76869 2.50602,-3.78377 2.069683,-7.56753 2.512173,-11.3513 -0.472099,2.22654 -0.474863,5.34883 -1.647531,7.264 -0.354609,-0.47692 -0.733422,-1.55177 -1.608989,-1.68139 z M 78.714747,170.8331 c -0.132948,3.69072 -0.257845,7.38144 -1.11652,11.07216 -1.299379,-1.70902 -2.732813,-3.28399 -3.442608,-5.5826 0.807799,0.71049 1.561632,1.52891 2.605217,1.76782 0.952205,-2.01792 1.332738,-4.79808 1.953911,-7.25738 z m 2.233044,-2.69827 c 2.004579,1.96194 2.244073,4.05966 2.69826,6.14087 2.548461,-4.17343 2.9625,-7.67509 3.288448,-12.46588 -0.761092,3.3749 -0.650907,5.29254 -2.962796,8.46502 -0.646779,-0.73442 -1.441744,-1.75636 -3.023912,-2.14001 z m -9.343742,13.48962 c -0.422107,-2.16624 1.084673,-5.09838 3.035886,-7.83352 0.465898,0.909 0.924857,1.19612 1.524575,1.69631 0.327717,-1.47942 0.49673,-2.96216 0.741705,-4.50266 1.437668,-1.69118 3.506296,-4.15908 5.124553,-5.92598 1.731214,0.80009 1.721187,1.42502 2.070812,2.28595 0.599911,-2.05405 1.32548,-3.82897 1.33468,-5.88302 1.453915,-1.69548 2.799789,-3.38931 3.900015,-5.05546 0.895322,0.44147 0.906585,1.19116 1.231203,1.76521 0.357554,-1.90865 0.885779,-3.91799 1.018149,-6.10813 0.520262,-1.49064 0.650462,-2.82077 0.418199,-4.20183 -0.06612,-0.80969 -0.135992,-1.61939 -0.262996,-2.42908 1.790208,10.64474 -22.098449,25.1735 -20.399776,33.89106 z m 4.008842,19.36244 c -0.407413,-0.037 -3.768219,-11.36402 3.223625,-18.78349 4.704505,-4.99224 13.506171,-18.43468 12.653907,-19.63216 0.245771,0.62315 -0.315606,2.20907 -0.444596,3.23751 -0.160773,1.28184 -6.882224,12.96514 -11.58673,17.95738 -6.991841,7.41947 -3.364006,18.80002 -3.190729,18.91507 z" />
    <path
       style="fill:#bec8b7;fill-rule:evenodd;stroke:#000000;stroke-width:0.3;stroke-linecap:round;stroke-linejoin:round;stroke-opacity:1;stroke-miterlimit:4;stroke-dasharray:none"
       d="m 76.430077,234.16646 c -0.04745,-1.7125 3.965885,-1.79816 4.544174,0.18609 0.132754,0.45551 -1.45718,-0.69123 -2.322326,0.38167 -0.346392,-1.08565 -2.217786,-0.4212 -2.221848,-0.56776 z"
       id="path1117"
       inkscape:connector-curvature="0"
       sodipodi:nodetypes="sscs" />
    <path
       style="fill:#bec8b7;fill-rule:evenodd;stroke:#000000;stroke-width:0.3;stroke-linecap:round;stroke-linejoin:round;stroke-opacity:1;stroke-miterlimit:4;stroke-dasharray:none"
       d="m 85.22318,234.64131 c -1.074773,-2.13725 7.326864,-1.53914 6.015144,0.0698 -0.178603,0.21907 -2.36724,-0.28922 -2.928296,0.68833 -0.768182,-1.17303 -3.033889,-0.6528 -3.086848,-0.75811 z"
       id="path1119"
       inkscape:connector-curvature="0"
       sodipodi:nodetypes="cscsc" />
    <path
       style="fill:#bec8b7;fill-rule:evenodd;stroke:#000000;stroke-width:0.3;stroke-linecap:round;stroke-linejoin:round;stroke-opacity:1;stroke-miterlimit:4;stroke-dasharray:none"
       d="m 42.734647,233.6162 c -0.980863,-2.13725 6.686675,-1.53914 5.489565,0.0698 -0.163,0.21907 -2.094608,-0.29019 -2.606638,0.68736 -0.701065,-1.17303 -2.882927,-0.64127 -2.882927,-0.75714 z"
       id="path1119-0"
       inkscape:connector-curvature="0"
       sodipodi:nodetypes="cscsc" />
    <path
       style="fill:#bec8b7;fill-rule:evenodd;stroke:#000000;stroke-width:0.3;stroke-linecap:round;stroke-linejoin:round;stroke-miterlimit:4;stroke-dasharray:none;stroke-opacity:1"
       d="m 52.128809,233.47506 c -0.162103,-1.70534 3.438787,-2.043 4.096921,-0.0999 0.151084,0.44606 -1.268262,-0.34138 -1.970944,0.78326 -0.387041,-1.06122 -2.112102,-0.53738 -2.125977,-0.68333 z"
       id="path1117-9"
       inkscape:connector-curvature="0"
       sodipodi:nodetypes="sscs" />
  </g>
</svg>
